<?xml version="1.0" encoding="UTF-8"?>
<svg version="1.1" xmlns="http://www.w3.org/2000/svg" viewBox="0 0 1024 1024">
<path d="M0 0 C1.44136327 -0.00346392 2.88272388 -0.00823339 4.32407904 -0.01418173 C8.25302209 -0.02662061 12.18174448 -0.02055409 16.11068797 -0.01122308 C20.3602497 -0.00440353 24.60977488 -0.01492815 28.85932922 -0.02316284 C37.17165495 -0.0364715 45.4838992 -0.03363525 53.79622805 -0.02492492 C60.55452238 -0.01813747 67.31279394 -0.01723624 74.0710907 -0.02049637 C75.03460122 -0.02095607 75.99811174 -0.02141577 76.99081954 -0.0218894 C78.94844537 -0.02284862 80.90607118 -0.02382126 82.86369699 -0.02480717 C101.201144 -0.03335266 119.53854595 -0.02354013 137.87598556 -0.00740607 C153.59512133 0.00599634 169.31419063 0.00366801 185.0333252 -0.01016235 C203.30715672 -0.02623302 221.58094879 -0.03252877 239.8547864 -0.02332556 C241.80503113 -0.02236996 243.75527588 -0.02142685 245.70552063 -0.02049637 C247.14468976 -0.01980213 247.14468976 -0.01980213 248.61293301 -0.01909386 C255.35961536 -0.01650844 262.10627259 -0.02086531 268.85295105 -0.02793503 C277.07990078 -0.03636676 285.30676468 -0.03403478 293.53370464 -0.0180928 C297.72762452 -0.01023256 301.92140153 -0.00707994 306.11532021 -0.01704025 C309.96074774 -0.0260345 313.80590111 -0.02097723 317.65130407 -0.0051076 C319.68782246 -0.00021338 321.72436016 -0.00991378 323.76085806 -0.02027929 C334.82285372 0.04995352 344.74983437 1.96935029 354.57580566 7.13095093 C355.25723633 7.48238159 355.93866699 7.83381226 356.64074707 8.19589233 C362.05043504 11.05741739 366.85444802 14.24839518 371.38830566 18.38095093 C372.20686035 19.10798218 373.02541504 19.83501343 373.86877441 20.58407593 C386.94112395 32.84558382 395.61235061 49.88815435 396.5777657 67.91956544 C396.65643602 72.19120841 396.67268046 76.45890681 396.66677856 80.7310791 C396.67178721 82.38550777 396.67766467 84.03993399 396.6843313 85.6943568 C396.70007647 90.22100391 396.70355895 94.74758886 396.7049799 99.27426004 C396.70868354 104.1630367 396.72384383 109.05177964 396.7375946 113.9405365 C396.75984098 122.40416229 396.77487003 130.86777604 396.7849617 139.33142471 C396.79956295 151.56835379 396.82510385 163.80524093 396.85329299 176.04214536 C396.89873469 195.89693141 396.93536034 215.75172351 396.96643066 235.60653687 C396.99662694 254.89072735 397.03098218 274.17490305 397.07092285 293.45907593 C397.07461517 295.24285193 397.07461517 295.24285193 397.07838209 297.06266381 C397.0907569 303.02860204 397.10321339 308.99454009 397.1157105 314.96047807 C397.21923904 364.43394837 397.30845525 413.90743713 397.38830566 463.38095093 C398.22492485 463.54110687 398.22492485 463.54110687 399.07844543 463.70449829 C401.65795219 464.20117837 404.23599797 464.70509033 406.81408691 465.20907593 C408.12947449 465.46068481 408.12947449 465.46068481 409.47143555 465.71737671 C438.25806486 471.37770631 462.9112117 485.69423646 484.38830566 505.38095093 C485.1088916 506.01903687 485.82947754 506.6571228 486.57189941 507.31454468 C506.81023216 526.20646027 520.37541287 552.91924321 527.38830566 579.38095093 C527.60148438 580.18258667 527.81466309 580.98422241 528.03430176 581.81015015 C533.70028783 604.28088477 534.28872676 631.89785492 528.38830566 654.38095093 C528.18962891 655.163573 527.99095215 655.94619507 527.78625488 656.75253296 C521.33423593 681.5698493 510.03760973 704.61268639 492.38830566 723.38095093 C491.79388672 724.0177478 491.19946777 724.65454468 490.58703613 725.31063843 C465.42714862 752.01144917 432.19693824 770.11889874 395.38830566 774.38095093 C394.5413916 774.49052124 393.69447754 774.60009155 392.82189941 774.71298218 C381.95193729 775.92795559 370.93556308 775.78900993 360.07580566 774.63095093 C355.10023335 774.25069517 351.14126872 774.52694321 346.32426524 775.75554323 C331.45809256 779.47926537 316.25869282 778.95304316 301.04966354 778.9038496 C296.85059869 778.89469211 292.65159691 778.90882088 288.45254517 778.91976929 C280.25492242 778.9374446 272.05744715 778.93376452 263.85981891 778.92211872 C257.19280134 778.9130435 250.52582478 778.91187796 243.8588028 778.91621399 C242.90585717 778.91682692 241.95291155 778.91743985 240.97108878 778.91807136 C239.03456915 778.9193504 237.09804953 778.92064725 235.16152993 778.92196172 C217.0552054 778.93333467 198.94896222 778.92030432 180.84265104 778.89876026 C165.33634423 778.88088073 149.8301572 778.88400683 134.32385254 778.9024353 C116.2711208 778.92388035 98.21846007 778.93224844 80.16571736 778.91998625 C78.23799341 778.91871218 76.31026945 778.91745469 74.38254547 778.91621399 C72.96019896 778.91528834 72.96019896 778.91528834 71.50911818 778.91434398 C64.85488486 778.91090283 58.20069693 778.91669242 51.54647064 778.9261322 C43.43069505 778.93739356 35.31507406 778.93422518 27.19931599 778.91300923 C23.06556446 778.90255595 18.93206993 778.89827834 14.79832077 778.91160583 C11.00350247 778.92365494 7.20917582 778.91676506 3.4144012 778.89569563 C1.41502073 778.88921522 -0.58439476 778.90205236 -2.58373761 778.91592455 C-23.71321974 778.73597238 -41.87960316 770.79737042 -56.97497559 756.07626343 C-70.74013105 741.5939318 -76.77435865 724.20461036 -76.74591541 704.46800995 C-76.74826764 703.36108484 -76.75061987 702.25415974 -76.75304338 701.11369145 C-76.75972935 697.38420532 -76.75927528 693.65475407 -76.75886536 689.92526245 C-76.76216422 687.23244088 -76.76585213 684.53962236 -76.77000684 681.84680223 C-76.77932792 675.20907818 -76.78325405 668.5713608 -76.7855258 661.93363102 C-76.78848915 653.98355897 -76.79718733 646.03349577 -76.80594008 638.08342836 C-76.82677989 618.86771875 -76.83725348 599.65200761 -76.84606969 580.43628934 C-76.85027679 571.34536117 -76.85549869 562.25443366 -76.86075422 553.16350604 C-76.87864385 522.0425052 -76.89363982 490.92150417 -76.90107441 459.80049896 C-76.90154917 457.84687758 -76.90202505 455.89325621 -76.90250207 453.93963483 C-76.90273845 452.97081828 -76.90297482 452.00200174 -76.90321836 451.00382712 C-76.90441956 446.09535536 -76.90563501 441.18688361 -76.90686035 436.27841187 C-76.9071005 435.30431269 -76.90734065 434.33021351 -76.90758808 433.32659618 C-76.91548091 401.74435003 -76.93891272 370.16214145 -76.9714163 338.5799117 C-77.00572043 305.18717995 -77.02542608 271.79447018 -77.02871865 238.40172052 C-77.02913619 234.73535823 -77.02961575 231.06899595 -77.03014183 227.40263367 C-77.03026502 226.49987618 -77.03038821 225.59711869 -77.03051514 224.66700491 C-77.03284639 210.14422667 -77.04850215 195.62149208 -77.06898368 181.09872939 C-77.08924774 166.49842181 -77.09471621 151.89816661 -77.08521304 137.29784757 C-77.08000041 128.62684556 -77.08586431 119.95601806 -77.10774771 111.28504119 C-77.12127183 105.48754302 -77.12016461 99.69016476 -77.10734576 93.89266535 C-77.10045977 90.59287113 -77.10197162 87.29347548 -77.11690585 83.9936983 C-77.223671 58.84266399 -77.223671 58.84266399 -72.61169434 47.38095093 C-72.33144844 46.65797176 -72.05120254 45.93499259 -71.76246434 45.19010496 C-63.70172196 25.96725173 -48.46172025 12.67536335 -29.59392405 4.55622065 C-19.80050044 0.69672109 -10.44682858 -0.05317297 0 0 Z M-41.43200684 44.42391968 C-51.28063227 56.82130999 -51.95720907 71.26373197 -51.81750488 86.55136108 C-51.79884649 88.67045718 -51.79699869 90.78912372 -51.79724121 92.90829468 C-52.40150141 99.11939549 -52.40150141 99.11939549 -50.61169434 104.38095093 C-48.38082096 104.47907565 -46.14676372 104.50466197 -43.91373348 104.50399876 C-42.84579473 104.50572952 -42.84579473 104.50572952 -41.75628147 104.50749525 C-39.34038213 104.51016874 -36.92454777 104.5056338 -34.50865173 104.50120544 C-32.77124756 104.501641 -31.03384346 104.50251561 -29.29643971 104.50379461 C-24.49862818 104.50604271 -19.70083875 104.50201402 -14.90303004 104.49701655 C-9.73803685 104.49271672 -4.57304501 104.49415814 0.59194946 104.49491882 C9.54847575 104.49544436 18.50499478 104.4922945 27.46151924 104.48668098 C40.41131049 104.47856994 53.36109822 104.47595117 66.31089174 104.47469299 C87.31871335 104.47250185 108.32653108 104.46584008 129.33435059 104.45639038 C149.7471108 104.44721787 170.15986997 104.44013625 190.57263184 104.43588257 C191.82989425 104.43561984 193.08715667 104.43535712 194.38251794 104.43508644 C200.6895413 104.43378144 206.99656466 104.43251772 213.30358803 104.43127453 C265.66516325 104.42089998 318.02673427 104.40327997 370.38830566 104.38095093 C370.48832652 99.06484256 370.56030908 93.74930014 370.60803223 88.4324646 C370.62795834 86.62963298 370.6551095 84.82686435 370.69006348 83.02426147 C371.02662752 65.20121536 368.61202076 52.17242855 356.07580566 38.63095093 C339.5255431 23.13786373 317.70351664 24.79114903 296.56900775 24.8727113 C292.52058466 24.88391813 288.47221707 24.87184685 284.42379761 24.86286926 C276.51404924 24.84900141 268.6044615 24.85644443 260.6947209 24.87154485 C251.46964039 24.88848038 242.24459905 24.88518531 233.01950779 24.88145076 C216.55378507 24.87558426 200.08813904 24.88969745 183.62243652 24.91439819 C167.6692823 24.93832711 151.71623047 24.94539632 135.76306152 24.93490601 C118.35826002 24.92348152 100.95350575 24.92158473 83.5487048 24.9360041 C81.69090379 24.93752983 79.83310277 24.93905019 77.97530174 24.94056511 C76.60445226 24.94170183 76.60445226 24.94170183 75.20590884 24.94286152 C68.78526356 24.9475916 62.36463947 24.94576207 55.94399452 24.94149971 C48.1149808 24.93655927 40.28606362 24.94261895 32.45707194 24.96239401 C28.46755399 24.9722249 24.47818263 24.97741682 20.488657 24.9695015 C16.82898445 24.96238942 13.16960627 24.96937663 9.50997224 24.98710512 C7.57579175 24.99299709 5.64158335 24.98438124 3.70741636 24.97505862 C-14.8697216 25.10838485 -28.99359439 30.46407051 -41.43200684 44.42391968 Z M-51.61169434 130.38095093 C-51.61169434 297.69095093 -51.61169434 465.00095093 -51.61169434 637.38095093 C37.48830566 637.38095093 126.58830566 637.38095093 218.38830566 637.38095093 C218.38830566 627.81095093 218.38830566 618.24095093 218.38830566 608.38095093 C221.06098209 571.20645157 235.72701364 537.44947509 261.38830566 510.38095093 C262.27002441 509.43477905 263.15174316 508.48860718 264.06018066 507.51376343 C292.55588864 477.52654456 329.98840334 465.26665824 370.38830566 462.38095093 C370.38830566 352.82095093 370.38830566 243.26095093 370.38830566 130.38095093 C231.12830566 130.38095093 91.86830566 130.38095093 -51.61169434 130.38095093 Z M289.38830566 518.38095093 C288.14307129 519.44442749 288.14307129 519.44442749 286.87268066 520.52938843 C261.91498272 542.34823479 246.0803747 574.41094088 243.51721191 607.56845093 C241.91485186 642.52903401 250.26803464 676.29152183 274.13830566 702.81845093 C274.88854004 703.6202478 275.63877441 704.42204468 276.41174316 705.24813843 C278.38830566 707.38095093 278.38830566 707.38095093 280.76330566 710.44345093 C301.05473692 733.15052877 334.72561507 747.77965163 364.77453613 749.58432007 C368.23205764 749.68307104 371.67944555 749.71002924 375.13830566 749.69345093 C376.36259277 749.68853638 377.58687988 749.68362183 378.8482666 749.67855835 C408.17006588 749.30089977 437.12857434 738.65006186 459.38830566 719.38095093 C460.3460791 718.55723999 461.30385254 717.73352905 462.29064941 716.88485718 C487.93489375 694.37403321 503.4625754 663.26453859 506.04870605 629.15048218 C508.20846999 593.37397522 497.06498467 558.45542214 473.38830566 531.38095093 C452.27980642 507.77035203 423.9462607 492.36449607 392.38830566 488.38095093 C391.54010254 488.27138062 390.69189941 488.1618103 389.81799316 488.04891968 C353.52744663 484.08129433 317.07098687 494.32117096 289.38830566 518.38095093 Z M-51.61169434 662.38095093 C-54.38192362 704.05818661 -54.38192362 704.05818661 -38.57653809 738.64266968 C-26.81985291 749.84459294 -13.70853749 752.700714 1.97364807 752.62145996 C3.84115735 752.62402324 3.84115735 752.62402324 5.7463941 752.62663829 C9.18082298 752.62935192 12.61502127 752.62314368 16.04942214 752.61308217 C19.76095487 752.60441287 23.47248099 752.60737029 27.184021 752.60888672 C33.6074446 752.60993337 40.03082745 752.60367974 46.4542408 752.59241104 C55.74131335 752.57612921 65.02836628 752.57094529 74.31545155 752.56843506 C89.38458791 752.56406216 104.45370257 752.55076407 119.52282715 752.53182983 C134.15759167 752.51346054 148.79235029 752.49930917 163.42712402 752.49081421 C164.32981917 752.49028876 165.23251432 752.48976332 166.16256387 752.48922195 C170.69130171 752.48661179 175.2200396 752.4840844 179.74877751 752.48159814 C217.29530221 752.46087827 254.84180225 752.42566378 292.38830566 752.38095093 C289.8069262 749.74914077 287.38767419 747.5908869 284.26330566 745.63095093 C256.35478116 727.26650855 237.24055687 700.49866726 226.09924316 669.3152771 C225.24308335 666.98582855 224.31002371 664.68524605 223.38830566 662.38095093 C132.63830566 662.38095093 41.88830566 662.38095093 -51.61169434 662.38095093 Z " fill="#0C0C0C" transform="translate(315.6116943359375,95.61904907226563)"/>
<path d="M0 0 C3.5694752 1.936867 5.69404468 4.08213404 7 8 C7.08722452 9.61095858 7.11767272 11.22531016 7.11352539 12.83862305 C7.11341209 14.30980843 7.11341209 14.30980843 7.11329651 15.81071472 C7.10813522 16.86704605 7.10297394 17.92337738 7.09765625 19.01171875 C7.0962413 20.09508011 7.09482635 21.17844147 7.09336853 22.29463196 C7.08776559 25.75894925 7.07521258 29.2232022 7.0625 32.6875 C7.05748538 35.03450428 7.05292241 37.38150956 7.04882812 39.72851562 C7.03864559 45.48572189 7.01907063 51.24278882 7 57 C22.18 57 37.36 57 53 57 C52.88167719 42.92474963 52.88167719 42.92474963 52.72973633 28.84985352 C52.72096357 27.06787662 52.71332151 25.28589364 52.70703125 23.50390625 C52.6840094 22.14791321 52.6840094 22.14791321 52.66052246 20.76452637 C52.65810006 14.80300776 53.3428761 9.41052072 56 4 C59.14676754 0.99959374 61.7262514 -0.23563586 66 -0.5625 C70.72019369 -0.30930953 72.82209529 1.5951021 76 5 C77.65260193 8.40711263 78.24737527 11.11188792 78.22705078 14.88208008 C78.22682419 16.29297661 78.22682419 16.29297661 78.22659302 17.7323761 C78.21627045 18.7346373 78.20594788 19.7368985 78.1953125 20.76953125 C78.1924826 21.80567062 78.18965271 22.84181 78.18673706 23.90934753 C78.17556454 27.21051707 78.15046505 30.51141281 78.125 33.8125 C78.11496643 36.05403253 78.10584124 38.29556933 78.09765625 40.53710938 C78.07733852 46.02492929 78.03818366 51.51215906 78 57 C92.19 57 106.38 57 121 57 C120.96519531 53.67679687 120.93039062 50.35359375 120.89453125 46.9296875 C120.87111937 43.70280821 120.85291203 40.47593848 120.83520508 37.24902344 C120.82014036 35.01037342 120.79968467 32.77175281 120.77368164 30.53320312 C120.73719717 27.31112398 120.72025017 24.08943589 120.70703125 20.8671875 C120.69154739 19.87008759 120.67606354 18.87298767 120.66011047 17.84567261 C120.6588159 12.47226193 120.9175048 8.61393466 124 4 C127.2474659 1.13014641 129.77097319 -0.25126393 134.0625 -0.4375 C139.00672769 0.11185863 141.49328447 1.2780394 144.75 5 C146.78912168 8.26259468 147.12359235 10.90005461 147.11352539 14.6550293 C147.11344986 15.59577805 147.11337433 16.53652679 147.11329651 17.50578308 C147.10813522 18.51836685 147.10297394 19.53095062 147.09765625 20.57421875 C147.09553383 22.13267265 147.09553383 22.13267265 147.09336853 23.72261047 C147.08776656 27.04426948 147.07521372 30.36586133 147.0625 33.6875 C147.05748525 35.93815007 147.0529223 38.18880119 147.04882812 40.43945312 C147.03779649 45.95965837 147.02105643 51.47982439 147 57 C148.21059082 56.97905273 149.42118164 56.95810547 150.66845703 56.93652344 C155.17468361 56.8639346 159.68085884 56.81813165 164.1875 56.78027344 C166.13517966 56.76020094 168.08279937 56.73293668 170.03027344 56.69824219 C172.83543721 56.64953148 175.63980187 56.62698759 178.4453125 56.609375 C179.31116974 56.58872986 180.17702698 56.56808472 181.06912231 56.54681396 C186.5291931 56.54480321 189.74781075 57.2439663 194 61 C197.68899173 65.34384234 197.39450091 69.59487411 197.29296875 75.01953125 C197.28872391 75.87810226 197.28447906 76.73667328 197.28010559 77.6212616 C197.26336995 80.35199914 197.22572766 83.08198712 197.1875 85.8125 C197.17244653 87.6686091 197.15875928 89.52472982 197.14648438 91.38085938 C197.11348323 95.92085985 197.06173659 100.46030302 197 105 C198.90676514 104.9685791 198.90676514 104.9685791 200.85205078 104.93652344 C205.58191603 104.86395744 210.31173235 104.81813975 215.04199219 104.78027344 C217.0866728 104.7601958 219.13129627 104.73292775 221.17578125 104.69824219 C224.11993537 104.64955481 227.06332834 104.62699256 230.0078125 104.609375 C230.9174173 104.58872986 231.82702209 104.56808472 232.76419067 104.54681396 C238.36044904 104.54484896 241.57335522 105.23496736 246 109 C248.37302167 111.92672672 248.95966626 113.68309204 249.4375 117.4375 C248.81817382 122.4805846 246.89607992 125.45256666 242.97387695 128.65356445 C238.67262986 130.60097252 234.77230998 130.37230068 230.10546875 130.29296875 C228.84506775 130.28843689 228.84506775 130.28843689 227.5592041 130.28381348 C224.43517691 130.26817573 221.31132548 130.22629178 218.1875 130.1875 C211.195625 130.125625 204.20375 130.06375 197 130 C197 144.52 197 159.04 197 174 C210.50728381 173.84209177 210.50728381 173.84209177 224.01391602 173.63964844 C225.71890253 173.62795584 227.42390029 173.61776536 229.12890625 173.609375 C229.99994995 173.58891113 230.87099365 173.56844727 231.76843262 173.54736328 C237.70161148 173.54399646 241.14996 174.5204264 246 178 C248.70328624 182.01132797 249.7011114 185.192379 249 190 C246.69064061 194.36212329 244.48888946 196.91978293 240 199 C235.41460234 200.23455055 230.90926006 200.1279697 226.19921875 200.09765625 C225.08625427 200.09614563 225.08625427 200.09614563 223.95080566 200.09460449 C221.19635457 200.08939812 218.44192563 200.07543695 215.6875 200.0625 C209.520625 200.041875 203.35375 200.02125 197 200 C197 214.19 197 228.38 197 243 C210.92632359 242.88143117 210.92632359 242.88143117 224.85229492 242.72973633 C226.60334728 242.7209712 228.35440577 242.71332732 230.10546875 242.70703125 C231.4597699 242.6840094 231.4597699 242.6840094 232.84143066 242.66052246 C239.23183192 242.6578668 242.58228262 243.71297005 247.3125 248.1875 C249.50135215 251.83558692 249.78777543 254.90035236 249 259 C246.54787621 263.99856004 244.13292837 265.9981507 239 268 C235.7350049 268.38993908 232.51078238 268.3502523 229.2265625 268.29296875 C228.3028183 268.28872391 227.3790741 268.28447906 226.42733765 268.28010559 C223.4929217 268.26338673 220.55920644 268.22574716 217.625 268.1875 C215.62891621 268.17244438 213.63282159 268.15875751 211.63671875 268.14648438 C206.75754478 268.11350545 201.87889097 268.06177014 197 268 C197.01571045 269.11971191 197.0314209 270.23942383 197.04760742 271.39306641 C197.10207894 275.56389111 197.13641252 279.73468462 197.16479492 283.90576172 C197.1798424 285.70789892 197.2002853 287.50999973 197.22631836 289.31201172 C197.26288021 291.90862021 197.27976681 294.50474275 197.29296875 297.1015625 C197.30845261 297.9017984 197.32393646 298.7020343 197.33988953 299.52651978 C197.34173459 305.71765254 196.19121396 309.80602314 191.67651367 314.32641602 C183.30405423 319.56158973 169.6842715 316.96649549 160.1875 316.5625 C158.80145837 316.50908455 157.41539046 316.45634677 156.02929688 316.40429688 C152.68587947 316.27615196 149.34288386 316.14127569 146 316 C146.00666183 316.56518845 146.01332367 317.13037689 146.02018738 317.71269226 C146.08661724 323.60129095 146.13183232 329.48978297 146.16479492 335.37866211 C146.17987052 337.57564621 146.20033426 339.77260026 146.22631836 341.96948242 C146.26275502 345.12947 146.27973884 348.28905924 146.29296875 351.44921875 C146.30845261 352.42960617 146.32393646 353.40999359 146.33988953 354.42008972 C146.34140854 360.5913772 145.50195949 363.89839732 141.58203125 368.7578125 C138.52100474 371.16128517 134.77463763 371.10969032 131 371 C126.79225968 369.51949878 124.23687891 367.88510548 122 364 C121.11299298 361.10951269 120.87780829 358.52271515 120.88647461 355.50683594 C120.88655014 354.62622498 120.88662567 353.74561401 120.88670349 352.83831787 C120.89186478 351.89651672 120.89702606 350.95471558 120.90234375 349.984375 C120.90446617 348.52792572 120.90446617 348.52792572 120.90663147 347.04205322 C120.91222337 343.94467065 120.92477441 340.84736068 120.9375 337.75 C120.94251605 335.64843854 120.94707877 333.54687596 120.95117188 331.4453125 C120.96219015 326.29684708 120.97944926 321.14843584 121 316 C116.96545064 316.12024388 112.93104735 316.24456498 108.89672852 316.37231445 C107.53055036 316.41504253 106.16433969 316.45674606 104.7980957 316.49731445 C95.84014299 316.76417513 86.92871205 317.22346598 78 318 C78.02356567 319.7468811 78.02356567 319.7468811 78.04760742 321.52905273 C78.102252 325.88445005 78.13647476 330.23981756 78.16479492 334.59545898 C78.17980333 336.4740917 78.20021652 338.35268984 78.22631836 340.23120117 C78.26305386 342.94458593 78.27980607 345.6575041 78.29296875 348.37109375 C78.31619453 349.61384315 78.31619453 349.61384315 78.33988953 350.88169861 C78.34151081 356.60679484 77.52639672 361.80502219 75 367 C71.74392946 370.03406573 69.84493353 370.89623623 65.4375 371.4375 C60.8183771 370.84961163 58.30456137 369.49092728 55.25 366 C53.27157395 362.83451833 52.87603036 360.26540464 52.88647461 356.62036133 C52.88659546 355.72740356 52.88671631 354.8344458 52.88684082 353.91442871 C52.89195679 352.97973755 52.89707275 352.04504639 52.90234375 351.08203125 C52.90335083 350.22009155 52.90435791 349.35815186 52.90539551 348.47009277 C52.91062678 345.25088165 52.92458805 342.03168948 52.9375 338.8125 C52.958125 331.614375 52.97875 324.41625 53 317 C37.82 317 22.64 317 7 317 C7.04640625 320.33480469 7.0928125 323.66960937 7.140625 327.10546875 C7.17182908 330.33893309 7.19611211 333.57238059 7.21972656 336.8059082 C7.2398294 339.05142741 7.26711605 341.29689435 7.30175781 343.54223633 C7.3503331 346.7717784 7.37298237 350.00062775 7.390625 353.23046875 C7.41127014 354.23272995 7.43191528 355.23499115 7.45318604 356.2676239 C7.4554331 363.26338292 7.4554331 363.26338292 5.08886719 367.09106445 C1.84197647 370.05827325 0.04210601 370.88421044 -4.375 371.375 C-8.75105769 370.92230438 -10.68356181 369.86419662 -14 367 C-17.51374952 361.66582423 -17.39533772 356.94738002 -17.29296875 350.7890625 C-17.28872391 349.82092621 -17.28447906 348.85278992 -17.28010559 347.85531616 C-17.26337956 344.77825527 -17.22573831 341.70186128 -17.1875 338.625 C-17.17244532 336.53256158 -17.15875829 334.44011283 -17.14648438 332.34765625 C-17.11349588 327.23151582 -17.06175528 322.11587079 -17 317 C-18.14476807 317.01571045 -19.28953613 317.0314209 -20.46899414 317.04760742 C-24.73861586 317.10213423 -29.00820711 317.13643249 -33.27807617 317.16479492 C-35.12187892 317.17982988 -36.96564622 317.20026333 -38.80932617 317.22631836 C-41.4680255 317.26293561 -44.12624971 317.27977943 -46.78515625 317.29296875 C-47.60210464 317.30845261 -48.41905304 317.32393646 -49.26075745 317.33988953 C-54.59894709 317.34143973 -58.2703673 316.52735637 -63 314 C-67.85997302 308.7563449 -68.14015831 305.2133404 -68.09765625 298.2734375 C-68.0962413 297.41062164 -68.09482635 296.54780579 -68.09336853 295.65884399 C-68.08776188 292.8975277 -68.07520827 290.13629188 -68.0625 287.375 C-68.05748586 285.5052095 -68.0529228 283.63541774 -68.04882812 281.765625 C-68.03779029 277.17705223 -68.0205212 272.58853977 -68 268 C-69.85347046 268.0314209 -69.85347046 268.0314209 -71.74438477 268.06347656 C-76.3494091 268.13613453 -80.95438322 268.1818934 -85.55981445 268.21972656 C-87.54915908 268.23978337 -89.53844518 268.26703585 -91.52758789 268.30175781 C-94.39484131 268.35053771 -97.26131211 268.37302827 -100.12890625 268.390625 C-101.01147598 268.41127014 -101.89404572 268.43191528 -102.80335999 268.45318604 C-108.72443101 268.45531481 -112.15436153 267.45931629 -117 264 C-119.47686229 260.59431435 -120.24064409 258.06492339 -119.9375 253.9375 C-119.25840686 250.07700315 -117.84355487 247.76231044 -115 245 C-112.09151841 243.25234595 -109.97510073 242.75308764 -106.59863281 242.77294922 C-105.28983154 242.77331177 -105.28983154 242.77331177 -103.95458984 242.77368164 C-103.04660645 242.78391357 -102.13862305 242.79414551 -101.203125 242.8046875 C-100.36185059 242.80670166 -99.52057617 242.80871582 -98.65380859 242.81079102 C-95.51915006 242.82123423 -92.3845694 242.84915684 -89.25 242.875 C-78.73125 242.936875 -78.73125 242.936875 -68 243 C-68 228.81 -68 214.62 -68 200 C-81.88089978 199.82967719 -81.88089978 199.82967719 -95.76220703 199.70214844 C-97.51076878 199.67276615 -99.25930709 199.64193812 -101.0078125 199.609375 C-101.90556396 199.60824707 -102.80331543 199.60711914 -103.72827148 199.60595703 C-109.29602362 199.47945227 -112.60743239 198.75425786 -117 195 C-119.40943467 191.58015724 -120.24719111 189.04864944 -119.9375 184.9375 C-119.24936822 181.06768365 -117.89695262 178.73601081 -115 176 C-110.28233183 173.40327414 -105.55744627 173.74392781 -100.32421875 173.8046875 C-99.50360962 173.80670166 -98.68300049 173.80871582 -97.83752441 173.81079102 C-94.78745899 173.82121377 -91.73747357 173.84913628 -88.6875 173.875 C-81.860625 173.91625 -75.03375 173.9575 -68 174 C-68 159.48 -68 144.96 -68 130 C-81.88141896 130.15800849 -81.88141896 130.15800849 -95.76220703 130.36035156 C-97.51073223 130.37204104 -99.25926837 130.38223226 -101.0078125 130.390625 C-101.90556396 130.41108887 -102.80331543 130.43155273 -103.72827148 130.45263672 C-109.47799909 130.45582305 -112.58745108 129.76448179 -117 126 C-119.75628719 121.98868867 -119.529093 117.69465063 -119 113 C-117.6635005 109.58450128 -116.5665369 108.36494336 -113.49365234 106.38549805 C-108.93569227 104.57792129 -105.07975635 104.62238156 -100.2265625 104.70703125 C-99.3028183 104.71127609 -98.3790741 104.71552094 -97.42733765 104.71989441 C-94.4929217 104.73661327 -91.55920644 104.77425284 -88.625 104.8125 C-86.62891621 104.82755562 -84.63282159 104.84124249 -82.63671875 104.85351562 C-77.75754478 104.88649455 -72.87889097 104.93822986 -68 105 C-68.01571045 103.91581787 -68.0314209 102.83163574 -68.04760742 101.71459961 C-68.10215907 97.66861483 -68.13644133 93.62266218 -68.16479492 89.57641602 C-68.17982429 87.8296155 -68.20025354 86.08285235 -68.22631836 84.33618164 C-68.2629608 81.81647485 -68.27978492 79.29726961 -68.29296875 76.77734375 C-68.30845261 76.00414291 -68.32393646 75.23094208 -68.33988953 74.43431091 C-68.34145201 69.32995615 -67.620307 65.51809148 -65 61 C-60.07547373 56.38809763 -55.60990338 56.46092353 -49.2265625 56.609375 C-47.8409462 56.61786469 -47.8409462 56.61786469 -46.42733765 56.62652588 C-43.49268582 56.64881948 -40.55927939 56.69900252 -37.625 56.75 C-35.62892395 56.77007408 -33.63282866 56.78832326 -31.63671875 56.8046875 C-26.75733662 56.84866128 -21.87887907 56.91764001 -17 57 C-17.00999275 56.11796402 -17.00999275 56.11796402 -17.02018738 55.21810913 C-17.08666884 49.08605427 -17.13185377 42.95410218 -17.16479492 36.82177734 C-17.17986116 34.53462565 -17.20031797 32.24750275 -17.22631836 29.96044922 C-17.26279606 26.66887293 -17.27974834 23.37767938 -17.29296875 20.0859375 C-17.30845261 19.06696381 -17.32393646 18.04799011 -17.33988953 16.99813843 C-17.3411694 11.5726525 -17.10671296 7.66500223 -14 3 C-9.91854212 -0.60128637 -5.21071367 -0.99818592 0 0 Z M-43 82 C-43 150.97 -43 219.94 -43 291 C27.95 291 98.9 291 172 291 C172 222.03 172 153.06 172 82 C101.05 82 30.1 82 -43 82 Z " fill="#0A0A0A" transform="translate(410,266)"/>
<path d="M0 0 C0.95068359 -0.020625 1.90136719 -0.04125 2.88085938 -0.0625 C3.80318359 -0.06765625 4.72550781 -0.0728125 5.67578125 -0.078125 C6.51665283 -0.0874707 7.35752441 -0.09681641 8.22387695 -0.10644531 C11.55098997 0.37493265 13.10214209 1.04856197 15.6875 3.25 C17.22522681 6.16126122 18.18738951 9.21636485 19.18359375 12.34765625 C19.49360321 13.27246796 19.80361267 14.19727966 20.12301636 15.15011597 C21.14057205 18.198924 22.1326552 21.25540293 23.125 24.3125 C23.8312431 26.44334837 24.53919062 28.57363254 25.2487793 30.70336914 C26.70323451 35.07807989 28.14759201 39.45591956 29.58300781 43.83691406 C31.81954428 50.66166378 34.08809818 57.47547581 36.36320496 64.28744507 C36.65705582 65.16728058 36.95090668 66.04711609 37.25366211 66.95361328 C37.54336884 67.82101135 37.83307556 68.68840942 38.13156128 69.58209229 C38.9965728 72.17721803 39.85742759 74.77368713 40.71704102 77.37060547 C43.41581948 85.51502654 46.15393363 93.64148947 49.00390625 101.734375 C49.39649376 102.85405418 49.39649376 102.85405418 49.79701233 103.99635315 C51.01455182 107.46795003 52.24153099 110.93546535 53.48950195 114.39624023 C53.91320068 115.59966064 54.33689941 116.80308105 54.7734375 118.04296875 C55.1451709 119.0796167 55.5169043 120.11626465 55.89990234 121.18432617 C56.79876689 124.68309931 56.95942211 127.65178121 56.6875 131.25 C53.41423956 134.52326044 49.3226526 133.61873129 44.875 133.625 C43.97201172 133.64949219 43.06902344 133.67398438 42.13867188 133.69921875 C38.24717906 133.71637449 35.36463566 133.55388972 31.7890625 131.94921875 C28.45855062 127.67155386 27.31322735 122.85940365 25.875 117.6875 C25.56369141 116.63369141 25.25238281 115.57988281 24.93164062 114.49414062 C22.6875 106.76541896 22.6875 106.76541896 22.6875 103.25 C8.4975 103.58 -5.6925 103.91 -20.3125 104.25 C-22.82048099 112.33923932 -22.82048099 112.33923932 -25.30786133 120.43481445 C-25.6252124 121.4424585 -25.94256348 122.45010254 -26.26953125 123.48828125 C-26.58897705 124.51993408 -26.90842285 125.55158691 -27.23754883 126.61450195 C-28.62314812 130.01162762 -30.05697596 131.62223798 -33.3125 133.25 C-36.45100509 133.56468702 -39.5976394 133.57396841 -42.75 133.625 C-43.62205078 133.66238281 -44.49410156 133.69976563 -45.39257812 133.73828125 C-46.23111328 133.74988281 -47.06964844 133.76148438 -47.93359375 133.7734375 C-48.7011499 133.79325684 -49.46870605 133.81307617 -50.25952148 133.83349609 C-52.3125 133.25 -52.3125 133.25 -54.21972656 131.21484375 C-55.74189573 127.08499067 -54.59412482 124.25696361 -53.17578125 120.2890625 C-52.90973587 119.49122849 -52.64369049 118.69339447 -52.36958313 117.87138367 C-51.47377505 115.19907318 -50.54917267 112.53762068 -49.625 109.875 C-48.98589754 107.98406625 -48.34906705 106.09236329 -47.71435547 104.19995117 C-46.33529717 100.09348842 -44.94639373 95.99052295 -43.55224609 91.88916016 C-41.20041986 84.94598739 -38.916366 77.98141542 -36.64453125 71.01171875 C-36.25306412 69.81075562 -35.86159698 68.60979248 -35.45826721 67.37243652 C-34.67094262 64.95570583 -33.88385739 62.53889714 -33.09701538 60.12200928 C-30.20316647 51.23839961 -27.29326729 42.36009731 -24.37365723 33.48492432 C-23.27667663 30.14079293 -22.18852693 26.79385927 -21.10058594 23.44677734 C-20.38765137 21.27041555 -19.67444561 19.09414258 -18.9609375 16.91796875 C-18.4761644 15.41584587 -18.4761644 15.41584587 -17.9815979 13.88337708 C-15.0366144 4.94674035 -15.0366144 4.94674035 -12.3125 1.25 C-8.5798817 -0.61630915 -4.10779215 0.02201094 0 0 Z M-0.3125 36.25 C-0.67601562 37.47332031 -1.03953125 38.69664062 -1.4140625 39.95703125 C-1.92168263 41.65891156 -2.42951119 43.3607297 -2.9375 45.0625 C-3.20312744 45.95509521 -3.46875488 46.84769043 -3.74243164 47.76733398 C-5.13786083 52.4303693 -6.5677703 57.07719637 -8.08203125 61.703125 C-8.36159668 62.56188232 -8.64116211 63.42063965 -8.92919922 64.30541992 C-9.46889737 65.95389117 -10.01589837 67.59999259 -10.57080078 69.2434082 C-12.12071514 73.70534816 -12.12071514 73.70534816 -11.3125 78.25 C-3.0625 78.25 5.1875 78.25 13.6875 78.25 C12.94543178 72.63899663 12.94543178 72.63899663 11.59594727 67.35009766 C11.38224991 66.6731485 11.16855255 65.99619934 10.94837952 65.29873657 C10.60461525 64.24207291 10.60461525 64.24207291 10.25390625 63.1640625 C9.89690895 62.05047867 9.89690895 62.05047867 9.53269958 60.91439819 C9.03207709 59.35883442 8.52854056 57.80420569 8.0222168 56.25048828 C7.24644669 53.86406933 6.48508664 51.47336145 5.72460938 49.08203125 C5.23523502 47.56743019 4.74503037 46.05309709 4.25390625 44.5390625 C4.0267543 43.82247467 3.79960236 43.10588684 3.56556702 42.36758423 C2.9968429 40.64177428 2.34903801 38.94240497 1.6875 37.25 C1.0275 36.92 0.3675 36.59 -0.3125 36.25 Z " fill="#0D0D0D" transform="translate(445.3125,385.75)"/>
<path d="M0 0 C3.41884518 2.10156185 5.70120074 4.10360223 7 8 C7.68876366 15.01313671 5.45228368 21.2680571 3.4765625 27.94140625 C3.09878154 29.24241173 2.72184514 30.54366269 2.34568787 31.84513855 C1.32809911 35.35716225 0.2990921 38.86574212 -0.7324028 42.373703 C-1.80994095 46.04398396 -2.87836062 49.71691677 -3.94750977 53.38964844 C-5.27654142 57.95313654 -6.60669089 62.51628739 -7.94148254 67.07809448 C-10.83223207 76.96129537 -13.68333627 86.85508667 -16.50430298 96.75842094 C-17.72449199 101.03823746 -18.95060375 105.31636111 -20.17673111 109.59447956 C-21.15215064 112.99945451 -22.12410806 116.40533937 -23.08831787 119.81350708 C-24.16069026 123.60295042 -25.24962875 127.38752435 -26.33984375 131.171875 C-26.65264786 132.28765427 -26.96545197 133.40343353 -27.28773499 134.55302429 C-30.98335862 147.26822439 -30.98335862 147.26822439 -37.375 150.9375 C-42.28593489 152.37691195 -45.07515043 151.85051493 -49.6875 149.8125 C-52.76420954 147.40102495 -53.77741854 145.73566558 -55 142 C-55.04461208 134.22930317 -52.76466448 126.87429346 -50.5625 119.5 C-50.21018814 118.29408707 -49.85787628 117.08817413 -49.49488831 115.84571838 C-48.53718352 112.57383506 -47.57176934 109.30442714 -46.60258865 106.03593826 C-45.58829445 102.60898961 -44.58352877 99.17924969 -43.57788086 95.74975586 C-42.1159679 90.76746626 -40.65063102 85.78620527 -39.18139172 80.80607128 C-36.67507302 72.30955113 -34.1925621 63.80632059 -31.72285843 55.29909134 C-30.56208752 51.30215111 -29.39853464 47.30601996 -28.23499489 43.30988503 C-27.31025872 40.13356387 -26.38688537 36.95685819 -25.46557617 33.77954102 C-24.44094525 30.24890479 -23.41065186 26.71996887 -22.37890625 23.19140625 C-22.07964737 22.15560928 -21.78038849 21.11981232 -21.47206116 20.05262756 C-17.05117324 4.99458105 -17.05117324 4.99458105 -10 0 C-6.14217025 -1.28594325 -3.95337324 -0.93808857 0 0 Z " fill="#0D0D0D" transform="translate(719,639)"/>
<path d="M0 0 C0.74765625 -0.03738281 1.4953125 -0.07476563 2.265625 -0.11328125 C8.21866361 0.90697222 12.5701512 5.84373779 16.6640625 9.99609375 C17.20098724 10.53347672 17.73791199 11.07085968 18.29110718 11.62452698 C19.41780826 12.75423066 20.54209684 13.88634514 21.6640625 15.02075195 C23.37188064 16.74684726 25.08758623 18.46478479 26.8046875 20.18164062 C27.90411879 21.28598769 29.00309277 22.39079025 30.1015625 23.49609375 C30.60893951 24.00458359 31.11631653 24.51307343 31.6390686 25.03697205 C34.5523678 27.98892446 37.19313522 31.04989584 39.75 34.3125 C41.3936814 36.00183922 43.0642876 37.66509924 44.75 39.3125 C46.16966815 40.70528049 47.58615766 42.10130597 49 43.5 C49.68578125 44.17417969 50.3715625 44.84835937 51.078125 45.54296875 C54.15198609 48.7963778 54.15507517 51.62030161 54.0859375 55.94140625 C53.28828815 61.57132664 49.21996069 65.00125339 45.05859375 68.52026367 C40.74313777 72.25673751 36.77582273 76.25961932 32.8125 80.36328125 C31.32627887 81.88160176 29.8392764 83.39915777 28.3515625 84.91601562 C26.04025617 87.27680774 23.73392554 89.64166748 21.44042969 92.01977539 C19.20330468 94.33577645 16.94738478 96.6320114 14.6875 98.92578125 C13.67151733 99.99292107 13.67151733 99.99292107 12.63500977 101.08161926 C8.19942669 105.54215624 5.046023 107.51768466 -1.25 108.3125 C-5.2064462 107.19150691 -7.60029941 105.87890565 -10.6875 103.1875 C-12.82462453 99.25519087 -13.22784826 95.69124699 -12.25 91.3125 C-9.4450233 86.28663376 -5.79180025 82.78658953 -1.5625 79 C7.15188299 71.04486187 15.4554626 62.70121202 23.75 54.3125 C19.76080569 49.51357528 15.57672434 45.03386315 11.109375 40.6796875 C9.86169619 39.44950569 8.61430873 38.21902832 7.3671875 36.98828125 C5.42606297 35.07821077 3.48269255 33.17060095 1.53417969 31.26806641 C-0.36420372 29.41202789 -2.25299565 27.54665351 -4.140625 25.6796875 C-4.72394592 25.11498749 -5.30726685 24.55028748 -5.90826416 23.96847534 C-8.92818998 20.96782947 -11.12916137 18.54014649 -12.25 14.3125 C-12.13898873 8.20688022 -10.35811056 5.52080838 -6.25 1.3125 C-3.97885524 0.17692762 -2.52706381 0.08165682 0 0 Z " fill="#0B0B0B" transform="translate(746.25,660.6875)"/>
<path d="M0 0 C1.25103516 0.0009668 1.25103516 0.0009668 2.52734375 0.00195312 C3.39488281 0.01806641 4.26242187 0.03417969 5.15625 0.05078125 C6.45755859 0.04594727 6.45755859 0.04594727 7.78515625 0.04101562 C14.25535409 0.09601731 14.25535409 0.09601731 17.65625 2.36328125 C18.03377342 4.60002041 18.03377342 4.60002041 18.03720093 7.44297791 C18.0456604 8.51840347 18.05411987 9.59382904 18.06283569 10.70184326 C18.056763 11.88683411 18.05069031 13.07182495 18.04443359 14.29272461 C18.04969055 15.53665482 18.05494751 16.78058502 18.06036377 18.06221008 C18.07132874 21.47973038 18.06872546 24.89670801 18.05922651 28.31419826 C18.05164483 31.88692771 18.05867152 35.45963356 18.06338501 39.03236389 C18.06884765 45.03390681 18.06163845 51.0353391 18.04736328 57.03686523 C18.03104313 63.97835253 18.03631846 70.91957541 18.0528425 77.86105627 C18.06645184 83.81610662 18.06837953 89.7710773 18.06052649 95.72613817 C18.05584594 99.2848507 18.05523533 102.84343891 18.06513596 106.40214348 C18.07540224 110.36968148 18.0611771 114.33692287 18.04443359 118.30444336 C18.05050629 119.48740997 18.05657898 120.67037659 18.06283569 121.88919067 C18.05437622 122.96743607 18.04591675 124.04568146 18.03720093 125.15660095 C18.03606985 126.09515395 18.03493877 127.03370695 18.03377342 128.00070095 C17.58690276 130.79726342 16.89912929 131.68642084 14.65625 133.36328125 C12.61914062 133.75146484 12.61914062 133.75146484 10.3125 133.76171875 C9.47847656 133.76558594 8.64445313 133.76945313 7.78515625 133.7734375 C6.48384766 133.75603516 6.48384766 133.75603516 5.15625 133.73828125 C4.28871094 133.74988281 3.42117188 133.76148438 2.52734375 133.7734375 C1.69332031 133.76957031 0.85929688 133.76570312 0 133.76171875 C-1.14178711 133.75664307 -1.14178711 133.75664307 -2.30664062 133.75146484 C-4.9507399 133.24761563 -5.7003419 132.47961841 -7.34375 130.36328125 C-7.72127342 128.01911163 -7.72127342 128.01911163 -7.72470093 125.20129395 C-7.7331604 124.13290787 -7.74161987 123.06452179 -7.75033569 121.96376038 C-7.744263 120.79171555 -7.73819031 119.61967072 -7.73193359 118.41210938 C-7.73719055 117.17778671 -7.74244751 115.94346405 -7.74786377 114.67173767 C-7.75881689 111.28526514 -7.75623337 107.89934136 -7.74672651 104.5128994 C-7.73913704 100.9708723 -7.74617354 97.42886883 -7.75088501 93.88684082 C-7.75634466 87.9383523 -7.74914554 81.98997547 -7.73486328 76.04150391 C-7.71853627 69.16191103 -7.72382464 62.28258486 -7.7403425 55.40299845 C-7.75395148 49.49888273 -7.75587994 43.59484736 -7.74802649 37.69072104 C-7.7433467 34.16332216 -7.74273341 30.63604869 -7.75263596 27.10865784 C-7.76290181 23.1771506 -7.74867774 19.24594269 -7.73193359 15.31445312 C-7.73800629 14.14240829 -7.74407898 12.97036346 -7.75033569 11.76280212 C-7.74187622 10.69441605 -7.73341675 9.62602997 -7.72470093 8.52526855 C-7.72356985 7.59538872 -7.72243877 6.66550888 -7.72127342 5.70745087 C-6.97690028 1.08538821 -4.36959939 -0.01711211 0 0 Z " fill="#090909" transform="translate(527.34375,385.63671875)"/>
<path d="M0 0 C3.33597066 2.35080621 5.51268324 5.03562237 6.50390625 9.03125 C6.80415891 14.06774625 4.99282489 17.218683 2 21 C-0.28763637 23.54988439 -2.68812824 25.96827511 -5.125 28.375 C-5.75792969 29.01566406 -6.39085937 29.65632812 -7.04296875 30.31640625 C-7.65011719 30.92097656 -8.25726562 31.52554688 -8.8828125 32.1484375 C-9.43340332 32.69677246 -9.98399414 33.24510742 -10.55126953 33.81005859 C-12 35 -12 35 -14 35 C-14 35.66 -14 36.32 -14 37 C-15.46875 38.4453125 -15.46875 38.4453125 -17.5 40.125 C-21.90524012 43.8615876 -25.96599235 47.86943366 -30 52 C-28.64245411 55.03739302 -27.12227009 57.11935473 -24.75952148 59.45166016 C-24.10221542 60.10558746 -23.44490936 60.75951477 -22.76768494 61.43325806 C-22.05930984 62.12817352 -21.35093475 62.82308899 -20.62109375 63.5390625 C-19.89382584 64.26112885 -19.16655792 64.98319519 -18.41725159 65.72714233 C-16.09536418 68.03122694 -13.76689861 70.32851132 -11.4375 72.625 C-9.10541428 74.92949133 -6.77479055 77.23541392 -4.44703674 79.54428101 C-2.99854462 80.98049156 -1.54738824 82.41402086 -0.09336853 83.84463501 C0.88786232 84.81606949 0.88786232 84.81606949 1.88891602 85.80712891 C2.46690445 86.37686432 3.04489288 86.94659973 3.64039612 87.53359985 C6.29576796 90.39754994 6.33395839 93.0639834 6.28515625 96.8984375 C5.81849096 100.33769673 4.21874413 102.41146518 2 105 C-2.26900795 107.57029853 -6.14707192 107.93680234 -11 107 C-12.92341614 105.70083618 -12.92341614 105.70083618 -14.78051758 103.97509766 C-15.4713443 103.33783752 -16.16217102 102.70057739 -16.87393188 102.04400635 C-20.37509276 98.67798293 -23.83988483 95.28269506 -27.26171875 91.8359375 C-28.01540237 91.08083893 -28.769086 90.32574036 -29.54560852 89.54776001 C-31.92862256 87.15920239 -34.30812215 84.76717929 -36.6875 82.375 C-38.29468818 80.76278784 -39.90210807 79.15080662 -41.50976562 77.5390625 C-45.09364412 73.94530145 -48.67656857 70.35060531 -52.25326538 66.74969482 C-53.35072491 65.65037543 -54.45336761 64.55618135 -55.56338501 63.46954346 C-58.89914422 60.200653 -60.16163669 58.4188225 -60.3125 53.75 C-60.34988281 53.00234375 -60.38726563 52.2546875 -60.42578125 51.484375 C-59.31404114 44.99752444 -53.63690357 40.35839914 -49.125 35.9375 C-48.52558594 35.33873047 -47.92617188 34.73996094 -47.30859375 34.12304688 C-44.50511137 31.34693037 -41.67697598 28.68399215 -38.6171875 26.19140625 C-35.96868765 24.26960027 -35.96868765 24.26960027 -35 22 C-34.34 22 -33.68 22 -33 22 C-32.67 21.01 -32.34 20.02 -32 19 C-31.34 19 -30.68 19 -30 19 C-30 18.34 -30 17.68 -30 17 C-28.56640625 15.58984375 -28.56640625 15.58984375 -26.5625 13.9375 C-22.48123764 10.48691228 -18.77158539 6.777502 -15.078125 2.91796875 C-10.37708791 -1.42077036 -6.04039919 -1.94043912 0 0 Z " fill="#0A0A0A" transform="translate(647,661)"/>
<path d="M0 0 C0.94694229 -0.00686325 1.89388458 -0.0137265 2.86952209 -0.02079773 C5.99528051 -0.03907757 9.12053757 -0.03522645 12.24633789 -0.02954102 C14.42200382 -0.03410226 16.5976683 -0.03940766 18.77333069 -0.04542542 C23.3320196 -0.05435888 27.89053335 -0.05193065 32.44921875 -0.04199219 C38.28801615 -0.0305027 44.12620877 -0.05071291 49.96492672 -0.07990932 C54.45768569 -0.09826495 58.95029957 -0.09798009 63.44308662 -0.0922718 C65.59564627 -0.09211851 67.7482157 -0.09816949 69.90073967 -0.11056328 C72.91207576 -0.12545893 75.92229243 -0.11480615 78.93359375 -0.09765625 C79.82053925 -0.10732422 80.70748474 -0.11699219 81.62130737 -0.12695312 C87.07990398 -0.06193377 90.1980286 0.7730302 94.53149414 4.40405273 C97.41579304 7.86521142 98.07527795 10.89240419 97.87915039 15.41186523 C97.28239614 18.83146824 95.80088614 20.83605653 93.53149414 23.40405273 C88.35699971 26.73056199 83.98777931 26.83866302 78.04125977 26.80810547 C77.10392502 26.81496872 76.16659027 26.82183197 75.20085144 26.8289032 C72.11299345 26.84715372 69.02564431 26.84333653 65.93774414 26.83764648 C63.78592768 26.84220872 61.63411269 26.84751442 59.4822998 26.85353088 C54.97666497 26.86245826 50.47120742 26.86004255 45.96557617 26.85009766 C40.19518622 26.83860144 34.42540761 26.85883175 28.65509796 26.88801479 C24.2129529 26.9063695 19.77095459 26.90608588 15.32878113 26.90037727 C13.20134116 26.90022401 11.07389128 26.9062726 8.94648743 26.91866875 C5.97117845 26.93356492 2.99700231 26.92291179 0.02172852 26.90576172 C-0.8542952 26.91542969 -1.73031891 26.92509766 -2.63288879 26.93505859 C-8.06277468 26.86959952 -11.15512928 26.00860722 -15.46850586 22.40405273 C-18.35366928 18.94185663 -19.00768451 15.91608389 -18.82006836 11.39624023 C-18.07055337 7.1489886 -15.70013397 4.38966467 -12.41575623 1.76133728 C-8.24670297 -0.1586189 -4.53902467 -0.02298514 0 0 Z " fill="#090909" transform="translate(435.468505859375,148.595947265625)"/>
<path d="M0 0 C1.71818257 -0.00269848 3.43636364 -0.00658386 5.15454102 -0.01159668 C8.74542869 -0.01747502 12.3359168 -0.00898286 15.92675781 0.00976562 C20.5132071 0.03255442 25.0987199 0.01942235 29.68513489 -0.00452423 C33.23009201 -0.0190275 36.77482971 -0.01435557 40.3197937 -0.00401306 C42.0101635 -0.00135826 43.70055369 -0.00457133 45.39089966 -0.01393127 C61.8475603 -0.0850743 61.8475603 -0.0850743 68.4375 4.53125 C71.36543871 7.82518104 72.33780244 9.71942698 72.875 14.09375 C72.23558299 19.11774076 70.64981072 21.46678205 66.875 24.78125 C62.79175051 27.71281374 59.76037779 27.68500339 54.87011719 27.69238281 C53.69907692 27.69983017 53.69907692 27.69983017 52.50437927 27.70742798 C49.91436896 27.72206574 47.32441994 27.72885516 44.734375 27.734375 C42.9355672 27.74012624 41.13675942 27.74588398 39.33795166 27.75164795 C35.56172398 27.76216329 31.78551761 27.7680021 28.00927734 27.77148438 C23.17603772 27.77696251 18.34308076 27.80097367 13.50992966 27.82945633 C9.79182114 27.84810533 6.0737803 27.85328957 2.35562897 27.85482025 C0.57427682 27.85784348 -1.20707422 27.8658609 -2.98838043 27.87900543 C-5.48498321 27.89610922 -7.98090105 27.89417499 -10.47753906 27.88769531 C-11.21023514 27.8969101 -11.94293121 27.90612488 -12.6978302 27.9156189 C-18.5920516 27.86783083 -22.51199281 26.31195361 -26.9375 22.46875 C-29.32045561 18.16109948 -29.19022477 14.34645523 -28.5625 9.53125 C-27.24932116 5.75586084 -25.82428075 4.71280762 -22.53515625 2.43164062 C-15.62995489 -0.89254157 -7.49283746 -0.04149004 0 0 Z " fill="#121212" transform="translate(453.5625,787.46875)"/>
<path d="M0 0 C2.87319185 4.30978778 3.12729779 6.29713441 3.1386652 11.47742653 C3.14150742 12.15339532 3.14434964 12.82936411 3.14727798 13.5258168 C3.15566515 15.81325393 3.15689632 18.10064068 3.15821838 20.38809204 C3.162781 22.03561473 3.16778058 23.68313626 3.17318195 25.33065641 C3.18680668 29.87536312 3.19419391 34.42006232 3.20060861 38.96478415 C3.20859358 43.8591459 3.22229787 48.75349193 3.23532104 53.64784241 C3.25711088 62.13343439 3.27524617 70.61902794 3.29092598 79.10463333 C3.31360182 91.3735189 3.34174779 103.64238707 3.37124526 115.91125791 C3.41894925 135.81485437 3.4622058 155.71845794 3.50268555 175.62207031 C3.54202621 194.96094312 3.58344899 214.29980962 3.62768555 233.63867188 C3.63040982 234.82995766 3.63313409 236.02124345 3.63594092 237.24862881 C3.64962016 243.22473205 3.66334048 249.2008352 3.67708123 255.1769383 C3.79109009 304.78461237 3.89788967 354.39230011 4 404 C6.31 404.33 8.62 404.66 11 405 C11 405.66 11 406.32 11 407 C4.9453125 407.1953125 4.9453125 407.1953125 3 407 C0.17945938 404.17945938 0.74561521 402.38367238 0.73828697 398.42886925 C0.73429091 397.74277022 0.73029485 397.05667119 0.72617769 396.34978127 C0.71512194 394.02782448 0.71841604 391.70610277 0.7215271 389.38412476 C0.71652884 387.71185173 0.71065444 386.03958113 0.70397437 384.36731398 C0.68810337 379.75418304 0.6847398 375.14111287 0.68332577 370.52795792 C0.67964404 365.55996703 0.6644948 360.59200997 0.65071106 355.6240387 C0.62839565 347.01075975 0.61340816 338.39749277 0.60334396 329.78419113 C0.58878217 317.33067971 0.56325246 304.87720997 0.53501268 292.42372294 C0.48949912 272.22064401 0.45290323 252.0175591 0.421875 231.81445312 C0.39170812 212.18455962 0.35736644 192.55468076 0.31738281 172.92480469 C0.31492126 171.71559693 0.31245972 170.50638916 0.30992357 169.26053874 C0.29754934 163.19453101 0.28509273 157.12852345 0.27259517 151.06251597 C0.16895907 100.70836443 0.0797784 50.3541946 0 0 Z " fill="#020202" transform="translate(709,155)"/>
<path d="M0 0 C12.87 0.495 12.87 0.495 26 1 C26 16.51 26 32.02 26 48 C11.15 48 -3.7 48 -19 48 C-19 47.34 -19 46.68 -19 46 C-4.81 46 9.38 46 24 46 C24 31.81 24 17.62 24 3 C20.37 3 16.74 3 13 3 C10.43566849 2.86439796 7.87239663 2.70276409 5.3125 2.5 C3.51232422 2.36078125 3.51232422 2.36078125 1.67578125 2.21875 C0.35126953 2.11046875 0.35126953 2.11046875 -1 2 C-0.67 1.34 -0.34 0.68 0 0 Z " fill="#353535" transform="translate(318,463)"/>
<path d="M0 0 C16.17 0 32.34 0 49 0 C49 15.51 49 31.02 49 47 C48.01 46.505 48.01 46.505 47 46 C47 31.48 47 16.96 47 2 C31.82 2 16.64 2 1 2 C0.67 2.66 0.34 3.32 0 4 C0 2.68 0 1.36 0 0 Z " fill="#414141" transform="translate(416,581)"/>
<path d="M0 0 C6.39052386 0.11730201 12.78086808 0.24213771 19.17114258 0.37231445 C21.34688953 0.41573507 23.52267214 0.45740471 25.69848633 0.49731445 C28.81863168 0.55484502 31.93859633 0.61858823 35.05859375 0.68359375 C36.03775253 0.70030624 37.01691132 0.71701874 38.02574158 0.73423767 C39.37702904 0.7641555 39.37702904 0.7641555 40.75561523 0.79467773 C41.55281479 0.81022202 42.35001434 0.8257663 43.17137146 0.84178162 C45 1 45 1 46 2 C46.0928726 3.41225046 46.11746772 4.82908934 46.11352539 6.24438477 C46.11344986 7.14524307 46.11337433 8.04610138 46.11329651 8.97425842 C46.10813522 9.95341721 46.10297394 10.93257599 46.09765625 11.94140625 C46.0962413 12.93881332 46.09482635 13.9362204 46.09336853 14.96385193 C46.08775114 18.16343124 46.07519571 21.36294169 46.0625 24.5625 C46.05748724 26.72591045 46.05292395 28.88932199 46.04882812 31.05273438 C46.03777607 36.36851325 46.02102104 41.68425171 46 47 C45.34 47 44.68 47 44 47 C44 32.48 44 17.96 44 3 C29.81 3 15.62 3 1 3 C0.67 2.01 0.34 1.02 0 0 Z " fill="#333333" transform="translate(298,393)"/>
<path d="M0 0 C21.78 0.495 21.78 0.495 44 1 C44 16.18 44 31.36 44 47 C43.34 47 42.68 47 42 47 C42 32.48 42 17.96 42 3 C29.29997915 3.11867658 29.29997915 3.11867658 16.6003418 3.27026367 C15.0083069 3.27902543 13.4162653 3.2866701 11.82421875 3.29296875 C10.99748657 3.30831665 10.17075439 3.32366455 9.31896973 3.33947754 C6.9206543 3.34057617 6.9206543 3.34057617 3 3 C2.01 2.01 1.02 1.02 0 0 Z " fill="#414141" transform="translate(351,580)"/>
<path d="M0 0 C5.67830078 -0.02464705 11.35657069 -0.04283462 17.03491211 -0.05493164 C18.96818585 -0.05997256 20.90145576 -0.06680519 22.8347168 -0.07543945 C25.60726872 -0.08751565 28.37977041 -0.09323057 31.15234375 -0.09765625 C32.45702858 -0.10539818 32.45702858 -0.10539818 33.78807068 -0.11329651 C35.85905814 -0.11349185 37.92994324 -0.06208168 40 0 C41 1 41 1 41.11352539 4.78540039 C41.11336622 6.47282729 41.10766917 8.16025905 41.09765625 9.84765625 C41.0962413 10.7340831 41.09482635 11.62050995 41.09336853 12.53379822 C41.08775215 15.37673254 41.07519691 18.21958931 41.0625 21.0625 C41.05748711 22.98502491 41.05292384 24.90755104 41.04882812 26.83007812 C41.03777741 31.55341549 41.02050183 36.27669458 41 41 C40.34 41 39.68 41 39 41 C39 28.13 39 15.26 39 2 C26.13 2 13.26 2 0 2 C0 1.34 0 0.68 0 0 Z " fill="#292929" transform="translate(303,532)"/>
<path d="M0 0 C0 0.33 0 0.66 0 1 C-1.0415625 1.06058594 -2.083125 1.12117187 -3.15625 1.18359375 C-4.60416765 1.26821231 -6.05208426 1.35284873 -7.5 1.4375 C-8.51513672 1.49647461 -8.51513672 1.49647461 -9.55078125 1.55664062 C-17.36879042 2.01445197 -25.18360896 2.51147556 -33 3 C-33 16.2 -33 29.4 -33 43 C-33.66 43 -34.32 43 -35 43 C-35.02464574 37.03686834 -35.042834 31.07376605 -35.05493164 25.1105957 C-35.05997278 23.08031702 -35.06680557 21.05004198 -35.07543945 19.01977539 C-35.08751467 16.10822653 -35.09323034 13.1967255 -35.09765625 10.28515625 C-35.10281754 9.3716188 -35.10797882 8.45808136 -35.11329651 7.51686096 C-35.11349168 5.34424573 -35.06211805 3.17172704 -35 1 C-33.00728915 -0.99271085 -29.23069906 -0.46493382 -26.5 -0.625 C-25.74984619 -0.67003662 -24.99969238 -0.71507324 -24.22680664 -0.76147461 C-16.10861377 -1.16751088 -8.09147596 -0.65825524 0 0 Z " fill="#6B6C6C" transform="translate(521,581)"/>
<path d="M0 0 C0.33 0 0.66 0 1 0 C1 15.51 1 31.02 1 47 C14.53 47 28.06 47 42 47 C42 47.66 42 48.32 42 49 C27.81 49 13.62 49 -1 49 C-0.67 32.83 -0.34 16.66 0 0 Z " fill="#3C3C3C" transform="translate(556,276)"/>
<path d="M0 0 C4.02719672 1.61075897 6.7293084 4.45702005 9.71875 7.48828125 C10.25850464 8.02849411 10.79825928 8.56870697 11.35437012 9.12528992 C12.49301778 10.26695232 13.62924037 11.41103788 14.76318359 12.55737305 C16.48878491 14.30116667 18.22218936 16.0368887 19.95703125 17.77148438 C21.06557577 18.88494735 22.17366375 19.99886506 23.28125 21.11328125 C23.79490112 21.6280452 24.30855225 22.14280914 24.83776855 22.673172 C27.76813414 25.64190219 30.43507585 28.712708 33 32 C33.98230498 33.0173873 34.97469597 34.02596117 36 35 C33 35 33 35 30.48803711 32.81274414 C29.49355959 31.81101653 28.50715967 30.80122933 27.52734375 29.78515625 C27.00362686 29.25482285 26.47990997 28.72448944 25.94032288 28.17808533 C24.26549423 26.47981679 22.60112955 24.77173475 20.9375 23.0625 C19.26862841 21.35858522 17.59765237 19.65681141 15.92396545 17.95762634 C14.88238402 16.89904924 13.84390288 15.83741105 12.80882263 14.7724762 C10.17220249 12.03664535 10.17220249 12.03664535 7 10 C7 9.34 7 8.68 7 8 C6.01 7.67 5.02 7.34 4 7 C0 2.54285714 0 2.54285714 0 0 Z " fill="#404041" transform="translate(753,663)"/>
<path d="M0 0 C0.33 0 0.66 0 1 0 C1.01030746 0.57993713 1.02061493 1.15987427 1.03123474 1.75738525 C1.13939369 7.79198263 1.25398414 13.82643353 1.37231445 19.86083984 C1.41563314 22.11308732 1.45731042 24.36536699 1.49731445 26.61767578 C1.55509103 29.85459089 1.61876452 33.09134442 1.68359375 36.328125 C1.70030624 37.33554749 1.71701874 38.34296997 1.73423767 39.38092041 C1.75418289 40.32159363 1.77412811 41.26226685 1.79467773 42.23144531 C1.81799416 43.47054657 1.81799416 43.47054657 1.84178162 44.73468018 C1.99552266 46.93589488 2.39397606 48.88279793 3 51 C6.72231978 52.19114233 10.11372361 52.33502383 14 52 C17.3832553 50.1353694 17.3832553 50.1353694 20 48 C19.69611836 50.93752254 19.19330344 51.84080893 16.875 53.75 C13.2901772 55.30861861 10.87882048 55.41558791 7 55 C3.28670226 53.31213739 1.15463099 51.43882043 -1 48 C-1.32279968 45.69671631 -1.32279968 45.69671631 -1.2487793 43.13964844 C-1.22853195 42.17895447 -1.20828461 41.2182605 -1.18742371 40.22845459 C-1.15006607 39.19915833 -1.11270844 38.16986206 -1.07421875 37.109375 C-1.04777786 36.04962463 -1.02133698 34.98987427 -0.99409485 33.89801025 C-0.90635743 30.51476554 -0.79719677 27.13259701 -0.6875 23.75 C-0.62423873 21.45576767 -0.56237276 19.16149642 -0.50195312 16.8671875 C-0.35082065 11.24423973 -0.18209705 5.62202556 0 0 Z " fill="#161617" transform="translate(465,582)"/>
<path d="M0 0 C6.22964615 -0.02529951 12.45927912 -0.04284549 18.68896484 -0.05493164 C20.80941259 -0.05996872 22.92985685 -0.06679859 25.05029297 -0.07543945 C28.09343322 -0.08753234 31.13652766 -0.09323447 34.1796875 -0.09765625 C35.13181122 -0.10281754 36.08393494 -0.10797882 37.06491089 -0.11329651 C37.94567291 -0.11337204 38.82643494 -0.11344757 39.73388672 -0.11352539 C40.89970779 -0.11685631 40.89970779 -0.11685631 42.08908081 -0.12025452 C44 0 44 0 46 1 C45.67 2.32 45.34 3.64 45 5 C44.505 3.515 44.505 3.515 44 2 C29.48 2.33 14.96 2.66 0 3 C0 2.01 0 1.02 0 0 Z " fill="#040404" transform="translate(424,487)"/>
<path d="M0 0 C0.495 1.485 0.495 1.485 1 3 C-0.051875 2.979375 -1.10375 2.95875 -2.1875 2.9375 C-5.36258396 2.98955056 -7.92394918 3.36901522 -11 4 C-12.9996441 4.03772913 -15.00054061 4.04649906 -17 4 C-17 4.66 -17 5.32 -17 6 C-17.66644531 6.09796875 -18.33289063 6.1959375 -19.01953125 6.296875 C-25.18432966 7.2970381 -30.70993903 8.83063178 -36.4921875 11.1953125 C-39.13868711 12.04450085 -41.23920332 12.14842993 -44 12 C-40.78876649 8.78876649 -36.56818572 7.96451675 -32.3125 6.5625 C-31.36947021 6.25046631 -30.42644043 5.93843262 -29.45483398 5.61694336 C-19.85413035 2.51502715 -10.17336071 -0.2608554 0 0 Z " fill="#272727" transform="translate(670,559)"/>
<path d="M0 0 C3.10408807 -0.05807043 6.2080364 -0.09361914 9.3125 -0.125 C10.19357422 -0.14175781 11.07464844 -0.15851563 11.98242188 -0.17578125 C12.82998047 -0.18222656 13.67753906 -0.18867188 14.55078125 -0.1953125 C15.72120972 -0.21102295 15.72120972 -0.21102295 16.9152832 -0.22705078 C19 0 19 0 22 2 C22.1875 5.625 22.1875 5.625 22 9 C21.34 9 20.68 9 20 9 C20 21.54 20 34.08 20 47 C19.67 47 19.34 47 19 47 C19 32.48 19 17.96 19 3 C12.4 3 5.8 3 -1 3 C-0.67 2.01 -0.34 1.02 0 0 Z " fill="#1E1E1F" transform="translate(523,386)"/>
<path d="M0 0 C0 3 0 3 -1.3293457 4.66992188 C-1.93866943 5.26353516 -2.54799316 5.85714844 -3.17578125 6.46875 C-3.83900391 7.12230469 -4.50222656 7.77585937 -5.18554688 8.44921875 C-5.88744141 9.12597656 -6.58933594 9.80273438 -7.3125 10.5 C-8.00279297 11.17675781 -8.69308594 11.85351562 -9.40429688 12.55078125 C-10.69366187 13.81398522 -11.98607887 15.07408666 -13.2824707 16.33007812 C-14.86933055 17.87295251 -16.43903823 19.43097819 -18 21 C-18 19.68 -18 18.36 -18 17 C-17.34 17 -16.68 17 -16 17 C-16 16.34 -16 15.68 -16 15 C-14.53125 13.5546875 -14.53125 13.5546875 -12.5 11.875 C-8.09475988 8.1384124 -4.03400765 4.13056634 0 0 Z M-21 20 C-20.01 20.495 -20.01 20.495 -19 21 C-19.99 21.495 -19.99 21.495 -21 22 C-21 21.34 -21 20.68 -21 20 Z M-24 23 C-23.34 23.33 -22.68 23.66 -22 24 C-22.99 24.66 -23.98 25.32 -25 26 C-24.67 25.01 -24.34 24.02 -24 23 Z M-28 27 C-27.34 27.33 -26.68 27.66 -26 28 C-31.61 33.61 -37.22 39.22 -43 45 C-43 42 -43 42 -41.62304688 40.2824707 C-40.99462891 39.66976318 -40.36621094 39.05705566 -39.71875 38.42578125 C-39.04199219 37.75869141 -38.36523438 37.09160156 -37.66796875 36.40429688 C-36.95253906 35.71400391 -36.23710938 35.02371094 -35.5 34.3125 C-34.42685547 33.2596582 -34.42685547 33.2596582 -33.33203125 32.18554688 C-31.56120423 30.45013639 -29.78376544 28.7220927 -28 27 Z " fill="#343434" transform="translate(633,663)"/>
<path d="M0 0 C0 0.66 0 1.32 0 2 C-4.2311014 3.18928395 -8.33924052 3.12544358 -12.703125 3.09765625 C-13.95980988 3.09553383 -13.95980988 3.09553383 -15.24188232 3.09336853 C-17.91129157 3.08778197 -20.5806162 3.07523194 -23.25 3.0625 C-25.06249879 3.05748326 -26.87499889 3.05292066 -28.6875 3.04882812 C-33.12503248 3.03781694 -37.56250191 3.02056155 -42 3 C-42.33 2.34 -42.66 1.68 -43 1 C-37.67979128 0.85673577 -32.35956016 0.71434479 -27.03930664 0.57275391 C-25.23038099 0.52448998 -23.42146162 0.47598974 -21.61254883 0.42724609 C-19.00864259 0.35712166 -16.40471474 0.2878542 -13.80078125 0.21875 C-12.99538406 0.19687622 -12.18998688 0.17500244 -11.36018372 0.15246582 C-7.57215524 0.05273135 -3.78978391 -0.02657167 0 0 Z " fill="#5B5B5B" transform="translate(649,463)"/>
<path d="M0 0 C3.3956697 -0.08745946 6.79104773 -0.14054444 10.1875 -0.1875 C11.14720703 -0.21263672 12.10691406 -0.23777344 13.09570312 -0.26367188 C22.20270403 -0.35820822 22.20270403 -0.35820822 26 3 C26 3.66 26 4.32 26 5 C25.01 4.67 24.02 4.34 23 4 C21.15533558 3.85110253 19.30642725 3.7520899 17.45703125 3.68359375 C16.38388672 3.64169922 15.31074219 3.59980469 14.20507812 3.55664062 C13.08552734 3.51732422 11.96597656 3.47800781 10.8125 3.4375 C9.68134766 3.39431641 8.55019531 3.35113281 7.38476562 3.30664062 C4.58996646 3.20050901 1.79507838 3.09845615 -1 3 C-0.67 2.01 -0.34 1.02 0 0 Z " fill="#2E2E2E" transform="translate(435,386)"/>
<path d="M0 0 C0.33 0.99 0.66 1.98 1 3 C-1.61691164 5.67470955 -4.24481708 8.33834481 -6.875 11 C-7.62136719 11.763125 -8.36773438 12.52625 -9.13671875 13.3125 C-9.85214844 14.034375 -10.56757812 14.75625 -11.3046875 15.5 C-11.96452637 16.1703125 -12.62436523 16.840625 -13.30419922 17.53125 C-15 19 -15 19 -17 19 C-17 19.66 -17 20.32 -17 21 C-18.75 22.7265625 -18.75 22.7265625 -21 24.625 C-22.11375 25.57246094 -22.11375 25.57246094 -23.25 26.5390625 C-23.8275 27.02117188 -24.405 27.50328125 -25 28 C-25.66 27.67 -26.32 27.34 -27 27 C-26.42967041 26.43490723 -25.85934082 25.86981445 -25.27172852 25.28759766 C-22.69939325 22.73599645 -20.13090663 20.18055542 -17.5625 17.625 C-16.66466797 16.73554687 -15.76683594 15.84609375 -14.84179688 14.9296875 C-13.98779297 14.07890625 -13.13378906 13.228125 -12.25390625 12.3515625 C-11.46314697 11.56604004 -10.6723877 10.78051758 -9.85766602 9.97119141 C-7.94628982 8.13255698 -7.94628982 8.13255698 -7 6 C-6.34 6 -5.68 6 -5 6 C-5 5.34 -5 4.68 -5 4 C-3.37373596 2.61767557 -1.7074998 1.28062485 0 0 Z " fill="#343434" transform="translate(650,677)"/>
<path d="M0 0 C0.66 0 1.32 0 2 0 C3.55078125 1.79296875 3.55078125 1.79296875 5.3125 4.1875 C10.87405046 11.52645319 17.53202918 17.62306101 25 23 C24.67 23.66 24.34 24.32 24 25 C14.67940882 18.25060639 6.31304978 11.75653148 0 2 C0 1.34 0 0.68 0 0 Z " fill="#2C2C2D" transform="translate(250,839)"/>
<path d="M0 0 C0.86325845 2.41712366 1.1132654 3.64990694 0.3125 6.125 C-1.27574748 8.39392498 -2.44878008 8.96310729 -5 10 C-7.19824219 10.22705078 -7.19824219 10.22705078 -9.546875 10.1953125 C-10.81337891 10.18564453 -10.81337891 10.18564453 -12.10546875 10.17578125 C-12.97816406 10.15902344 -13.85085938 10.14226563 -14.75 10.125 C-15.63816406 10.11597656 -16.52632813 10.10695313 -17.44140625 10.09765625 C-19.62788058 10.07414577 -21.81380094 10.04128499 -24 10 C-24 9.01 -24 8.02 -24 7 C-17.07 7 -10.14 7 -3 7 C-2.67 5.02 -2.34 3.04 -2 1 C-1.34 0.67 -0.68 0.34 0 0 Z " fill="#303131" transform="translate(417,509)"/>
<path d="M0 0 C1.15927528 3.47782583 1.11313066 6.18803257 1.09765625 9.85546875 C1.09553383 10.84792351 1.09553383 10.84792351 1.09336853 11.86042786 C1.08777996 13.96949828 1.07522965 16.07846177 1.0625 18.1875 C1.05748352 19.61913909 1.05292087 21.05077985 1.04882812 22.48242188 C1.0378143 25.98831588 1.02055755 29.4941475 1 33 C-3.37021987 28.62978013 -2.18350863 21.30345176 -2.1875 15.5 C-2.19974609 14.56285156 -2.21199219 13.62570312 -2.22460938 12.66015625 C-2.24264395 4.18390492 -2.24264395 4.18390492 0 0 Z " fill="#363636" transform="translate(535,699)"/>
<path d="M0 0 C0.33 0 0.66 0 1 0 C1 14.19 1 28.38 1 43 C0.67 43 0.34 43 0 43 C-0.33 32.44 -0.66 21.88 -1 11 C-1.33 11 -1.66 11 -2 11 C-2.05399736 9.54207116 -2.09279177 8.08357288 -2.125 6.625 C-2.15980469 5.40683594 -2.15980469 5.40683594 -2.1953125 4.1640625 C-2 2 -2 2 0 0 Z " fill="#171717" transform="translate(241,155)"/>
<path d="M0 0 C3.9668398 1.9834199 4.66440093 7.99800712 6 12 C6.37898438 13.12535156 6.75796875 14.25070312 7.1484375 15.41015625 C8.89538764 20.80587814 10.23939073 25.28027138 10 31 C6.94290905 26.41436357 5.59998535 21.2709805 3.875 16.0625 C3.50246094 14.96486328 3.12992187 13.86722656 2.74609375 12.73632812 C2.39417969 11.67994141 2.04226563 10.62355469 1.6796875 9.53515625 C1.35726074 8.569729 1.03483398 7.60430176 0.70263672 6.60961914 C0 4 0 4 0 0 Z " fill="#2C2C2D" transform="translate(447,423)"/>
<path d="M0 0 C0.66 0 1.32 0 2 0 C2.08040527 0.589021 2.16081055 1.17804199 2.24365234 1.78491211 C2.61692475 4.50298485 2.99593079 7.22022988 3.375 9.9375 C3.50132812 10.86369141 3.62765625 11.78988281 3.7578125 12.74414062 C4.57644377 18.5768884 5.64759964 24.26699847 7 30 C4.18622879 28.33913302 3.14170467 27.48375044 2.20703125 24.29296875 C2.01173828 22.75576172 2.01173828 22.75576172 1.8125 21.1875 C1.67457031 20.17042969 1.53664063 19.15335938 1.39453125 18.10546875 C1.26433594 17.08066406 1.13414062 16.05585937 1 15 C0.81953125 13.98292969 0.6390625 12.96585938 0.453125 11.91796875 C0.03974142 9.25592101 -0.10322138 6.81261079 -0.0625 4.125 C-0.05347656 3.34382812 -0.04445313 2.56265625 -0.03515625 1.7578125 C-0.02355469 1.17773438 -0.01195312 0.59765625 0 0 Z " fill="#2D2C2D" transform="translate(558,724)"/>
<path d="M0 0 C0 0.33 0 0.66 0 1 C-11.35267742 1.79568202 -22.62018175 2.12818318 -34 2 C-34 1.34 -34 0.68 -34 0 C-22.53908548 -0.93236476 -11.46091452 -0.93236476 0 0 Z " fill="#5C5C5C" transform="translate(521,581)"/>
<path d="M0 0 C0.66 0.33 1.32 0.66 2 1 C1.01 4.63 0.02 8.26 -1 12 C-1.66 12 -2.32 12 -3 12 C-3.20625 12.763125 -3.4125 13.52625 -3.625 14.3125 C-8.66666667 27.83333333 -8.66666667 27.83333333 -13 30 C-10.97853529 24.68972743 -8.47349498 19.61681983 -6.00976562 14.50195312 C-3.7433279 9.74286074 -1.78769295 4.95958701 0 0 Z " fill="#2D2D2D" transform="translate(815,755)"/>
<path d="M0 0 C0.66 0 1.32 0 2 0 C3.2745084 2.35223997 4.54465898 4.70666931 5.8125 7.0625 C6.16892578 7.71927734 6.52535156 8.37605469 6.89257812 9.05273438 C9.16745513 13.28943192 11.16713237 17.55370596 13 22 C12.01 22.33 11.02 22.66 10 23 C9.52949219 21.90300781 9.05898438 20.80601562 8.57421875 19.67578125 C7.94549652 18.22127461 7.31658 16.76685194 6.6875 15.3125 C6.37876953 14.59126953 6.07003906 13.87003906 5.75195312 13.12695312 C4.06087018 9.22856192 2.19731269 5.64415858 0 2 C0 1.34 0 0.68 0 0 Z " fill="#252526" transform="translate(802,644)"/>
<path d="M0 0 C4.68904588 1.42300113 7.51610475 4.15696334 10.8125 7.625 C11.31458984 8.140625 11.81667969 8.65625 12.33398438 9.1875 C13.56296227 10.45159154 14.78246001 11.72488806 16 13 C15.67 13.99 15.34 14.98 15 16 C12.77669089 13.77669089 10.55359063 11.5531829 8.33203125 9.328125 C7.00147432 7.99979681 5.66767933 6.67465109 4.32421875 5.359375 C1.10169798 2.20339595 1.10169798 2.20339595 0 0 Z " fill="#323232" transform="translate(792,596)"/>
<path d="M0 0 C-1.33803279 3.0977963 -2.64452778 4.78786546 -5.37109375 6.76171875 C-6.02787109 7.24060547 -6.68464844 7.71949219 -7.36132812 8.21289062 C-8.04646484 8.69951172 -8.73160156 9.18613281 -9.4375 9.6875 C-10.11876953 10.18572266 -10.80003906 10.68394531 -11.50195312 11.19726562 C-14.36494218 13.26388945 -16.6225952 14.8741984 -20 16 C-18.32897175 10.98691526 -15.46750605 9.67030054 -10.91015625 7.18359375 C-8.15818401 5.47838396 -5.85217215 3.36447952 -3.48046875 1.171875 C-2 0 -2 0 0 0 Z " fill="#2A2A2A" transform="translate(794,831)"/>
<path d="M0 0 C3.49822656 2.33215104 4.18701094 4.29519627 6 8 C6.66 8.33 7.32 8.66 8 9 C8 9.66 8 10.32 8 11 C8.99 11 9.98 11 11 11 C11 11.99 11 12.98 11 14 C12.32 14.66 13.64 15.32 15 16 C14.01 16.33 13.02 16.66 12 17 C10.55524014 15.77937479 9.11949236 14.54807874 7.6875 13.3125 C6.88699219 12.62800781 6.08648438 11.94351563 5.26171875 11.23828125 C2.93993126 8.94055373 1.42734335 6.93321368 0 4 C0 2.68 0 1.36 0 0 Z " fill="#121212" transform="translate(587,715)"/>
<path d="M0 0 C0.66 0.66 1.32 1.32 2 2 C-0.5621487 3.60473003 -3.12470555 5.20880182 -5.6875 6.8125 C-6.40873047 7.26431641 -7.12996094 7.71613281 -7.87304688 8.18164062 C-11.56196728 10.48932142 -15.25818621 12.7785287 -19 15 C-19.33 14.34 -19.66 13.68 -20 13 C-17.60512849 11.39438174 -15.20914587 9.79046593 -12.8125 8.1875 C-12.13896484 7.73568359 -11.46542969 7.28386719 -10.77148438 6.81835938 C-7.23101931 4.45229248 -3.67811346 2.14973234 0 0 Z " fill="#2F2F2F" transform="translate(626,597)"/>
<path d="M0 0 C0.66 0 1.32 0 2 0 C3.6074907 3.21498139 3.47314549 6.51298258 3 10 C0.95899274 13.93622829 -0.74985925 16.48209259 -5 18 C-4.34 16.68 -3.68 15.36 -3 14 C-2.34 14 -1.68 14 -1 14 C-0.80426392 12.56359829 -0.61872184 11.12580496 -0.4375 9.6875 C-0.28087891 8.48673828 -0.28087891 8.48673828 -0.12109375 7.26171875 C0.14755178 4.83182884 0.14755178 4.83182884 -1 2 C-0.67 1.34 -0.34 0.68 0 0 Z " fill="#1F1F1F" transform="translate(656,515)"/>
<path d="M0 0 C0.99 0 1.98 0 3 0 C3.61220683 5.99962696 3.24524791 9.86642565 -0.62109375 14.625 C-2.25668317 16.25595602 -3.80409691 17.2680323 -6 18 C-5.02856429 15.83295111 -4.30833501 14.2579946 -2.46875 12.71875 C-0.41767872 10.3185602 -0.49567522 8.42647878 -0.3125 5.3125 C-0.24675781 4.31863281 -0.18101562 3.32476563 -0.11328125 2.30078125 C-0.07589844 1.54152344 -0.03851562 0.78226563 0 0 Z " fill="#121212" transform="translate(797,710)"/>
<path d="M0 0 C6.57763411 4.30345211 11.59009241 9.47896644 16 16 C16 16.66 16 17.32 16 18 C12.57975798 16.85991933 12.20086519 16.18947816 10.25 13.3125 C7.65105894 9.66875852 4.8817038 7.01453382 1.3203125 4.32421875 C0 3 0 3 0 0 Z " fill="#2A2A2A" transform="translate(666,128)"/>
<path d="M0 0 C2 3 2 3 1.57421875 5.8125 C1.13529297 7.3903125 1.13529297 7.3903125 0.6875 9 C0.40261719 10.051875 0.11773437 11.10375 -0.17578125 12.1875 C-0.74686539 14.13622313 -1.35784278 16.07352835 -2 18 C-2.66 18 -3.32 18 -4 18 C-4.33 18.99 -4.66 19.98 -5 21 C-6.33201473 18.33597054 -5.69751146 17.4413616 -4.78515625 14.6484375 C-4.51123047 13.79765625 -4.23730469 12.946875 -3.95507812 12.0703125 C-3.66052734 11.18085938 -3.36597656 10.29140625 -3.0625 9.375 C-2.77181641 8.4778125 -2.48113281 7.580625 -2.18164062 6.65625 C-1.46100166 4.43526435 -0.73354395 2.21675021 0 0 Z " fill="#262626" transform="translate(427,400)"/>
<path d="M0 0 C3.8220231 1.46675425 7.46580139 3.16581523 11.125 5 C12.15882813 5.515625 13.19265625 6.03125 14.2578125 6.5625 C17 8 17 8 20 10 C16.38890924 11.20369692 15.20571389 10.42717785 11.90625 8.79492188 C11.2771875 8.47072266 10.648125 8.14652344 10 7.8125 C9.05640625 7.35520508 9.05640625 7.35520508 8.09375 6.88867188 C4.51641842 5.08105835 2.08466198 3.45655351 0 0 Z " fill="#252625" transform="translate(279,837)"/>
<path d="M0 0 C3.45003654 1.15001218 3.91470459 1.90844215 5.91796875 4.81640625 C6.44970703 5.58017578 6.98144531 6.34394531 7.52929688 7.13085938 C8.07650391 7.93330078 8.62371094 8.73574219 9.1875 9.5625 C9.74630859 10.36880859 10.30511719 11.17511719 10.88085938 12.00585938 C12.26089103 13.99923843 13.63353508 15.99730749 15 18 C14.01 18 13.02 18 12 18 C10.61328125 16.5390625 10.61328125 16.5390625 9.3125 14.625 C8.65701172 13.68527344 8.65701172 13.68527344 7.98828125 12.7265625 C7 11 7 11 7 9 C6.34 9 5.68 9 5 9 C2.82796 6.03812728 1.16438003 3.49314009 0 0 Z " fill="#1E1E1E" transform="translate(810,614)"/>
<path d="M0 0 C-0.66 0.66 -1.32 1.32 -2 2 C-3.32 2 -4.64 2 -6 2 C-6 2.66 -6 3.32 -6 4 C-7.76913824 4.22226864 -9.54044371 4.42733873 -11.3125 4.625 C-12.29863281 4.74101563 -13.28476562 4.85703125 -14.30078125 4.9765625 C-17 5 -17 5 -20 3 C-17.04340215 2.30415424 -14.08512767 1.61801493 -11.125 0.9375 C-10.28324219 0.73833984 -9.44148437 0.53917969 -8.57421875 0.33398438 C-7.76855469 0.15029297 -6.96289062 -0.03339844 -6.1328125 -0.22265625 C-5.38918457 -0.39547119 -4.64555664 -0.56828613 -3.87939453 -0.74633789 C-2 -1 -2 -1 0 0 Z " fill="#2B2B2B" transform="translate(732,840)"/>
<path d="M0 0 C0.66 0 1.32 0 2 0 C0.41467191 4.55564061 -1.99003081 8.31475769 -4.625 12.3125 C-5.04523437 12.95767578 -5.46546875 13.60285156 -5.8984375 14.26757812 C-6.92838241 15.84760724 -7.96365628 17.42416047 -9 19 C-9.33 18.01 -9.66 17.02 -10 16 C-8.80871795 13.71744477 -7.59197292 11.64354411 -6.1875 9.5 C-5.81818359 8.91863281 -5.44886719 8.33726562 -5.06835938 7.73828125 C-3.41075411 5.1372992 -1.71082449 2.56623674 0 0 Z " fill="#232323" transform="translate(827,788)"/>
<path d="M0 0 C3.3429554 0.28653903 5.00691925 1.00503218 7.75 3 C10.70067962 6.93423949 10.88468998 10.18842727 11 15 C10.01 15 9.02 15 8 15 C8.0825 14.13375 8.165 13.2675 8.25 12.375 C7.94126623 8.20709412 6.60239421 6.21472226 4 3 C3.34 3 2.68 3 2 3 C2 2.34 2 1.68 2 1 C1.34 0.67 0.68 0.34 0 0 Z " fill="#333333" transform="translate(648,441)"/>
<path d="M0 0 C1.00693162 3.12179408 0.97289724 4.98969669 0.00390625 8.109375 C-0.22490234 8.86347656 -0.45371094 9.61757813 -0.68945312 10.39453125 C-0.93630859 11.17183594 -1.18316406 11.94914063 -1.4375 12.75 C-1.68048828 13.54277344 -1.92347656 14.33554687 -2.17382812 15.15234375 C-2.77354195 17.10435346 -3.38558121 19.05256883 -4 21 C-4.66 20.67 -5.32 20.34 -6 20 C-5.18918919 11.89189189 -5.18918919 11.89189189 -3 8 C-1.95224854 5.34980513 -0.98117378 2.67592848 0 0 Z " fill="#2A2A2A" transform="translate(720,668)"/>
<path d="M0 0 C1.6254308 0.14095064 3.25034051 0.28792087 4.875 0.4375 C5.77992188 0.51871094 6.68484375 0.59992187 7.6171875 0.68359375 C10 1 10 1 12 2 C12 2.66 12 3.32 12 4 C13.32 4.33 14.64 4.66 16 5 C16 5.66 16 6.32 16 7 C10.53262809 5.25192871 5.24175152 3.34205919 0 1 C0 0.67 0 0.34 0 0 Z " fill="#1E1E1E" transform="translate(730,588)"/>
<path d="M0 0 C2.9917248 2.48053373 3.7421867 4.77876671 4.6875 8.5 C5.06455078 9.93859375 5.06455078 9.93859375 5.44921875 11.40625 C6 14 6 14 6 17 C5.34 17 4.68 17 4 17 C3.32389577 15.10751181 2.65949561 13.2108398 2 11.3125 C1.62875 10.25675781 1.2575 9.20101563 0.875 8.11328125 C0.0608143 5.21637944 -0.17709796 2.98299377 0 0 Z " fill="#222121" transform="translate(469,491)"/>
<path d="M0 0 C0.66 0.66 1.32 1.32 2 2 C-0.57093428 2.58764212 -2.79337872 3.01059596 -5.4375 2.875 C-8.81539995 3.03977561 -11.07854584 4.36942093 -14 6 C-13.08486681 3.71216703 -12.34515354 2.26550272 -10.375 0.75 C-6.78047866 -0.385112 -3.7703849 -0.24325064 0 0 Z " fill="#2B2B2C" transform="translate(480,266)"/>
<path d="M0 0 C0.99 0 1.98 0 3 0 C3.41750113 6.05376634 3.11311805 9.181776 -1 14 C-1.99 14.33 -2.98 14.66 -4 15 C-2.125 11.125 -2.125 11.125 -1 10 C-0.76712992 8.31816052 -0.58735834 6.6287584 -0.4375 4.9375 C-0.31181641 3.55884766 -0.31181641 3.55884766 -0.18359375 2.15234375 C-0.12300781 1.44207031 -0.06242188 0.73179687 0 0 Z " fill="#232323" transform="translate(530,158)"/>
<path d="M0 0 C3.80133442 1.67923025 6.97082702 4.11462834 10.25 6.625 C10.80429687 7.04523437 11.35859375 7.46546875 11.9296875 7.8984375 C13.28866663 8.92938719 14.64463835 9.96429911 16 11 C15.67 11.66 15.34 12.32 15 13 C12.49234716 11.21885509 9.99529316 9.42340948 7.5 7.625 C6.78457031 7.11710938 6.06914063 6.60921875 5.33203125 6.0859375 C4.31689453 5.35117187 4.31689453 5.35117187 3.28125 4.6015625 C2.33862305 3.92601318 2.33862305 3.92601318 1.37695312 3.23681641 C0.69536133 2.62459229 0.69536133 2.62459229 0 2 C0 1.34 0 0.68 0 0 Z " fill="#2A2A2A" transform="translate(587,831)"/>
<path d="M0 0 C5.91969002 1.75990784 11.41634992 4.39694605 17 7 C16.01 7.66 15.02 8.32 14 9 C9.38 6.69 4.76 4.38 0 2 C0 1.34 0 0.68 0 0 Z " fill="#2A2A2A" transform="translate(627,829)"/>
<path d="M0 0 C0.33 0 0.66 0 1 0 C1 2.31 1 4.62 1 7 C-1.40435006 8.20217503 -2.68381369 8.03897118 -5.3515625 7.87890625 C-6.20234375 7.83056641 -7.053125 7.78222656 -7.9296875 7.73242188 C-8.81914062 7.67634766 -9.70859375 7.62027344 -10.625 7.5625 C-11.5221875 7.51029297 -12.419375 7.45808594 -13.34375 7.40429688 C-15.56284012 7.2744565 -17.78149871 7.13948661 -20 7 C-20 6.67 -20 6.34 -20 6 C-14.06 5.67 -8.12 5.34 -2 5 C-1.34 3.35 -0.68 1.7 0 0 Z " fill="#171717" transform="translate(501,510)"/>
<path d="M0 0 C1.57156655 3.1431331 0.11705576 5.365464 -0.9375 8.625 C-1.31777344 9.81351563 -1.69804688 11.00203125 -2.08984375 12.2265625 C-2.39019531 13.14179687 -2.69054687 14.05703125 -3 15 C-3.66 14.67 -4.32 14.34 -5 14 C-4.7451971 12.03951648 -4.47063056 10.08159327 -4.1875 8.125 C-4.03667969 7.03445313 -3.88585937 5.94390625 -3.73046875 4.8203125 C-3 2 -3 2 0 0 Z " fill="#2B2B2B" transform="translate(714,691)"/>
<path d="M0 0 C0 3.62031557 -1.1430506 4.95460298 -3 8 C-3.144375 8.680625 -3.28875 9.36125 -3.4375 10.0625 C-4.23055303 12.79412711 -5.92589295 14.12661299 -8 16 C-8.33 15.34 -8.66 14.68 -9 14 C-7.77731838 11.72888366 -6.51726078 9.60039342 -5.125 7.4375 C-4.74730469 6.83486328 -4.36960937 6.23222656 -3.98046875 5.61132812 C-1.19462386 1.19462386 -1.19462386 1.19462386 0 0 Z " fill="#282828" transform="translate(562,623)"/>
<path d="M0 0 C-2.58535679 1.72357119 -4.03811614 2.44735018 -6.9375 3.1875 C-7.60652344 3.36667969 -8.27554688 3.54585937 -8.96484375 3.73046875 C-11.24680888 4.03268678 -12.82026659 3.68756692 -15 3 C-9.55326697 -0.29633454 -6.25490443 -1.56372611 0 0 Z " fill="#1E1F1F" transform="translate(738,863)"/>
<path d="M0 0 C0.66 0.33 1.32 0.66 2 1 C-3.82643885 6.97976619 -3.82643885 6.97976619 -8.625 7.0625 C-9.73875 7.041875 -10.8525 7.02125 -12 7 C-12 6.01 -12 5.02 -12 4 C-10.948125 4.0825 -9.89625 4.165 -8.8125 4.25 C-4.46236331 3.96474513 -3.0684847 2.97550031 0 0 Z " fill="#2E2E2E" transform="translate(414,630)"/>
<path d="M0 0 C0.33 0.99 0.66 1.98 1 3 C0.01 2.67 -0.98 2.34 -2 2 C-3.69867188 1.85222064 -5.40177489 1.75252934 -7.10546875 1.68359375 C-8.57983398 1.62075195 -8.57983398 1.62075195 -10.08398438 1.55664062 C-11.10814453 1.51732422 -12.13230469 1.47800781 -13.1875 1.4375 C-14.22326172 1.39431641 -15.25902344 1.35113281 -16.32617188 1.30664062 C-18.8839819 1.20055634 -21.44188845 1.09849854 -24 1 C-24 0.67 -24 0.34 -24 0 C-20.75052139 -0.19738568 -17.50041127 -0.3811754 -14.25 -0.5625 C-13.32960938 -0.61857422 -12.40921875 -0.67464844 -11.4609375 -0.73242188 C-10.57148438 -0.78076172 -9.68203125 -0.82910156 -8.765625 -0.87890625 C-7.94868164 -0.9260376 -7.13173828 -0.97316895 -6.29003906 -1.02172852 C-3.96167824 -0.99963639 -2.1697582 -0.85463497 0 0 Z " fill="#212021" transform="translate(460,388)"/>
<path d="M0 0 C0.33 0.99 0.66 1.98 1 3 C-3.51350747 6.52273754 -6.28341664 7.45732667 -12 7 C-12 6.01 -12 5.02 -12 4 C-10.948125 4.0825 -9.89625 4.165 -8.8125 4.25 C-4.46236331 3.96474513 -3.0684847 2.97550031 0 0 Z " fill="#313131" transform="translate(484,630)"/>
<path d="M0 0 C1.57156655 3.1431331 0.11705576 5.365464 -0.9375 8.625 C-1.31777344 9.81351563 -1.69804688 11.00203125 -2.08984375 12.2265625 C-2.39019531 13.14179687 -2.69054687 14.05703125 -3 15 C-3.33 15 -3.66 15 -4 15 C-4.0272415 13.58344207 -4.04650467 12.16672955 -4.0625 10.75 C-4.07410156 9.96109375 -4.08570313 9.1721875 -4.09765625 8.359375 C-4.00130042 6.03141815 -3.81626259 4.18291938 -3 2 C-2.01 1.34 -1.02 0.68 0 0 Z " fill="#2C2C2C" transform="translate(698,746)"/>
<path d="M0 0 C4.77609498 1.64178265 8.79382904 4.26546702 13 7 C12.67 7.99 12.34 8.98 12 10 C9.99426318 8.71656721 7.99563881 7.4239631 6 6.125 C5.42765625 5.76019531 4.8553125 5.39539063 4.265625 5.01953125 C2.80818084 4.06525233 1.39962775 3.03722413 0 2 C0 1.34 0 0.68 0 0 Z " fill="#2B2B2B" transform="translate(759,601)"/>
<path d="M0 0 C2.87255066 2.42195448 3.70838919 4.59742703 4.6875 8.1875 C4.93886719 9.08855469 5.19023438 9.98960937 5.44921875 10.91796875 C5.63097656 11.60503906 5.81273437 12.29210937 6 13 C5.34 13.66 4.68 14.32 4 15 C3.32532438 13.25307205 2.66055844 11.50231475 2 9.75 C1.62875 8.77546875 1.2575 7.8009375 0.875 6.796875 C0 4 0 4 0 0 Z " fill="#2A2A2A" transform="translate(540,759)"/>
<path d="M0 0 C0.66 0 1.32 0 2 0 C2.103125 0.639375 2.20625 1.27875 2.3125 1.9375 C2.539375 2.618125 2.76625 3.29875 3 4 C3.99 4.33 4.98 4.66 6 5 C6.33 6.98 6.66 8.96 7 11 C6.34 11 5.68 11 5 11 C4.16151196 9.54462432 3.32936066 8.08559627 2.5 6.625 C1.80390625 5.40683594 1.80390625 5.40683594 1.09375 4.1640625 C0 2 0 2 0 0 Z " fill="#232323" transform="translate(549,783)"/>
<path d="M0 0 C1.30875939 3.92627817 0.34022673 5.30170519 -1.25 9.0625 C-1.68828125 10.12597656 -2.1265625 11.18945312 -2.578125 12.28515625 C-4 15 -4 15 -7 17 C-5.1668733 11.00067626 -2.92678249 5.55079437 0 0 Z " fill="#323232" transform="translate(552,638)"/>
<path d="M0 0 C2.71232939 4.06849409 2.30699887 6.16476784 2 11 C1.34 11.66 0.68 12.32 0 13 C-0.19658808 11.58456585 -0.38187546 10.16755969 -0.5625 8.75 C-0.66691406 7.96109375 -0.77132812 7.1721875 -0.87890625 6.359375 C-1.00027349 3.99467126 -0.69633257 2.2488963 0 0 Z " fill="#2F2F2F" transform="translate(665,771)"/>
<path d="M0 0 C1.9375 0.75 1.9375 0.75 4 2 C4.625 3.875 4.625 3.875 5 6 C5.63654342 7.3479743 6.29605388 8.68596724 7 10 C3.45418941 8.1337839 1.3289144 6.8659328 0 3 C0 2.01 0 1.02 0 0 Z " fill="#262626" transform="translate(291,385)"/>
<path d="M0 0 C0.33 0.66 0.66 1.32 1 2 C0.36328125 3.875 0.36328125 3.875 -0.6875 6 C-1.18830078 7.051875 -1.18830078 7.051875 -1.69921875 8.125 C-3.21910635 10.31582897 -4.55687434 11.01246289 -7 12 C-5.61735163 9.13132769 -4.07851447 6.43975968 -2.375 3.75 C-1.92898438 3.04359375 -1.48296875 2.3371875 -1.0234375 1.609375 C-0.68570313 1.07828125 -0.34796875 0.5471875 0 0 Z " fill="#40403F" transform="translate(689,777)"/>
<path d="M0 0 C0.66 0.33 1.32 0.66 2 1 C1.57811541 2.8161982 1.13700835 4.62794073 0.6875 6.4375 C0.44386719 7.44683594 0.20023438 8.45617187 -0.05078125 9.49609375 C-0.36402344 10.32238281 -0.67726563 11.14867187 -1 12 C-1.99 12.33 -2.98 12.66 -4 13 C-3.52140759 11.39566191 -3.04210442 9.79153584 -2.5625 8.1875 C-2.29566406 7.29417969 -2.02882813 6.40085937 -1.75390625 5.48046875 C-1.19612127 3.64526945 -0.60655425 1.81966274 0 0 Z " fill="#212122" transform="translate(815,755)"/>
<path d="M0 0 C0.66 0 1.32 0 2 0 C2.33 3.96 2.66 7.92 3 12 C0 9 0 9 -0.29296875 6.73828125 C-0.25816406 5.93777344 -0.22335937 5.13726563 -0.1875 4.3125 C-0.16042969 3.50425781 -0.13335938 2.69601562 -0.10546875 1.86328125 C-0.07066406 1.24839844 -0.03585937 0.63351562 0 0 Z " fill="#1B1B1B" transform="translate(734,752)"/>
<path d="M0 0 C0.66 0.33 1.32 0.66 2 1 C0.35 4.63 -1.3 8.26 -3 12 C-3.66 10.68 -4.32 9.36 -5 8 C-4.34 8 -3.68 8 -3 8 C-2.690625 6.865625 -2.38125 5.73125 -2.0625 4.5625 C-1 1 -1 1 0 0 Z " fill="#313131" transform="translate(833,776)"/>
<path d="M0 0 C1.97179598 2.95769397 2.36929854 4.16417962 2.75 7.5625 C2.84796875 8.34753906 2.9459375 9.13257813 3.046875 9.94140625 C3 12 3 12 1 14 C0.63794536 12.04310963 0.28558579 10.08442332 -0.0625 8.125 C-0.25972656 7.03445313 -0.45695313 5.94390625 -0.66015625 4.8203125 C-1 2 -1 2 0 0 Z " fill="#202020" transform="translate(817,673)"/>
<path d="M0 0 C1.17046875 0.10183594 2.3409375 0.20367188 3.546875 0.30859375 C4.43890625 0.39238281 5.3309375 0.47617187 6.25 0.5625 C6.25 0.8925 6.25 1.2225 6.25 1.5625 C-1.67 2.0575 -1.67 2.0575 -9.75 2.5625 C-10.08 1.9025 -10.41 1.2425 -10.75 0.5625 C-7.06599416 -0.66854155 -3.83525024 -0.34517252 0 0 Z " fill="#3B3B3B" transform="translate(514.75,580.4375)"/>
<path d="M0 0 C1.98 0.99 1.98 0.99 4 2 C4 2.66 4 3.32 4 4 C6.97 4.495 6.97 4.495 10 5 C10 5.66 10 6.32 10 7 C5.85463326 6.5289356 3.0080208 6.0080208 0 3 C0 2.01 0 1.02 0 0 Z " fill="#2A2B2B" transform="translate(293,527)"/>
<path d="M0 0 C4.37859255 0.50522222 6.81651224 3.17827222 10 6 C9.01 6.33 8.02 6.66 7 7 C6.01 6.34 5.02 5.68 4 5 C4 4.34 4 3.68 4 3 C2.68 2.34 1.36 1.68 0 1 C0 0.67 0 0.34 0 0 Z " fill="#2F2F2F" transform="translate(782,588)"/>
<path d="M0 0 C-1.49097658 3.7952131 -3.75700849 5.61042731 -7 8 C-7 5 -7 5 -4.625 2.3125 C-2 0 -2 0 0 0 Z " fill="#3C3C3C" transform="translate(281,132)"/>
<path d="M0 0 C0.66 0.33 1.32 0.66 2 1 C0.1875 4 0.1875 4 -2 7 C-2.99 7 -3.98 7 -5 7 C-3.75023244 3.34683329 -3.32901247 2.21934164 0 0 Z " fill="#232323" transform="translate(431,790)"/>
<path d="M0 0 C0.86625 0.3403125 0.86625 0.3403125 1.75 0.6875 C1.75 1.3475 1.75 2.0075 1.75 2.6875 C-0.89 3.3475 -3.53 4.0075 -6.25 4.6875 C-6.25 4.0275 -6.25 3.3675 -6.25 2.6875 C-3.02697842 -0.42041367 -3.02697842 -0.42041367 0 0 Z " fill="#292929" transform="translate(650.25,586.3125)"/>
<path d="M0 0 C4.29 0 8.58 0 13 0 C13 0.99 13 1.98 13 3 C12.01 2.7834375 12.01 2.7834375 11 2.5625 C7.34400449 1.87700084 3.69377805 1.43824485 0 1 C0 0.67 0 0.34 0 0 Z " fill="#131313" transform="translate(636,531)"/>
<path d="M0 0 C0.88492145 2.47778006 1.11637742 3.66056586 0.25 6.1875 C-1 8 -1 8 -4 9 C-3.71848913 7.68528432 -3.42446661 6.37324233 -3.125 5.0625 C-2.96257812 4.33160156 -2.80015625 3.60070312 -2.6328125 2.84765625 C-2 1 -2 1 0 0 Z " fill="#232323" transform="translate(417,509)"/>
<path d="M0 0 C-0.33 3.3 -0.66 6.6 -1 10 C-2.88343932 6.23312136 -3.22057835 4.97041037 -3 1 C-1 0 -1 0 0 0 Z " fill="#232423" transform="translate(845,740)"/>
<path d="M0 0 C4.455 0.99 4.455 0.99 9 2 C7.68 2.99 6.36 3.98 5 5 C2.5 3.625 2.5 3.625 0 2 C0 1.34 0 0.68 0 0 Z " fill="#2F2E2F" transform="translate(728,562)"/>
<path d="M0 0 C0.33 0.99 0.66 1.98 1 3 C0.00390625 4.82421875 0.00390625 4.82421875 -1.4375 6.6875 C-1.91058594 7.31011719 -2.38367188 7.93273437 -2.87109375 8.57421875 C-3.24363281 9.04472656 -3.61617187 9.51523437 -4 10 C-4.33 9.01 -4.66 8.02 -5 7 C-4.00390625 5.17578125 -4.00390625 5.17578125 -2.5625 3.3125 C-2.08941406 2.68988281 -1.61632812 2.06726563 -1.12890625 1.42578125 C-0.75636719 0.95527344 -0.38382813 0.48476563 0 0 Z " fill="#2F2F2F" transform="translate(822,797)"/>
<path d="M0 0 C0.33 0.66 0.66 1.32 1 2 C-4.94 1.01 -4.94 1.01 -11 0 C-11 -0.33 -11 -0.66 -11 -1 C-6.72306069 -2.25792333 -4.07539885 -1.75983132 0 0 Z " fill="#494949" transform="translate(653,122)"/>
<path d="M0 0 C2.32472205 2.85306797 3.7508258 5.54074837 5 9 C1.57945994 7.85981998 0.7573799 7.07541482 -1 4 C-0.6875 1.75 -0.6875 1.75 0 0 Z " fill="#333333" transform="translate(267,818)"/>
<path d="M0 0 C2.4375 0.6875 2.4375 0.6875 5 2 C5.8125 4.625 5.8125 4.625 6 7 C3.95880212 5.38405168 1.95927063 3.7143618 0 2 C0 1.34 0 0.68 0 0 Z " fill="#303030" transform="translate(781,618)"/>
<path d="M0 0 C3.40424844 1.13474948 4.21653709 1.96811304 6 5 C5.67 5.99 5.34 6.98 5 8 C0 2.25 0 2.25 0 0 Z " fill="#333333" transform="translate(561,803)"/>
<path d="M0 0 C0.66 0 1.32 0 2 0 C3.2890625 1.75 3.2890625 1.75 4.625 4 C5.07101562 4.7425 5.51703125 5.485 5.9765625 6.25 C6.31429687 6.8275 6.65203125 7.405 7 8 C3.68532105 6.46593371 1.96055229 5.13688367 0 2 C0 1.34 0 0.68 0 0 Z " fill="#242424" transform="translate(582,790)"/>
<path d="M0 0 C2 4 2 4 2 7 C0.02 7.99 0.02 7.99 -2 9 C-1.34 6.03 -0.68 3.06 0 0 Z " fill="#323232" transform="translate(680,719)"/>
<path d="M0 0 C2.4375 0.75 2.4375 0.75 5 2 C5.8125 4.125 5.8125 4.125 6 6 C1.125 3.375 1.125 3.375 0 0 Z " fill="#313231" transform="translate(533,630)"/>
<path d="M0 0 C0.33 0.99 0.66 1.98 1 3 C-1.31 4.32 -3.62 5.64 -6 7 C-6.33 6.34 -6.66 5.68 -7 5 C-4.69 3.35 -2.38 1.7 0 0 Z " fill="#262726" transform="translate(613,605)"/>
<path d="M0 0 C3.125 0.75 3.125 0.75 6 2 C6.33 2.66 6.66 3.32 7 4 C3.7 3.34 0.4 2.68 -3 2 C-2.01 1.34 -1.02 0.68 0 0 Z " fill="#474747" transform="translate(722,585)"/>
<path d="" fill="#EAEBEA" transform="translate(0,0)"/>
</svg>
