<?xml version="1.0" encoding="UTF-8"?>
<svg version="1.1" xmlns="http://www.w3.org/2000/svg" viewBox="0 0 1024 1024">
<path d="M0 0 C1.28509447 -0.00297112 2.57018893 -0.00594224 3.89422566 -0.0090034 C7.45042175 -0.01704158 11.00659762 -0.01886119 14.56280172 -0.01960087 C18.40283519 -0.02145704 22.2428583 -0.02900731 26.08288574 -0.03573608 C34.47583841 -0.04929839 42.86878628 -0.05534115 51.26174808 -0.05974674 C56.50781336 -0.06251333 61.75387682 -0.0667515 66.99994087 -0.07125092 C81.53965228 -0.08344198 96.07936223 -0.09374087 110.61907864 -0.09712601 C111.54907295 -0.09734557 112.47906727 -0.09756514 113.43724323 -0.09779136 C114.36940274 -0.09800964 115.30156226 -0.09822791 116.26196903 -0.09845281 C118.15072533 -0.09889626 120.03948162 -0.09934283 121.92823792 -0.09979248 C123.3335561 -0.10012463 123.3335561 -0.10012463 124.76726455 -0.10046348 C139.93297032 -0.10440775 155.09862794 -0.12185116 170.26431512 -0.145152 C185.85426698 -0.16891022 201.44419472 -0.18132993 217.03416497 -0.18249393 C225.77935889 -0.1834083 234.5244901 -0.18910027 243.26966667 -0.20731354 C250.71964306 -0.22277514 258.16953734 -0.22779954 265.61952674 -0.21957543 C269.41494385 -0.21568995 273.21019594 -0.21649449 277.00559235 -0.23063278 C305.29760199 -0.32973236 328.02521437 1.52708417 349.51930237 21.95294189 C364.13303411 37.14566459 368.59416571 55.20476548 368.5098114 75.68696594 C368.51068442 77.26628308 368.51243717 78.84559994 368.51498973 80.42491525 C368.51944833 84.74861814 368.51148009 89.07222138 368.50143361 93.39591157 C368.49277992 98.06450856 368.49572063 102.73310013 368.49723816 107.40170288 C368.4982858 115.48503508 368.49202186 123.56833494 368.48076248 131.65165901 C368.46449402 143.33872011 368.4592981 155.0257656 368.4567865 166.71283679 C368.45241151 185.67528629 368.43910772 204.63771855 368.42018127 223.60015869 C368.4018174 242.01812657 368.38766338 260.43608976 368.37916565 278.85406494 C368.3786402 279.98974575 368.37811476 281.12542655 368.37757339 282.29552192 C368.37496327 287.99301733 368.37243586 293.69051277 368.36994958 299.38800824 C368.34922319 346.63883136 368.31400299 393.88963579 368.26930237 441.14044189 C370.26858521 441.12860044 372.26786804 441.11675898 374.26715088 441.10491753 C376.62881961 441.14682084 378.78261328 441.48821981 381.08180237 442.02325439 C381.92114319 442.2175 382.76048401 442.41174561 383.6252594 442.61187744 C384.49779358 442.82755371 385.37032776 443.04322998 386.26930237 443.26544189 C387.65351379 443.60539185 387.65351379 443.60539185 389.06568909 443.95220947 C408.6797005 448.92786011 427.43018599 457.40900025 443.26930237 470.14044189 C444.61508362 471.18458252 444.61508362 471.18458252 445.98805237 472.24981689 C472.25986533 493.06063502 491.07587151 522.36323774 498.76539612 555.00811768 C499.22764457 556.9641632 499.73087047 558.91040666 500.23805237 560.85528564 C504.66559738 580.7177445 504.540494 605.49327308 499.26930237 625.14044189 C499.07594299 625.90356689 498.88258362 626.66669189 498.68336487 627.45294189 C488.11418452 668.68579361 460.92220162 702.02163844 424.57106018 723.6182251 C393.64327051 741.45446512 355.99636785 746.57056318 321.05055237 739.48809814 C317.78014149 739.07929679 315.54990811 739.60307843 312.39430237 740.51544189 C303.47652271 743.05998169 294.96001741 743.28643697 285.74656677 743.27415466 C283.87065469 743.277553 283.87065469 743.277553 281.9568454 743.28101999 C278.50165896 743.28711281 275.0464968 743.28700737 271.59130621 743.28582561 C267.8583524 743.28562096 264.12540626 743.29114655 260.39245605 743.29588318 C253.08425398 743.30417691 245.77605998 743.30693746 238.46785359 743.30749556 C232.52375044 743.30797141 226.57964995 743.3100296 220.63554764 743.31319618 C203.76510954 743.32199994 186.89467779 743.32661609 170.02423738 743.32586571 C169.11543109 743.32582575 168.2066248 743.3257858 167.27027893 743.32574463 C166.36035655 743.32570375 165.45043418 743.32566287 164.5129384 743.32562075 C149.77598033 743.32521455 135.03904785 743.33477822 120.30209719 743.348883 C105.15282825 743.36326739 90.00357178 743.37015202 74.85429585 743.36928922 C66.35623603 743.36895792 57.85820303 743.37167541 49.36014938 743.38246727 C42.12278442 743.39159955 34.88545842 743.39372527 27.64809017 743.38695785 C23.96028766 743.38370612 20.27255977 743.38358682 16.58476448 743.3923111 C12.5744339 743.4017002 8.56427404 743.39536486 4.55393982 743.38768005 C3.40565543 743.39282362 2.25737104 743.39796718 1.07429016 743.40326661 C-22.68813808 743.30322614 -41.60707595 736.60506594 -58.91819763 720.32794189 C-71.94931202 706.79765175 -77.06920348 688.68430704 -76.98517323 670.28191757 C-76.9883797 669.22947017 -76.99158618 668.17702277 -76.99488983 667.09268302 C-77.003179 663.57255628 -76.99726922 660.05260017 -76.99139404 656.5324707 C-76.99441522 653.98056528 -76.99830452 651.42866077 -77.00298661 648.87675786 C-77.01113119 643.33163021 -77.01306595 637.78655417 -77.00948334 632.24142265 C-77.00416979 623.99533547 -77.01027822 615.74928397 -77.01856627 607.50320067 C-77.03380075 591.91757832 -77.03551188 576.33197223 -77.03304324 560.746344 C-77.03120997 548.70960952 -77.03297092 536.67288036 -77.03726768 524.63614655 C-77.03787009 522.90629646 -77.03847129 521.17644637 -77.03907129 519.44659628 C-77.03997855 516.83980627 -77.04088722 514.23301627 -77.04180364 511.62622626 C-77.05023247 487.39140538 -77.05456937 463.15658651 -77.05039692 438.92176437 C-77.05024054 438.00828709 -77.05008417 437.09480981 -77.04992305 436.1536514 C-77.04911728 431.52388713 -77.04827151 426.89412287 -77.04740975 422.26435861 C-77.04723866 421.34488912 -77.04706758 420.42541963 -77.0468913 419.47808742 C-77.04654465 417.61869677 -77.04619612 415.75930611 -77.04584572 413.89991546 C-77.04048907 384.97080154 -77.04841761 356.0417181 -77.06687927 327.11260986 C-77.08760195 294.60252818 -77.09832144 262.09246538 -77.09430379 229.58237672 C-77.09390845 226.11491792 -77.0935469 222.64745911 -77.09320641 219.18000031 C-77.09311567 218.32623908 -77.09302494 217.47247786 -77.09293146 216.59284509 C-77.09176617 203.71231755 -77.09840863 190.83180909 -77.10901833 177.95128632 C-77.12107499 163.29925323 -77.12262394 148.64726215 -77.11022816 133.99522844 C-77.10360468 125.7996983 -77.10521878 117.60426863 -77.11881667 109.40874655 C-77.12804634 103.28349884 -77.12153131 97.15836152 -77.10896888 91.03312185 C-77.1063166 88.55943307 -77.1087051 86.08573254 -77.11670474 83.61205527 C-77.18127702 62.1515438 -75.4401422 43.64817413 -61.73069763 26.14044189 C-60.93018982 25.09243408 -60.93018982 25.09243408 -60.11351013 24.02325439 C-49.02830008 10.39215878 -32.12482483 2.6940355 -14.94965541 0.3443284 C-9.98174236 -0.11214285 -4.98450231 -0.00360445 0 0 Z M-41.76194763 41.45684814 C-55.0568481 59.00499007 -50.73069763 77.0749824 -50.73069763 99.14044189 C79.28930237 99.14044189 209.30930237 99.14044189 343.26930237 99.14044189 C345.03107465 65.45800384 345.03107465 65.45800384 330.46070862 38.17950439 C322.49605741 30.5956993 312.62284124 26.02969619 301.63034821 26.00342751 C300.49978988 25.99835296 299.36923156 25.99327842 298.20441389 25.9880501 C296.96717841 25.98755235 295.72994292 25.98705459 294.45521545 25.98654175 C292.47795935 25.97996837 292.47795935 25.97996837 290.46075869 25.97326219 C286.80304435 25.96132047 283.14534319 25.95565382 279.4876132 25.95108104 C275.54193988 25.9451158 271.59628223 25.93350825 267.65061951 25.92279053 C258.12197464 25.89828734 248.59332459 25.88364229 239.06465793 25.87073046 C236.37216391 25.86701696 233.6796704 25.86304386 230.9871769 25.85897779 C214.2578368 25.83373934 197.52849586 25.8116919 180.79914093 25.79924965 C176.92558794 25.79632008 173.05203498 25.7933584 169.17848206 25.79034424 C167.73439959 25.78922516 167.73439959 25.78922516 166.26114374 25.78808348 C150.6729263 25.77543549 135.08482306 25.74221863 119.49665898 25.70054241 C103.48303143 25.65808058 87.46946229 25.6345497 71.4557786 25.62932909 C62.46858967 25.62591976 53.48157921 25.61422112 44.4944458 25.58122635 C36.83898863 25.55316623 29.18374653 25.54225259 21.52824193 25.55342181 C17.62576123 25.55859329 13.72373051 25.55582101 9.82131577 25.53095627 C6.24063174 25.50833304 2.66071751 25.50930315 -0.91998118 25.52816014 C-2.81197893 25.53224839 -4.70398234 25.51191127 -6.59586191 25.49037325 C-20.69751963 25.61984978 -32.43666041 30.82243407 -41.76194763 41.45684814 Z M-50.73069763 124.14044189 C-50.73069763 284.19044189 -50.73069763 444.24044189 -50.73069763 609.14044189 C32.42930237 609.14044189 115.58930237 609.14044189 201.26930237 609.14044189 C201.26930237 598.91044189 201.26930237 588.68044189 201.26930237 578.14044189 C204.931957 543.54870372 218.07820069 508.79452174 243.87086487 484.53106689 C244.33234924 484.07216064 244.79383362 483.61325439 245.26930237 483.14044189 C245.26930237 482.81044189 245.26930237 482.48044189 245.26930237 482.14044189 C244.72316483 482.14022453 244.17702729 482.14000716 243.61434013 482.1397832 C211.25595579 482.12627151 178.89772237 482.0868109 146.53942101 482.01358627 C142.65535518 482.00481937 138.7712889 481.99626959 134.88722229 481.987854 C134.11396462 481.98617494 133.34070694 481.98449588 132.54401722 481.98276594 C120.01849328 481.95608578 107.49301511 481.94700013 94.96746568 481.94440047 C82.11800644 481.94134255 69.26867965 481.91941461 56.41928023 481.87991732 C48.48849749 481.85613551 40.55797903 481.84712655 32.62716552 481.85692879 C26.54890235 481.86286587 20.47101771 481.84256708 14.39281464 481.81238174 C11.8970772 481.80411915 9.40129481 481.80443275 6.90556145 481.81384468 C3.50423889 481.82540465 0.10442163 481.80644079 -3.29678345 481.77967834 C-4.28997485 481.7903516 -5.28316625 481.80102486 -6.30645436 481.81202155 C-10.97659886 481.74321702 -13.04108986 481.67946289 -16.82031727 478.72548962 C-19.93153115 474.51552363 -20.10523071 471.27548754 -19.73069763 466.14044189 C-19.04319763 463.26544189 -19.04319763 463.26544189 -17.73069763 461.14044189 C-14.17484113 459.38094682 -11.15201799 458.85847498 -7.21116638 458.72637939 C-6.18958435 458.68770752 -5.16800232 458.64903564 -4.11546326 458.60919189 C-2.53281677 458.56278564 -2.53281677 458.56278564 -0.91819763 458.51544189 C0.15623596 458.47677002 1.23066956 458.43809814 2.33766174 458.39825439 C4.98137325 458.30425576 7.62508286 458.21859617 10.26930237 458.14044189 C10.26984714 457.54721791 10.2703919 456.95399393 10.27095318 456.34279346 C10.28592501 441.90369079 10.3283879 427.46486218 10.40139294 413.02593708 C10.43603603 406.04331792 10.46139753 399.06089602 10.46485901 392.07818604 C10.4682248 385.34120405 10.49752152 378.60479336 10.54273415 371.8679409 C10.55573789 369.29592972 10.56000673 366.72385926 10.55545616 364.15181923 C10.55057101 360.55283459 10.57655345 356.95531152 10.60987854 353.35650635 C10.6012529 352.28979706 10.59262726 351.22308777 10.58374023 350.12405396 C10.65676329 345.42900313 10.73613092 342.91094564 13.4577179 338.97789001 C16.60988618 336.91786097 18.18219041 336.517317 21.91407776 336.52520752 C23.02195145 336.5159021 24.12982513 336.50659668 25.27127075 336.49700928 C27.05113625 336.52160217 27.05113625 336.52160217 28.86695862 336.54669189 C30.0933757 336.54665161 31.31979279 336.54661133 32.58337402 336.54656982 C35.17315299 336.5519262 37.76293148 336.56951358 40.35255432 336.59844971 C44.32075036 336.64032526 48.28725065 336.63951595 52.25563049 336.63262939 C54.77191835 336.64312098 57.28819745 336.6560589 59.80445862 336.67169189 C61.58736046 336.67199402 61.58736046 336.67199402 63.40628052 336.67230225 C64.51100204 336.68821411 65.61572357 336.70412598 66.75392151 336.72052002 C67.72479202 336.72893921 68.69566254 336.7373584 69.69595337 336.74603271 C72.71841038 337.20927528 74.08399975 338.02705935 76.26930237 340.14044189 C77.230104 343.0228468 77.40464364 344.87014791 77.42752075 347.86705017 C77.44220398 349.32467773 77.44220398 349.32467773 77.45718384 350.81175232 C77.4629393 351.87630142 77.46869476 352.94085052 77.47462463 354.03765869 C77.48452423 355.15975739 77.49442383 356.28185608 77.50462341 357.43795776 C77.5362673 361.15517043 77.56100736 364.87239589 77.58570862 368.58966064 C77.60627564 371.1637048 77.62727205 373.73774555 77.64868164 376.31178284 C77.69827831 382.39966548 77.74353692 388.48756628 77.786704 394.57549745 C77.8360906 401.50654235 77.89100345 408.43754001 77.9463836 415.36853921 C78.06017812 429.62579723 78.16629313 443.88310197 78.26930237 458.14044189 C86.84930237 458.14044189 95.42930237 458.14044189 104.26930237 458.14044189 C104.272948 455.81910217 104.27659363 453.49776245 104.28034973 451.1060791 C104.31653929 429.26847822 104.37469312 407.4310153 104.45320511 385.59352493 C104.49304161 374.36567184 104.52541065 363.13788932 104.54029846 351.90997314 C104.5532911 342.12554321 104.58019452 332.34126822 104.62391543 322.55692554 C104.64658405 317.37450578 104.66220982 312.19227751 104.66118622 307.00980377 C104.66044279 302.13420492 104.67826546 297.25903025 104.7104702 292.38354111 C104.71900508 290.59207721 104.72069493 288.80056593 104.71510506 287.00909042 C104.70849733 284.56647347 104.72630647 282.12521894 104.75032043 279.68273926 C104.74256002 278.97067424 104.7347996 278.25860922 104.72680402 277.52496648 C104.78599693 274.1335803 105.0429271 272.4263303 107.17673874 269.73154831 C110.39154251 267.28713284 112.18674161 267.00952197 116.17457581 266.97930908 C117.1961377 266.96970154 118.21769958 266.96009399 119.2702179 266.95019531 C120.37850952 266.94594543 121.48680115 266.94169556 122.62867737 266.93731689 C123.76581177 266.93161682 124.90294617 266.92591675 126.07453918 266.92004395 C128.4854794 266.91058345 130.8964326 266.90405581 133.30738831 266.90020752 C136.99023658 266.89051836 140.67252305 266.85951086 144.35523987 266.82794189 C146.69638238 266.82141034 149.0375289 266.81616047 151.37867737 266.81231689 C152.47887207 266.79997009 153.57906677 266.78762329 154.71260071 266.77490234 C160.27562839 266.7910459 164.52644501 266.8593831 169.26930237 270.14044189 C170.76000619 273.12184954 170.42306533 276.17213223 170.42752075 279.44223022 C170.43245873 280.20347981 170.43739671 280.9647294 170.44248432 281.74904716 C170.45790666 284.31326631 170.46623271 286.87746033 170.47462463 289.44171143 C170.48419944 291.27449771 170.49420928 293.10728177 170.50462341 294.94006348 C170.53172163 299.92737509 170.55270452 304.91469621 170.5726254 309.90204096 C170.59445469 315.10977072 170.6218583 320.317471 170.64868164 325.525177 C170.69864996 335.39198278 170.7435734 345.25880488 170.786704 355.12564266 C170.83604106 366.35645007 170.89097226 377.58722792 170.9463836 388.81800675 C171.06026717 411.92545776 171.16689385 435.03293743 171.26930237 458.14044189 C179.84930237 458.14044189 188.42930237 458.14044189 197.26930237 458.14044189 C197.27516861 454.89424515 197.28103485 451.6480484 197.28707886 448.30348206 C197.34223785 418.54506548 197.41218441 388.78672068 197.49828865 359.02837827 C197.50955701 355.12929107 197.52069543 351.23020352 197.53175354 347.33111572 C197.53395722 346.55486743 197.53616091 345.77861915 197.53843137 344.97884818 C197.57381762 332.40484248 197.59867425 319.83083685 197.61964939 307.25679979 C197.64140088 294.35764419 197.67444507 281.45855329 197.71800393 268.55945271 C197.74453192 260.59802547 197.76221882 252.63667887 197.76864841 244.6752096 C197.77451888 238.57352023 197.79608996 232.47199016 197.82357788 226.37035561 C197.83239211 223.86494215 197.83607373 221.35950473 197.83431053 218.85407639 C197.83266604 215.43994333 197.84928721 212.02637566 197.87057495 208.61231995 C197.86330359 207.11669642 197.86330359 207.11669642 197.85588533 205.59085828 C197.90679484 200.66149837 197.94759927 197.07736107 201.26930237 193.14044189 C204.57932117 190.93376269 205.63228034 190.88126303 209.48756409 190.84991455 C210.55231964 190.83715485 211.6170752 190.82439514 212.71409607 190.81124878 C214.4391185 190.80791031 214.4391185 190.80791031 216.19898987 190.80450439 C217.97271469 190.7945192 217.97271469 190.7945192 219.78227234 190.78433228 C222.28558291 190.77419959 224.78892053 190.76951544 227.29225159 190.76983643 C231.12229466 190.765467 234.9511823 190.72916185 238.78102112 190.69122314 C241.21200676 190.68535444 243.64299787 190.68138541 246.07398987 190.67950439 C247.79293961 190.65794785 247.79293961 190.65794785 249.5466156 190.63595581 C257.47175832 190.68148591 257.47175832 190.68148591 261.4690094 192.98175049 C264.08048362 196.11311135 264.39469854 198.63299307 264.40796757 202.57010174 C264.41344201 203.48175773 264.41891646 204.39341373 264.42455679 205.33269566 C264.42602395 206.83705771 264.42602395 206.83705771 264.42752075 208.37181091 C264.43245873 209.4360978 264.43739671 210.50038469 264.44248432 211.5969227 C264.45790249 215.18068203 264.46623164 218.76442339 264.47462463 222.34820557 C264.48419976 224.91019348 264.49420962 227.47217979 264.50462341 230.03416443 C264.52609808 235.55896155 264.54453468 241.08375567 264.56022835 246.60857201 C264.58292407 254.59656372 264.61106731 262.5845289 264.64054763 270.57249812 C264.68822718 283.53190191 264.73149039 296.49131655 264.77198792 309.45074463 C264.81134099 322.04092249 264.85276676 334.6310907 264.89698792 347.22125244 C264.89971219 347.99708312 264.90243646 348.7729138 264.90524329 349.5722545 C264.91892273 353.46430124 264.93264301 357.35634784 264.9463836 361.24839437 C265.06035409 393.54572366 265.16716218 425.84307295 265.26930237 458.14044189 C267.18737103 458.17719408 269.1056437 458.20340027 271.02394104 458.22515869 C272.62624825 458.24874702 272.62624825 458.24874702 274.26092529 458.27281189 C278.50143566 458.08622745 280.85031812 456.97147259 284.58180237 454.95294189 C285.85985889 454.3008117 287.14121709 453.65511771 288.42555237 453.01544189 C289.06363831 452.69575439 289.70172424 452.37606689 290.35914612 452.04669189 C298.47648888 448.19551905 307.35761552 445.97913692 316.08180237 443.95294189 C316.73124817 443.7980127 317.38069397 443.6430835 318.04981995 443.48345947 C326.41259704 441.6552527 334.66408034 441.09657767 343.26930237 440.14044189 C343.26930237 335.86044189 343.26930237 231.58044189 343.26930237 124.14044189 C213.24930237 124.14044189 83.22930237 124.14044189 -50.73069763 124.14044189 Z M276.26930237 488.14044189 C275.01440002 489.06083252 275.01440002 489.06083252 273.73414612 489.99981689 C247.17481204 510.37179422 230.63665762 540.09851056 225.98146057 573.18634033 C221.94031189 605.90348008 229.67193561 639.4940369 249.66090393 665.98468018 C271.5999158 693.74229954 302.93821943 712.41019844 338.16383362 716.67169189 C369.67764794 719.87340326 400.96686901 712.75185641 426.33180237 693.14044189 C428.33345324 691.50084674 430.3133055 689.83424079 432.26930237 688.14044189 C433.0316217 687.49123779 433.0316217 687.49123779 433.80934143 686.82891846 C459.75129145 664.61845593 474.45350835 634.81916918 478.01930237 601.01544189 C478.12173349 599.39153386 478.20676648 597.76637507 478.26930237 596.14044189 C478.30926331 595.41083252 478.34922424 594.68122314 478.39039612 593.92950439 C479.36240511 560.42378256 466.22893865 527.72831118 443.43946838 503.40435791 C420.5916755 479.59808394 389.99914013 465.05467892 356.68336487 463.93731689 C327.62652831 463.4634493 299.85420983 470.75127935 276.26930237 488.14044189 Z M-50.73069763 633.14044189 C-54.0248176 673.03884942 -54.0248176 673.03884942 -38.73069763 705.14044189 C-26.32721814 715.92220208 -13.76724663 718.46892607 2.25994873 718.38095093 C3.41682562 718.38265978 4.5737025 718.38436863 5.76563627 718.38612926 C9.61482313 718.38940501 13.46383293 718.37845202 17.31300354 718.36749268 C20.08306487 718.36581194 22.85312283 718.36715802 25.6231842 718.36837769 C31.57293697 718.36942282 37.52264564 718.36318525 43.47238731 718.35190201 C52.07454806 718.33559933 60.67668764 718.33043414 69.27886216 718.32792602 C83.23768307 718.32355638 97.19648051 718.31026716 111.1552887 718.2913208 C124.70932397 718.27294305 138.26335285 718.25879584 151.81739807 718.25030518 C152.65385387 718.24977973 153.49030967 718.24925428 154.35211261 718.24871291 C158.54865962 718.2461027 162.74520667 718.24357532 166.94175375 718.24108911 C201.71762001 718.22037937 236.49345902 718.1851738 271.26930237 718.14044189 C267.94219847 715.46009174 264.57436399 712.91372756 261.08180237 710.45294189 C255.45400715 706.3779031 250.29322374 701.93528509 245.26930237 697.14044189 C244.72580139 696.62175537 244.18230042 696.10306885 243.62232971 695.56866455 C239.47260798 691.5257831 235.8389138 687.29472663 232.39430237 682.64044189 C231.87964417 681.94612061 231.36498596 681.25179932 230.83473206 680.53643799 C220.08781139 665.82363008 212.65432243 650.16716205 206.26930237 633.14044189 C121.45930237 633.14044189 36.64930237 633.14044189 -50.73069763 633.14044189 Z " fill="#0E0E0E" transform="translate(332.73069763183594,95.85955810546875)"/>
<path d="M0 0 C3.13180809 1.62390049 5.24339744 3.00266026 7.375 5.8125 C9.37884918 12.82597212 7.01610328 19.20697376 4.9296875 25.91796875 C4.61097687 26.97043289 4.29226624 28.02289703 3.96389771 29.10725403 C2.94331709 32.47017042 1.90947559 35.82883498 0.875 39.1875 C0.2022287 41.39490932 -0.46965447 43.60258952 -1.140625 45.81054688 C-2.46673095 50.17035253 -3.79739426 54.52872506 -5.13183594 58.88598633 C-6.75720478 64.19799284 -8.36637765 69.51460779 -9.9609375 74.8359375 C-10.19664459 75.62180237 -10.43235168 76.40766724 -10.67520142 77.21734619 C-12.11279757 82.01737744 -13.53955296 86.82053205 -14.96142578 91.62524414 C-16.75107865 97.66673044 -18.56295556 103.70124694 -20.38623047 109.73266602 C-21.13615108 112.22719588 -21.87852548 114.72400537 -22.61376953 117.22290039 C-23.69207404 120.88253578 -24.79639239 124.53342234 -25.90625 128.18359375 C-26.22831421 129.2981041 -26.55037842 130.41261444 -26.88220215 131.56089783 C-28.82156997 137.83042162 -30.34723041 141.48115212 -36 145 C-39.10510312 145.82088933 -41.85976818 145.64192584 -45 145 C-47.87029869 143.20606332 -49.49131638 142.01736724 -51 139 C-52.32105725 130.69835616 -50.49154701 123.27537233 -48.1875 115.359375 C-47.88227417 114.29103928 -47.57704834 113.22270355 -47.26257324 112.12199402 C-42.79332268 96.62276635 -38.01545355 81.2134585 -33.26544189 65.79858398 C-31.73855756 60.83940589 -30.21787756 55.87832043 -28.69586182 50.91764641 C-27.47276041 46.93418775 -26.24561076 42.9520602 -25.00927734 38.97268677 C-24.53872268 37.45786984 -24.06818204 35.94304855 -23.59765625 34.42822266 C-23.37168762 33.7010309 -23.14571899 32.97383915 -22.91290283 32.22461128 C-21.54248164 27.79909746 -20.22187958 23.36192473 -18.93359375 18.91162109 C-18.62748169 17.8801445 -18.32136963 16.84866791 -18.00598145 15.78593445 C-17.46307526 13.95354807 -16.9362619 12.11626568 -16.43054199 10.27326965 C-15.1624553 6.06444161 -14.43424345 4.35768348 -10.93554688 1.47583008 C-7.01507645 -0.49516491 -4.2788015 -0.8523509 0 0 Z " fill="#101010" transform="translate(712,614)"/>
<path d="M0 0 C4.04494345 3.35644243 5.7837401 5.4321157 6.5 10.625 C6.26519292 20.4737919 -8.28446886 30.39291161 -14.9375 37 C-16.20661373 38.2640885 -17.47549589 39.52840956 -18.74414062 40.79296875 C-21.8267632 43.86466724 -24.91250428 46.93320008 -28 50 C-24.33394595 54.48995819 -20.42462154 58.64809953 -16.3046875 62.72265625 C-15.78706848 63.23476654 -15.26944946 63.74687683 -14.73614502 64.27450562 C-12.57001721 66.41298337 -10.4003607 68.54779586 -8.22607422 70.67797852 C-6.62278659 72.25088454 -5.02592966 73.83010504 -3.4296875 75.41015625 C-2.94418427 75.88219986 -2.45868103 76.35424347 -1.95846558 76.84059143 C2.25603777 81.02419449 6.84860763 85.79291284 7 92 C5.81828557 95.80774651 4.81585942 98.27738166 1.8125 100.9375 C-1.92611801 102.34986681 -5.11011243 102.8768013 -9 102 C-15.70377166 98.17375713 -21.1126535 92.16439163 -26.49609375 86.734375 C-27.37024429 85.85976624 -28.24439484 84.98515747 -29.14503479 84.08404541 C-30.9785451 82.24753024 -32.80964088 80.40860161 -34.63842773 78.56738281 C-37.44784606 75.73958626 -40.26524113 72.92006082 -43.08398438 70.1015625 C-44.86766226 68.31297333 -46.65088192 66.52392705 -48.43359375 64.734375 C-49.70063393 63.46566559 -49.70063393 63.46566559 -50.99327087 62.17132568 C-52.15567039 60.99935638 -52.15567039 60.99935638 -53.34155273 59.80371094 C-54.02579819 59.11565369 -54.71004364 58.42759644 -55.4150238 57.71868896 C-57.61079207 55.3376799 -57.98055918 54.13886302 -58.4375 50.875 C-57.69047659 44.25850698 -53.54796273 40.18216591 -48.5625 36.03125 C-42.5590748 30.85074141 -37.06854014 25.13755126 -31.5 19.5 C-9.51027565 -2.7622438 -9.51027565 -2.7622438 0 0 Z " fill="#0E0E0F" transform="translate(642,636)"/>
<path d="M0 0 C1.86036682 1.32403564 1.86036682 1.32403564 3.71704102 3.02050781 C4.41193634 3.65396118 5.10683167 4.28741455 5.82278442 4.94006348 C9.54851931 8.46510595 13.2104733 12.04778476 16.83984375 15.671875 C17.64740616 16.47610901 18.45496857 17.28034302 19.28700256 18.10894775 C20.97820313 19.79511959 22.66808221 21.48261781 24.35668945 23.17138672 C26.94918287 25.76167292 29.54959703 28.34383221 32.15039062 30.92578125 C33.79736336 32.56982341 35.44386484 34.21433785 37.08984375 35.859375 C37.86891586 36.6312616 38.64798798 37.40314819 39.45066833 38.19842529 C40.16553909 38.91637268 40.88040985 39.63432007 41.61694336 40.37402344 C42.24789413 41.00354919 42.87884491 41.63307495 43.52891541 42.28167725 C46.55338768 45.81445812 46.30648351 49.55598904 46 54 C44.12724126 58.13978249 41.26768355 60.89171565 38 64 C37.278125 64.763125 36.55625 65.52625 35.8125 66.3125 C34 68 34 68 32 68 C31.505 69.485 31.505 69.485 31 71 C30.34 71 29.68 71 29 71 C28.773125 71.55171875 28.54625 72.1034375 28.3125 72.671875 C26.61274074 75.68692417 24.45195184 77.81230369 22 80.25 C21.113125 81.14203125 20.22625 82.0340625 19.3125 82.953125 C17 85 17 85 15 85 C14.773125 85.5775 14.54625 86.155 14.3125 86.75 C12.65238361 89.59591381 10.60812043 90.99841921 8 93 C7.175 93.825 6.35 94.65 5.5 95.5 C-0.85454545 101.85454545 -0.85454545 101.85454545 -5.9375 102.5 C-10.17514217 102.27570136 -12.76348747 100.7741536 -16 98 C-17.84062155 95.57372613 -18.03772563 93.78202968 -18.5625 90.75 C-17.74728475 85.31523166 -14.81494743 82.77032816 -11 79 C-10.08541016 78.06607422 -10.08541016 78.06607422 -9.15234375 77.11328125 C-6.63443965 74.56217402 -4.06638647 72.06472681 -1.5 69.5625 C0.58407269 67.42632549 2.54605475 65.25293257 4.5 63 C12.05102041 54.31632653 12.05102041 54.31632653 16 53 C16 52.34 16 51.68 16 51 C16.66 51 17.32 51 18 51 C14.99009321 47.31286418 12.03933663 43.92872094 8.3984375 40.859375 C3.4231985 36.55960891 -1.22506036 31.95882944 -5.875 27.3125 C-6.72835937 26.47138672 -7.58171875 25.63027344 -8.4609375 24.76367188 C-9.275625 23.95091797 -10.0903125 23.13816406 -10.9296875 22.30078125 C-11.66429199 21.57028564 -12.39889648 20.83979004 -13.15576172 20.0871582 C-15.47511814 17.46230011 -16.90651226 15.33999094 -17.15234375 11.81640625 C-16.7450599 7.54362843 -16.36355542 5.4592279 -13.625 2 C-9.22529683 -1.3521548 -5.20144042 -1.66010069 0 0 Z " fill="#0E0E0E" transform="translate(745,636)"/>
<path d="M0 0 C0.88798279 -0.0065712 1.77596558 -0.0131424 2.69085693 -0.01991272 C5.63798095 -0.03966948 8.58505393 -0.05131412 11.53222656 -0.0612793 C12.53789925 -0.06535482 13.54357193 -0.06943035 14.57971954 -0.07362938 C19.9034047 -0.0945011 25.227064 -0.10879757 30.55078125 -0.11816406 C36.04995559 -0.12922574 41.54872497 -0.16361986 47.0477562 -0.20333576 C51.27541862 -0.22948306 55.50298434 -0.23785427 59.73072052 -0.24144554 C61.75770042 -0.24631703 63.78467585 -0.25794697 65.81157684 -0.27648354 C68.6507522 -0.30083271 71.48887718 -0.29991751 74.328125 -0.29296875 C75.5814563 -0.31218384 75.5814563 -0.31218384 76.86010742 -0.33178711 C82.17353987 -0.2844524 85.22900187 0.61755625 89.42285156 4.17700195 C92.51109778 9.09889436 92.64861436 12.49166331 91.55175781 17.96606445 C89.88004175 21.24008276 87.56295528 23.3574459 84.42285156 25.17700195 C81.36676372 25.87447995 78.40826967 25.84155698 75.28393555 25.79223633 C74.38400879 25.79778534 73.48408203 25.80333435 72.55688477 25.80905151 C69.59369005 25.82082519 66.63203217 25.7965975 63.66894531 25.77075195 C61.6044166 25.76904032 59.53988572 25.76910707 57.47535706 25.77087402 C53.15368795 25.76922212 48.83253841 25.75054613 44.51098633 25.71899414 C38.97370894 25.67929237 33.43711102 25.67495266 27.89971828 25.68245697 C23.63859338 25.68552732 19.37762102 25.67340419 15.11653328 25.65632629 C13.07480895 25.64929968 11.03306734 25.64617135 8.9913311 25.64701843 C6.13802749 25.64521933 3.28553608 25.62382839 0.43237305 25.59692383 C-0.40984299 25.59985443 -1.25205902 25.60278503 -2.11979675 25.60580444 C-6.76924534 25.53821252 -9.78154552 25.15131325 -13.57714844 22.17700195 C-16.67057971 18.55022047 -17.20504398 15.10238648 -17.07324219 10.46606445 C-16.2012337 6.44246622 -13.61916438 3.82497438 -10.57714844 1.17700195 C-7.2838929 -0.46962582 -3.62093714 0.01154073 0 0 Z " fill="#0B0B0C" transform="translate(440.5771484375,145.822998046875)"/>
<path d="M0 0 C0.64443558 -0.00511093 1.28887115 -0.01022186 1.95283508 -0.01548767 C4.07753864 -0.02935697 6.20191678 -0.02842875 8.32666016 -0.02612305 C9.80872721 -0.03001193 11.29079316 -0.034347 12.77285767 -0.03910828 C15.87806817 -0.0465651 18.98316497 -0.0462835 22.08837891 -0.04101562 C26.0584466 -0.03522673 30.02804688 -0.05214015 33.99803734 -0.0753603 C37.05905864 -0.09012793 40.11996822 -0.09096515 43.18101883 -0.08785057 C44.6441808 -0.08836243 46.10734925 -0.09357472 47.57047653 -0.10366249 C49.62150731 -0.11606674 51.67163874 -0.10921222 53.72265625 -0.09765625 C54.88751556 -0.09828568 56.05237488 -0.0989151 57.25253296 -0.0995636 C62.00293693 0.44941744 65.28389044 2.2266197 68.86572266 5.3371582 C71.24757105 9.64280722 71.38338113 13.46507593 70.49072266 18.2746582 C68.82079941 21.62134865 66.59140293 23.7233876 63.21640015 25.41374207 C60.04097143 26.41671393 57.39736369 26.53564825 54.06738281 26.54931641 C52.14981674 26.56361443 52.14981674 26.56361443 50.19351196 26.57820129 C48.80560275 26.57793982 47.41769352 26.57700255 46.02978516 26.57543945 C44.59638343 26.57933013 43.16298285 26.58366556 41.72958374 26.58842468 C38.72870137 26.59587426 35.72793667 26.59560514 32.72705078 26.59033203 C28.89498719 26.58454357 25.06340791 26.60145897 21.23142433 26.6246767 C18.27158831 26.63946141 15.3118676 26.64027926 12.35200119 26.63716698 C10.93990496 26.63767796 9.52780189 26.64287366 8.11574173 26.6529789 C-7.40159074 26.75039302 -7.40159074 26.75039302 -13.94677734 21.2121582 C-16.24136797 16.89832783 -16.40419458 13.05519898 -15.50927734 8.2746582 C-12.05985937 1.60760134 -7.07273022 0.02801318 0 0 Z " fill="#151515" transform="translate(443.50927734375,757.725341796875)"/>
<path d="M0 0 C0.66 0 1.32 0 2 0 C2 38.61 2 77.22 2 117 C-0.59891154 118.29945577 -2.32666656 118.0223077 -5.2265625 117.87890625 C-6.2578125 117.83056641 -7.2890625 117.78222656 -8.3515625 117.73242188 C-9.97191406 117.64831055 -9.97191406 117.64831055 -11.625 117.5625 C-12.71296875 117.51029297 -13.8009375 117.45808594 -14.921875 117.40429688 C-17.6148581 117.27437225 -20.30749336 117.13939838 -23 117 C-23 116.67 -23 116.34 -23 116 C-15.41 116 -7.82 116 0 116 C0 77.72 0 39.44 0 0 Z " fill="#161617" transform="translate(343,438)"/>
<path d="M0 0 C0.33 0 0.66 0 1 0 C1 11.88 1 23.76 1 36 C-2.91606243 36.78321249 -5.8380709 37.1086237 -9.74609375 37.0625 C-10.83083984 37.05476563 -11.91558594 37.04703125 -13.03320312 37.0390625 C-15.29882864 37.01306565 -17.56445364 36.98702414 -19.83007812 36.9609375 C-20.91611328 36.95320313 -22.00214844 36.94546875 -23.12109375 36.9375 C-24.1052124 36.92589844 -25.08933105 36.91429687 -26.10327148 36.90234375 C-29.05352004 36.93226258 -29.05352004 36.93226258 -32.12524414 37.5625 C-35.8356424 38.12717377 -38.48600796 37.19475729 -42 36 C-42 35.67 -42 35.34 -42 35 C-28.14 35 -14.28 35 0 35 C0 23.45 0 11.9 0 0 Z " fill="#010102" transform="translate(677,160)"/>
<path d="M0 0 C0.495 1.485 0.495 1.485 1 3 C-0.66666667 4.66666667 -2.33333333 6.33333333 -4 8 C-4.721875 8.763125 -5.44375 9.52625 -6.1875 10.3125 C-8 12 -8 12 -10 12 C-10.33 12.99 -10.66 13.98 -11 15 C-11.66 15 -12.32 15 -13 15 C-13.226875 15.55171875 -13.45375 16.1034375 -13.6875 16.671875 C-15.38725926 19.68692417 -17.54804816 21.81230369 -20 24.25 C-20.886875 25.14203125 -21.77375 26.0340625 -22.6875 26.953125 C-25 29 -25 29 -27 29 C-27.2475 29.639375 -27.495 30.27875 -27.75 30.9375 C-29 33 -29 33 -31.078125 33.62890625 C-31.71234375 33.75136719 -32.3465625 33.87382813 -33 34 C-29.03627475 29.24914133 -24.90205218 24.76386888 -20.5078125 20.41015625 C-19.91700897 19.82076767 -19.32620544 19.23137909 -18.71749878 18.62413025 C-16.85569596 16.76786273 -14.99042255 14.91512915 -13.125 13.0625 C-11.85132989 11.79385328 -10.57789029 10.5249751 -9.3046875 9.25585938 C-6.20577957 6.16789446 -3.10375699 3.08309071 0 0 Z " fill="#3F403F" transform="translate(787,692)"/>
<path d="M0 0 C3.83797544 1.56361962 6.1667627 4.02510083 9 7 C9.763125 7.721875 10.52625 8.44375 11.3125 9.1875 C13 11 13 11 13 13 C13.8971875 13.433125 13.8971875 13.433125 14.8125 13.875 C17 15 17 15 20 17 C20 17.66 20 18.32 20 19 C20.66 19 21.32 19 22 19 C23.7265625 20.75 23.7265625 20.75 25.625 23 C26.57246094 24.11375 26.57246094 24.11375 27.5390625 25.25 C28.26222656 26.11625 28.26222656 26.11625 29 27 C28.34 27.33 27.68 27.66 27 28 C20.7178966 22.67096012 14.82572205 17.0087476 9 11.1875 C8.12988281 10.32962891 7.25976562 9.47175781 6.36328125 8.58789062 C5.54214844 7.76869141 4.72101562 6.94949219 3.875 6.10546875 C3.12992188 5.36449951 2.38484375 4.62353027 1.6171875 3.86010742 C0 2 0 2 0 0 Z " fill="#3A3A3A" transform="translate(730,652)"/>
<path d="M0 0 C4.82783324 2.15560327 8.0018426 5.67180855 11.6875 9.375 C12.72100586 10.38433594 12.72100586 10.38433594 13.77539062 11.4140625 C14.75862305 12.39632812 14.75862305 12.39632812 15.76171875 13.3984375 C16.35944092 13.99317871 16.95716309 14.58791992 17.57299805 15.20068359 C19.11683706 17.14732063 19.59286755 18.57190081 20 21 C15.09312847 17.0060348 10.55729437 12.6959047 6.0625 8.25 C5.47057861 7.67096924 4.87865723 7.09193848 4.26879883 6.49536133 C2.80590875 5.03589071 1.39785485 3.52187506 0 2 C0 1.34 0 0.68 0 0 Z " fill="#3C3C3C" transform="translate(625,700)"/>
<path d="M0 0 C4.67020311 0.65039579 8.48940434 2.47220986 12.6875 4.5 C13.70166992 4.98146484 13.70166992 4.98146484 14.73632812 5.47265625 C17.16741449 6.62893414 19.59212002 7.79606001 22 9 C22 9.66 22 10.32 22 11 C14.28267891 8.47191206 6.64054098 5.74972528 -1 3 C-0.67 2.01 -0.34 1.02 0 0 Z " fill="#2E2E2E" transform="translate(721,563)"/>
<path d="M0 0 C0.66 0 1.32 0 2 0 C0.54586481 5.05038352 -1.66340484 9.17656611 -4.375 13.625 C-4.76171875 14.27984375 -5.1484375 14.9346875 -5.546875 15.609375 C-7.70702319 19.1902918 -9.8609478 22.17628638 -13 25 C-13 20.92163405 -10.95631342 18.57355775 -8.75 15.3125 C-5.46028341 10.33968754 -2.49721063 5.42871877 0 0 Z " fill="#292929" transform="translate(819,750)"/>
<path d="M0 0 C3 2.5625 3 2.5625 5 5 C4.01 5.33 3.02 5.66 2 6 C1.34 5.01 0.68 4.02 0 3 C-1.95385067 2.21011855 -1.95385067 2.21011855 -4.125 1.8125 C-6.043125 1.4103125 -6.043125 1.4103125 -8 1 C-8 1.66 -8 2.32 -8 3 C-9.32 3.33 -10.64 3.66 -12 4 C-12 3.01 -12 2.02 -12 1 C-8.23019911 -1.67027563 -4.24168496 -1.34390019 0 0 Z " fill="#333333" transform="translate(642,636)"/>
<path d="M0 0 C1.25657078 2.51314157 0.89935929 3.60384425 0.44140625 6.3515625 C0.30283203 7.20234375 0.16425781 8.053125 0.02148438 8.9296875 C-0.12998047 9.81914063 -0.28144531 10.70859375 -0.4375 11.625 C-0.58509766 12.5221875 -0.73269531 13.419375 -0.88476562 14.34375 C-1.2507907 16.56351497 -1.62276392 18.78211744 -2 21 C-2.33 21 -2.66 21 -3 21 C-3 19.02 -3 17.04 -3 15 C-3.66 15 -4.32 15 -5 15 C-4.4140625 8.84765625 -4.4140625 8.84765625 -4 7 C-3.34 6.67 -2.68 6.34 -2 6 C-1.62690101 4.34178227 -1.29299023 2.67422986 -1 1 C-0.67 0.67 -0.34 0.34 0 0 Z " fill="#353535" transform="translate(561,655)"/>
<path d="M0 0 C3.83797544 1.56361962 6.1667627 4.02510083 9 7 C9.763125 7.763125 10.52625 8.52625 11.3125 9.3125 C11.869375 9.869375 12.42625 10.42625 13 11 C12.67 11.99 12.34 12.98 12 14 C9.99387601 12.04761147 7.99507567 10.08862178 6 8.125 C5.42765625 7.56941406 4.8553125 7.01382813 4.265625 6.44140625 C2.80549218 4.99865596 1.39850702 3.5025626 0 2 C0 1.34 0 0.68 0 0 Z " fill="#343434" transform="translate(730,652)"/>
<path d="M0 0 C4.20381497 0.59019077 7.25857498 3.03666787 10.625 5.4375 C11.21023438 5.84548828 11.79546875 6.25347656 12.3984375 6.67382812 C14.7617337 8.33518199 16.9536227 9.9536227 19 12 C18.01 12.495 18.01 12.495 17 13 C15.09931562 11.778348 13.20466117 10.54731206 11.3125 9.3125 C10.25675781 8.62800781 9.20101562 7.94351563 8.11328125 7.23828125 C5.01733351 5.01246186 2.60560432 2.76029697 0 0 Z " fill="#313132" transform="translate(603,784)"/>
<path d="M0 0 C-2 3 -2 3 -5.125 3.8125 C-9.61156781 4.02959199 -12.7184012 3.27696806 -17 2 C-17 1.67 -17 1.34 -17 1 C-11.29309366 0.00749455 -5.78591511 -0.10477512 0 0 Z " fill="#262626" transform="translate(675,536)"/>
<path d="M0 0 C0.99 0 1.98 0 3 0 C3 1.65 3 3.3 3 5 C2.34 5 1.68 5 1 5 C0.34 8.96 -0.32 12.92 -1 17 C-1.33 17 -1.66 17 -2 17 C-2.25287193 10.93107371 -1.69832609 5.83799592 0 0 Z " fill="#242424" transform="translate(663,732)"/>
<path d="M0 0 C0.66 0 1.32 0 2 0 C-1.04672229 6.85512515 -6.38252618 11.26877812 -12 16 C-12.66 15.67 -13.32 15.34 -14 15 C-12.98679687 14.00419922 -12.98679687 14.00419922 -11.953125 12.98828125 C-11.06109375 12.10527344 -10.1690625 11.22226562 -9.25 10.3125 C-8.36828125 9.44238281 -7.4865625 8.57226562 -6.578125 7.67578125 C-3.9653261 5.05815616 -3.9653261 5.05815616 -1.796875 2.16796875 C-1.20390625 1.45253906 -0.6109375 0.73710938 0 0 Z " fill="#090909" transform="translate(628,639)"/>
<path d="M0 0 C0.66 0 1.32 0 2 0 C3.61815634 2.22088246 5.10415176 4.42770138 6.5625 6.75 C7.1802832 7.70132813 7.1802832 7.70132813 7.81054688 8.671875 C9.77296745 11.75521993 11.24898718 14.42914658 12 18 C6.87217161 13.49372656 3.31840053 7.93869374 0 2 C0 1.34 0 0.68 0 0 Z " fill="#262626" transform="translate(553,760)"/>
<path d="M0 0 C0.66 0 1.32 0 2 0 C6.40774487 10.37357631 6.40774487 10.37357631 7 16 C6.34 16.33 5.68 16.66 5 17 C4.16301614 14.54285453 3.33027576 12.08441143 2.5 9.625 C2.26152344 8.92632813 2.02304687 8.22765625 1.77734375 7.5078125 C0 2.2265625 0 2.2265625 0 0 Z " fill="#2A2B2B" transform="translate(801,637)"/>
<path d="M0 0 C0.33 0.66 0.66 1.32 1 2 C-0.07826365 3.27513763 -1.16285519 4.54492569 -2.25 5.8125 C-2.85328125 6.52019531 -3.4565625 7.22789062 -4.078125 7.95703125 C-5.92370398 9.91889671 -7.79945332 11.45669625 -10 13 C-10.66 12.67 -11.32 12.34 -12 12 C-8.04 8.04 -4.08 4.08 0 0 Z " fill="#393939" transform="translate(795,786)"/>
<path d="M0 0 C0.66 0.33 1.32 0.66 2 1 C1.35922535 4.00618745 0.68837978 7.0043611 0 10 C-0.15597656 10.69996094 -0.31195312 11.39992188 -0.47265625 12.12109375 C-0.9375 14 -0.9375 14 -2 17 C-2.99 17.33 -3.98 17.66 -5 18 C-4.80664062 17.3709375 -4.61328125 16.741875 -4.4140625 16.09375 C-2.7907875 10.75783615 -1.30539435 5.42240732 0 0 Z " fill="#2A2A2A" transform="translate(807,715)"/>
<path d="M0 0 C4.3573226 1.47130373 7.71934134 3.83080615 11.3125 6.625 C11.86228516 7.04523437 12.41207031 7.46546875 12.97851562 7.8984375 C14.32292168 8.92720039 15.66201413 9.9629009 17 11 C16.01 11.33 15.02 11.66 14 12 C11.84696928 10.61190063 9.92286195 9.22280028 7.9375 7.625 C4.15019165 4.53695104 4.15019165 4.53695104 0 2 C0 1.34 0 0.68 0 0 Z " fill="#2D2D2D" transform="translate(763,558)"/>
<path d="M0 0 C3.12417043 0.61926764 5.296319 1.67496931 7.9375 3.4375 C10.87571111 5.33772625 13.67257853 6.85619887 17 8 C17 8.33 17 8.66 17 9 C9.5399442 8.86436262 5.38140793 6.08244082 0 1 C0 0.67 0 0.34 0 0 Z " fill="#292A2A" transform="translate(295,803)"/>
<path d="M0 0 C1.79378179 2.69067269 2.97313958 5.08578257 4.1875 8.0625 C4.55230469 8.94035156 4.91710937 9.81820312 5.29296875 10.72265625 C6 13 6 13 5 15 C4.566875 14.2575 4.13375 13.515 3.6875 12.75 C2.13285995 10.02818534 2.13285995 10.02818534 0.25 8.0625 C-1 6 -1 6 -0.6875 2.75 C-0.460625 1.8425 -0.23375 0.935 0 0 Z " fill="#303030" transform="translate(822,625)"/>
<path d="M0 0 C-0.33 0.66 -0.66 1.32 -1 2 C-3.07421875 2.59765625 -3.07421875 2.59765625 -5.6875 3.0625 C-6.58597656 3.22621094 -7.48445313 3.38992187 -8.41015625 3.55859375 C-9.26480469 3.70425781 -10.11945313 3.84992188 -11 4 C-12.19625 4.20625 -13.3925 4.4125 -14.625 4.625 C-15.40875 4.74875 -16.1925 4.8725 -17 5 C-12.52983658 0.91854644 -5.91668869 -1.99015892 0 0 Z " fill="#232424" transform="translate(312,99)"/>
<path d="M0 0 C4.9723422 1.49170266 9.41845739 3.60457417 14 6 C13.67 6.99 13.34 7.98 13 9 C10.69 8.01 8.38 7.02 6 6 C6 5.34 6 4.68 6 4 C4.02 3.34 2.04 2.68 0 2 C0 1.34 0 0.68 0 0 Z " fill="#222122" transform="translate(623,797)"/>
<path d="M0 0 C4.9723422 1.49170266 9.41845739 3.60457417 14 6 C13.34 6.66 12.68 7.32 12 8 C10.56096954 7.37853192 9.12383207 6.75267941 7.6875 6.125 C6.88699219 5.77695312 6.08648438 5.42890625 5.26171875 5.0703125 C3 4 3 4 0 2 C0 1.34 0 0.68 0 0 Z " fill="#212121" transform="translate(746,549)"/>
<path d="M0 0 C1.19935725 3.47651527 0.80128318 5.69868278 -0.25 9.1875 C-0.62898438 10.50814453 -0.62898438 10.50814453 -1.015625 11.85546875 C-1.34046875 12.56316406 -1.6653125 13.27085937 -2 14 C-2.99 14.33 -3.98 14.66 -5 15 C-3.97137215 9.55432314 -2.75385216 4.88182883 0 0 Z " fill="#2B2B2C" transform="translate(264,132)"/>
<path d="M0 0 C0.66 0.33 1.32 0.66 2 1 C-0.64 5.62 -3.28 10.24 -6 15 C-6.66 14.34 -7.32 13.68 -8 13 C-6.85605098 11.01974361 -5.70978896 9.04082322 -4.5625 7.0625 C-3.92441406 5.96035156 -3.28632812 4.85820313 -2.62890625 3.72265625 C-1 1 -1 1 0 0 Z " fill="#212121" transform="translate(578,614)"/>
<path d="M0 0 C0.66 0.66 1.32 1.32 2 2 C4.60280568 1.67958603 4.60280568 1.67958603 7 1 C6.29875 1.556875 5.5975 2.11375 4.875 2.6875 C3.36989444 3.89812838 1.86965883 5.11795876 0.4375 6.4140625 C-0.97958771 7.682356 -2.4865217 8.84844043 -4 10 C-4.99 9.67 -5.98 9.34 -7 9 C-2.25 5 -2.25 5 0 5 C0 3.35 0 1.7 0 0 Z " fill="#2F2F2F" transform="translate(608,579)"/>
<path d="M0 0 C5.08938811 1.59043379 8.87456643 4.7446951 13 8 C12.01 8.33 11.02 8.66 10 9 C8.30824337 7.69864875 6.64295195 6.36244796 5 5 C2.81785432 4.22166466 2.81785432 4.22166466 1 4 C0.67 2.68 0.34 1.36 0 0 Z " fill="#2D2D2D" transform="translate(664,105)"/>
<path d="M0 0 C0.66 0 1.32 0 2 0 C3.44074715 1.782129 4.80510649 3.62660276 6.125 5.5 C7.21167969 7.03140625 7.21167969 7.03140625 8.3203125 8.59375 C8.87460937 9.3878125 9.42890625 10.181875 10 11 C9.01 11.33 8.02 11.66 7 12 C3 6.25 3 6.25 3 4 C2.01 3.67 1.02 3.34 0 3 C0 2.01 0 1.02 0 0 Z " fill="#232323" transform="translate(800,591)"/>
<path d="M0 0 C0.99 0.33 1.98 0.66 3 1 C3.33 3.31 3.66 5.62 4 8 C4.66 8 5.32 8 6 8 C5.67 9.65 5.34 11.3 5 13 C2.2946129 8.94191935 0 4.95110601 0 0 Z " fill="#2B2A2A" transform="translate(259,788)"/>
<path d="M0 0 C3.58102841 3.38208239 6.56773474 6.69676146 9 11 C8.67 11.99 8.34 12.98 8 14 C6.65804628 12.23569031 5.32668332 10.4633209 4 8.6875 C3.2575 7.70136719 2.515 6.71523438 1.75 5.69921875 C0 3 0 3 0 0 Z " fill="#2A2B2B" transform="translate(784,607)"/>
<path d="M0 0 C2.1640625 0.0234375 2.1640625 0.0234375 4.625 0.375 C5.85089844 0.54128906 5.85089844 0.54128906 7.1015625 0.7109375 C7.72804688 0.80632813 8.35453125 0.90171875 9 1 C6.6875 3.5 6.6875 3.5 4 6 C3.01 6 2.02 6 1 6 C1.99 5.01 2.98 4.02 4 3 C1.03 2.505 1.03 2.505 -2 2 C-1.34 1.34 -0.68 0.68 0 0 Z " fill="#040404" transform="translate(573,576)"/>
<path d="M0 0 C2.475 0.99 2.475 0.99 5 2 C5 2.66 5 3.32 5 4 C7.475 4.99 7.475 4.99 10 6 C10 6.99 10 7.98 10 9 C8.3278148 7.88321917 6.66237197 6.75633648 5 5.625 C3.6078125 4.68527344 3.6078125 4.68527344 2.1875 3.7265625 C1.465625 3.15679688 0.74375 2.58703125 0 2 C0 1.34 0 0.68 0 0 Z " fill="#232323" transform="translate(280,820)"/>
<path d="M0 0 C0.66 0.66 1.32 1.32 2 2 C1.625 5.625 1.625 5.625 1 9 C0.34 9 -0.32 9 -1 9 C-1.33 9.99 -1.66 10.98 -2 12 C-3.40907283 9.18185434 -2.50872691 7.82722796 -1.5625 4.875 C-1.27503906 3.96492187 -0.98757813 3.05484375 -0.69140625 2.1171875 C-0.46324219 1.41851563 -0.23507812 0.71984375 0 0 Z " fill="#2A292A" transform="translate(670,708)"/>
<path d="M0 0 C3.55780196 0.60990891 6.6828589 1.5783681 10 3 C8.4375 4.125 8.4375 4.125 6 5 C2.25 4.125 2.25 4.125 -1 3 C-0.67 2.01 -0.34 1.02 0 0 Z " fill="#222222" transform="translate(721,563)"/>
<path d="M0 0 C3.94139078 1.66751148 6.7892812 4.22710649 10 7 C9.67 7.66 9.34 8.32 9 9 C7.49428343 7.88266271 5.99555708 6.75589965 4.5 5.625 C3.6646875 4.99851562 2.829375 4.37203125 1.96875 3.7265625 C1.3190625 3.15679688 0.669375 2.58703125 0 2 C0 1.34 0 0.68 0 0 Z " fill="#303030" transform="translate(583,797)"/>
<path d="M0 0 C0.66 0.33 1.32 0.66 2 1 C-1.0657052 5.65987191 -3.58657319 6.85485202 -9 8 C-6.14723863 5.06799526 -3.34920216 2.35684596 0 0 Z " fill="#2C2C2D" transform="translate(761,786)"/>
<path d="M0 0 C0.66 0 1.32 0 2 0 C2.268125 1.134375 2.53625 2.26875 2.8125 3.4375 C3.204375 4.613125 3.59625 5.78875 4 7 C4.99 7.33 5.98 7.66 7 8 C6.34 8.66 5.68 9.32 5 10 C0 4.5 0 4.5 0 0 Z " fill="#303131" transform="translate(428,772)"/>
<path d="M0 0 C1.96301592 3.50538557 2.95902388 7.13351728 4 11 C1.4375 9.4375 1.4375 9.4375 -1 7 C-0.8125 3.25 -0.8125 3.25 0 0 Z " fill="#2C2C2C" transform="translate(562,720)"/>
<path d="M0 0 C0.66 0 1.32 0 2 0 C3.32421875 1.42578125 3.32421875 1.42578125 4.6875 3.3125 C5.14511719 3.92738281 5.60273438 4.54226563 6.07421875 5.17578125 C6.53248047 6.07876953 6.53248047 6.07876953 7 7 C6.67 7.99 6.34 8.98 6 10 C4.99421411 8.71283353 3.99553202 7.42011342 3 6.125 C2.443125 5.40570312 1.88625 4.68640625 1.3125 3.9453125 C0 2 0 2 0 0 Z " fill="#2C2C2C" transform="translate(266,804)"/>
<path d="M0 0 C3.65316671 1.24976756 4.78065836 1.67098753 7 5 C6.01 5.33 5.02 5.66 4 6 C1.3125 4.0625 1.3125 4.0625 -1 2 C-0.67 1.34 -0.34 0.68 0 0 Z " fill="#181718" transform="translate(505,759)"/>
<path d="M0 0 C0 0.66 0 1.32 0 2 C-3.21451269 3.60725635 -6.43612536 3.05748185 -10 3 C-6.84439813 -0.15560187 -4.30999015 -1.43666338 0 0 Z " fill="#1C1D1D" transform="translate(745,735)"/>
<path d="M0 0 C0.66 0 1.32 0 2 0 C2 0.66 2 1.32 2 2 C2.61875 2.28875 3.2375 2.5775 3.875 2.875 C6 4 6 4 8 6 C7.67 6.99 7.34 7.98 7 9 C5.82737096 7.88121617 4.66204862 6.75476949 3.5 5.625 C2.8503125 4.99851562 2.200625 4.37203125 1.53125 3.7265625 C0 2 0 2 0 0 Z " fill="#333334" transform="translate(613,718)"/>
<path d="M0 0 C3.7952131 1.49097658 5.61042731 3.75700849 8 7 C4.0521912 7 2.81491174 5.66275435 0 3 C0 2.01 0 1.02 0 0 Z " fill="#323232" transform="translate(791,581)"/>
<path d="M0 0 C5.02692063 0.45699278 8.14896261 2.99241748 12 6 C11.01 6.33 10.02 6.66 9 7 C6.73828125 5.8203125 6.73828125 5.8203125 4.3125 4.125 C3.50425781 3.57070313 2.69601562 3.01640625 1.86328125 2.4453125 C1.24839844 1.96835937 0.63351562 1.49140625 0 1 C0 0.67 0 0.34 0 0 Z " fill="#323233" transform="translate(750,578)"/>
<path d="M0 0 C0.66 0.33 1.32 0.66 2 1 C0.49776416 5.20626034 -2.28550034 6.73900021 -6 9 C-4.47291037 5.56404834 -2.40072955 2.88087546 0 0 Z " fill="#303030" transform="translate(785,762)"/>
<path d="M0 0 C3.69790046 1.23263349 3.9354846 2.20052451 5.6875 5.5625 C6.12449219 6.38878906 6.56148437 7.21507812 7.01171875 8.06640625 C7.33785156 8.70449219 7.66398438 9.34257812 8 10 C4.69713914 8.89904638 4.21489099 8.3103981 2.3125 5.5625 C1.65701172 4.63630859 1.65701172 4.63630859 0.98828125 3.69140625 C0 2 0 2 0 0 Z " fill="#2F2F2F" transform="translate(684,122)"/>
<path d="M0 0 C0.66 0.66 1.32 1.32 2 2 C0.90554162 2.86657116 -0.20097781 3.71792724 -1.3125 4.5625 C-1.92738281 5.03816406 -2.54226563 5.51382813 -3.17578125 6.00390625 C-3.77777344 6.33261719 -4.37976563 6.66132813 -5 7 C-5.99 6.67 -6.98 6.34 -8 6 C-5.36 4.02 -2.72 2.04 0 0 Z " fill="#2F2F2F" transform="translate(303,125)"/>
<path d="M0 0 C0.66 0 1.32 0 2 0 C4.6875 2.8125 4.6875 2.8125 7 6 C6.67 6.99 6.34 7.98 6 9 C4.99406757 7.8803014 3.9954151 6.7540588 3 5.625 C2.443125 4.99851562 1.88625 4.37203125 1.3125 3.7265625 C0 2 0 2 0 0 Z " fill="#2B2A2B" transform="translate(582,762)"/>
<path d="M0 0 C1.875 0.1875 1.875 0.1875 4 1 C5.25 3.5625 5.25 3.5625 6 6 C3.5625 5.25 3.5625 5.25 1 4 C0.1875 1.875 0.1875 1.875 0 0 Z " fill="#252626" transform="translate(571,747)"/>
<path d="M0 0 C0.66 0 1.32 0 2 0 C2 0.66 2 1.32 2 2 C3.32 1.67 4.64 1.34 6 1 C6.33 2.65 6.66 4.3 7 6 C2.32307692 4.52307692 2.32307692 4.52307692 0.6875 1.875 C0.460625 1.25625 0.23375 0.6375 0 0 Z " fill="#323232" transform="translate(314,572)"/>
<path d="M0 0 C0.99 0.33 1.98 0.66 3 1 C4.1577506 4.47325181 4.06866652 7.36067448 4 11 C2.03698408 7.49461443 1.04097612 3.86648272 0 0 Z " fill="#323232" transform="translate(787,679)"/>
<path d="M0 0 C3.25543229 0.34879632 4.01873107 1.02133261 6.25 3.5625 C6.8275 4.366875 7.405 5.17125 8 6 C4.74456771 5.65120368 3.98126893 4.97866739 1.75 2.4375 C1.1725 1.633125 0.595 0.82875 0 0 Z " fill="#3D3D3D" transform="translate(781,572)"/>
<path d="M0 0 C2 1.375 2 1.375 4 3 C4 3.66 4 4.32 4 5 C4.66 5 5.32 5 6 5 C5.67 5.99 5.34 6.98 5 8 C2.5 5.6875 2.5 5.6875 0 3 C0 2.01 0 1.02 0 0 Z " fill="#3C3C3C" transform="translate(570,783)"/>
<path d="M0 0 C3.91402949 1.26941497 5.79072873 2.51167694 8 6 C4.74456771 5.65120368 3.98126893 4.97866739 1.75 2.4375 C1.1725 1.633125 0.595 0.82875 0 0 Z " fill="#313132" transform="translate(595,777)"/>
<path d="M0 0 C0 4.38968456 -2.12805101 5.76905739 -5 9 C-5.66 8.34 -6.32 7.68 -7 7 C-4.69 4.69 -2.38 2.38 0 0 Z " fill="#252526" transform="translate(606,660)"/>
<path d="M0 0 C2 4 2 4 2 7 C0.02 7.99 0.02 7.99 -2 9 C-1.34 6.03 -0.68 3.06 0 0 Z " fill="#2F2F2F" transform="translate(685,659)"/>
<path d="M0 0 C0.99 0.33 1.98 0.66 3 1 C2.67 3.31 2.34 5.62 2 8 C0.23537317 4.91190305 0 3.76687864 0 0 Z " fill="#2F3030" transform="translate(807,655)"/>
<path d="M0 0 C0.99 0.33 1.98 0.66 3 1 C1.35 2.65 -0.3 4.3 -2 6 C-2.33 5.34 -2.66 4.68 -3 4 C-2.01 2.68 -1.02 1.36 0 0 Z " fill="#343534" transform="translate(700,616)"/>
<path d="M0 0 C2.26171875 0.14453125 2.26171875 0.14453125 4.6875 0.8125 C5.49574219 1.02519531 6.30398438 1.23789062 7.13671875 1.45703125 C8.05904297 1.72580078 8.05904297 1.72580078 9 2 C9 2.33 9 2.66 9 3 C5.04 3 1.08 3 -3 3 C-2.01 2.01 -1.02 1.02 0 0 Z " fill="#020101" transform="translate(503,575)"/>
</svg>
