<?xml version="1.0" encoding="UTF-8"?>
<svg version="1.1" xmlns="http://www.w3.org/2000/svg" viewBox="0 0 1024 1024">
<path d="M0 0 C1.20323388 -0.00445784 2.40646777 -0.00891569 3.64616328 -0.01350862 C4.95946736 -0.01332426 6.27277144 -0.01313989 7.62587261 -0.01294994 C9.04199231 -0.0162517 10.45811108 -0.01997793 11.87422866 -0.02409142 C15.76139653 -0.0340844 19.64854896 -0.03782387 23.53572786 -0.04048073 C27.7302674 -0.04439193 31.92479482 -0.05396981 36.11932659 -0.0626936 C46.24825164 -0.08243688 56.37717766 -0.09252233 66.50611714 -0.10142139 C71.28118122 -0.10580852 76.0562442 -0.11117429 80.83130741 -0.11641026 C96.71434613 -0.13342178 112.59738417 -0.14791402 128.4804306 -0.155159 C132.60025629 -0.15706876 136.72008198 -0.15898911 140.83990765 -0.16094494 C142.37577236 -0.16167055 142.37577236 -0.16167055 143.94266465 -0.16241082 C160.51424032 -0.17070389 177.08574364 -0.19602894 193.65728775 -0.22852562 C210.68797813 -0.2616491 227.7186318 -0.2796126 244.74935454 -0.28280324 C254.30447991 -0.28496363 263.85949982 -0.29364302 273.4145937 -0.31926441 C281.55554428 -0.34104392 289.6963638 -0.34898641 297.83734021 -0.33929763 C301.98531127 -0.3347736 306.13301231 -0.33652746 310.28094578 -0.35605907 C335.02917399 -0.46598512 358.82140064 -0.28476278 377.86236858 17.88129139 C391.14236501 31.18609338 397.14867387 47.68483962 397.20554221 66.26790959 C397.20376587 67.73885499 397.20180505 69.20980018 397.19967937 70.68074512 C397.20468728 72.26006446 397.21056452 73.83938124 397.21723211 75.41869444 C397.23298625 79.74237315 397.23646026 84.06598681 397.23788071 88.38969076 C397.24158277 93.05830656 397.25674228 97.72688701 397.27049541 102.39548206 C397.29274673 110.47879699 397.30777281 118.56209929 397.31786251 126.64543819 C397.33246093 138.33252071 397.35800104 150.01955928 397.3861938 161.70661598 C397.43164064 180.66904496 397.46826417 199.63148028 397.49933147 218.59393787 C397.52952564 237.01191794 397.56387991 255.42988251 397.60382366 273.84784412 C397.60751598 275.55136533 397.60751598 275.55136533 397.6112829 277.2893011 C397.62365767 282.98679669 397.63611417 288.6842921 397.64861131 294.38178742 C397.75214755 341.63257701 397.84136122 388.88338593 397.92120647 436.13422108 C398.75782566 436.33588886 398.75782566 436.33588886 399.61134624 436.54163074 C402.19112239 437.16649567 404.76903384 437.79875703 407.34698772 438.43109608 C408.6623753 438.74796375 408.6623753 438.74796375 410.00433636 439.0712328 C437.40583382 445.82516755 460.17755886 460.43290171 480.92120647 479.13422108 C481.72042522 479.8483617 482.51964397 480.56250233 483.34308147 481.29828358 C504.32498907 501.1315466 518.6050501 528.46595045 525.92120647 556.13422108 C526.13148479 556.89235096 526.34176311 557.65048084 526.55841351 558.43158436 C537.16194346 597.98283504 528.65813534 642.25236403 508.57745647 677.28656483 C503.21828878 686.33290853 497.08470293 694.44942712 489.92120647 702.13422108 C489.02740276 703.09376698 489.02740276 703.09376698 488.11554241 704.07269764 C459.76038458 734.1577075 422.65614923 751.93172165 381.55401897 756.50922108 C374.77483722 757.33721274 370.87573765 759.18016685 365.47198772 763.32562733 C353.3274895 771.93650432 337.95191408 773.59073738 323.51315594 773.515172 C322.10606601 773.51863731 320.69897881 773.52340768 319.29189718 773.52935374 C315.46221583 773.54177406 311.63276132 773.5357347 307.80307961 773.52639508 C303.65845491 773.51956766 299.51386744 773.53010409 295.3692503 773.53833485 C287.26393587 773.5516359 279.15870505 773.54881046 271.05338742 773.54009692 C264.46152327 773.53330552 257.86968246 773.53240994 251.27781582 773.53566837 C250.33750985 773.53612807 249.39720388 773.53658777 248.42840379 773.5370614 C246.51781269 773.53802064 244.6072216 773.53899328 242.69663052 773.53997917 C224.80355203 773.54852269 206.91051974 773.53871575 189.01744883 773.52257808 C173.68814438 773.50918022 158.35890812 773.51150062 143.02960491 773.52533436 C125.20107762 773.54141611 107.37259078 773.54769421 89.54405725 773.53849757 C87.64011439 773.53754199 85.73617153 773.53659887 83.83222866 773.53566837 C82.89561258 773.53520555 81.9589965 773.53474272 80.99399812 773.53426587 C74.41652835 773.53168343 67.83908439 773.53603092 61.26161861 773.54310703 C53.23643202 773.55155131 45.21133338 773.54918084 37.18615676 773.5332648 C33.09717093 773.52542062 29.00833132 773.52222402 24.91934681 773.53221226 C21.16632129 773.54124063 17.41357568 773.53609451 13.66057508 773.5202796 C11.68099991 773.51541241 9.70140485 773.52505501 7.72185099 773.53545129 C-4.15756435 773.45862516 -16.09420417 771.88864371 -26.82879353 766.50922108 C-27.53632771 766.16439686 -28.24386189 765.81957264 -28.97283649 765.4642992 C-44.78933352 757.44263852 -56.70598132 743.81738264 -62.29510212 726.97601795 C-65.06432034 718.18185125 -66.23325927 709.8190297 -66.20463467 700.63406849 C-66.20608811 699.81197417 -66.20754155 698.98987985 -66.20903903 698.14287359 C-66.2126828 695.39306305 -66.20921966 692.64330853 -66.20577717 689.89349842 C-66.20692985 687.89794766 -66.20851836 685.90239711 -66.21050441 683.906847 C-66.21468241 678.42232659 -66.21261337 672.93782357 -66.20951819 667.4533031 C-66.2072561 661.52970592 -66.21074912 655.60611173 -66.21349812 649.68251514 C-66.21769881 638.71422558 -66.21731648 627.74594116 -66.21458665 616.77765139 C-66.21205743 606.56045797 -66.21142047 596.34326655 -66.21260929 586.12607288 C-66.21268568 585.44464294 -66.21276206 584.76321301 -66.21284076 584.06113368 C-66.21315226 581.29254024 -66.21347067 578.5239468 -66.21380052 575.75535336 C-66.21686683 549.70169644 -66.21408298 523.64804295 -66.20870363 497.59438656 C-66.20417799 475.51043762 -66.20409235 453.42649393 -66.20871301 431.342545 C-66.22437275 356.0723218 -66.20468404 280.80229433 -66.08417058 205.53214455 C-66.07890365 202.20381219 -66.07384903 198.87547958 -66.06885815 195.5471468 C-66.03158268 170.90076759 -65.96937828 146.25475784 -65.85048563 121.60863119 C-65.82603526 116.36215049 -65.81115716 111.11570207 -65.80096531 105.86917591 C-65.78768858 99.12135667 -65.75434518 92.37395999 -65.70562506 85.62628841 C-65.6914149 83.25879976 -65.68355676 80.89126153 -65.68308687 78.52373028 C-65.66999288 55.10251562 -61.98208267 35.84747158 -45.28191853 18.23968983 C-33.26411759 6.86386544 -16.50730099 0.02848382 0 0 Z M-32.31707478 42.75922108 C-44.17176437 58.74070949 -39.07879353 79.03826702 -39.07879353 98.13422108 C96.55120647 98.13422108 232.18120647 98.13422108 371.92120647 98.13422108 C373.98256878 63.83139318 373.98256878 63.83139318 359.34308147 37.46625233 C348.85899274 27.37108946 337.9126985 25.68107735 323.73984051 25.74654102 C322.32082667 25.74236176 320.90181617 25.736881 319.48281181 25.73022121 C315.6063639 25.71582547 311.73012967 25.71999282 307.85367036 25.72738802 C303.66405502 25.73213202 299.47448508 25.71959897 295.28488445 25.70937061 C287.08592261 25.69220126 278.88703747 25.69133874 270.68806233 25.69658352 C264.02172897 25.70062999 257.35541824 25.699176 250.68908596 25.69383526 C249.73918127 25.69308684 248.78927658 25.69233841 247.81058689 25.69156731 C245.880663 25.69003579 243.95073912 25.68849744 242.02081524 25.68695235 C223.9347024 25.673234 205.84863286 25.67866028 187.76252101 25.69013756 C171.22984581 25.70006885 154.69728253 25.68712987 138.16462459 25.66320337 C121.17337196 25.63879915 104.18217144 25.62920777 87.19090164 25.63585609 C77.65780531 25.63934542 68.12479504 25.63713517 58.591712 25.61960506 C50.47631912 25.60486655 42.36107291 25.60426918 34.24568285 25.62167598 C30.10844048 25.63017484 25.97145994 25.63236295 21.83423138 25.61702442 C18.04046452 25.60313385 14.24718274 25.6079959 10.45344363 25.62726366 C8.44465913 25.63277391 6.43584965 25.61878868 4.4271127 25.60390955 C-11.36477016 25.73136381 -22.12269895 30.90250106 -32.31707478 42.75922108 Z M348.87539291 124.14983845 C348.18755641 124.15152744 347.49971991 124.15321643 346.79103988 124.15495661 C344.54260392 124.16052213 342.29416873 124.16635152 340.04573345 124.17218494 C338.39919317 124.17631583 336.75265284 124.18043007 335.10611248 124.1845293 C330.61544341 124.19575678 326.12477497 124.20721823 321.63410659 124.21871984 C316.70434729 124.23130332 311.77458744 124.24366461 306.84482765 124.25605488 C297.29171165 124.28009812 287.73859614 124.3043352 278.1854808 124.32864144 C267.12664595 124.35677027 256.06781049 124.38465557 245.00897503 124.41254139 C215.83388499 124.48622838 186.65879578 124.56024477 157.48370647 124.63422108 C59.69026897 124.88172108 59.69026897 124.88172108 -40.07879353 125.13422108 C-40.07879353 293.10422108 -40.07879353 461.07422108 -40.07879353 634.13422108 C43.41120647 634.13422108 126.90120647 634.13422108 212.92120647 634.13422108 C211.93120647 628.19422108 210.94120647 622.25422108 209.92120647 616.13422108 C207.31667687 595.02541717 208.63509664 573.84918802 214.37042522 553.34906483 C215.04187012 551.0293825 215.04187012 551.0293825 214.92120647 548.13422108 C213.95783556 548.13091093 212.99446465 548.12760078 212.00190067 548.12419033 C188.56641843 548.04321436 165.13100176 547.95090437 141.695611 547.84669399 C130.36245735 547.79656144 119.02931096 547.75011855 107.69610882 547.71234608 C97.81867747 547.67941621 87.94130234 547.6395794 78.06393301 547.59143102 C72.83343124 547.56617601 67.6029667 547.5443917 62.37242031 547.53087711 C57.44932213 547.51804781 52.52635173 547.49598383 47.60332394 547.46683788 C45.79656893 547.45776895 43.98979336 547.45207347 42.18301678 547.45000744 C39.71517973 547.44668009 37.24770391 547.43118989 34.77994061 547.41269398 C34.06591937 547.41462871 33.35189814 547.41656345 32.61623991 547.41855681 C28.36194007 547.37092743 24.83889141 546.82084879 20.92120647 545.13422108 C14.39694212 534.5711264 17.90693331 516.189052 18.35870647 504.32172108 C18.41743938 502.74789661 18.41743938 502.74789661 18.47735882 501.14227772 C18.60127175 498.13774528 18.7517588 495.13651202 18.92120647 492.13422108 C18.97164104 491.18369862 19.02207561 490.23317616 19.07403851 489.25384998 C19.1383305 488.36488026 19.20262249 487.47591053 19.26886272 486.56000233 C19.32179485 485.77665516 19.37472698 484.99330799 19.42926311 484.18622303 C20.05937196 481.55790301 20.77150765 480.77152325 22.92120647 479.13422108 C25.6485014 478.70184803 25.6485014 478.70184803 28.90167522 478.62250233 C30.64674358 478.5693285 30.64674358 478.5693285 32.42706585 478.51508045 C33.64200726 478.49252186 34.85694866 478.46996326 36.10870647 478.44672108 C37.33524944 478.41256092 38.56179241 478.37840076 39.82550335 478.34320545 C42.85731325 478.26062697 45.88883027 478.19150738 48.92120647 478.13422108 C48.92543841 477.1173846 48.92967035 476.10054811 48.93403053 475.05289841 C49.03877016 449.92560885 49.14766537 424.79833968 49.26054573 399.67108536 C49.3150518 387.51809804 49.36834112 375.36510795 49.41852093 363.21210194 C49.80521498 269.9307978 49.80521498 269.9307978 50.2770586 230.67504025 C50.31375135 227.62014973 50.34632157 224.56526275 50.37506199 221.51028728 C50.41414508 217.40954976 50.46926041 213.30920248 50.52691936 209.20868397 C50.53668615 208.02415953 50.54645294 206.83963509 50.55651569 205.61921597 C50.57458963 204.54671785 50.59266357 203.47421974 50.61128521 202.36922169 C50.62291226 201.44688268 50.63453932 200.52454367 50.64651871 199.57425499 C50.94974511 196.88071421 51.33596292 195.33815323 52.92120647 193.13422108 C57.20076114 190.59957494 61.76276878 190.85106129 66.59291363 190.87352467 C67.90167533 190.86778635 67.90167533 190.86778635 69.23687667 190.8619321 C72.16011627 190.85161451 75.083159 190.85559193 78.00641155 190.85956287 C80.10251834 190.85521567 82.19862354 190.85003249 84.29472637 190.8440752 C89.98901859 190.83067365 95.68324449 190.83010792 101.37754941 190.8326385 C106.13148461 190.83370761 110.88540635 190.82882628 115.63933867 190.82403308 C126.85610756 190.8129335 138.07284296 190.81250277 149.28961468 190.81854725 C160.8588216 190.82458585 172.42790686 190.81227988 183.99709302 190.79097718 C193.9310025 190.77335852 203.86487326 190.76736032 213.79879779 190.77061492 C219.73132043 190.77242779 225.66375634 190.76979135 231.59626484 190.75590038 C237.17687503 190.74332275 242.75729574 190.74526569 248.33790302 190.75831127 C250.38410792 190.76067688 252.43032615 190.75794296 254.47651577 190.74968815 C257.27407929 190.73921757 260.07100746 190.74732404 262.86854839 190.75999928 C263.674498 190.75262499 264.4804476 190.74525071 265.31081992 190.73765296 C271.38973527 190.79542489 277.43993498 191.65294958 281.92120647 196.13422108 C283.27057213 201.53724805 283.05792526 207.04311826 283.04146099 212.57449818 C283.04274263 214.15027211 283.04274263 214.15027211 283.04405016 215.75787985 C283.04569694 219.27706174 283.04019667 222.79619593 283.03473186 226.31537342 C283.03444979 228.83839384 283.03460812 231.36141433 283.03517437 233.8844347 C283.03540207 239.31588186 283.03256608 244.74731367 283.02693653 250.17875767 C283.0188025 258.03166937 283.01620436 265.88457527 283.01494854 273.73749073 C283.01276101 286.47894971 283.00610903 299.22040229 282.99664593 311.9618578 C282.98746407 324.33750851 282.98038702 336.71315749 282.97613811 349.08881092 C282.97574403 350.23345271 282.97574403 350.23345271 282.97534198 351.40121858 C282.97403693 355.229517 282.97277322 359.05781544 282.97153008 362.88611388 C282.96116679 394.63548765 282.94348216 426.38485337 282.92120647 458.13422108 C286.81368428 456.89170985 290.25763897 455.49718797 293.8137846 453.46942616 C317.97706165 439.7017483 344.45014836 435.58006624 371.92120647 434.13422108 C371.92120647 331.83422108 371.92120647 229.53422108 371.92120647 124.13422108 C360.39823699 124.13230878 360.39823699 124.13230878 348.87539291 124.14983845 Z M73.92120647 214.13422108 C73.51325402 271.18096378 73.51325402 271.18096378 73.14386272 328.22797108 C73.13868169 329.08749315 73.13350066 329.94701523 73.12816262 330.83258343 C72.92204281 365.18332064 72.83311885 399.53283735 72.85870647 433.88422108 C72.85956249 435.0421265 72.86041851 436.20003193 72.86130047 437.3930254 C72.87213457 450.97345273 72.89488784 464.55380573 72.92120647 478.13422108 C90.08120647 478.13422108 107.24120647 478.13422108 124.92120647 478.13422108 C124.95858929 473.42785389 124.9959721 468.7214867 125.03448772 463.87250233 C125.06477086 460.88743995 125.09592079 457.90243696 125.13019085 454.9174242 C125.18447974 450.18153366 125.23559092 445.44576058 125.26764202 440.70966053 C125.29368936 436.8904335 125.33410132 433.07160177 125.38439274 429.25261974 C125.40105189 427.79706401 125.41257212 426.34143992 125.41882038 424.88580227 C125.42847233 422.84359589 125.45654171 420.80239861 125.48883343 418.76044178 C125.50548801 417.018372 125.50548801 417.018372 125.52247906 415.24110889 C125.96336804 411.80569775 126.89038693 409.91152118 128.92120647 407.13422108 C135.03963144 402.76391753 144.72429183 403.9735121 151.84698772 403.96625233 C152.98975674 403.96292393 154.13252575 403.95959553 155.30992413 403.95616627 C157.72128174 403.95111718 160.13264631 403.94875732 162.54400921 403.94891834 C166.21087582 403.94673467 169.87743999 403.92856482 173.54425335 403.9096117 C175.89516379 403.90667671 178.24607564 403.90469262 180.59698772 403.90375233 C182.22559483 403.89297405 182.22559483 403.89297405 183.88710308 403.88197803 C200.06687086 403.92994635 200.06687086 403.92994635 204.63478374 407.45753956 C206.93057403 410.4497979 207.04697923 413.62922108 207.21783733 417.299016 C207.27639652 418.52060162 207.27639652 418.52060162 207.33613873 419.76686573 C207.37323452 420.64477268 207.41033031 421.52267963 207.44855022 422.42718983 C207.48987576 423.35041538 207.53120129 424.27364094 207.57377911 425.22484303 C208.03281912 435.96164522 208.26380646 446.70285845 208.48370647 457.44672108 C208.70026897 467.68703358 208.70026897 467.68703358 208.92120647 478.13422108 C225.42120647 478.13422108 241.92120647 478.13422108 258.92120647 478.13422108 C258.92120647 391.01422108 258.92120647 303.89422108 258.92120647 214.13422108 C197.87120647 214.13422108 136.82120647 214.13422108 73.92120647 214.13422108 Z M176.16730022 426.35297108 C175.3918536 426.37516712 174.61640697 426.39736317 173.81746197 426.42023182 C171.33120629 426.49142812 168.84495635 426.56282255 166.35870647 426.63422108 C164.67706622 426.68241117 162.9954256 426.73058842 161.3137846 426.77875233 C157.18292093 426.89709269 153.0520624 427.01561078 148.92120647 427.13422108 C147.67004867 444.15285556 147.85184125 461.07037612 147.92120647 478.13422108 C159.80120647 478.13422108 171.68120647 478.13422108 183.92120647 478.13422108 C184.76863148 465.4028614 184.76863148 465.4028614 185.01886272 452.69672108 C185.01744778 451.92030262 185.01603283 451.14388416 185.014575 450.34393787 C185.0091188 447.94065414 184.99659842 445.53747508 184.98370647 443.13422108 C184.97867274 441.47276412 184.9741132 439.81130565 184.9700346 438.14984608 C184.95919734 434.14459937 184.94204022 430.13942774 184.92120647 426.13422108 C182.00390727 426.13422108 179.08352984 426.2690847 176.16730022 426.35297108 Z M267.42511272 505.81439686 C245.96234879 531.02745144 231.63888708 565.55152145 233.92120647 599.13422108 C233.96374554 599.83418201 234.0062846 600.53414295 234.05011272 601.25531483 C235.28748282 620.32350534 239.39893585 637.99749735 247.92120647 655.13422108 C248.48968304 656.28664295 249.0581596 657.43906483 249.64386272 658.62640858 C255.56183778 670.08490241 263.07651559 679.79737729 271.92120647 689.13422108 C272.80421429 690.09328358 273.6872221 691.05234608 274.59698772 692.04047108 C297.2481278 716.11096302 329.0232479 728.81276434 361.74933147 730.25922108 C398.25733353 730.99305026 432.83378701 718.5871107 459.92120647 694.13422108 C460.7178471 693.48066639 461.51448772 692.8271117 462.33526897 692.15375233 C485.99726653 672.54690277 500.60335404 639.63262321 503.72491741 609.61127186 C506.81351608 570.63500059 495.13354035 534.62540657 469.98370647 504.75922108 C456.96514263 489.77391311 439.82302653 479.32061649 421.92120647 471.13422108 C420.17130413 470.31631092 420.17130413 470.31631092 418.38605022 469.48187733 C366.31353721 446.81908927 304.56677158 464.10276235 267.42511272 505.81439686 Z M40.92120647 502.13422108 C40.92120647 509.39422108 40.92120647 516.65422108 40.92120647 524.13422108 C101.64120647 524.13422108 162.36120647 524.13422108 224.92120647 524.13422108 C227.89120647 518.52422108 230.86120647 512.91422108 233.92120647 507.13422108 C234.91120647 505.48422108 235.90120647 503.83422108 236.92120647 502.13422108 C172.24120647 502.13422108 107.56120647 502.13422108 40.92120647 502.13422108 Z M-40.07879353 660.13422108 C-43.49245926 698.93425529 -43.49245926 698.93425529 -29.33269978 734.09906483 C-17.75368654 745.10033104 -4.24260891 747.43716537 11.07600689 747.41269398 C13.0353961 747.42138258 13.0353961 747.42138258 15.03436893 747.43024671 C18.6397512 747.44597174 22.24505538 747.44947323 25.8504678 747.45089531 C29.74607389 747.45460252 33.64163779 747.46976454 37.53721905 747.48351002 C44.27983498 747.50574528 51.02243583 747.52078098 57.76508045 747.53087711 C67.51371487 747.54548477 77.26229673 747.57102743 87.01090025 747.5992084 C102.82872602 747.64463851 118.64655937 747.68126893 134.46441936 747.71234608 C149.82673759 747.74254712 165.18903728 747.77690453 180.55133343 747.81683826 C181.97258355 747.82053059 181.97258355 747.82053059 183.4225458 747.8242975 C188.17604493 747.83667241 192.92954384 747.84912888 197.68304265 747.86162591 C237.09573822 747.96513708 276.5084563 748.054359 315.92120647 748.13422108 C313.59739445 746.58501306 311.70982387 745.53560114 309.18292522 744.47015858 C270.23159287 727.77734393 238.76621302 699.43923634 221.92120647 660.13422108 C135.46120647 660.13422108 49.00120647 660.13422108 -40.07879353 660.13422108 Z " fill="#0D0D0D" transform="translate(325.0787935256958,99.86577892303467)"/>
<path d="M0 0 C3.89622012 2.01583577 6.35378014 4.95705874 8 9 C7.79505578 17.88835444 4.81429193 26.39263913 2.36328125 34.875 C1.88628986 36.54605086 1.40995559 38.21728942 0.93423462 39.88870239 C-0.33558112 44.34309989 -1.61422653 48.79491228 -2.89534378 53.24607086 C-4.2175068 57.84256733 -5.5342161 62.44062555 -6.85131836 67.03857422 C-7.37841276 68.87851538 -7.9055276 70.7184507 -8.43266296 72.55838013 C-8.692703 73.46603245 -8.95274303 74.37368477 -9.22066307 75.30884171 C-10.00704076 78.05199539 -10.79460838 80.79480533 -11.58235168 83.53756714 C-14.58848973 94.01245127 -17.54083082 104.50002351 -20.4296875 115.0078125 C-21.35703225 118.35509891 -22.28566466 121.70202509 -23.2147522 125.04882812 C-23.77503629 127.08189757 -24.32900829 129.11671824 -24.87631226 131.15332031 C-25.62104934 133.92219305 -26.38793802 136.68400117 -27.16015625 139.4453125 C-27.36240814 140.22383575 -27.56466003 141.00235901 -27.77304077 141.80447388 C-29.57000387 148.08941827 -32.85320015 152.87378389 -38.3125 156.5625 C-42.52388884 157.24807493 -46.05644799 156.59738816 -50 155 C-53.135382 152.44050449 -54.65750382 150.99133091 -55.33985901 147.02400208 C-55.5203844 138.71068149 -53.08237938 131.13459828 -50.71484375 123.26171875 C-50.26091877 121.71560832 -49.80826133 120.16912526 -49.35678101 118.62229919 C-48.14812927 114.49258477 -46.92376091 110.36768909 -45.69638443 106.24350739 C-44.42689694 101.96773195 -43.17191455 97.6877121 -41.91674805 93.40771484 C-41.41121788 91.68426256 -40.90567893 89.96081286 -40.40013123 88.23736572 C-40.02483182 86.95776852 -40.02483182 86.95776852 -39.64195061 85.65232086 C-38.88215954 83.06418202 -38.12054895 80.4765845 -37.35853577 77.88909912 C-34.27532705 67.41142396 -31.25099424 56.91932816 -28.3046875 46.40234375 C-27.78283623 44.54155434 -27.78283623 44.54155434 -27.2504425 42.64317322 C-25.95582918 38.01912083 -24.66408415 33.39431785 -23.3822937 28.76669312 C-22.52670553 25.67900462 -21.66423626 22.59330839 -20.80078125 19.5078125 C-20.55798431 18.62073105 -20.31518738 17.7336496 -20.06503296 16.81968689 C-18.48763626 11.20557954 -16.82699679 6.10381448 -12.9375 1.625 C-8.63560405 -0.75477223 -4.8057168 -0.89963018 0 0 Z " fill="#0F0E0F" transform="translate(724,616)"/>
<path d="M0 0 C4.2309471 1.14521877 6.963105 3.71020824 9.22827148 7.47314453 C10.79716916 11.33026212 10.39956313 14.6615583 9.078125 18.5625 C6.60195959 22.0190128 3.63234662 24.81014655 0.515625 27.6875 C-0.66483398 28.82638672 -0.66483398 28.82638672 -1.86914062 29.98828125 C-6.16945537 34.10779133 -10.59320599 38.07370649 -15.09350586 41.97265625 C-17.74085803 44.27464014 -20.33039925 46.63527838 -22.921875 49 C-23.870625 49.86496094 -24.819375 50.72992187 -25.796875 51.62109375 C-26.84875 52.58208984 -26.84875 52.58208984 -27.921875 53.5625 C-26.53896091 56.68293185 -24.94808196 58.76945785 -22.51367188 61.15014648 C-21.819552 61.83443222 -21.12543213 62.51871796 -20.41027832 63.22373962 C-19.66129272 63.95299149 -18.91230713 64.68224335 -18.140625 65.43359375 C-16.56108011 66.9927192 -14.98165675 68.55196778 -13.40234375 70.11132812 C-10.90956018 72.56059003 -8.41437289 75.00734055 -5.91650391 77.45141602 C-3.50560879 79.81403616 -1.10398587 82.18578399 1.296875 84.55859375 C2.0458606 85.28582138 2.79484619 86.01304901 3.56652832 86.76231384 C4.26064819 87.44975174 4.95476807 88.13718964 5.66992188 88.84545898 C6.28121948 89.44406235 6.89251709 90.04266571 7.52233887 90.65940857 C10.41878192 94.20243793 11.08792189 96.94529598 11.015625 101.5 C10.27557517 106.1057219 8.43183217 108.36123406 5.078125 111.5625 C1.63306645 113.70402288 -1.69358678 114.08055344 -5.71484375 113.38671875 C-15.1691784 109.85598492 -23.15828662 98.08099343 -29.875 90.86328125 C-33.49549766 86.98872869 -37.21076456 83.22486866 -40.984375 79.5 C-45.51096906 75.02257094 -49.84392821 70.45380776 -53.921875 65.5625 C-54.41429687 64.98628906 -54.90671875 64.41007813 -55.4140625 63.81640625 C-59.41389697 59.10473683 -60.34720838 56.83616738 -59.921875 50.5625 C-57.69783541 45.96820369 -54.33780824 42.70804244 -50.734375 39.1875 C-50.14922119 38.6095166 -49.56406738 38.0315332 -48.96118164 37.43603516 C-45.41342256 33.95449306 -41.80013948 30.58694466 -38.01171875 27.3671875 C-35.26053288 24.99139709 -32.59386387 22.5263463 -29.921875 20.0625 C-25.31267468 15.82558675 -20.6885201 11.62189898 -15.921875 7.5625 C-15.20515625 6.90894531 -14.4884375 6.25539063 -13.75 5.58203125 C-9.30579559 1.74315813 -6.01358862 -0.50463681 0 0 Z " fill="#0C0C0D" transform="translate(647.921875,639.4375)"/>
<path d="M0 0 C4.4248232 2.57617739 7.83229531 5.63993077 11.375 9.3125 C15.16355315 13.19377097 19.04671975 16.86915101 23.171875 20.390625 C25.64447732 22.56736038 27.92306638 24.91264771 30.23046875 27.26171875 C32.03010481 29.02957316 33.89601912 30.67254542 35.8125 32.3125 C52.22315512 46.51156293 52.22315512 46.51156293 53.5625 54.25 C52.42753417 61.81643885 47.16313887 67.13557616 41.78125 72.2578125 C39.92783402 74.0705834 38.24812308 75.96838577 36.5625 77.9375 C34.14382221 80.74576347 31.64100317 83.39970593 29 86 C26.47912102 88.48720312 24.0647546 91.00755353 21.75 93.6875 C20.5008514 95.1257399 19.25070897 96.5631168 18 98 C17.55076172 98.51852539 17.10152344 99.03705078 16.63867188 99.57128906 C15.10502802 101.32988068 13.55397523 103.0718647 12 104.8125 C11.51370117 105.37606201 11.02740234 105.93962402 10.52636719 106.52026367 C7.01535218 110.4159913 3.99574924 112.33863648 -1 114 C-7.08868732 114 -9.8130883 112.08722332 -14 108 C-15.79153791 104.41692419 -15.71095801 100.89801117 -15 97 C-11.29389959 89.94317868 -4.50763787 84.39636373 1.13671875 78.859375 C4.05931618 75.97394135 6.75358076 72.93237579 9.4140625 69.8046875 C11.6306252 67.28239201 14.02714696 64.96095478 16.421875 62.609375 C18.45508542 60.53590299 20.2475974 58.31317144 22 56 C20.63756514 52.91158991 19.13517134 50.94152893 16.6484375 48.671875 C15.96918213 48.04450439 15.28992676 47.41713379 14.59008789 46.77075195 C13.49361938 45.77047974 13.49361938 45.77047974 12.375 44.75 C10.83812887 43.32345987 9.30301974 41.89501949 7.76953125 40.46484375 C6.98271973 39.73120605 6.1959082 38.99756836 5.38525391 38.24169922 C1.56158364 34.64815363 -2.20192333 30.99735192 -5.9375 27.3125 C-6.61699707 26.65411133 -7.29649414 25.99572266 -7.99658203 25.31738281 C-11.89279209 21.4501223 -14.77104416 18.42846692 -15.15234375 12.71875 C-14.73725529 8.43201824 -14.36098549 6.44428984 -11.5625 3 C-7.50785143 -0.16460376 -5.16921294 -0.43076775 0 0 Z " fill="#0E0E0E" transform="translate(755,638)"/>
<path d="M0 0 C0.97751724 -0.00524185 1.95503448 -0.0104837 2.96217346 -0.0158844 C5.02563529 -0.02229621 7.08913372 -0.02097851 9.15258789 -0.01245117 C12.30226017 -0.00394446 15.45011627 -0.03270966 18.59960938 -0.06445312 C20.60807238 -0.06606542 22.61653857 -0.06548707 24.625 -0.0625 C26.03150063 -0.07935097 26.03150063 -0.07935097 27.46641541 -0.09654236 C33.05059901 -0.03730629 36.58576793 0.49065737 40.87890625 4.43359375 C43.4470793 8.6260301 43.16933498 13.17245225 43.14453125 17.953125 C43.14740143 19.17922737 43.14740143 19.17922737 43.15032959 20.43009949 C43.15168714 22.15563262 43.14802081 23.8811761 43.13964844 25.60668945 C43.12898411 28.2269632 43.1395368 30.84654491 43.15234375 33.46679688 C43.15102127 35.14974108 43.14845705 36.83268486 43.14453125 38.515625 C43.14857971 39.28985306 43.15262817 40.06408112 43.15679932 40.86177063 C43.1046695 47.01421324 42.88497089 52.90521792 38.91821289 57.90478516 C34.38877628 60.18314744 30.25243459 59.96716862 25.25 59.89453125 C24.22334732 59.89361481 23.19669464 59.89269836 22.13893127 59.89175415 C19.97286341 59.88572269 17.80680371 59.86999045 15.64086914 59.84521484 C12.3247202 59.80868533 9.00968862 59.80419579 5.69335938 59.8046875 C3.58722992 59.79485677 1.48110804 59.78319996 -0.625 59.76953125 C-1.61673721 59.7673056 -2.60847443 59.76507996 -3.63026428 59.76278687 C-5.01706642 59.74364731 -5.01706642 59.74364731 -6.43188477 59.72412109 C-7.24287125 59.7164975 -8.05385773 59.7088739 -8.88941956 59.70101929 C-11.39710624 59.40051868 -12.98684736 58.7729015 -15.12109375 57.43359375 C-18.62718763 52.32926489 -18.56002963 47.57867684 -18.51953125 41.6171875 C-18.52240143 40.68310562 -18.52527161 39.74902374 -18.52822876 38.78663635 C-18.53026354 36.81909577 -18.52477481 34.8515347 -18.51220703 32.8840332 C-18.49612698 29.87730637 -18.51208505 26.87191999 -18.53125 23.86523438 C-18.52926782 21.94921579 -18.52542466 20.03319804 -18.51953125 18.1171875 C-18.52560394 17.22124374 -18.53167664 16.32529999 -18.53793335 15.40220642 C-18.48432915 10.63414448 -18.36035364 7.20683161 -15.12109375 3.43359375 C-10.62195966 -0.47541986 -5.65883107 -0.01767845 0 0 Z M5.87890625 24.43359375 C5.80646572 26.45323574 5.79513437 28.47526499 5.81640625 30.49609375 C5.83703125 32.45546875 5.85765625 34.41484375 5.87890625 36.43359375 C10.49890625 36.43359375 15.11890625 36.43359375 19.87890625 36.43359375 C20.20890625 32.14359375 20.53890625 27.85359375 20.87890625 23.43359375 C18.56646833 23.40673963 16.25394355 23.38726534 13.94140625 23.37109375 C12.00974609 23.35369141 12.00974609 23.35369141 10.0390625 23.3359375 C7.01592222 23.06826826 7.01592222 23.06826826 5.87890625 24.43359375 Z " fill="#0B0C0C" transform="translate(439.12109375,419.56640625)"/>
<path d="M0 0 C0.88464432 -0.00960754 1.76928864 -0.01921509 2.68074036 -0.02911377 C3.63905258 -0.03336365 4.59736481 -0.03761353 5.5847168 -0.04199219 C7.06091743 -0.0505423 7.06091743 -0.0505423 8.56694031 -0.05926514 C10.65252607 -0.06872269 12.73812682 -0.07525211 14.82373047 -0.07910156 C18.01060181 -0.0887962 21.19682534 -0.11980819 24.38354492 -0.15136719 C26.40893171 -0.15789827 28.43432312 -0.16314833 30.4597168 -0.16699219 C31.41195633 -0.17933899 32.36419586 -0.19168579 33.34529114 -0.20440674 C42.16073801 -0.1748172 42.16073801 -0.1748172 45.72143555 3.16113281 C48.82225712 8.56152571 49.16550394 13.21063475 49.11987305 19.34863281 C49.12274323 20.20996826 49.1256134 21.07130371 49.12857056 21.95874023 C49.13060215 23.7706773 49.12513591 25.58263676 49.11254883 27.39453125 C49.09648191 30.15317259 49.11242805 32.91034903 49.1315918 35.66894531 C49.1296092 37.43717768 49.1257652 39.20540915 49.11987305 40.97363281 C49.12898209 42.198927 49.12898209 42.198927 49.13827515 43.44897461 C49.07390628 48.74271387 48.37886247 52.53295633 45.72143555 57.16113281 C41.43646541 61.12506931 36.53783916 60.51237742 31.0378418 60.34082031 C30.10471664 60.32149445 29.17159149 60.30216858 28.21018982 60.28225708 C26.2406873 60.23745239 24.27134854 60.18485994 22.30224609 60.125 C19.29817056 60.03655193 16.29467884 59.97991111 13.28979492 59.92675781 C11.37242888 59.87918844 9.45510763 59.82977042 7.5378418 59.77832031 C6.64392227 59.76251923 5.75000275 59.74671814 4.82899475 59.73043823 C-1.08840704 59.52384283 -5.61802912 58.64581187 -10.1105957 54.45019531 C-11.75987305 51.21783236 -11.85341221 48.0931883 -11.96606445 44.53613281 C-11.99877441 43.79411621 -12.03148437 43.05209961 -12.06518555 42.28759766 C-12.39694933 33.91275636 -12.45316546 25.53992682 -12.27856445 17.16113281 C-12.26180664 16.03835938 -12.24504883 14.91558594 -12.2277832 13.75878906 C-12.00596508 9.03723178 -11.81291809 6.84620157 -8.84106445 3.03613281 C-5.5622557 0.63700446 -3.9831522 0.03487248 0 0 Z M17.09643555 22.59863281 C14.43581055 22.87707031 14.43581055 22.87707031 11.72143555 23.16113281 C11.72143555 27.45113281 11.72143555 31.74113281 11.72143555 36.16113281 C16.01143555 36.16113281 20.30143555 36.16113281 24.72143555 36.16113281 C24.72143555 31.87113281 24.72143555 27.58113281 24.72143555 23.16113281 C21.99301493 21.79692251 20.11190237 22.2830607 17.09643555 22.59863281 Z " fill="#0C0C0D" transform="translate(513.278564453125,419.8388671875)"/>
<path d="M0 0 C1.22897255 -0.00855011 1.22897255 -0.00855011 2.48277283 -0.01727295 C4.2047295 -0.02666658 5.9267037 -0.03323432 7.64868164 -0.03710938 C10.27326627 -0.04685985 12.89708148 -0.07795384 15.52148438 -0.109375 C17.20181831 -0.11590224 18.88215779 -0.12115381 20.5625 -0.125 C21.34077652 -0.1373468 22.11905304 -0.1496936 22.9209137 -0.16241455 C28.54505045 -0.13953582 32.45958405 1.11292799 37.02734375 4.578125 C40.13464786 8.83022535 39.37568046 14.75184041 39.3828125 19.79296875 C39.3878051 21.02618614 39.3878051 21.02618614 39.39289856 22.28431702 C39.39794718 24.01823367 39.40030752 25.75215999 39.40014648 27.48608398 C39.40233351 30.12825618 39.42051247 32.77001091 39.43945312 35.41210938 C39.44238744 37.10156108 39.44437198 38.79101476 39.4453125 40.48046875 C39.45249802 41.26501938 39.45968353 42.04957001 39.46708679 42.8578949 C39.44365194 48.52648139 39.0356048 53.03293182 35.25195312 57.54272461 C30.75830495 59.99942085 26.66760524 59.79490186 21.62109375 59.76953125 C20.08467224 59.77882912 20.08467224 59.77882912 18.51721191 59.78831482 C16.35539702 59.79540682 14.19352745 59.79224985 12.03173828 59.77954102 C8.72586556 59.76567124 5.42282145 59.79976194 2.1171875 59.83789062 C0.01432222 59.83884181 -2.08854659 59.83698302 -4.19140625 59.83203125 C-5.17798218 59.84528946 -6.16455811 59.85854767 -7.18103027 59.87220764 C-11.81712731 59.80935498 -14.06717245 59.74026176 -17.86645508 56.89794922 C-23.21378423 49.38760195 -22.12640894 39.28280673 -22.10083008 30.43725586 C-22.09765806 28.14193708 -22.12123588 25.84789573 -22.14648438 23.55273438 C-22.20889506 9.49735208 -22.20889506 9.49735208 -18.78515625 3.203125 C-13.23803468 -0.49495605 -6.4785492 0.03546919 0 0 Z M2.21484375 25.203125 C2.14225429 27.38951953 2.13110592 29.57812889 2.15234375 31.765625 C2.17296875 33.89 2.19359375 36.014375 2.21484375 38.203125 C8.64984375 37.708125 8.64984375 37.708125 15.21484375 37.203125 C15.21484375 32.913125 15.21484375 28.623125 15.21484375 24.203125 C13.25546875 24.1825 11.29609375 24.161875 9.27734375 24.140625 C7.62412109 24.12322266 7.62412109 24.12322266 5.9375 24.10546875 C3.30036741 23.89049929 3.30036741 23.89049929 2.21484375 25.203125 Z " fill="#0C0C0D" transform="translate(442.78515625,336.796875)"/>
<path d="M0 0 C0.88590317 -0.00287018 1.77180634 -0.00574036 2.68455505 -0.00869751 C4.54776656 -0.01072933 6.41099982 -0.0052615 8.27416992 0.00732422 C11.11620972 0.02340986 13.95683172 0.00743581 16.79882812 -0.01171875 C18.61588853 -0.00973654 20.43294807 -0.00589331 22.25 0 C23.51584679 -0.00910904 23.51584679 -0.00910904 24.80726624 -0.0184021 C29.76314748 0.04034067 33.34544132 0.50808782 37.55859375 3.3984375 C41.48433035 7.78316099 40.99379259 12.76089483 40.95703125 18.3359375 C40.95990143 19.29363037 40.96277161 20.25132324 40.96572876 21.23803711 C40.96776615 23.25863233 40.96225908 25.27924742 40.94970703 27.29980469 C40.93364896 30.38781959 40.94956698 33.47452568 40.96875 36.5625 C40.96676751 38.52864871 40.96292372 40.49479662 40.95703125 42.4609375 C40.96614029 43.84236938 40.96614029 43.84236938 40.97543335 45.25170898 C40.92279272 50.06347781 40.8398069 53.58691789 37.55859375 57.3984375 C34.62054138 59.18257849 32.39294978 59.65884026 28.97705078 59.70483398 C28.07576447 59.72082138 27.17447815 59.73680878 26.24588013 59.75328064 C25.27915375 59.75864334 24.31242737 59.76400604 23.31640625 59.76953125 C22.31527802 59.77855972 21.31414978 59.7875882 20.28268433 59.79689026 C18.16618844 59.81138794 16.04964778 59.82027829 13.93310547 59.82397461 C10.70202821 59.83586963 7.47286176 59.88505989 4.2421875 59.93554688 C2.18360305 59.94501161 0.1250069 59.9522464 -1.93359375 59.95703125 C-3.37761063 59.98632973 -3.37761063 59.98632973 -4.85079956 60.01622009 C-9.33899239 59.98616467 -12.46199269 59.87657867 -16.03564453 56.98852539 C-22.17578973 50.37793066 -20.60064207 39.49136203 -20.56640625 30.9609375 C-20.57027344 30.00123047 -20.57414062 29.04152344 -20.578125 28.05273438 C-20.5508241 7.78181654 -20.5508241 7.78181654 -16.44140625 3.3984375 C-10.83850601 0.43679477 -6.27607756 -0.04527127 0 0 Z M3.55859375 24.3984375 C3.48600429 26.58483203 3.47485592 28.77344139 3.49609375 30.9609375 C3.51671875 33.0853125 3.53734375 35.2096875 3.55859375 37.3984375 C7.84859375 37.3984375 12.13859375 37.3984375 16.55859375 37.3984375 C16.55859375 33.1084375 16.55859375 28.8184375 16.55859375 24.3984375 C9.80338881 22.6780359 9.80338881 22.6780359 3.55859375 24.3984375 Z " fill="#0D0D0E" transform="translate(521.44140625,336.6015625)"/>
<path d="M0 0 C1.01521729 -0.00861557 2.03043457 -0.01723114 3.07641602 -0.02610779 C6.42954057 -0.04879493 9.78183121 -0.04202332 13.13500977 -0.03295898 C15.46761829 -0.03819349 17.8002247 -0.04446933 20.13282776 -0.05174255 C25.0211076 -0.062152 29.90909643 -0.05757744 34.79736328 -0.04296875 C41.06001177 -0.02578434 47.32174253 -0.04927016 53.5842886 -0.08445835 C58.40133234 -0.10642505 63.21815627 -0.10499247 68.03523445 -0.09669304 C70.34409656 -0.09587305 72.65297474 -0.10274538 74.96179008 -0.11746407 C78.19124528 -0.13489469 81.41904859 -0.12037793 84.6484375 -0.09765625 C86.0770385 -0.11519455 86.0770385 -0.11519455 87.53450012 -0.13308716 C91.95125451 -0.06990015 94.95406306 0.11427196 98.46644592 2.94789124 C102.24747392 6.98346624 102.22446312 9.68400689 102.17797852 15.05297852 C101.77242476 18.53306819 100.44080909 20.20028788 97.88891602 22.53344727 C94.78438234 24.60313638 94.102398 24.78616797 90.58232117 24.80760193 C89.26391235 24.82256462 89.26391235 24.82256462 87.91886902 24.83782959 C86.95725357 24.83849426 85.99563812 24.83915894 85.00488281 24.83984375 C83.98995758 24.84816727 82.97503235 24.85649078 81.92935181 24.86506653 C78.56557405 24.88921238 75.20199007 24.8979446 71.83813477 24.90454102 C69.50266968 24.91350432 67.1672052 24.9226261 64.83174133 24.93190002 C59.9315959 24.94840538 55.03151891 24.95609288 50.13134766 24.95898438 C43.8530126 24.96436766 37.57532111 25.0020397 31.29716778 25.04772854 C26.47157952 25.07747573 21.64614661 25.08470745 16.82047462 25.08571053 C14.50601061 25.08991795 12.19154635 25.10237303 9.87717247 25.12322807 C6.638012 25.15009075 3.40034788 25.14533116 0.16113281 25.1328125 C-0.79440994 25.14764679 -1.7499527 25.16248108 -2.73445129 25.17776489 C-7.15875726 25.12908628 -10.16598013 24.96392267 -13.68254089 22.12049866 C-16.8876924 18.70615049 -17.98718269 16.18859605 -18.11108398 11.53344727 C-15.22424093 1.34458943 -9.55489667 -0.06533159 0 0 Z " fill="#0A0A0B" transform="translate(449.111083984375,150.466552734375)"/>
<path d="M0 0 C0.8103923 -0.00511093 1.62078461 -0.01022186 2.45573425 -0.01548767 C5.12689661 -0.0293549 7.79780013 -0.02842912 10.46899414 -0.02612305 C12.33077591 -0.03001145 14.1925568 -0.03434642 16.05433655 -0.03910828 C19.95389687 -0.04656424 23.85336664 -0.04628365 27.75292969 -0.04101562 C32.74416491 -0.03522073 37.73502908 -0.0521555 42.72620296 -0.0753603 C46.57042092 -0.0901088 50.41454973 -0.09096783 54.25879097 -0.08785057 C56.09874774 -0.08836318 57.93870957 -0.09358966 59.77863884 -0.10366249 C62.35397168 -0.11603176 64.92858449 -0.10923256 67.50390625 -0.09765625 C68.25994141 -0.10529999 69.01597656 -0.11294373 69.79492188 -0.12081909 C74.54236067 -0.07377261 77.76784077 0.80008563 81.81665039 3.2746582 C84.32548105 5.86209452 85.69634844 8.72833797 85.97680664 12.33325195 C85.61334365 17.02281103 84.25221064 19.93725682 80.81665039 23.2746582 C77.0216288 25.89137668 72.90597111 25.57732227 68.47143555 25.58105469 C67.21217506 25.59353996 67.21217506 25.59353996 65.92747498 25.60627747 C63.15350704 25.63036383 60.37977429 25.63914771 57.60571289 25.64575195 C55.67524139 25.65471901 53.74477061 25.66384087 51.81430054 25.67311096 C47.7675406 25.68959958 43.72086339 25.6973009 39.67407227 25.70019531 C34.49316983 25.70558034 29.31304663 25.74326593 24.13236427 25.78893948 C20.14487887 25.81870719 16.15758122 25.8259188 12.16999435 25.82692146 C10.26023157 25.83112398 8.35046824 25.84355957 6.44081497 25.86443901 C3.76684783 25.89134897 1.0946885 25.88652975 -1.5793457 25.87402344 C-2.36500412 25.88885773 -3.15066254 25.90369202 -3.96012878 25.91897583 C-9.69145699 25.84278968 -12.17076324 24.37368405 -16.18334961 20.2746582 C-18.48587471 16.57059609 -18.40137139 13.38862963 -17.72241211 9.2043457 C-16.87405079 6.16745807 -15.45482876 4.41994407 -13.18334961 2.2746582 C-8.87990692 0.01972788 -4.75081736 -0.01552617 0 0 Z " fill="#0E0E0E" transform="translate(457.183349609375,789.725341796875)"/>
<path d="M0 0 C0.33 0 0.66 0 1 0 C1.0231241 10.02227763 1.04091543 20.04454897 1.05181217 30.0668478 C1.05704085 34.72011186 1.06413823 39.37335774 1.07543945 44.02661133 C1.08626886 48.51344546 1.09227695 53.00026204 1.09487724 57.48710823 C1.0967314 59.20280293 1.10035182 60.91849662 1.10573006 62.63418388 C1.11294121 65.02884913 1.11399091 67.42344096 1.11352539 69.81811523 C1.11712067 70.53452682 1.12071594 71.25093842 1.12442017 71.98905945 C1.11405216 76.88594784 1.11405216 76.88594784 0 78 C-1.85369611 78.08737645 -3.71067541 78.10698153 -5.56640625 78.09765625 C-6.69111328 78.09443359 -7.81582031 78.09121094 -8.97460938 78.08789062 C-10.15861328 78.07951172 -11.34261719 78.07113281 -12.5625 78.0625 C-13.75037109 78.05798828 -14.93824219 78.05347656 -16.16210938 78.04882812 C-19.10812226 78.03699675 -22.05403681 78.02051287 -25 78 C-24.505 77.01 -24.505 77.01 -24 76 C-16.41 76 -8.82 76 -1 76 C-1.00523682 73.76879395 -1.01047363 71.53758789 -1.01586914 69.23876953 C-1.03241606 61.87865739 -1.04347566 54.51854445 -1.05181217 47.15841866 C-1.05703764 42.6946324 -1.06412921 38.23086516 -1.07543945 33.76708984 C-1.08628024 29.46179898 -1.09227938 25.15652644 -1.09487724 20.85122299 C-1.09672933 19.20613186 -1.10034584 17.56104177 -1.10573006 15.9159584 C-1.11295628 13.61728982 -1.11399027 11.31869759 -1.11352539 9.02001953 C-1.115746 7.7098587 -1.11796661 6.39969788 -1.12025452 5.04983521 C-1 2 -1 2 0 0 Z " fill="#000100" transform="translate(375,502)"/>
<path d="M0 0 C3.85479651 3.17895557 7.45598538 6.39764379 10.8671875 10.05078125 C11.85525391 11.09782227 11.85525391 11.09782227 12.86328125 12.16601562 C14.21058192 13.60357236 15.54390997 15.05434612 16.86328125 16.51757812 C20.37643583 20.19166669 22.70179826 22.37758808 27.8828125 22.85546875 C28.62160645 22.85571045 29.36040039 22.85595215 30.12158203 22.85620117 C32 23 32 23 34 25 C32.2365625 25.37125 32.2365625 25.37125 30.4375 25.75 C29.77621094 25.88921875 29.11492188 26.0284375 28.43359375 26.171875 C22.02270364 25.71909945 17.21851226 20.65466426 13 16.25 C12.48598633 15.7235791 11.97197266 15.1971582 11.44238281 14.65478516 C0 2.85595304 0 2.85595304 0 0 Z " fill="#313131" transform="translate(617,727)"/>
<path d="M0 0 C0.66 0 1.32 0 2 0 C2.59425781 1.13695312 3.18851563 2.27390625 3.80078125 3.4453125 C8.40872688 12.08626742 13.16854575 20.0902584 19.50708008 27.58251953 C23.57773816 32.43231832 23.57773816 32.43231832 24 36 C16.85618402 29.30267252 11.18096991 21.60200228 6.125 13.25 C5.74375977 12.62432129 5.36251953 11.99864258 4.96972656 11.35400391 C2.79253113 7.67155072 1.19644981 4.10571198 0 0 Z " fill="#1E1F1E" transform="translate(549,765)"/>
<path d="M0 0 C2.31 0 4.62 0 7 0 C7 5.61 7 11.22 7 17 C1.39 17 -4.22 17 -10 17 C-11 10 -11 10 -9 7 C-9 9.64 -9 12.28 -9 15 C-4.38 15 0.24 15 5 15 C4.979375 13.80375 4.95875 12.6075 4.9375 11.375 C4.93117429 7.81995131 5.30111125 4.49444376 6 1 C4.02 1 2.04 1 0 1 C0 0.67 0 0.34 0 0 Z " fill="#383939" transform="translate(454,441)"/>
<path d="M0 0 C0.66 0.66 1.32 1.32 2 2 C-5.67490614 9.47626151 -14.00069971 15.25244688 -23 21 C-23 20.01 -23 19.02 -23 18 C-20.88749724 16.3081948 -18.80879041 14.80601673 -16.5625 13.3125 C-10.65106509 9.25392531 -5.2152259 4.93928802 0 0 Z " fill="#262626" transform="translate(802,811)"/>
<path d="M0 0 C3.17403964 0.99755532 4.92528165 1.92387429 7.28125 4.32421875 C10.97101064 7.95566421 15.1678282 10.41527587 19.55078125 13.1328125 C20.35902344 13.74898437 21.16726563 14.36515625 22 15 C22 15.99 22 16.98 22 18 C6.02821236 7.68145678 6.02821236 7.68145678 0 2 C0 1.34 0 0.68 0 0 Z " fill="#222222" transform="translate(589,816)"/>
<path d="M0 0 C4.68904588 1.42300113 7.51610475 4.15696334 10.8125 7.625 C11.31458984 8.140625 11.81667969 8.65625 12.33398438 9.1875 C13.56296227 10.45159154 14.78246001 11.72488806 16 13 C15.67 13.99 15.34 14.98 15 16 C12.49599357 13.5248518 9.99748094 11.04423106 7.5 8.5625 C6.78457031 7.85544922 6.06914063 7.14839844 5.33203125 6.41992188 C4.65527344 5.74638672 3.97851562 5.07285156 3.28125 4.37890625 C2.65283203 3.7557251 2.02441406 3.13254395 1.37695312 2.49047852 C0 1 0 1 0 0 Z " fill="#343535" transform="translate(799,575)"/>
<path d="M0 0 C0 4.58941086 -2.75894293 6.62675391 -5.76953125 9.8984375 C-8.78994193 12.74428854 -10.9998896 13.9230472 -15 15 C-17.203125 14.5546875 -17.203125 14.5546875 -19 14 C-18.46632813 13.82726562 -17.93265625 13.65453125 -17.3828125 13.4765625 C-9.947794 10.67235137 -5.29476468 5.79218516 0 0 Z " fill="#383838" transform="translate(769,737)"/>
<path d="M0 0 C0.66 0 1.32 0 2 0 C3.515625 1.72265625 3.515625 1.72265625 5.25 4.0625 C8.36047293 8.1837136 11.60629865 12.10965942 15 16 C10.82611826 15.50447066 9.08460499 13.31303173 6.375 10.25 C5.59898437 9.38890625 4.82296875 8.5278125 4.0234375 7.640625 C2.09643396 5.12584818 0.99917584 2.9867837 0 0 Z " fill="#343434" transform="translate(270,840)"/>
<path d="M0 0 C0.66 0.33 1.32 0.66 2 1 C0.35 2.32 -1.3 3.64 -3 5 C-1.125 1.125 -1.125 1.125 0 0 Z M-11 11 C-10.34 11.33 -9.68 11.66 -9 12 C-10.07192184 13.3218362 -11.15802695 14.63217927 -12.25 15.9375 C-12.85328125 16.66839844 -13.4565625 17.39929688 -14.078125 18.15234375 C-16.10741134 20.10326334 -17.254407 20.61731779 -20 21 C-18.61811547 17.78956118 -17.07578097 15.95063635 -14.375 13.75 C-13.74335937 13.22921875 -13.11171875 12.7084375 -12.4609375 12.171875 C-11.73777344 11.59179688 -11.73777344 11.59179688 -11 11 Z " fill="#2E2D2D" transform="translate(797,781)"/>
<path d="M0 0 C4.62233847 1.53357959 6.6356531 5.28707795 9.25 9.125 C9.70890625 9.78371094 10.1678125 10.44242188 10.640625 11.12109375 C11.76821231 12.7420005 12.88516391 14.37029686 14 16 C13.01 16 12.02 16 11 16 C9.15458179 13.93348536 7.51274251 11.90812781 5.875 9.6875 C5.19244141 8.79514648 5.19244141 8.79514648 4.49609375 7.88476562 C2.53547071 5.28126767 1.03713159 3.11139478 0 0 Z " fill="#232323" transform="translate(816,592)"/>
<path d="M0 0 C6.5053093 2.89124858 10.11845402 7.23313169 14 13 C8.76105028 11.57119553 5.40221369 8.06208888 2 4 C0.79296875 1.7734375 0.79296875 1.7734375 0 0 Z " fill="#343434" transform="translate(574,802)"/>
<path d="M0 0 C12.03438713 -0.56905158 12.03438713 -0.56905158 16 3 C16.33 3.99 16.66 4.98 17 6 C16.46761719 5.690625 15.93523438 5.38125 15.38671875 5.0625 C11.60965522 3.38105764 7.65359606 3.11390902 3.58203125 2.5625 C2.72996094 2.376875 1.87789062 2.19125 1 2 C0.67 1.34 0.34 0.68 0 0 Z " fill="#1A1A1A" transform="translate(543,420)"/>
<path d="M0 0 C-1.55002747 3.88397689 -4.00476621 6.02979619 -7.125 8.75 C-8.49011719 9.94882812 -8.49011719 9.94882812 -9.8828125 11.171875 C-10.58148437 11.77515625 -11.28015625 12.3784375 -12 13 C-12 10 -12 10 -9.8828125 7.51953125 C-8.97273437 6.62621094 -8.06265625 5.73289062 -7.125 4.8125 C-6.22007812 3.91144531 -5.31515625 3.01039063 -4.3828125 2.08203125 C-2 0 -2 0 0 0 Z " fill="#232323" transform="translate(646,667)"/>
<path d="M0 0 C3.72600903 1.24200301 4.80429287 2.83985985 7.25 5.875 C7.97703125 6.75929688 8.7040625 7.64359375 9.453125 8.5546875 C10.21882812 9.76511719 10.21882812 9.76511719 11 11 C10.67 11.99 10.34 12.98 10 14 C8.32731078 12.04653795 6.66178419 10.08770186 5 8.125 C4.28457031 7.29162109 4.28457031 7.29162109 3.5546875 6.44140625 C0 2.2265625 0 2.2265625 0 0 Z " fill="#2B2B2B" transform="translate(562,787)"/>
<path d="M0 0 C0 3 0 3 0 3 Z M-2 3 C-1.34 3.66 -0.68 4.32 0 5 C-0.66 5.66 -1.32 6.32 -2 7 C-2.67651207 9.19704511 -2.67651207 9.19704511 -3.125 11.625 C-3.37636719 12.85089844 -3.37636719 12.85089844 -3.6328125 14.1015625 C-3.75398437 14.72804688 -3.87515625 15.35453125 -4 16 C-4.33 16 -4.66 16 -5 16 C-5.4726477 7.80743982 -5.4726477 7.80743982 -3.5 4.4375 C-2.7575 3.7259375 -2.7575 3.7259375 -2 3 Z " fill="#1E1E1E" transform="translate(745,728)"/>
<path d="M0 0 C0 4.13781054 -1.71509607 5.20919996 -4.5 8.1875 C-5.3353125 9.08855469 -6.170625 9.98960937 -7.03125 10.91796875 C-7.6809375 11.60503906 -8.330625 12.29210937 -9 13 C-9.66 12.34 -10.32 11.68 -11 11 C-7.37 7.37 -3.74 3.74 0 0 Z " fill="#212121" transform="translate(783,722)"/>
<path d="M0 0 C0.33 0.99 0.66 1.98 1 3 C-3.85359495 7.01676824 -9.04972335 6.28136159 -15 6 C-15 5.67 -15 5.34 -15 5 C-14.08476563 4.80664062 -13.16953125 4.61328125 -12.2265625 4.4140625 C-11.03804687 4.15367187 -9.84953125 3.89328125 -8.625 3.625 C-6.84996094 3.24214844 -6.84996094 3.24214844 -5.0390625 2.8515625 C-1.91803033 2.24476035 -1.91803033 2.24476035 0 0 Z " fill="#363636" transform="translate(558,474)"/>
<path d="M0 0 C0.99 0.495 0.99 0.495 2 1 C2.40729228 3.32156597 2.74438677 5.6568787 3 8 C3.66 8 4.32 8 5 8 C5.33 9.32 5.66 10.64 6 12 C5.01 12.33 4.02 12.66 3 13 C-0.42857143 4.57142857 -0.42857143 4.57142857 0 0 Z " fill="#232223" transform="translate(262,820)"/>
<path d="M0 0 C0.33 0 0.66 0 1 0 C0.61807705 5.63336356 0.22177157 8.90239818 -4 13 C-4.99 13.33 -5.98 13.66 -7 14 C-5.83024607 11.46553315 -4.52774442 9.31308279 -2.9375 7 C-1.3098164 4.47971572 -0.44658072 2.90277468 0 0 Z " fill="#3D3D3D" transform="translate(542,800)"/>
<path d="M0 0 C5.08938811 1.59043379 8.87456643 4.7446951 13 8 C10 9 10 9 7.7734375 7.890625 C6.98195313 7.34921875 6.19046875 6.8078125 5.375 6.25 C4.57835937 5.71890625 3.78171875 5.1878125 2.9609375 4.640625 C1 3 1 3 0 0 Z " fill="#272626" transform="translate(607,800)"/>
<path d="M0 0 C0 3.96130371 -1.34877125 4.82914401 -4 7.6875 C-4.7425 8.49574219 -5.485 9.30398438 -6.25 10.13671875 C-6.8275 10.75160156 -7.405 11.36648438 -8 12 C-8.66 11.34 -9.32 10.68 -10 10 C-6.7 6.7 -3.4 3.4 0 0 Z " fill="#232323" transform="translate(797,707)"/>
<path d="M0 0 C1.34591601 2.69183201 0.95054711 5.0776766 0.90234375 8.0234375 C1.02020133 10.40887491 1.67942957 12.01914436 3 14 C0 13 0 13 -1.1875 11.375 C-2.29470524 8.13855391 -2.25139764 5.39386815 -2 2 C-1.34 1.34 -0.68 0.68 0 0 Z " fill="#191919" transform="translate(590,688)"/>
<path d="M0 0 C3.11728368 1.36508501 5.08663738 2.86919698 7.3125 5.4375 C7.84488281 6.03433594 8.37726562 6.63117187 8.92578125 7.24609375 C9.45751953 8.11427734 9.45751953 8.11427734 10 9 C9.67 9.99 9.34 10.98 9 12 C7.49707257 10.18992669 5.99772829 8.37687764 4.5 6.5625 C3.6646875 5.55316406 2.829375 4.54382813 1.96875 3.50390625 C0 1 0 1 0 0 Z " fill="#222222" transform="translate(791,600)"/>
<path d="M0 0 C0 0.66 0 1.32 0 2 C-1.64453125 3.54296875 -1.64453125 3.54296875 -3.8125 5.1875 C-4.52019531 5.73792969 -5.22789062 6.28835938 -5.95703125 6.85546875 C-6.63121094 7.23316406 -7.30539062 7.61085938 -8 8 C-8.99 7.67 -9.98 7.34 -11 7 C-9.54634731 5.82750647 -8.08692581 4.66216184 -6.625 3.5 C-5.40683594 2.52546875 -5.40683594 2.52546875 -4.1640625 1.53125 C-2 0 -2 0 0 0 Z " fill="#282828" transform="translate(619,582)"/>
<path d="M0 0 C4.55015893 1.51671964 6.50057264 5.16891053 9 9 C6 9 6 9 4.39453125 7.5390625 C3.61142578 6.59160156 3.61142578 6.59160156 2.8125 5.625 C2.28269531 4.99851562 1.75289062 4.37203125 1.20703125 3.7265625 C0 2 0 2 0 0 Z " fill="#292929" transform="translate(703,120)"/>
<path d="M0 0 C3.94139078 1.66751148 6.7892812 4.22710649 10 7 C9.01 7.33 8.02 7.66 7 8 C4.8125 6.6875 4.8125 6.6875 3 5 C3 4.34 3 3.68 3 3 C2.01 2.67 1.02 2.34 0 2 C0 1.34 0 0.68 0 0 Z " fill="#2A2B2B" transform="translate(693,111)"/>
<path d="M0 0 C0.66 0.33 1.32 0.66 2 1 C-0.97 5.95 -0.97 5.95 -4 11 C-5 8 -5 8 -4.00390625 5.95703125 C-3.52824219 5.24933594 -3.05257812 4.54164063 -2.5625 3.8125 C-2.08941406 3.09707031 -1.61632812 2.38164063 -1.12890625 1.64453125 C-0.75636719 1.10183594 -0.38382813 0.55914063 0 0 Z " fill="#2A2A2A" transform="translate(835,770)"/>
<path d="M0 0 C0.33 0 0.66 0 1 0 C1.66 3.63 2.32 7.26 3 11 C2.01 10.67 1.02 10.34 0 10 C-1.125 2.25 -1.125 2.25 0 0 Z " fill="#343434" transform="translate(561,719)"/>
<path d="M0 0 C4.02550319 1.3418344 4.88285636 3.4227573 7 7 C7 7.66 7 8.32 7 9 C2.97449681 7.6581656 2.11714364 5.5772427 0 2 C0 1.34 0 0.68 0 0 Z " fill="#242424" transform="translate(556,778)"/>
<path d="M0 0 C-1.39332574 3.36720387 -2.9789286 4.9859524 -6 7 C-6.66 6.67 -7.32 6.34 -8 6 C-7.0479279 4.99403703 -6.08812654 3.99538437 -5.125 3 C-4.59132813 2.443125 -4.05765625 1.88625 -3.5078125 1.3125 C-2 0 -2 0 0 0 Z " fill="#2C2C2C" transform="translate(632,680)"/>
<path d="M0 0 C1 3 1 3 -0.25 5.625 C-2 8 -2 8 -5 9 C-3.90931332 5.22454612 -3.0916909 2.52956528 0 0 Z " fill="#373737" transform="translate(561,386)"/>
<path d="M0 0 C3.3 0.33 6.6 0.66 10 1 C10 1.33 10 1.66 10 2 C6.37 2.33 2.74 2.66 -1 3 C-0.67 2.01 -0.34 1.02 0 0 Z " fill="#353535" transform="translate(700,854)"/>
<path d="M0 0 C3.29148243 1.13499394 3.9959869 1.99283376 5.75 5.125 C6.1625 6.07375 6.575 7.0225 7 8 C3.70851757 6.86500606 3.0040131 6.00716624 1.25 2.875 C0.8375 1.92625 0.425 0.9775 0 0 Z " fill="#1E1E1E" transform="translate(578,767)"/>
<path d="M0 0 C3 1 3 1 4.75 3.375 C6 6 6 6 5 9 C4.16094435 7.87926138 3.32892169 6.75325453 2.5 5.625 C2.0359375 4.99851562 1.571875 4.37203125 1.09375 3.7265625 C0 2 0 2 0 0 Z " fill="#2E2E2E" transform="translate(804,616)"/>
<path d="M0 0 C0.99 0.33 1.98 0.66 3 1 C0.03 3.475 0.03 3.475 -3 6 C-3.33 5.34 -3.66 4.68 -4 4 C-2.68 2.68 -1.36 1.36 0 0 Z " fill="#252525" transform="translate(348,578)"/>
<path d="M0 0 C2.31 1.65 4.62 3.3 7 5 C6.67 5.66 6.34 6.32 6 7 C3 5.1875 3 5.1875 0 3 C0 2.01 0 1.02 0 0 Z " fill="#2E2D2E" transform="translate(286,856)"/>
<path d="M0 0 C0.33 0.99 0.66 1.98 1 3 C-0.9375 6.1875 -0.9375 6.1875 -3 9 C-3.66 8.34 -4.32 7.68 -5 7 C-3.35 4.69 -1.7 2.38 0 0 Z " fill="#1F1F1F" transform="translate(581,618)"/>
<path d="M0 0 C3.7952131 1.49097658 5.61042731 3.75700849 8 7 C5.05043472 5.63055898 2.47531189 4.12169591 0 2 C0 1.34 0 0.68 0 0 Z " fill="#1E1E1E" transform="translate(783,592)"/>
<path d="M0 0 C3.37503669 1.1858237 5.64722731 2.27573689 8 5 C3.77471908 5 2.95481492 4.74375671 0 2 C0 1.34 0 0.68 0 0 Z " fill="#272727" transform="translate(779,559)"/>
<path d="M0 0 C0.66 0 1.32 0 2 0 C3.2890625 1.53125 3.2890625 1.53125 4.625 3.5 C5.07101562 4.1496875 5.51703125 4.799375 5.9765625 5.46875 C6.31429688 5.9740625 6.65203125 6.479375 7 7 C4.625 6.3125 4.625 6.3125 2 5 C0.6875 2.375 0.6875 2.375 0 0 Z " fill="#212120" transform="translate(423,389)"/>
</svg>
