<?xml version="1.0" encoding="UTF-8"?>
<svg version="1.1" xmlns="http://www.w3.org/2000/svg" viewBox="0 0 1024 1024">
<path d="M0 0 C1.14338465 -0.00465992 2.2867693 -0.00931984 3.46480197 -0.01412097 C7.28830378 -0.0260523 11.11144903 -0.01668234 14.93495369 -0.00736332 C17.7070558 -0.00987739 20.47914254 -0.01689313 23.25123703 -0.02368313 C29.27434577 -0.03603481 35.29737658 -0.03726897 41.3204937 -0.0311327 C50.27726278 -0.02203211 59.23395996 -0.03008131 68.19072354 -0.04142394 C84.18921019 -0.06108426 100.18766444 -0.06343948 116.18616029 -0.05822874 C130.18800173 -0.0536706 144.18983035 -0.05427195 158.19167137 -0.06006908 C160.07025619 -0.06082595 161.948841 -0.06158193 163.82742582 -0.06233703 C166.65832495 -0.06348223 169.48922408 -0.06463211 172.32012321 -0.06579627 C198.63727001 -0.07650041 224.95441255 -0.08122739 251.27156067 -0.07332611 C252.26348875 -0.07302894 253.25541683 -0.07273176 254.27740333 -0.07242559 C262.33242699 -0.06997668 270.38745059 -0.06736508 278.4424742 -0.06474145 C309.86236111 -0.05463899 341.28219459 -0.06299477 372.70207405 -0.086236 C408.00872052 -0.11231005 443.31533482 -0.12515617 478.62199128 -0.11804825 C482.38683581 -0.1173322 486.15168034 -0.11665781 489.91652489 -0.1160078 C490.84351401 -0.115838 491.77050313 -0.11566819 492.72558283 -0.11549323 C506.71639437 -0.11319063 520.70717604 -0.12116539 534.69798088 -0.13429928 C550.60972471 -0.14920988 566.52139853 -0.15005451 582.43314086 -0.13222837 C591.3354359 -0.12266545 600.23756764 -0.12410005 609.13985178 -0.14146306 C615.09008138 -0.15195662 621.04018665 -0.14784644 626.99040403 -0.13198302 C630.37820716 -0.12335602 633.76542926 -0.12312961 637.15325676 -0.13625234 C658.65912469 -0.21362883 674.53893802 1.62191466 690.86369514 16.89594173 C699.11470075 25.71550403 705.30504526 37.7360319 705.31671506 49.99386883 C705.31998726 50.89766012 705.32325945 51.80145141 705.3266308 52.73263031 C705.32514718 53.71849513 705.32366355 54.70435994 705.32213497 55.72009945 C705.3244872 56.77720747 705.32683943 57.83431549 705.32926294 58.92345709 C705.33595546 62.48949083 705.33549464 66.05548817 705.33508492 69.62152767 C705.33838338 72.19457874 705.34210891 74.76762928 705.34622639 77.34067917 C705.35555188 83.68600805 705.35947436 90.03132996 705.36174536 96.37666484 C705.36470757 103.97592136 705.37340511 111.57516862 705.38215964 119.17442027 C705.40300447 137.54302496 705.41347396 155.91163126 705.42228925 174.28024502 C705.42649577 182.96997912 705.43171776 191.65971252 705.43697378 200.34944604 C705.45486415 230.09531512 705.46986011 259.84118441 705.47729397 289.58705807 C705.47776873 291.45454405 705.47824461 293.32203003 705.47872163 295.18951601 C705.47907619 296.57867357 705.47907619 296.57867357 705.47943792 297.99589493 C705.48063912 302.68800038 705.48185457 307.38010582 705.48307991 312.07221127 C705.48332006 313.00337365 705.48356021 313.93453603 705.48380764 314.89391546 C705.49170027 345.08328279 705.51513127 375.27261083 705.54763585 405.461961 C705.58193854 437.37961575 705.60164552 469.29724751 705.60493821 501.214921 C705.60535575 504.71923098 705.60583531 508.22354095 705.60636139 511.72785091 C705.60648458 512.59071096 705.60660777 513.45357101 705.6067347 514.34257834 C705.60906618 528.22495491 705.62472328 542.10728583 705.64520324 555.98964613 C705.66546548 569.9459398 705.67093665 583.90217867 705.6614326 597.85848433 C705.65621919 606.14754753 705.66208754 614.4364282 705.68396727 622.72546511 C705.69907816 628.91876945 705.69322617 635.11188909 705.67929675 641.30519247 C705.67691354 643.80795265 705.681281 646.3107304 705.6931254 648.81346369 C705.77138271 666.4429347 704.92924382 679.69656462 694.18791389 694.38031673 C693.71482796 695.03773861 693.24174202 695.69516048 692.75432014 696.37250423 C684.15365639 707.33652318 670.67431792 713.35404922 657.18791389 715.38031673 C653.31985612 715.6442835 649.46856262 715.65120116 645.59257984 715.63479233 C644.46047928 715.63799881 643.32837872 715.64120528 642.16197208 715.64450893 C638.37090015 715.652806 634.57998632 715.64688553 630.78891182 715.64101315 C628.04242563 715.64292831 625.29594658 715.64784232 622.54946405 715.65260571 C616.57923021 715.66135669 610.60903069 715.66268375 604.63879204 715.65910244 C595.7606247 715.65379086 586.88249051 715.65989533 578.00432678 715.66818537 C561.22471707 715.68342282 544.44512246 715.6851307 527.66550728 715.68266235 C514.70771156 715.68082941 501.7499208 715.68258931 488.7921257 715.68688679 C486.9302244 715.68748919 485.0683231 715.68809039 483.2064218 715.68869039 C480.40068219 715.68959765 477.59494258 715.69050631 474.78920297 715.69142274 C448.70390411 715.69985194 422.61860711 715.7041882 396.53330708 715.70001602 C395.55001014 715.69985965 394.56671321 715.69970327 393.5536194 715.69954216 C388.56992935 715.69873638 383.58623931 715.69789061 378.60254928 715.69702885 C377.117896 715.69677222 377.117896 715.69677222 375.60324972 715.69651041 C373.60169693 715.69616375 371.60014413 715.69581522 369.59859134 715.69546482 C338.4541193 715.69010756 307.30967557 715.6980383 276.16520882 715.71649837 C241.17023856 715.73721647 206.17528585 715.74794146 171.18030912 715.74392289 C167.44858921 715.74352755 163.7168693 715.743166 159.98514938 715.74282551 C159.06631267 715.74273478 158.14747595 715.74264404 157.20079569 715.74255056 C143.33293529 715.74138482 129.46509261 715.74803111 115.59723663 715.75863743 C99.82455124 715.77068831 84.05190485 715.77224966 68.27921887 715.75984726 C59.45471591 715.75321882 50.63030624 715.75484939 41.80581074 715.76843578 C35.90740374 715.77668396 30.00906657 715.77397793 24.11066523 715.76246051 C20.75251123 715.75620767 17.39468762 715.7562568 14.03652086 715.76632384 C10.4111023 715.77643724 6.7861706 715.76800088 3.16077137 715.75504684 C2.12928696 715.76235619 1.09780255 715.76966554 0.03506103 715.77719638 C-15.8753603 715.65957846 -29.85091565 710.82224531 -41.24958611 699.56781673 C-56.83967191 683.39846283 -57.40205693 666.44406811 -57.31329155 645.11891842 C-57.31718692 642.53269749 -57.32282926 639.9464787 -57.33006245 637.36026496 C-57.34292524 631.7495307 -57.34103688 626.13895467 -57.32928276 620.52822018 C-57.31185211 612.18486792 -57.31741722 603.84163937 -57.32744967 595.4982806 C-57.34461919 580.59551371 -57.33911532 565.69282052 -57.32409248 550.79005518 C-57.3110324 537.7501509 -57.30584635 524.71027216 -57.30841064 511.67036152 C-57.30857106 510.8048533 -57.30873148 509.93934508 -57.30889675 509.04760933 C-57.30956035 505.53411981 -57.31026277 502.0206303 -57.31102209 498.5071408 C-57.31804294 465.56217529 -57.30256484 432.61725474 -57.27639863 399.67230067 C-57.25327818 370.40707121 -57.24789801 341.14189116 -57.25813103 311.87665462 C-57.26073307 304.38072525 -57.26331809 296.88479587 -57.26572895 289.38886642 C-57.2660264 288.4660072 -57.26632385 287.54314797 -57.26663031 286.59232331 C-57.27424538 262.13058601 -57.267833 237.66885275 -57.25703293 213.20711726 C-57.25588514 210.57503899 -57.25474196 207.94296071 -57.25360611 205.31088243 C-57.25285086 203.56486977 -57.25208522 201.81885711 -57.2513091 200.07284445 C-57.24565184 187.03953092 -57.24697996 174.00623018 -57.25153732 160.9729166 C-57.25664509 146.15504769 -57.2507921 131.33722662 -57.23064303 116.51936964 C-57.21965775 108.22745207 -57.21686255 99.93562859 -57.22593156 91.64370816 C-57.23176553 85.45393059 -57.22192164 79.26427145 -57.20593191 73.07451387 C-57.20188179 70.56936052 -57.20289669 68.06419287 -57.20945077 65.55904482 C-57.21759257 62.15616015 -57.20729812 58.75380662 -57.19240284 55.35095596 C-57.19914049 54.37662187 -57.20587814 53.40228778 -57.21281996 52.39842841 C-57.07258423 35.85095361 -49.41494123 23.98317186 -38.02692986 12.59516048 C-27.52219904 2.8851138 -13.90788713 -0.0896278 0 0 Z M-25.05817986 34.79437923 C-39.96341087 56.77046594 -30.81208611 92.75681333 -30.81208611 113.38031673 C203.48791389 113.38031673 437.78791389 113.38031673 679.18791389 113.38031673 C684.55558671 71.56431261 684.55558671 71.56431261 670.37932014 32.32953548 C664.89808068 27.4540658 658.72989606 25.25803598 651.44618982 25.25151557 C650.00925024 25.24660728 650.00925024 25.24660728 648.54328158 25.24159983 C646.96583209 25.24382526 646.96583209 25.24382526 645.35651493 25.24609566 C644.23411499 25.24374343 643.11171505 25.2413912 641.95530298 25.23896769 C638.16116189 25.23226413 634.36705493 25.23273632 630.5729084 25.23314571 C627.83842684 25.23039659 625.10394801 25.22616041 622.36946827 25.22200423 C615.62103569 25.21267137 608.87260968 25.20875503 602.12417145 25.20648527 C594.04335013 25.20352498 585.96253752 25.19482859 577.88172077 25.18607099 C558.3485184 25.16521846 538.8153145 25.15475553 519.28210359 25.14594138 C510.04314931 25.14173603 500.80419569 25.13651389 491.56524196 25.13125685 C459.94508744 25.11336598 428.32493273 25.09836953 396.7047739 25.09093666 C394.71933329 25.0904619 392.73389268 25.08998601 390.74845207 25.089509 C389.76384289 25.08927262 388.77923371 25.08903625 387.76478788 25.08879271 C382.77619121 25.0875915 377.78759454 25.08637605 372.79899788 25.08515072 C371.80899223 25.08491057 370.81898657 25.08467042 369.79898075 25.08442299 C337.69738137 25.07652927 305.59581892 25.05309628 273.49423567 25.02059477 C239.56218519 24.98630266 205.63015633 24.96658609 171.69808823 24.96329242 C167.97361282 24.96287487 164.24913742 24.96239531 160.52466202 24.96186924 C159.60757775 24.96174605 158.69049349 24.96162286 157.74561879 24.96149593 C142.98224155 24.95916314 128.21890719 24.94349874 113.45554523 24.92302739 C98.61756169 24.9027789 83.77962969 24.89728747 68.94163489 24.90679803 C60.12559745 24.91201678 51.30973151 24.90611785 42.49371873 24.88426336 C36.60330205 24.87076438 30.71300354 24.87182426 24.82258571 24.88466531 C21.46716921 24.89156815 18.11234772 24.88999772 14.75691753 24.87510522 C11.1377175 24.86003562 7.51937949 24.86962614 3.90020084 24.88533211 C2.34733359 24.8699988 2.34733359 24.8699988 0.76309529 24.85435572 C-9.4448405 24.951104 -17.72671739 27.54209023 -25.05817986 34.79437923 Z M-30.81208611 139.38031673 C-30.87396111 226.31469173 -30.93583611 313.24906673 -30.99958611 402.81781673 C-31.02689812 430.3011932 -31.05421013 457.78456966 -31.08234978 486.10077572 C-31.09238102 510.66554108 -31.09238102 510.66554108 -31.09841728 535.23030758 C-31.10140509 546.92311505 -31.11435543 558.61586633 -31.13210639 570.30865793 C-31.14995941 582.22963877 -31.15659737 594.15058682 -31.15242096 606.07158053 C-31.15060988 612.54272105 -31.15352657 619.01376343 -31.1697315 625.48488605 C-31.18428978 631.3338702 -31.18508271 637.18268647 -31.17478943 643.0316782 C-31.17351477 645.14853659 -31.1773413 647.26540534 -31.18673384 649.38224328 C-31.19877113 652.26400488 -31.1922856 655.14516222 -31.18122959 658.0269146 C-31.18911067 658.85040212 -31.19699174 659.67388964 -31.20511163 660.52233132 C-31.12881035 669.31637309 -28.76250248 676.23486954 -22.71442986 682.65375423 C-16.30832292 688.46792111 -10.1778416 689.5322371 -1.77670479 689.50336456 C-0.95660492 689.50451841 -0.13650505 689.50567225 0.70844632 689.50686106 C3.47414429 689.50952145 6.23978478 689.50501027 9.00547981 689.50057125 C11.00121075 689.50100707 12.99694163 689.50188218 14.9926722 689.50316042 C20.49060222 689.50540327 25.98851287 689.50138693 31.48644042 689.49638236 C37.41007917 689.49207505 43.33371677 689.49352448 49.25735664 689.49428463 C60.19462823 689.49484393 71.13189274 689.49094977 82.06916254 689.48494375 C92.16988596 689.47944424 102.27060729 689.47621379 112.37133217 689.47519398 C113.0406627 689.47512524 113.70999324 689.4750565 114.39960652 689.47498568 C117.79871238 689.47464735 121.19781824 689.47434596 124.5969241 689.4740588 C148.68112945 689.47195764 172.7653315 689.46521821 196.84953499 689.45575619 C220.24894887 689.4465738 243.64836185 689.43948919 267.04777718 689.43524837 C267.76888008 689.43511685 268.48998298 689.43498532 269.23293748 689.43484981 C276.47446116 689.43353131 283.71598484 689.43225549 290.95750853 689.43101095 C305.70970506 689.42847465 320.46190153 689.42565339 335.21409798 689.42265987 C335.89239997 689.42252258 336.57070196 689.42238529 337.26955855 689.42224384 C382.57567839 689.41304111 427.88179633 689.39717489 473.18791389 689.38031673 C470.41831647 687.53391845 467.77878198 686.37497653 464.69255257 685.17377377 C446.62631366 678.11951008 431.26546227 668.39547175 417.14885139 655.03266048 C415.36038882 653.16552665 415.36038882 653.16552665 413.18791389 653.38031673 C412.85791389 652.39031673 412.52791389 651.40031673 412.18791389 650.38031673 C411.52791389 650.38031673 410.86791389 650.38031673 410.18791389 650.38031673 C409.81859749 649.52760189 409.81859749 649.52760189 409.44182014 648.65766048 C407.45925049 645.05691872 404.54773542 642.37946253 401.70357323 639.43883228 C399.18791389 636.38031673 399.18791389 636.38031673 397.77378654 633.04679203 C395.8661617 628.84221386 394.16552784 625.84924419 390.18791389 623.38031673 C381.44570728 620.94557193 371.93122963 621.67801529 362.92374873 621.83089781 C359.12411581 621.88105704 355.32488213 621.85571085 351.52505684 621.83959103 C344.94716541 621.82181013 338.37084923 621.85108833 331.79323769 621.91232586 C322.27803232 622.00057778 312.76385543 622.01393559 303.24829563 622.0086986 C287.80190035 622.00194189 272.35621935 622.05090348 256.91008186 622.13715267 C241.92148707 622.22068682 226.93305554 622.28547922 211.94426155 622.31976986 C211.02049745 622.32189448 210.09673336 622.3240191 209.14497641 622.3262081 C199.06165825 622.34887821 188.97833572 622.36646446 178.89500237 622.38070011 C176.22121859 622.38454255 173.54743482 622.38838603 170.87365106 622.39223538 C169.11127462 622.39471998 167.34889805 622.39711131 165.58652136 622.39940788 C155.2177453 622.41320528 144.84926653 622.44251568 134.48063269 622.4993753 C127.98077339 622.53495165 121.48092443 622.56150733 114.98099694 622.58097951 C110.50840394 622.59506537 106.03612712 622.62160458 101.56366231 622.65790766 C98.22091705 622.6811515 94.87820549 622.68490699 91.53538704 622.69156551 C90.3460054 622.70528065 89.15662377 622.71899578 87.93120027 622.73312652 C86.84345929 622.73168707 85.75571831 622.73024761 84.63501549 622.72876453 C83.69704856 622.73391288 82.75908164 622.73906122 81.79269147 622.74436557 C78.61777089 622.30063243 76.76505918 621.26276152 74.18791389 619.38031673 C70.34769724 613.16975765 70.76835117 606.82348512 70.82463264 599.69281673 C70.82388489 597.86810848 70.82388489 597.86810848 70.82312202 596.00653744 C70.82545661 593.44133523 70.83514862 590.87613047 70.85173225 588.3109808 C70.87533278 584.39377931 70.87228685 580.47725884 70.86564827 576.56000423 C70.87122533 574.06260436 70.87833538 571.56520734 70.88713264 569.06781673 C70.88622124 567.90097347 70.88530983 566.73413021 70.8843708 565.53192806 C71.00557928 551.5693263 71.00557928 551.5693263 75.32809639 547.23358822 C78.86033753 544.94456041 81.0521204 544.84220258 85.23869514 544.77094173 C85.89750175 544.75440548 86.55630836 544.73786922 87.23507881 544.72083187 C89.32362041 544.67254118 91.41143512 544.65102592 93.50041389 544.63031673 C94.92297614 544.60214077 96.34550479 544.57221105 97.76799202 544.54047298 C101.24114214 544.4667911 104.71415461 544.41709958 108.18791389 544.38031673 C108.18937911 543.24688893 108.18937911 543.24688893 108.19087392 542.0905636 C108.24911368 497.33180297 108.32288594 452.57309114 108.41690018 407.81439062 C108.42816868 402.44321844 108.43930708 397.07204599 108.45036507 391.70087337 C108.45256875 390.63154484 108.45477243 389.5622163 108.4570429 388.46048387 C108.49243989 371.13357838 108.51729046 353.80667293 108.53826091 336.47974465 C108.56000384 318.70798648 108.59303987 300.93627534 108.63661546 283.16455716 C108.66315819 272.19360582 108.68083424 261.22271311 108.68725993 250.25173124 C108.6925058 242.73412915 108.70869575 235.21660091 108.73357955 227.69903836 C108.74762206 223.35823673 108.75675513 219.01756737 108.75292206 214.6767416 C108.74952093 210.70474199 108.7598238 206.73302526 108.78114941 202.76108363 C108.78643356 201.32225211 108.78663523 199.88339133 108.78130952 198.44455997 C108.77481672 196.49189538 108.7884634 194.53919468 108.80315304 192.58657455 C108.80600094 190.95814392 108.80600094 190.95814392 108.80890638 189.29681569 C109.24884052 185.91148053 110.10856463 184.07548411 112.18791389 181.38031673 C115.09447201 179.38726608 117.45094362 179.13000349 120.92968082 179.12863445 C122.36345236 179.12081121 122.36345236 179.12081121 123.82618898 179.11282992 C124.8733559 179.11729137 125.92052282 179.12175281 126.99942207 179.12634945 C128.11412174 179.12322947 129.2288214 179.12010949 130.37729985 179.11689496 C134.12599199 179.10889466 137.87452317 179.11524663 141.62321663 179.12152767 C144.30531987 179.1188187 146.98741189 179.11533084 149.6695118 179.11090755 C156.20656133 179.10200628 162.74356499 179.10393891 169.28061634 179.10973284 C174.59322077 179.11424682 179.90581232 179.11486337 185.21841812 179.1126852 C185.97410617 179.11237874 186.72979421 179.11207227 187.50838189 179.11175652 C189.0434881 179.11111708 190.57859431 179.11046865 192.11370052 179.10981134 C206.51461761 179.10410579 220.91550925 179.11066925 235.31642217 179.12141207 C247.6750474 179.13034597 260.03363505 179.1287973 272.3922596 179.11957455 C286.73956469 179.10887275 301.08684747 179.10465705 315.434156 179.11079907 C316.96396863 179.11143618 318.49378127 179.11206492 320.0235939 179.1126852 C321.15267179 179.11314803 321.15267179 179.11314803 322.30455933 179.11362021 C327.61072424 179.11534755 332.916875 179.11243115 338.22303772 179.1077261 C344.68964745 179.10211819 351.15620863 179.10363172 357.6228128 179.11428759 C360.92265112 179.11954581 364.22239168 179.12052289 367.52223206 179.11498928 C371.09804348 179.10954474 374.67362537 179.11635498 378.24942207 179.12634945 C379.81682637 179.11965728 379.81682637 179.11965728 381.4158954 179.11282992 C382.37435084 179.11804542 383.33280628 179.12326091 384.32030582 179.12863445 C385.55816929 179.12912151 385.55816929 179.12912151 386.82104009 179.12961841 C389.58457589 179.42233101 391.69308818 180.16777459 394.18791389 181.38031673 C397.20281736 185.93439709 396.47635919 191.82028681 396.4663868 197.07997799 C396.4721792 198.17047504 396.4779716 199.26097209 396.48393953 200.38451451 C396.50096865 204.0450103 396.50381858 207.70538022 396.50676155 211.36591244 C396.5160577 213.98730943 396.5262259 216.60870346 396.53720284 219.23009396 C396.55947068 224.87708471 396.57448681 230.52405735 396.58456993 236.1710825 C396.59915889 244.33571378 396.62469631 252.50028198 396.65290122 260.66487624 C396.69836527 273.9115591 396.73498168 287.15825105 396.76603889 300.40497494 C396.79622602 313.27250419 396.83057704 326.14001121 396.87053108 339.007514 C396.87422341 340.19735481 396.87422341 340.19735481 396.87799032 341.41123281 C396.89036495 345.3906428 396.90282148 349.37005254 396.91531873 353.34946215 C397.01888074 386.35971688 397.1080859 419.36999595 397.18791389 452.38031673 C400.02580781 449.55861787 402.79447086 446.75146645 405.37541389 443.69281673 C429.90881375 415.5717369 463.39535716 398.58095239 500.18791389 393.38031673 C501.03869514 393.24883236 501.88947639 393.11734798 502.76603889 392.98187923 C541.07117783 388.0263193 580.41457578 399.53515242 611.18791389 422.38031673 C612.10959358 423.06094173 613.03127327 423.74156673 613.98088264 424.44281673 C642.64375848 446.7973196 663.44944064 478.42841475 670.18791389 514.38031673 C670.36379036 515.30183529 670.53966682 516.22335384 670.72087288 517.1727972 C672.25437078 526.01103636 672.54700313 534.69233146 672.50041389 543.63031673 C672.49767967 544.72098446 672.49767967 544.72098446 672.49489021 545.83368587 C672.44932157 556.63360328 671.96079123 566.8877489 669.18791389 577.38031673 C669.01099007 578.06899837 668.83406624 578.75768002 668.65178108 579.4672308 C662.82594727 601.83481034 653.29835211 622.75424268 638.18791389 640.38031673 C637.49592903 641.18976742 637.49592903 641.18976742 636.78996468 642.01557064 C617.92784588 663.80313827 593.79237761 679.79289116 566.18791389 688.38031673 C566.18791389 688.71031673 566.18791389 689.04031673 566.18791389 689.38031673 C578.04502054 689.44992268 589.90207832 689.50318188 601.75934792 689.53575325 C607.26555807 689.55138832 612.77162811 689.57258731 618.27775764 689.60663509 C623.59456949 689.6393053 628.91124682 689.65718598 634.22815132 689.66494846 C636.25347192 689.67047821 638.27878542 689.68127643 640.30404854 689.6975069 C643.14765848 689.71938289 645.9907173 689.7222794 648.83439827 689.72089291 C649.66590401 689.73167873 650.49740974 689.74246456 651.35411263 689.75357723 C659.82487005 689.7090818 666.17717255 687.13546737 672.42619514 681.35297298 C678.10637265 674.99268554 679.33684555 668.03443895 679.31096172 659.7495842 C679.31211547 658.85264552 679.31326921 657.95570684 679.31445792 657.03158821 C679.31712283 653.99992968 679.31260441 650.96832331 679.30816841 647.93666744 C679.30860553 645.75735111 679.3094819 643.57803483 679.31076241 641.39871883 C679.31301492 635.37655689 679.30897897 629.35441258 679.30398662 623.33225287 C679.30008314 617.42791642 679.30090563 611.52358107 679.30159432 605.61924378 C679.30283771 593.60829922 679.29953757 581.59736013 679.29348946 569.5864172 C679.28532598 553.34596255 679.2833871 537.10551594 679.28251839 520.86505795 C679.2772628 481.8076431 679.26330176 442.75022981 679.25041389 403.69281673 C679.22978889 316.46969173 679.20916389 229.24656673 679.18791389 139.38031673 C444.88791389 139.38031673 210.58791389 139.38031673 -30.81208611 139.38031673 Z M134.18791389 203.38031673 C134.18791389 315.91031673 134.18791389 428.44031673 134.18791389 544.38031673 C154.97791389 544.38031673 175.76791389 544.38031673 197.18791389 544.38031673 C197.22658577 533.85576595 197.22658577 533.85576595 197.26603889 523.11859798 C197.29120357 518.67520196 197.31753358 514.23187427 197.34807014 509.78851986 C197.39643434 502.73488759 197.44046793 495.68141343 197.45890999 488.62763119 C197.47404725 482.94106824 197.50844111 477.25491871 197.55622292 471.56853962 C197.5710669 469.39845211 197.57895663 467.22830558 197.57979774 465.05816746 C197.58216002 462.01967505 197.60918087 458.98233206 197.64201546 455.94403744 C197.63446991 454.59644344 197.63446991 454.59644344 197.62677193 453.22162533 C197.69605942 449.08085109 197.84548261 446.92473475 200.09703255 443.34508419 C204.08311867 439.59942339 207.96081869 440.23238623 213.16398811 440.23505306 C214.5593026 440.23001514 214.5593026 440.23001514 215.98280525 440.22487545 C219.06941741 440.2153473 222.15597543 440.21342136 225.24260139 440.21234798 C227.38250438 440.20913655 229.52240713 440.20577256 231.66230965 440.20226192 C236.15310869 440.19626588 240.64388847 440.1944225 245.13469124 440.195014 C250.89400353 440.19511561 256.65319252 440.1814662 262.41247559 440.16424179 C266.83392595 440.15313206 271.25534642 440.15109448 275.67680931 440.15162373 C277.80031573 440.15044195 279.92382288 440.14600916 282.0473156 440.13829136 C285.01598214 440.12851286 287.9843799 440.13136117 290.95305061 440.13739681 C292.27327217 440.12896755 292.27327217 440.12896755 293.62016487 440.120368 C294.430532 440.12456249 295.24089912 440.12875698 296.07582283 440.13307858 C296.77747503 440.13253381 297.47912724 440.13198904 298.20204163 440.13142776 C301.64174624 440.56252525 303.68734071 441.78967168 305.91089058 444.4133215 C307.71043806 448.59433271 307.62756407 452.34402326 307.62028694 456.85224056 C307.63557442 458.27248028 307.63557442 458.27248028 307.65117073 459.72141171 C307.68130658 462.84345062 307.69056771 465.96518272 307.69963264 469.08734798 C307.71647886 471.25497616 307.73462902 473.42259456 307.75403023 475.59020138 C307.80154236 481.2898214 307.83134403 486.9894018 307.85746956 492.68915462 C307.89250993 499.53084736 307.94952621 506.37238792 308.00286293 513.21395779 C308.08139104 523.6027249 308.13198635 533.9912926 308.18791389 544.38031673 C327.65791389 544.38031673 347.12791389 544.38031673 367.18791389 544.38031673 C367.51791389 538.77031673 367.84791389 533.16031673 368.18791389 527.38031673 C368.69651451 524.84574291 369.20511513 522.31116909 369.72912788 519.69979 C372.15702271 507.44132217 371.59069064 494.89329272 371.53611076 482.45250332 C371.52300682 478.69748533 371.52754986 474.94248011 371.52981758 471.18744564 C371.53138136 464.70084479 371.52206667 458.21433532 371.50510406 451.72775745 C371.48059595 442.34957379 371.4728968 432.97143376 371.46914009 423.59322155 C371.46259401 408.37322115 371.4426832 393.15326932 371.41423225 377.93329525 C371.38664374 363.15920912 371.36546814 348.38513631 371.35270882 333.61102962 C371.35190482 332.68921215 371.35110083 331.76739468 371.35027248 330.81764334 C371.34403325 323.60711868 371.33816281 316.39659372 371.33240879 309.18606865 C371.3041701 273.91744008 371.24380055 238.64893327 371.18791389 203.38031673 C292.97791389 203.38031673 214.76791389 203.38031673 134.18791389 203.38031673 Z M422.77482796 460.59076595 C398.62791862 487.82104987 391.45813369 522.9439815 393.18791389 558.38031673 C396.13590697 589.4507455 412.71483152 618.74413409 435.58244514 639.56000423 C438.05574643 641.60263116 440.58506562 643.50538365 443.18791389 645.38031673 C443.71836311 645.76929134 444.24881233 646.15826595 444.79533577 646.55902767 C458.1835106 656.29242833 473.07833644 663.41045658 489.18791389 667.38031673 C490.37385139 667.67809017 491.55978889 667.97586361 492.78166389 668.28266048 C511.53654354 672.49737283 532.57460311 672.12939191 551.18791389 667.38031673 C551.84082405 667.21402767 552.49373421 667.04773861 553.16642952 666.87641048 C586.88394778 658.01201912 614.24439068 635.94084062 632.01310921 606.16107845 C648.07985377 578.21119345 652.32084054 543.89287697 644.43791389 512.75531673 C634.7199093 479.32965259 614.97222527 451.03380772 584.25041389 433.63031673 C529.63303367 403.6941088 464.69565608 415.22757877 422.77482796 460.59076595 Z M222.18791389 464.38031673 C222.18791389 490.78031673 222.18791389 517.18031673 222.18791389 544.38031673 C241.98791389 544.38031673 261.78791389 544.38031673 282.18791389 544.38031673 C282.18791389 517.98031673 282.18791389 491.58031673 282.18791389 464.38031673 C262.38791389 464.38031673 242.58791389 464.38031673 222.18791389 464.38031673 Z M96.18791389 569.38031673 C96.18791389 578.95031673 96.18791389 588.52031673 96.18791389 598.38031673 C188.91791389 598.38031673 281.64791389 598.38031673 377.18791389 598.38031673 C376.19791389 595.08031673 375.20791389 591.78031673 374.18791389 588.38031673 C372.53791389 582.11031673 370.88791389 575.84031673 369.18791389 569.38031673 C279.09791389 569.38031673 189.00791389 569.38031673 96.18791389 569.38031673 Z " fill="#0A0A0A" transform="translate(187.81208610534668,154.61968326568604)"/>
<path d="M0 0 C1.71241631 -0.01925285 1.71241631 -0.01925285 3.45942688 -0.03889465 C5.3109864 -0.04997505 5.3109864 -0.04997505 7.19995117 -0.0612793 C9.10329475 -0.07338692 9.10329475 -0.07338692 11.04508972 -0.08573914 C13.73257091 -0.09957963 16.41992946 -0.1105962 19.10742188 -0.11816406 C22.54066932 -0.1292204 25.97326718 -0.16361674 29.40628529 -0.20333576 C32.69160918 -0.23585178 35.9769909 -0.24028483 39.26245117 -0.2487793 C40.4907515 -0.26628738 41.71905182 -0.28379547 42.98457336 -0.30183411 C47.84987873 -0.28946838 51.54934134 -0.19297886 56.06591797 1.70361328 C62.15069114 8.06859387 61.87684182 15.55338128 61.82885742 23.8684082 C61.8317276 24.9724852 61.83459778 26.07656219 61.83755493 27.21409607 C61.8395881 29.53791825 61.83411079 31.86175784 61.8215332 34.18554688 C61.80545431 37.73191731 61.82141609 41.27715079 61.84057617 44.82348633 C61.83859391 47.08846279 61.83475058 49.35343854 61.82885742 51.6184082 C61.83493011 52.67274551 61.84100281 53.72708282 61.84725952 54.81336975 C61.79134279 60.69513704 61.44906613 65.06443276 58.43041992 70.17700195 C54.7717541 73.70629353 52.49307968 74.67790244 47.43432617 74.67871094 C46.24959717 74.68809189 45.06486816 74.69747284 43.84423828 74.70713806 C42.57330322 74.69590408 41.30236816 74.6846701 39.99291992 74.6730957 C38.02367554 74.67527855 38.02367554 74.67527855 36.01464844 74.67750549 C33.2405992 74.67888722 30.46706842 74.66637058 27.69311523 74.64355469 C24.14551168 74.61516979 20.59876895 74.61790993 17.05110168 74.6306448 C13.65661833 74.6392903 10.26238878 74.6241491 6.86791992 74.6105957 C5.59698486 74.61353134 4.3260498 74.61646698 3.01660156 74.61949158 C1.83187256 74.6068074 0.64714355 74.59412323 -0.57348633 74.58105469 C-1.6131958 74.5756517 -2.65290527 74.57024872 -3.72412109 74.56468201 C-7.02100897 74.11549694 -8.89158903 73.12178878 -11.56958008 71.17700195 C-15.71517615 65.61991025 -15.002175 59.14437761 -14.96801758 52.5168457 C-14.97088776 51.29421524 -14.97375793 50.07158478 -14.97671509 48.81190491 C-14.97875294 46.23234594 -14.97324268 43.65277143 -14.96069336 41.07324219 C-14.94462304 37.12505585 -14.96055979 33.1778911 -14.97973633 29.22973633 C-14.97775412 26.72127053 -14.97391091 24.21280536 -14.96801758 21.7043457 C-14.97409027 20.52404282 -14.98016296 19.34373993 -14.98641968 18.12767029 C-14.9769632 17.02625198 -14.96750671 15.92483368 -14.95776367 14.79003906 C-14.95537689 13.82440536 -14.95299011 12.85877167 -14.95053101 11.86387634 C-14.32467842 7.44969287 -11.97045498 4.01106437 -8.56958008 1.17700195 C-5.46284067 0.14142215 -3.25934371 0.03190683 0 0 Z M11.43041992 25.17700195 C11.43041992 33.42700195 11.43041992 41.67700195 11.43041992 50.17700195 C19.68041992 50.17700195 27.93041992 50.17700195 36.43041992 50.17700195 C36.43041992 41.92700195 36.43041992 33.67700195 36.43041992 25.17700195 C28.18041992 25.17700195 19.93041992 25.17700195 11.43041992 25.17700195 Z " fill="#0D0D0D" transform="translate(468.569580078125,387.822998046875)"/>
<path d="M0 0 C1.18150131 -0.01591187 2.36300262 -0.03182373 3.58030701 -0.04821777 C4.84810501 -0.04841919 6.11590302 -0.04862061 7.42211914 -0.04882812 C8.73257706 -0.05644165 10.04303497 -0.06405518 11.39320374 -0.07189941 C14.16293917 -0.08532064 16.93238966 -0.08692373 19.70214844 -0.08105469 C23.24096558 -0.0751592 26.77841043 -0.1057515 30.31696224 -0.14617157 C33.70622395 -0.17832896 37.09520547 -0.17393224 40.48461914 -0.17382812 C42.3832798 -0.19842102 42.3832798 -0.19842102 44.32029724 -0.22351074 C54.12083109 -0.14652782 54.12083109 -0.14652782 57.74072266 2.39453125 C62.8474326 9.17357245 62.31912486 17.37639729 62.28540039 25.55273438 C62.28731384 26.58880829 62.28922729 27.6248822 62.29119873 28.69235229 C62.29255213 30.86896001 62.28891517 33.04557603 62.28051758 35.22216797 C62.26978426 38.5421771 62.28045313 41.86164787 62.29321289 45.18164062 C62.29189157 47.30533973 62.28932975 49.4290385 62.28540039 51.55273438 C62.28944885 52.53831329 62.29349731 53.52389221 62.29766846 54.53933716 C62.25197497 61.29022148 62.07846147 66.81096153 57.73632812 72.3137207 C52.79978519 75.9451525 46.40151044 75.15156072 40.55493164 75.11914062 C39.24826035 75.12629593 37.94158905 75.13345123 36.59532166 75.14082336 C33.83556049 75.15267324 31.07660733 75.14604928 28.31689453 75.12670898 C24.79468121 75.10383681 21.27488288 75.1305927 17.75290775 75.17177105 C14.37426745 75.20362343 10.99621176 75.19034496 7.61743164 75.18164062 C5.73121849 75.20456429 5.73121849 75.20456429 3.80690002 75.22795105 C-2.79420869 75.14030542 -7.04689459 74.77930227 -11.82936096 69.99861145 C-14.14483797 66.82237123 -14.1147196 63.81845109 -14.14135742 60.03393555 C-14.15096497 58.93236618 -14.16057251 57.83079681 -14.17047119 56.69584656 C-14.17684601 54.90990837 -14.17684601 54.90990837 -14.18334961 53.08789062 C-14.18904968 51.86338699 -14.19474976 50.63888336 -14.20062256 49.37727356 C-14.21007574 46.78399521 -14.2166078 44.19070483 -14.22045898 41.59741211 C-14.2301602 37.63373808 -14.26117983 33.67058345 -14.29272461 29.70703125 C-14.2992551 27.18815412 -14.30450539 24.66927328 -14.30834961 22.15039062 C-14.32069641 20.96583786 -14.33304321 19.7812851 -14.34576416 18.56083679 C-14.31689561 7.87351394 -14.31689561 7.87351394 -10.98022461 3.41992188 C-7.23391188 0.70296722 -4.59600329 0.03732504 0 0 Z M12.01977539 24.41992188 C12.01977539 32.99992188 12.01977539 41.57992187 12.01977539 50.41992188 C20.26977539 50.41992188 28.51977539 50.41992188 37.01977539 50.41992188 C37.01977539 41.83992187 37.01977539 33.25992188 37.01977539 24.41992188 C28.76977539 24.41992188 20.51977539 24.41992188 12.01977539 24.41992188 Z " fill="#0B0B0B" transform="translate(467.980224609375,489.580078125)"/>
<path d="M0 0 C1.16148056 -0.01268417 2.32296112 -0.02536835 3.51963806 -0.03843689 C4.76556229 -0.03550125 6.01148651 -0.03256561 7.29516602 -0.02954102 C8.58342789 -0.03478287 9.87168976 -0.04002472 11.19898987 -0.04542542 C13.92165951 -0.0543424 16.64403561 -0.05195007 19.36669922 -0.04199219 C22.84481946 -0.03050687 26.32192373 -0.05071252 29.79991055 -0.07990932 C33.13171518 -0.10273635 36.46328516 -0.09580194 39.79516602 -0.09204102 C41.03906601 -0.10327499 42.282966 -0.11450897 43.56455994 -0.12608337 C54.52210758 -0.03782189 54.52210758 -0.03782189 59.11157227 4.40405273 C61.18654546 7.68547447 61.3778959 10.33298593 61.41796875 14.17895508 C61.43395615 15.34051117 61.44994354 16.50206726 61.46641541 17.69882202 C61.47177811 18.94990753 61.47714081 20.20099304 61.48266602 21.48999023 C61.49169449 22.77966705 61.50072296 24.06934387 61.51002502 25.39810181 C61.52649459 28.12667337 61.53421137 30.85512253 61.53710938 33.58374023 C61.54249121 37.06984883 61.58016865 40.55479755 61.62585354 44.04057884 C61.66285795 47.37787673 61.66414165 50.71499424 61.67016602 54.05249023 C61.68969833 55.29952728 61.70923065 56.54656433 61.72935486 57.83139038 C61.67911785 67.48463675 61.67911785 67.48463675 58.70166016 71.17602539 C54.98455444 74.37352815 53.20762111 74.53841624 48.38012695 74.59692383 C47.1783783 74.61298676 45.97662964 74.62904968 44.73846436 74.64559937 C39.23506828 74.68997543 33.73180397 74.73156118 28.22827148 74.75415039 C25.32397875 74.76747619 22.42039091 74.79530164 19.51635742 74.83618164 C16.00615691 74.88559287 12.49659451 74.91028172 8.9860611 74.91737747 C7.00404704 74.92732412 5.02220268 74.96154946 3.04046631 74.9961853 C-7.00133856 74.97261768 -7.00133856 74.97261768 -10.69213867 71.99633789 C-13.81334612 68.31236938 -14.01802964 66.59031359 -14.04956055 61.84033203 C-14.05916809 60.67539719 -14.06877563 59.51046234 -14.07867432 58.31022644 C-14.08292419 57.0456813 -14.08717407 55.78113617 -14.09155273 54.47827148 C-14.09725281 53.1833931 -14.10295288 51.88851471 -14.10882568 50.55439758 C-14.11933571 47.80969856 -14.12517801 45.06502882 -14.12866211 42.3203125 C-14.13413982 38.80971115 -14.15815173 35.29949905 -14.18663406 31.78901958 C-14.20978527 28.43544439 -14.21171208 25.08192245 -14.21655273 21.72827148 C-14.22889954 20.46979904 -14.24124634 19.2113266 -14.25396729 17.91471863 C-14.25096619 16.7403273 -14.24796509 15.56593597 -14.24487305 14.35595703 C-14.24851868 13.32496384 -14.25216431 12.29397064 -14.25592041 11.23173523 C-13.67888525 6.79172229 -12.09863125 4.33656284 -8.56895447 1.61680603 C-5.49786447 0.22734982 -3.36281284 0.0178317 0 0 Z M11.11157227 25.40405273 C11.11157227 33.65405273 11.11157227 41.90405273 11.11157227 50.40405273 C19.36157227 50.40405273 27.61157227 50.40405273 36.11157227 50.40405273 C36.11157227 42.15405273 36.11157227 33.90405273 36.11157227 25.40405273 C27.86157227 25.40405273 19.61157227 25.40405273 11.11157227 25.40405273 Z " fill="#090909" transform="translate(365.888427734375,387.595947265625)"/>
<path d="M0 0 C1.16478378 -0.00953201 2.32956757 -0.01906403 3.52964783 -0.02888489 C4.78387039 -0.02797348 6.03809296 -0.02706207 7.33032227 -0.02612305 C8.62237076 -0.03040817 9.91441925 -0.0346933 11.24562073 -0.03910828 C13.97840481 -0.04656105 16.71105969 -0.04628614 19.44384766 -0.04101562 C22.93873305 -0.03522232 26.43308825 -0.05215243 29.92788601 -0.0753603 C33.27038673 -0.09367059 36.61277168 -0.08991173 39.95532227 -0.08862305 C41.2075206 -0.09783279 42.45971893 -0.10704254 43.74986267 -0.11653137 C45.50176659 -0.10718819 45.50176659 -0.10718819 47.2890625 -0.09765625 C48.82650368 -0.09860039 48.82650368 -0.09860039 50.39500427 -0.0995636 C54.82609609 0.48966136 57.28482397 2.07200653 59.99647522 5.59986877 C61.37573468 8.64189607 61.59530385 10.74010927 61.61328125 14.07128906 C61.62596542 15.21274887 61.6386496 16.35420868 61.65171814 17.53025818 C61.6487825 18.75430862 61.64584686 19.97835907 61.64282227 21.23950195 C61.64806412 22.50556778 61.65330597 23.77163361 61.65870667 25.07606506 C61.66512644 27.75187336 61.66523263 30.42682768 61.65527344 33.10253906 C61.64378829 36.52013194 61.66399373 39.93669082 61.69319057 43.35414791 C61.7160198 46.62843732 61.709083 49.90265164 61.70532227 53.17700195 C61.71655624 54.39902817 61.72779022 55.62105438 61.73936462 56.88011169 C61.6510326 67.65789914 61.6510326 67.65789914 57.20922852 72.2746582 C53.92587877 74.35426052 51.28379543 74.53644655 47.43432617 74.56518555 C46.27277008 74.57794525 45.11121399 74.59070496 43.91445923 74.60385132 C42.66337372 74.60607697 41.41228821 74.60830261 40.12329102 74.6105957 C38.8336142 74.6172525 37.54393738 74.6239093 36.21517944 74.63076782 C33.48659926 74.64272943 30.75814556 74.64644984 28.02954102 74.64526367 C24.54359162 74.64506059 21.05845852 74.6723546 17.57270241 74.70680809 C14.23538692 74.73447691 10.89821964 74.73322764 7.56079102 74.7355957 C6.31375397 74.74996674 5.06671692 74.76433777 3.78189087 74.77914429 C-7.20537204 74.72125425 -7.20537204 74.72125425 -11.79077148 70.2746582 C-13.84733786 67.01407665 -14.05227546 64.41148097 -14.08129883 60.59155273 C-14.09405853 59.4500174 -14.10681824 58.30848206 -14.1199646 57.13235474 C-14.12219025 55.90314301 -14.12441589 54.67393127 -14.12670898 53.4074707 C-14.13336578 52.13998993 -14.14002258 50.87250916 -14.1468811 49.56661987 C-14.15700817 46.88500934 -14.16256323 44.20380424 -14.16137695 41.5222168 C-14.16117388 38.09679559 -14.18846742 34.67220516 -14.22292137 31.24698067 C-14.25059298 27.96717557 -14.24934105 24.68737665 -14.25170898 21.4074707 C-14.26608002 20.18230743 -14.28045105 18.95714417 -14.29525757 17.69485474 C-14.23732161 6.88737968 -14.23732161 6.88737968 -9.79077148 2.2746582 C-6.50031558 0.18797043 -3.85863978 0.01735879 0 0 Z M11.20922852 24.2746582 C11.20922852 32.8546582 11.20922852 41.4346582 11.20922852 50.2746582 C19.45922852 50.2746582 27.70922852 50.2746582 36.20922852 50.2746582 C36.20922852 41.6946582 36.20922852 33.1146582 36.20922852 24.2746582 C27.95922852 24.2746582 19.70922852 24.2746582 11.20922852 24.2746582 Z " fill="#070707" transform="translate(365.790771484375,489.725341796875)"/>
<path d="M0 0 C4.31455798 2.28417775 7.13452098 4.43994016 9 9 C9.50169103 15.93258599 7.9823299 21.83867486 6.12597656 28.48974609 C5.82028748 29.61601913 5.51459839 30.74229218 5.199646 31.9026947 C4.18993289 35.61241161 3.16561805 39.31791596 2.140625 43.0234375 C1.43203871 45.61102223 0.72414172 48.19878685 0.01702881 50.78677368 C-1.46570107 56.20712016 -2.95638076 61.62522997 -4.45214844 67.04199219 C-6.17487913 73.28094522 -7.88637123 79.52289333 -9.59151053 85.76667535 C-11.23892341 91.79848365 -12.89307298 97.82842306 -14.55066681 103.85744095 C-15.2522249 106.41097903 -15.95229136 108.96492743 -16.65081024 111.51929855 C-17.63083024 115.09832735 -18.61854908 118.67514388 -19.60839844 122.25146484 C-19.89324097 123.29698013 -20.1780835 124.34249542 -20.47155762 125.41969299 C-25.54952864 143.65484293 -25.54952864 143.65484293 -31 147 C-35.11347934 148.08657945 -37.56560544 148.11780192 -41.6875 147 C-45.59836769 144.6387214 -47.75544735 142.37282211 -49 138 C-49.24242024 129.66477679 -46.44445874 121.44390494 -44.23828125 113.50390625 C-43.85104436 112.08685258 -43.46453182 110.66960079 -43.07868958 109.25216675 C-42.04640491 105.46806638 -41.00427431 101.68674992 -39.9595108 97.90607834 C-38.87550867 93.97964635 -37.79816368 90.05138832 -36.72021484 86.12329102 C-35.41192714 81.3569659 -34.10284512 76.59086705 -32.78979492 71.82585144 C-30.07511601 61.96743032 -27.41739312 52.09583924 -24.80078125 42.2109375 C-23.86855814 38.71591663 -22.93466453 35.22134813 -21.99984741 31.72702026 C-21.41976687 29.54585509 -20.84533925 27.36317814 -20.27676392 25.1789856 C-19.49409782 22.17619529 -18.6909512 19.17961149 -17.8828125 16.18359375 C-17.55262871 14.88227005 -17.55262871 14.88227005 -17.21577454 13.55465698 C-15.58712768 7.63267875 -13.26250433 4.21008358 -8.0625 0.6875 C-5.14929778 -0.28356741 -3.06027335 -0.3672328 0 0 Z " fill="#0C0C0C" transform="translate(729,625)"/>
<path d="M0 0 C3.83476727 2.46003938 5.64503215 4.23326943 7.5625 8.375 C8.08542324 12.70779255 7.17526123 15.33803974 5 19 C2.75271815 21.75509399 0.25736364 24.21018428 -2.29296875 26.68359375 C-2.99899734 27.38396255 -3.70502594 28.08433136 -4.43244934 28.80592346 C-6.67486741 31.02607043 -8.9308302 33.23185014 -11.1875 35.4375 C-12.71641278 36.94633599 -14.24441785 38.45609236 -15.77148438 39.96679688 C-19.50388173 43.65524992 -23.24747997 47.33202706 -27 51 C-25.69285106 53.88853605 -24.30501746 55.93833962 -22.05078125 58.16040039 C-21.45676514 58.75103775 -20.86274902 59.34167511 -20.25073242 59.95021057 C-19.29130737 60.88944618 -19.29130737 60.88944618 -18.3125 61.84765625 C-17.32503784 62.82731606 -17.32503784 62.82731606 -16.31762695 63.82676697 C-14.21644807 65.91015482 -12.10870314 67.98673032 -10 70.0625 C-7.89217369 72.14269293 -5.78582654 74.22432992 -3.68237305 76.3089447 C-2.37408833 77.60499077 -1.06313942 78.89835419 0.25073242 80.18873596 C0.84474854 80.77622116 1.43876465 81.36370636 2.05078125 81.96899414 C2.57325439 82.48321426 3.09572754 82.99743439 3.6340332 83.52723694 C6.7250589 86.8599303 7.74170191 89.52283313 8 94 C6.41149816 99.11850592 4.68493808 102.29314689 0 105 C-2.74204733 105.8724696 -5.14080374 106.41362695 -8 106 C-14.2406705 102.49401897 -18.95085345 97.31929898 -23.95703125 92.2734375 C-24.90976517 91.31950975 -25.86287095 90.36595327 -26.81632996 89.41275024 C-28.80376782 87.42375548 -30.78782221 85.43146829 -32.76928711 83.43652344 C-35.31075465 80.87798603 -37.85883676 78.32616221 -40.40923023 75.7765255 C-42.37316532 73.8123189 -44.33448685 71.84552043 -46.2949276 69.87782669 C-47.69046976 68.47755511 -49.08751283 67.07877989 -50.48457336 65.68002319 C-51.32602402 64.83219269 -52.16747467 63.98436218 -53.03442383 63.11083984 C-54.14978264 61.98976334 -54.14978264 61.98976334 -55.28767395 60.84603882 C-58.28760997 57.61184265 -58.54566991 54.82762391 -58.44515991 50.53030396 C-57.92040499 47.54757925 -57.08279351 46.46862284 -55.03369141 44.27294922 C-54.39554504 43.58295837 -53.75739868 42.89296753 -53.09991455 42.18206787 C-52.40694275 41.46198547 -51.71397095 40.74190308 -51 40 C-50.30590027 39.27524475 -49.61180054 38.5504895 -48.89666748 37.80377197 C-46.60190727 35.43757804 -44.28551131 33.09471579 -41.9609375 30.7578125 C-41.11705475 29.90822968 -40.273172 29.05864685 -39.40371704 28.18331909 C-37.63186366 26.40207814 -35.85859792 24.62224107 -34.08398438 22.84375 C-31.36907587 20.11905451 -28.66501446 17.38387744 -25.9609375 14.6484375 C-24.23242953 12.91340603 -22.50328499 11.17900846 -20.7734375 9.4453125 C-19.96812592 8.62765411 -19.16281433 7.80999573 -18.33309937 6.96755981 C-17.57526154 6.21272308 -16.81742371 5.45788635 -16.03662109 4.68017578 C-15.37600677 4.01591583 -14.71539246 3.35165588 -14.03475952 2.66726685 C-9.44975364 -1.08965293 -5.68113452 -1.4950354 0 0 Z " fill="#090909" transform="translate(663,646)"/>
<path d="M0 0 C6.09353644 4.51094982 11.40476972 10.23169841 16.76953125 15.56640625 C17.57235031 16.36352524 18.37516937 17.16064423 19.20231628 17.98191833 C20.88520205 19.65542042 22.56668726 21.33033199 24.24682617 23.0065918 C26.8156788 25.5656667 29.39500591 28.11387781 31.97460938 30.66210938 C33.6152403 32.29621568 35.25523662 33.93095941 36.89453125 35.56640625 C37.66328079 36.32280899 38.43203033 37.07921173 39.22407532 37.85853577 C43.77313792 42.42669983 47.47354946 46.39005343 48.4375 53 C47.29687845 60.82140488 39.88353884 66.40641353 34.5625 71.703125 C33.6454126 72.62212585 32.7283252 73.54112671 31.78344727 74.48797607 C29.85007305 76.42428567 27.91316135 78.35696495 25.97363281 80.28710938 C23.49202653 82.75729002 21.01955125 85.23638557 18.54963684 87.71825027 C16.18377865 90.09307986 13.81032234 92.46025342 11.4375 94.828125 C10.10924194 96.16245575 10.10924194 96.16245575 8.75415039 97.52374268 C7.9264917 98.34509705 7.09883301 99.16645142 6.24609375 100.01269531 C5.15832642 101.09807587 5.15832642 101.09807587 4.04858398 102.2053833 C1.43760146 104.4926768 -0.69190379 105.90873747 -4.18359375 106.15234375 C-8.49992018 105.74090882 -10.53449925 105.37821936 -14 102.5625 C-16.90438671 98.84125452 -17.63168105 96.31996725 -17.4921875 91.64208984 C-15.65037795 81.75515385 -2.50336729 72.27700779 4.5 65.375 C5.71661535 64.168442 6.93276454 62.96141376 8.1484375 61.75390625 C11.09362261 58.83049899 14.04500631 55.91349097 17 53 C15.67376757 50.05594663 14.23786345 47.99518106 11.94311523 45.73193359 C11.0172184 44.81110489 11.0172184 44.81110489 10.07261658 43.87167358 C9.40798904 43.22050568 8.74336151 42.56933777 8.05859375 41.8984375 C7.03428001 40.88192612 7.03428001 40.88192612 5.98927307 39.84487915 C3.81004522 37.68344708 1.62424361 35.52882592 -0.5625 33.375 C-2.7519283 31.21317054 -4.93989101 29.04990831 -7.12498474 26.88369751 C-8.48444561 25.5365137 -9.8465703 24.19201179 -11.21156311 22.85043335 C-11.82567551 22.24285187 -12.4397879 21.63527039 -13.07250977 21.00927734 C-13.61496841 20.47507172 -14.15742706 19.94086609 -14.71632385 19.39047241 C-17.52585435 16.34720121 -17.3923661 13.29062108 -17.34765625 9.32421875 C-16.74665192 5.30626847 -14.98265089 3.71752636 -12 1 C-7.83494111 -1.5209567 -4.62861994 -1.33367015 0 0 Z " fill="#0A0A0A" transform="translate(764,646)"/>
<path d="M0 0 C0.92676072 0.00291266 1.85352144 0.00582533 2.80836582 0.00882626 C4.2700494 0.00754223 4.2700494 0.00754223 5.76126194 0.00623226 C9.06343461 0.00456638 12.36555747 0.01011796 15.66772556 0.01555538 C18.06078909 0.01586146 20.45385271 0.01572867 22.8469162 0.01519012 C29.28001942 0.01496352 35.71310419 0.0207771 42.14620304 0.02780056 C48.17343806 0.03347769 54.20066849 0.03376271 60.22790623 0.03447628 C77.87768896 0.03973245 95.52746823 0.05369348 113.17724705 0.06658077 C172.29880955 0.09751827 172.29880955 0.09751827 232.61474705 0.12908077 C232.61474705 101.10908077 232.61474705 202.08908077 232.61474705 306.12908077 C232.28474705 306.12908077 231.95474705 306.12908077 231.61474705 306.12908077 C231.61474705 205.80908077 231.61474705 105.48908077 231.61474705 2.12908077 C153.40474705 2.12908077 75.19474705 2.12908077 -5.38525295 2.12908077 C-5.38525295 114.65908077 -5.38525295 227.18908077 -5.38525295 343.12908077 C-5.71525295 343.12908077 -6.04525295 343.12908077 -6.38525295 343.12908077 C-6.5134624 305.48135523 -6.64093003 267.83362724 -6.76743522 230.18589592 C-6.78245126 225.71733187 -6.7974733 221.24876784 -6.81249905 216.78020382 C-6.81698497 215.44607334 -6.81698497 215.44607334 -6.82156152 214.08499073 C-6.86967652 199.77963171 -6.91827444 185.47427436 -6.96705836 171.1689176 C-7.01729446 156.43448964 -7.06699416 141.70005994 -7.11622 126.96562856 C-7.14380545 118.71307973 -7.171626 110.46053184 -7.20005703 102.20798588 C-7.25591292 85.96377462 -7.3093766 69.71956454 -7.35335493 53.47531623 C-7.37287913 46.27921296 -7.39588677 39.08313828 -7.4228034 31.88705903 C-7.43661324 27.92567946 -7.44638735 23.96429948 -7.45464134 20.00290477 C-7.45910421 18.24182963 -7.46526551 16.48075783 -7.4732666 14.71969521 C-7.48361291 12.39308149 -7.48798577 10.06653852 -7.49059963 7.73990536 C-7.49444416 6.47202899 -7.49828869 5.20415262 -7.50224972 3.89785576 C-7.28321615 -1.28566073 -4.52514661 0.01079197 0 0 Z " fill="#585857" transform="translate(327.3852529525757,355.8709192276001)"/>
<path d="M0 0 C4.95636837 2.16277893 7.17539962 5.10712507 9.30859375 9.91796875 C10.78586025 14.36646053 10.44078266 17.77560373 8.875 22.125 C6.18516507 26.24941356 3.61246071 29.22435137 -1.14453125 30.63671875 C-6.50822774 31.48650371 -10.24692808 30.8335621 -15 28 C-18.77778503 24.32008505 -21.14074109 21.06548635 -21.3125 15.75 C-21.22365364 9.58998567 -18.43230997 6.60698192 -14.4375 2.125 C-10.17823461 -1.22388805 -5.12525619 -0.80201475 0 0 Z " fill="#0E0E0E" transform="translate(332,209)"/>
<path d="M0 0 C4.5613269 1.82453076 7.22698205 4.99452963 10 9 C11.75915603 14.82720436 10.68714187 19.66705691 8 25 C4.55766674 28.53292098 0.93762596 30.85034736 -4.0703125 31.10546875 C-9.51545813 30.85628412 -12.60463901 29.33284971 -16.58984375 25.66796875 C-20.12455224 21.48702547 -20.43799745 17.80239152 -20.3125 12.46875 C-19.6802834 7.47423884 -16.97164099 4.87910375 -13.375 1.625 C-8.80369453 -0.57599893 -4.9882042 -0.67792708 0 0 Z " fill="#0B0C0C" transform="translate(217,209)"/>
<path d="M0 0 C4.59788688 2.30885268 7.32830736 5.4809534 9 10.34765625 C9.97353242 15.44615591 9.10239702 19.48564069 6.24609375 23.8046875 C3.43443226 27.28621192 0.85536431 29.07944412 -3.62109375 29.7265625 C-8.09847917 29.91489214 -11.30214433 29.65217509 -15.4375 27.84765625 C-19.26368872 24.1147892 -21.68189488 20.48557451 -22.23046875 15.07421875 C-21.98587325 9.76559049 -20.22485871 6.62558744 -16.66796875 2.7578125 C-11.79674025 -1.36048607 -6.01979364 -1.96348738 0 0 Z " fill="#0D0D0D" transform="translate(276,209.65234375)"/>
<path d="M0 0 C1.3125 2.125 1.3125 2.125 2 4 C0 3 -2 2 -4 1 C-5.87844908 0.88017743 -7.76100831 0.82270839 -9.64306641 0.79467773 C-10.82413971 0.77473251 -12.00521301 0.75478729 -13.22207642 0.73423767 C-15.14242203 0.70916893 -15.14242203 0.70916893 -17.1015625 0.68359375 C-18.40829926 0.66281265 -19.71503601 0.64203156 -21.06137085 0.62062073 C-24.536689 0.56540706 -28.01206653 0.51599475 -31.48748779 0.46777344 C-35.033379 0.41755323 -38.5791839 0.36186988 -42.125 0.30664062 C-49.0832585 0.19906772 -56.04159496 0.09762083 -63 0 C-63 -0.33 -63 -0.66 -63 -1 C-55.52433627 -1.17729179 -48.04851062 -1.34322341 -40.57227802 -1.49477577 C-37.10052342 -1.56550697 -33.62894287 -1.64010483 -30.1574707 -1.72363281 C-26.16376411 -1.81955503 -22.16987694 -1.89848992 -18.17578125 -1.9765625 C-16.31147209 -2.02485703 -16.31147209 -2.02485703 -14.40950012 -2.0741272 C-13.24867416 -2.09429901 -12.08784821 -2.11447083 -10.8918457 -2.13525391 C-9.87258499 -2.15746002 -8.85332428 -2.17966614 -7.80317688 -2.20254517 C-4.79214798 -1.98498153 -2.68527187 -1.36381894 0 0 Z " fill="#101010" transform="translate(526,391)"/>
<path d="M0 0 C-2.31203927 2.31203927 -2.93214375 2.27275091 -6.0625 2.5 C-8.0115625 2.7475 -8.0115625 2.7475 -10 3 C-10.33 3.66 -10.66 4.32 -11 5 C-11.66 5 -12.32 5 -13 5 C-13.33 5.99 -13.66 6.98 -14 8 C-17.0625 9.6875 -17.0625 9.6875 -20 11 C-18.84484436 6.6360787 -16.62102953 3.97857001 -13.21875 1.16015625 C-9.0472823 -1.02105133 -4.56919579 -0.44617825 0 0 Z " fill="#181818" transform="translate(332,209)"/>
<path d="M0 0 C2.6915517 3.06718925 3.3672868 4.92165507 3.29296875 8.984375 C3.28330078 9.91894531 3.27363281 10.85351562 3.26367188 11.81640625 C3.23853516 12.78449219 3.21339844 13.75257813 3.1875 14.75 C3.17396484 15.73355469 3.16042969 16.71710937 3.14648438 17.73046875 C3.11118726 20.15420415 3.06188054 22.57682145 3 25 C2.01 24.34 1.02 23.68 0 23 C-0.34057617 20.66162109 -0.34057617 20.66162109 -0.29296875 17.7734375 C-0.28330078 16.7421875 -0.27363281 15.7109375 -0.26367188 14.6484375 C-0.23853516 13.56820312 -0.21339844 12.48796875 -0.1875 11.375 C-0.17396484 10.28703125 -0.16042969 9.1990625 -0.14648438 8.078125 C-0.11104754 5.38492591 -0.06164331 2.69270626 0 0 Z " fill="#373737" transform="translate(578,688)"/>
<path d="M0 0 C6.27 0 12.54 0 19 0 C19 0.99 19 1.98 19 3 C12.4 2.67 5.8 2.34 -1 2 C-0.67 1.34 -0.34 0.68 0 0 Z " fill="#111111" transform="translate(829,155)"/>
<path d="M0 0 C3.90285767 1.58667578 6.33520982 4.13350481 9.25 7.125 C10.14203125 8.03507813 11.0340625 8.94515625 11.953125 9.8828125 C12.62859375 10.58148437 13.3040625 11.28015625 14 12 C13.67 12.99 13.34 13.98 13 15 C11.82737096 13.88121617 10.66204862 12.75476949 9.5 11.625 C8.8503125 10.99851562 8.200625 10.37203125 7.53125 9.7265625 C6 8 6 8 6 6 C5.38125 5.7525 4.7625 5.505 4.125 5.25 C1.64931313 3.79371361 1.04874998 2.62187494 0 0 Z " fill="#2E2E2E" transform="translate(654,719)"/>
<path d="M0 0 C0.66 0 1.32 0 2 0 C3.39458277 5.95867185 2.81090078 10.50548452 0 16 C-2.6875 18.5625 -2.6875 18.5625 -5 20 C-5 17 -5 17 -3.0625 14.8125 C0.31829856 10.20232014 0 5.65161256 0 0 Z " fill="#313232" transform="translate(225,218)"/>
<path d="M0 0 C4.23322844 0.62045463 7.52290295 2.10523559 11.3125 4.0625 C12.38113281 4.61035156 13.44976563 5.15820312 14.55078125 5.72265625 C15.35902344 6.14417969 16.16726563 6.56570313 17 7 C17 7.66 17 8.32 17 9 C10.75029999 7.22057153 5.21510863 4.95040926 0 1 C0 0.67 0 0.34 0 0 Z " fill="#1A1A1A" transform="translate(767,559)"/>
<path d="M0 0 C1 3 1 3 -0.43359375 6.35546875 C-1.09148807 7.6380304 -1.75989743 8.91524057 -2.4375 10.1875 C-2.77587891 10.84169922 -3.11425781 11.49589844 -3.46289062 12.16992188 C-4.29969098 13.78459299 -5.14869746 15.39292763 -6 17 C-6.66 16.34 -7.32 15.68 -8 15 C-5.85954274 9.59252902 -3.19167673 4.85689937 0 0 Z " fill="#1E1E1F" transform="translate(597,632)"/>
<path d="M0 0 C0 0.66 0 1.32 0 2 C-0.59167969 2.08636719 -1.18335938 2.17273438 -1.79296875 2.26171875 C-7.49764334 3.27608993 -10.3243564 4.49437236 -14 9 C-14 6 -14 6 -11.6875 3.375 C-7.78010248 -0.07804897 -5.04868255 -0.11219295 0 0 Z " fill="#39393A" transform="translate(729,625)"/>
<path d="M0 0 C1.3125 2.125 1.3125 2.125 2 4 C0 3 -2 2 -4 1 C-5.3734635 0.84995027 -6.7528526 0.75161994 -8.1328125 0.68359375 C-8.93847656 0.64169922 -9.74414062 0.59980469 -10.57421875 0.55664062 C-11.41597656 0.51732422 -12.25773438 0.47800781 -13.125 0.4375 C-13.97449219 0.39431641 -14.82398438 0.35113281 -15.69921875 0.30664062 C-17.79928223 0.20045764 -19.89961948 0.09971503 -22 0 C-22 -0.33 -22 -0.66 -22 -1 C-19.27132267 -1.22262638 -16.54308042 -1.42852324 -13.8125 -1.625 C-13.04357422 -1.68945312 -12.27464844 -1.75390625 -11.48242188 -1.8203125 C-7.16728919 -2.11663062 -3.88532674 -2.21164753 0 0 Z " fill="#1E1F1F" transform="translate(526,391)"/>
<path d="M0 0 C6.27 0 12.54 0 19 0 C18.01 1.485 18.01 1.485 17 3 C15.0546875 3.29296875 15.0546875 3.29296875 12.875 3.1875 C11.59625 3.125625 10.3175 3.06375 9 3 C9 2.67 9 2.34 9 2 C6.03 1.67 3.06 1.34 0 1 C0 0.67 0 0.34 0 0 Z " fill="#2D2D2E" transform="translate(702,825)"/>
<path d="M0 0 C5.08938811 1.59043379 8.87456643 4.7446951 13 8 C12.67 8.66 12.34 9.32 12 10 C9.99426318 8.71656721 7.99563881 7.4239631 6 6.125 C5.42765625 5.76019531 4.8553125 5.39539063 4.265625 5.01953125 C2.80818084 4.06525233 1.39962775 3.03722413 0 2 C0 1.34 0 0.68 0 0 Z " fill="#292929" transform="translate(618,820)"/>
<path d="M0 0 C6.30214697 0.33169195 10.85216936 3.67323988 16 7 C13 8 13 8 9.86328125 6.56640625 C8.6739872 5.90864027 7.49053629 5.24022185 6.3125 4.5625 C5.70599609 4.22412109 5.09949219 3.88574219 4.47460938 3.53710938 C2.9779975 2.70042085 1.48830811 1.85137169 0 1 C0 0.67 0 0.34 0 0 Z " fill="#202021" transform="translate(855,158)"/>
<path d="M0 0 C4.75 1.875 4.75 1.875 7 3 C9.3329866 3.04022391 11.66706666 3.04320247 14 3 C13.67 3.99 13.34 4.98 13 6 C3.11655941 5.38756458 3.11655941 5.38756458 0 2 C0 1.34 0 0.68 0 0 Z " fill="#39393A" transform="translate(749,746)"/>
<path d="M0 0 C2.125 0.375 2.125 0.375 4 1 C4 1.66 4 2.32 4 3 C5.175625 3.4640625 5.175625 3.4640625 6.375 3.9375 C9 5 9 5 11 6 C10.67 7.32 10.34 8.64 10 10 C9.55269531 9.59007812 9.10539063 9.18015625 8.64453125 8.7578125 C5.26255515 5.74359926 2.420332 3.33949455 -2 2 C-1.34 1.34 -0.68 0.68 0 0 Z " fill="#242424" transform="translate(850,180)"/>
<path d="M0 0 C0.66 0.33 1.32 0.66 2 1 C0.68 4.96 -0.64 8.92 -2 13 C-2.66 12.67 -3.32 12.34 -4 12 C-4 10.02 -4 8.04 -4 6 C-3.34 6 -2.68 6 -2 6 C-1.34 4.02 -0.68 2.04 0 0 Z " fill="#242424" transform="translate(588,650)"/>
<path d="M0 0 C0.66 0 1.32 0 2 0 C3.54296875 1.86328125 3.54296875 1.86328125 5.1875 4.3125 C5.73792969 5.11300781 6.28835938 5.91351562 6.85546875 6.73828125 C7.23316406 7.48464844 7.61085938 8.23101563 8 9 C7.67 9.99 7.34 10.98 7 12 C5.82767315 10.3790787 4.6622923 8.75313167 3.5 7.125 C2.8503125 6.22007812 2.200625 5.31515625 1.53125 4.3828125 C0 2 0 2 0 0 Z " fill="#282727" transform="translate(597,763)"/>
<path d="M0 0 C1.67110042 2.96178773 2.32682752 5.37071192 2.625 8.75 C2.69976563 9.54921875 2.77453125 10.3484375 2.8515625 11.171875 C2.90054688 11.77515625 2.94953125 12.3784375 3 13 C2.01 13.33 1.02 13.66 0 14 C0.01160156 13.37351562 0.02320313 12.74703125 0.03515625 12.1015625 C0.04417969 11.28429687 0.05320312 10.46703125 0.0625 9.625 C0.07990234 8.40683594 0.07990234 8.40683594 0.09765625 7.1640625 C0.14466334 4.95062858 0.14466334 4.95062858 -1 3 C-0.67 2.01 -0.34 1.02 0 0 Z " fill="#343434" transform="translate(856,660)"/>
<path d="M0 0 C3.6 5.4 3.6 5.4 5 8 C4.67 8.66 4.34 9.32 4 10 C-0.875 5.375 -0.875 5.375 -2 2 C-1.34 2 -0.68 2 0 2 C0 1.34 0 0.68 0 0 Z " fill="#222222" transform="translate(354,553)"/>
<path d="M0 0 C1.32 0 2.64 0 4 0 C5.5625 2.8125 5.5625 2.8125 7 6 C6.67 6.99 6.34 7.98 6 9 C4.02 6.03 2.04 3.06 0 0 Z " fill="#272727" transform="translate(578,779)"/>
<path d="M0 0 C0.33 0.99 0.66 1.98 1 3 C-1.68841859 5.25245881 -3.64641875 6.88213958 -7 8 C-6.67 7.01 -6.34 6.02 -6 5 C-5.34 5 -4.68 5 -4 5 C-4 4.34 -4 3.68 -4 3 C-2 1.375 -2 1.375 0 0 Z " fill="#363736" transform="translate(281,231)"/>
<path d="M0 0 C0.33 0.66 0.66 1.32 1 2 C-2.44615385 6.8 -2.44615385 6.8 -5.25 7.8125 C-6.11625 7.9053125 -6.11625 7.9053125 -7 8 C-5.50902342 4.2047869 -3.24299151 2.38957269 0 0 Z " fill="#2D2D2D" transform="translate(879,849)"/>
<path d="M0 0 C0.66 0.33 1.32 0.66 2 1 C1.01 1.33 0.02 1.66 -1 2 C-2.20882096 4.00016466 -2.20882096 4.00016466 -3 6 C-3.66 6 -4.32 6 -5 6 C-5.33 6.99 -5.66 7.98 -6 9 C-6.33 8.34 -6.66 7.68 -7 7 C-2.25 1.125 -2.25 1.125 0 0 Z " fill="#1F1F1F" transform="translate(754,646)"/>
<path d="M0 0 C2.97 0.33 5.94 0.66 9 1 C9 1.33 9 1.66 9 2 C5.7 2.33 2.4 2.66 -1 3 C-0.67 2.01 -0.34 1.02 0 0 Z " fill="#313232" transform="translate(677,572)"/>
<path d="M0 0 C3.3 0 6.6 0 10 0 C7.4345406 2.5654594 5.52313332 2.54046087 2 3 C2 2.34 2 1.68 2 1 C1.34 0.67 0.68 0.34 0 0 Z " fill="#252526" transform="translate(207,209)"/>
<path d="M0 0 C0.99 0.33 1.98 0.66 3 1 C4.1875 4.0625 4.1875 4.0625 5 7 C4.01 7.33 3.02 7.66 2 8 C1.34 5.36 0.68 2.72 0 0 Z " fill="#353535" transform="translate(559,735)"/>
<path d="M0 0 C2.64 1.65 5.28 3.3 8 5 C4 6 4 6 1.75 4.75 C1.1725 4.1725 0.595 3.595 0 3 C0 2.01 0 1.02 0 0 Z " fill="#2B2B2B" transform="translate(683,766)"/>
<path d="M0 0 C2.18975773 3.28463659 2.99806563 6.20696275 4 10 C1.24049934 7.50754779 -0.62030099 5.79699009 -1 2 C-0.67 1.34 -0.34 0.68 0 0 Z " fill="#414141" transform="translate(850,642)"/>
<path d="M0 0 C3 1.8125 3 1.8125 6 4 C6 4.99 6 5.98 6 7 C3.69 5.35 1.38 3.7 -1 2 C-0.67 1.34 -0.34 0.68 0 0 Z " fill="#191919" transform="translate(778,590)"/>
<path d="M0 0 C3 1 3 1 4.6875 4.0625 C5.120625 5.031875 5.55375 6.00125 6 7 C2.63279613 5.60667426 1.0140476 4.0210714 -1 1 C-0.67 0.67 -0.34 0.34 0 0 Z " fill="#2A2B2B" transform="translate(881,177)"/>
<path d="M0 0 C0.99 0.33 1.98 0.66 3 1 C2.01 2.485 2.01 2.485 1 4 C0.34 4 -0.32 4 -1 4 C-1 4.66 -1 5.32 -1 6 C-1.66 5.67 -2.32 5.34 -3 5 C-1.125 1.125 -1.125 1.125 0 0 Z " fill="#1D1E1E" transform="translate(152,165)"/>
<path d="" fill="#EDEDEC" transform="translate(0,0)"/>
<path d="" fill="#ECEBEC" transform="translate(0,0)"/>
</svg>
