<?xml version="1.0" encoding="UTF-8" standalone="no"?>
<!-- Created with Inkscape (http://www.inkscape.org/) -->

<svg
   width="40.916595mm"
   height="30.806677mm"
   viewBox="0 0 40.916595 30.806677"
   version="1.1"
   id="svg1"
   xml:space="preserve"
   inkscape:version="1.4.2 (f4327f4, 2025-05-13)"
   sodipodi:docname="wezo-logo.svg"
   xmlns:inkscape="http://www.inkscape.org/namespaces/inkscape"
   xmlns:sodipodi="http://sodipodi.sourceforge.net/DTD/sodipodi-0.dtd"
   xmlns="http://www.w3.org/2000/svg"
   xmlns:svg="http://www.w3.org/2000/svg"><sodipodi:namedview
     id="namedview1"
     pagecolor="#ffffff"
     bordercolor="#000000"
     borderopacity="0.25"
     inkscape:showpageshadow="2"
     inkscape:pageopacity="0.0"
     inkscape:pagecheckerboard="0"
     inkscape:deskcolor="#d1d1d1"
     inkscape:document-units="mm"
     inkscape:zoom="2.4445006"
     inkscape:cx="97.156861"
     inkscape:cy="75.680081"
     inkscape:window-width="1500"
     inkscape:window-height="930"
     inkscape:window-x="1913"
     inkscape:window-y="-6"
     inkscape:window-maximized="1"
     inkscape:current-layer="layer1" /><defs
     id="defs1" /><g
     inkscape:label="Layer 1"
     inkscape:groupmode="layer"
     id="layer1"
     transform="translate(-77.25544,-135.73974)"><path
       style="fill:#ffffff;stroke-width:0.264583"
       d="m 77.682534,142.50727 c 0,0 1.377621,-6.12276 6.581968,-5.58702 5.663554,0.76535 3.367519,11.09751 3.367519,11.09751 0,0 6.505432,-13.01088 13.240469,-12.24553 6.4289,1.9899 3.75019,10.17909 3.75019,10.17909 0,0 8.49534,-11.86284 12.6282,-8.57186 2.98484,2.29603 -1.9899,7.42384 -4.89821,12.78126 -5.35742,11.0975 -6.12276,13.24047 -11.70978,12.47513 -5.164428,-1.8116 -4.285935,-10.48523 -4.285935,-10.48523 0,0 -4.668605,14.77116 -10.8679,14.38849 -10.417244,0.22761 -8.112659,-21.88887 -7.806521,-24.03184 z"
       id="path1"
       sodipodi:nodetypes="ccccccccccc" /></g></svg>
