<svg xmlns="http://www.w3.org/2000/svg" xmlns:xlink="http://www.w3.org/1999/xlink" width="172" zoomAndPan="magnify" viewBox="0 0 129 80.999996" height="108" preserveAspectRatio="xMidYMid meet" version="1.2"><defs/><g id="7f58566591"><g style="fill:#ffffff;fill-opacity:1;"><g transform="translate(13.370778, 52.944415)"><path style="stroke:none" d="M 8.890625 -10.40625 C 8.992188 -10.570312 9.09375 -10.710938 9.1875 -10.828125 C 9.289062 -10.953125 9.410156 -11.046875 9.546875 -11.109375 C 9.648438 -11.179688 9.769531 -11.316406 9.90625 -11.515625 C 10.039062 -11.816406 10.179688 -12.109375 10.328125 -12.390625 C 10.484375 -12.679688 10.628906 -12.960938 10.765625 -13.234375 C 11.128906 -13.941406 11.476562 -14.640625 11.8125 -15.328125 C 12.15625 -16.015625 12.460938 -16.710938 12.734375 -17.421875 C 13.003906 -17.992188 13.253906 -18.578125 13.484375 -19.171875 C 13.722656 -19.765625 13.910156 -20.363281 14.046875 -20.96875 C 14.109375 -21.269531 14.222656 -21.570312 14.390625 -21.875 C 14.566406 -22.175781 14.753906 -22.460938 14.953125 -22.734375 C 15.015625 -22.867188 15.144531 -22.976562 15.34375 -23.0625 C 15.550781 -23.144531 15.738281 -23.203125 15.90625 -23.234375 C 16.25 -23.335938 16.546875 -23.351562 16.796875 -23.28125 C 17.046875 -23.21875 17.304688 -23.171875 17.578125 -23.140625 C 17.816406 -23.097656 18.035156 -23.046875 18.234375 -22.984375 C 18.441406 -22.921875 18.644531 -22.851562 18.84375 -22.78125 C 19.082031 -22.75 19.289062 -22.679688 19.46875 -22.578125 C 19.65625 -22.472656 19.75 -22.289062 19.75 -22.03125 C 19.71875 -21.851562 19.734375 -21.707031 19.796875 -21.59375 C 19.867188 -21.476562 19.957031 -21.351562 20.0625 -21.21875 C 20.125 -21.144531 20.144531 -21.03125 20.125 -20.875 C 20.113281 -20.726562 20.09375 -20.609375 20.0625 -20.515625 C 20.0625 -20.378906 20.039062 -20.269531 20 -20.1875 C 19.96875 -20.101562 20.003906 -20.023438 20.109375 -19.953125 C 20.171875 -19.921875 20.171875 -19.820312 20.109375 -19.65625 C 19.972656 -19.3125 19.863281 -18.945312 19.78125 -18.5625 C 19.695312 -18.175781 19.535156 -17.796875 19.296875 -17.421875 C 18.992188 -16.921875 18.789062 -16.453125 18.6875 -16.015625 C 18.550781 -15.410156 18.363281 -14.785156 18.125 -14.140625 C 17.894531 -13.503906 17.660156 -12.882812 17.421875 -12.28125 C 17.191406 -11.53125 16.96875 -10.785156 16.75 -10.046875 C 16.53125 -9.304688 16.367188 -8.582031 16.265625 -7.875 C 15.859375 -6.15625 15.65625 -4.941406 15.65625 -4.234375 C 15.65625 -3.535156 15.804688 -3.21875 16.109375 -3.28125 C 16.410156 -3.351562 16.796875 -3.675781 17.265625 -4.25 C 17.742188 -4.820312 18.25 -5.546875 18.78125 -6.421875 C 19.320312 -7.296875 19.828125 -8.1875 20.296875 -9.09375 C 20.773438 -10 21.164062 -10.804688 21.46875 -11.515625 L 22.375 -13.53125 C 22.613281 -14.101562 22.847656 -14.691406 23.078125 -15.296875 C 23.316406 -15.910156 23.519531 -16.488281 23.6875 -17.03125 C 23.957031 -17.832031 24.207031 -18.628906 24.4375 -19.421875 C 24.675781 -20.210938 24.847656 -20.992188 24.953125 -21.765625 C 25.117188 -22.742188 25.242188 -23.6875 25.328125 -24.59375 C 25.410156 -25.507812 25.453125 -26.421875 25.453125 -27.328125 L 25.359375 -29.90625 C 25.359375 -30.175781 25.304688 -30.460938 25.203125 -30.765625 C 25.140625 -30.867188 25.039062 -30.960938 24.90625 -31.046875 C 24.769531 -31.128906 24.617188 -31.132812 24.453125 -31.0625 C 24.179688 -31.03125 23.992188 -31.070312 23.890625 -31.1875 C 23.796875 -31.3125 23.710938 -31.441406 23.640625 -31.578125 C 23.578125 -31.742188 23.507812 -31.910156 23.4375 -32.078125 C 23.375 -32.242188 23.304688 -32.410156 23.234375 -32.578125 C 23.203125 -32.648438 23.21875 -32.800781 23.28125 -33.03125 L 23.546875 -33.546875 L 24.203125 -33.796875 C 24.535156 -33.660156 24.859375 -33.550781 25.171875 -33.46875 C 25.492188 -33.382812 25.828125 -33.273438 26.171875 -33.140625 C 26.398438 -33.109375 26.625 -33.039062 26.84375 -32.9375 C 27.0625 -32.832031 27.257812 -32.695312 27.4375 -32.53125 L 27.78125 -32.375 C 27.988281 -32.28125 28.125 -32.082031 28.1875 -31.78125 C 28.21875 -31.644531 28.285156 -31.5 28.390625 -31.34375 C 28.492188 -31.195312 28.578125 -31.054688 28.640625 -30.921875 C 28.742188 -30.785156 28.851562 -30.648438 28.96875 -30.515625 C 29.082031 -30.378906 29.226562 -30.257812 29.40625 -30.15625 C 29.46875 -30.125 29.503906 -30.066406 29.515625 -29.984375 C 29.535156 -29.898438 29.566406 -29.820312 29.609375 -29.75 C 29.671875 -29.582031 29.726562 -29.421875 29.78125 -29.265625 C 29.832031 -29.117188 29.941406 -28.992188 30.109375 -28.890625 C 30.441406 -28.722656 30.523438 -28.390625 30.359375 -27.890625 C 30.328125 -27.648438 30.378906 -27.460938 30.515625 -27.328125 C 30.710938 -27.085938 30.8125 -26.800781 30.8125 -26.46875 C 30.78125 -26.300781 30.8125 -26.140625 30.90625 -25.984375 C 31.007812 -25.835938 31.03125 -25.660156 30.96875 -25.453125 C 30.9375 -25.359375 30.921875 -25.257812 30.921875 -25.15625 C 30.921875 -25.050781 30.882812 -24.953125 30.8125 -24.859375 C 30.75 -24.617188 30.75 -24.445312 30.8125 -24.34375 C 30.882812 -24.207031 30.898438 -24.109375 30.859375 -24.046875 C 30.722656 -23.878906 30.679688 -23.742188 30.734375 -23.640625 C 30.785156 -23.535156 30.8125 -23.414062 30.8125 -23.28125 C 30.882812 -23.144531 30.910156 -22.984375 30.890625 -22.796875 C 30.867188 -22.617188 30.859375 -22.445312 30.859375 -22.28125 C 30.859375 -22.144531 30.859375 -22 30.859375 -21.84375 C 30.859375 -21.695312 30.84375 -21.554688 30.8125 -21.421875 C 30.8125 -21.210938 30.8125 -21 30.8125 -20.78125 C 30.8125 -20.5625 30.78125 -20.351562 30.71875 -20.15625 C 30.644531 -19.882812 30.554688 -19.601562 30.453125 -19.3125 C 30.359375 -19.03125 30.273438 -18.753906 30.203125 -18.484375 L 30.0625 -18.140625 C 29.851562 -17.796875 29.710938 -17.457031 29.640625 -17.125 C 29.578125 -16.789062 29.460938 -16.421875 29.296875 -16.015625 L 29.046875 -16.96875 C 29.015625 -16.90625 28.960938 -16.847656 28.890625 -16.796875 C 28.828125 -16.742188 28.796875 -16.6875 28.796875 -16.625 C 28.765625 -16.082031 28.628906 -15.53125 28.390625 -14.96875 C 28.148438 -14.414062 27.929688 -13.851562 27.734375 -13.28125 C 27.734375 -13.1875 27.679688 -13.085938 27.578125 -12.984375 C 27.273438 -12.847656 27.097656 -12.660156 27.046875 -12.421875 C 26.992188 -12.191406 26.9375 -11.972656 26.875 -11.765625 C 26.84375 -11.566406 26.785156 -11.390625 26.703125 -11.234375 C 26.617188 -11.085938 26.472656 -10.929688 26.265625 -10.765625 C 26.128906 -10.628906 25.984375 -10.457031 25.828125 -10.25 C 25.679688 -10.050781 25.578125 -9.832031 25.515625 -9.59375 C 25.472656 -9.457031 25.425781 -9.332031 25.375 -9.21875 C 25.332031 -9.101562 25.273438 -8.976562 25.203125 -8.84375 L 24.25 -7.21875 C 23.914062 -6.6875 23.585938 -6.15625 23.265625 -5.625 C 22.941406 -5.101562 22.597656 -4.578125 22.234375 -4.046875 C 21.785156 -3.429688 21.316406 -2.8125 20.828125 -2.1875 C 20.347656 -1.570312 19.851562 -0.960938 19.34375 -0.359375 C 19.039062 0.046875 18.675781 0.359375 18.25 0.578125 C 17.832031 0.796875 17.390625 0.890625 16.921875 0.859375 C 16.722656 0.859375 16.570312 0.875 16.46875 0.90625 C 15.957031 0.976562 15.519531 0.925781 15.15625 0.75 C 14.78125 0.582031 14.398438 0.398438 14.015625 0.203125 C 13.628906 0.00390625 13.300781 -0.265625 13.03125 -0.609375 C 12.894531 -0.742188 12.789062 -0.894531 12.71875 -1.0625 C 12.65625 -1.226562 12.59375 -1.378906 12.53125 -1.515625 C 12.457031 -3.097656 12.382812 -4.242188 12.3125 -4.953125 C 12.25 -5.660156 11.972656 -5.828125 11.484375 -5.453125 C 11.003906 -5.085938 10.085938 -4.078125 8.734375 -2.421875 C 8.566406 -2.285156 8.414062 -2.148438 8.28125 -2.015625 C 8.144531 -1.878906 7.992188 -1.765625 7.828125 -1.671875 C 7.285156 -1.234375 6.710938 -0.878906 6.109375 -0.609375 C 5.503906 -0.335938 4.863281 -0.101562 4.1875 0.09375 L 3.78125 0.09375 L 1.3125 0.203125 C 0.570312 0.265625 0 0.128906 -0.40625 -0.203125 C -0.675781 -0.367188 -0.84375 -0.617188 -0.90625 -0.953125 C -1.039062 -1.703125 -1.097656 -2.453125 -1.078125 -3.203125 C -1.066406 -3.960938 -0.957031 -4.726562 -0.75 -5.5 C -0.550781 -6.28125 -0.332031 -7.03125 -0.09375 -7.75 C 0.132812 -8.476562 0.332031 -9.195312 0.5 -9.90625 C 0.875 -11.21875 1.242188 -12.53125 1.609375 -13.84375 C 1.984375 -15.15625 2.390625 -16.46875 2.828125 -17.78125 C 3.066406 -18.457031 3.242188 -19.144531 3.359375 -19.84375 C 3.472656 -20.550781 3.597656 -21.242188 3.734375 -21.921875 C 3.867188 -22.492188 3.976562 -23.054688 4.0625 -23.609375 C 4.144531 -24.171875 4.171875 -24.722656 4.140625 -25.265625 C 4.140625 -25.359375 4.15625 -25.441406 4.1875 -25.515625 C 4.457031 -25.578125 4.71875 -25.625 4.96875 -25.65625 C 5.226562 -25.695312 5.472656 -25.71875 5.703125 -25.71875 C 6.140625 -25.75 6.394531 -25.5625 6.46875 -25.15625 C 6.46875 -24.957031 6.519531 -24.769531 6.625 -24.59375 C 6.789062 -24.226562 6.851562 -23.84375 6.8125 -23.4375 C 6.78125 -23.03125 6.734375 -22.59375 6.671875 -22.125 C 6.535156 -21.445312 6.398438 -20.765625 6.265625 -20.078125 C 6.128906 -19.390625 5.992188 -18.707031 5.859375 -18.03125 C 5.722656 -17.457031 5.613281 -16.867188 5.53125 -16.265625 C 5.445312 -15.660156 5.351562 -15.054688 5.25 -14.453125 C 5.21875 -14.148438 5.191406 -13.835938 5.171875 -13.515625 C 5.160156 -13.191406 5.140625 -12.863281 5.109375 -12.53125 C 5.109375 -12.320312 5.109375 -12.125 5.109375 -11.9375 C 5.109375 -11.757812 5.085938 -11.550781 5.046875 -11.3125 C 4.679688 -8.882812 4.628906 -7.300781 4.890625 -6.5625 C 5.160156 -5.820312 5.65625 -5.804688 6.375 -6.515625 C 7.101562 -7.222656 7.941406 -8.519531 8.890625 -10.40625 Z M 25.609375 -22.125 C 25.441406 -21.789062 25.332031 -21.460938 25.28125 -21.140625 C 25.226562 -20.816406 25.15625 -20.488281 25.0625 -20.15625 C 24.925781 -19.851562 24.8125 -19.53125 24.71875 -19.1875 C 24.632812 -18.851562 24.546875 -18.519531 24.453125 -18.1875 C 24.347656 -17.851562 24.257812 -17.53125 24.1875 -17.21875 C 24.125 -16.914062 24.039062 -16.597656 23.9375 -16.265625 L 24.140625 -16.265625 C 24.546875 -17.242188 24.859375 -18.21875 25.078125 -19.1875 C 25.296875 -20.164062 25.472656 -21.144531 25.609375 -22.125 Z M 26.265625 -27.234375 L 25.96875 -24.796875 C 26 -24.835938 26.066406 -24.859375 26.171875 -24.859375 C 26.304688 -25.023438 26.363281 -25.164062 26.34375 -25.28125 C 26.320312 -25.394531 26.3125 -25.519531 26.3125 -25.65625 C 26.3125 -25.789062 26.320312 -25.925781 26.34375 -26.0625 C 26.363281 -26.195312 26.375 -26.332031 26.375 -26.46875 C 26.375 -26.601562 26.363281 -26.726562 26.34375 -26.84375 C 26.320312 -26.96875 26.3125 -27.097656 26.3125 -27.234375 Z M 29.703125 -18.234375 L 29.796875 -18.234375 C 29.796875 -18.367188 29.804688 -18.519531 29.828125 -18.6875 C 29.847656 -18.851562 29.859375 -19.003906 29.859375 -19.140625 C 29.722656 -19.046875 29.65625 -18.960938 29.65625 -18.890625 C 29.65625 -18.828125 29.671875 -18.609375 29.703125 -18.234375 Z M 29.703125 -18.234375 "/></g></g><g style="fill:#ffffff;fill-opacity:1;"><g transform="translate(43.885013, 52.944415)"><path style="stroke:none" d="M 5.859375 -18.1875 C 5.617188 -18.351562 5.40625 -18.53125 5.21875 -18.71875 C 5.039062 -18.90625 4.867188 -19.113281 4.703125 -19.34375 C 4.328125 -19.945312 4.046875 -20.585938 3.859375 -21.265625 C 3.679688 -21.941406 3.675781 -22.648438 3.84375 -23.390625 C 4.007812 -24.023438 4.234375 -24.601562 4.515625 -25.125 C 4.804688 -25.65625 5.1875 -26.117188 5.65625 -26.515625 C 6.257812 -27.085938 6.890625 -27.554688 7.546875 -27.921875 C 8.203125 -28.296875 8.90625 -28.601562 9.65625 -28.84375 C 10.832031 -29.21875 12.007812 -29.46875 13.1875 -29.59375 C 14.363281 -29.726562 15.539062 -29.734375 16.71875 -29.609375 C 17.019531 -29.566406 17.320312 -29.503906 17.625 -29.421875 C 17.925781 -29.335938 18.210938 -29.242188 18.484375 -29.140625 C 18.753906 -29.015625 18.972656 -28.804688 19.140625 -28.515625 C 19.304688 -28.234375 19.425781 -27.90625 19.5 -27.53125 L 19.953125 -25.609375 C 19.984375 -25.472656 20.023438 -25.328125 20.078125 -25.171875 C 20.128906 -25.023438 20.171875 -24.867188 20.203125 -24.703125 C 20.304688 -24.066406 20.125 -23.507812 19.65625 -23.03125 C 18.875 -22.1875 18.015625 -21.867188 17.078125 -22.078125 C 16.503906 -22.210938 15.878906 -22.28125 15.203125 -22.28125 C 15.097656 -22.507812 14.691406 -22.585938 13.984375 -22.515625 C 13.285156 -22.453125 12.460938 -22.296875 11.515625 -22.046875 C 10.578125 -21.796875 9.660156 -21.5 8.765625 -21.15625 C 7.867188 -20.820312 7.1875 -20.488281 6.71875 -20.15625 C 6.25 -19.820312 6.128906 -19.519531 6.359375 -19.25 C 6.597656 -18.976562 7.375 -18.804688 8.6875 -18.734375 C 9.257812 -18.671875 9.847656 -18.628906 10.453125 -18.609375 C 11.054688 -18.597656 11.664062 -18.625 12.28125 -18.6875 C 12.582031 -18.757812 12.890625 -18.785156 13.203125 -18.765625 C 13.523438 -18.742188 13.851562 -18.703125 14.1875 -18.640625 C 14.457031 -18.535156 14.644531 -18.316406 14.75 -17.984375 L 14.75 -17.875 C 14.507812 -17.75 14.289062 -17.597656 14.09375 -17.421875 C 13.894531 -17.253906 13.707031 -17.054688 13.53125 -16.828125 C 13.40625 -16.648438 13.238281 -16.492188 13.03125 -16.359375 C 12.832031 -16.234375 12.628906 -16.117188 12.421875 -16.015625 C 11.753906 -15.710938 10.863281 -15.207031 9.75 -14.5 C 8.632812 -13.789062 7.492188 -12.976562 6.328125 -12.0625 C 5.171875 -11.15625 4.144531 -10.210938 3.25 -9.234375 C 2.363281 -8.265625 1.769531 -7.328125 1.46875 -6.421875 C 1.394531 -6.179688 1.375 -5.804688 1.40625 -5.296875 C 1.445312 -4.796875 1.582031 -4.445312 1.8125 -4.25 C 2.050781 -4.039062 2.304688 -3.894531 2.578125 -3.8125 C 2.847656 -3.726562 3.117188 -3.65625 3.390625 -3.59375 C 3.960938 -3.519531 4.515625 -3.472656 5.046875 -3.453125 C 5.585938 -3.441406 6.128906 -3.453125 6.671875 -3.484375 C 7.378906 -3.585938 8.101562 -3.671875 8.84375 -3.734375 C 9.582031 -3.804688 10.304688 -3.910156 11.015625 -4.046875 L 14.046875 -4.34375 C 14.484375 -4.414062 14.921875 -4.523438 15.359375 -4.671875 C 15.796875 -4.828125 16.195312 -5.019531 16.5625 -5.25 C 16.769531 -5.414062 16.914062 -5.488281 17 -5.46875 C 17.082031 -5.457031 17.175781 -5.351562 17.28125 -5.15625 C 17.445312 -4.914062 17.601562 -4.660156 17.75 -4.390625 C 17.90625 -4.117188 18.015625 -3.800781 18.078125 -3.4375 C 17.847656 -3.40625 17.628906 -3.300781 17.421875 -3.125 C 17.191406 -2.894531 16.957031 -2.671875 16.71875 -2.453125 C 16.476562 -2.234375 16.207031 -2.039062 15.90625 -1.875 C 15.46875 -1.632812 14.988281 -1.382812 14.46875 -1.125 C 13.945312 -0.875 13.453125 -0.6875 12.984375 -0.5625 C 12.710938 -0.488281 12.441406 -0.4375 12.171875 -0.40625 C 11.898438 -0.375 11.628906 -0.335938 11.359375 -0.296875 C 11.023438 -0.265625 10.695312 -0.210938 10.375 -0.140625 C 10.0625 -0.078125 9.753906 -0.046875 9.453125 -0.046875 C 9.109375 -0.015625 8.785156 0.00390625 8.484375 0.015625 C 8.179688 0.0351562 7.863281 0.0820312 7.53125 0.15625 C 7.394531 0.113281 7.257812 0.132812 7.125 0.21875 C 6.988281 0.3125 6.851562 0.320312 6.71875 0.25 C 6.519531 0.144531 6.265625 0.160156 5.953125 0.296875 C 4.773438 0.398438 3.703125 0.285156 2.734375 -0.046875 C 1.453125 -0.515625 0.421875 -1.304688 -0.359375 -2.421875 C -0.390625 -2.585938 -0.445312 -2.738281 -0.53125 -2.875 C -0.613281 -3.007812 -0.6875 -3.128906 -0.75 -3.234375 C -1.289062 -4.171875 -1.585938 -5.132812 -1.640625 -6.125 C -1.691406 -7.125 -1.550781 -8.144531 -1.21875 -9.1875 C -0.601562 -11.039062 0.40625 -12.539062 1.8125 -13.6875 C 2.15625 -13.988281 2.6875 -14.34375 3.40625 -14.75 C 4.132812 -15.15625 4.828125 -15.578125 5.484375 -16.015625 C 6.140625 -16.453125 6.554688 -16.863281 6.734375 -17.25 C 6.921875 -17.632812 6.628906 -17.945312 5.859375 -18.1875 Z M 5.859375 -18.1875 "/></g></g><g style="fill:#ffffff;fill-opacity:1;"><g transform="translate(66.012901, 52.944415)"><path style="stroke:none" d="M 6.921875 -11.109375 L 7.328125 -11.625 C 7.191406 -11.65625 7.070312 -11.675781 6.96875 -11.6875 C 6.863281 -11.707031 6.78125 -11.71875 6.71875 -11.71875 C 6.476562 -11.71875 6.25 -11.71875 6.03125 -11.71875 C 5.8125 -11.71875 5.601562 -11.734375 5.40625 -11.765625 C 5.269531 -11.765625 5.117188 -11.789062 4.953125 -11.84375 C 4.785156 -11.894531 4.617188 -11.9375 4.453125 -11.96875 C 4.210938 -12.070312 4.144531 -12.304688 4.25 -12.671875 C 4.382812 -12.710938 4.515625 -12.75 4.640625 -12.78125 C 4.773438 -12.8125 4.910156 -12.828125 5.046875 -12.828125 C 5.523438 -12.859375 6 -12.890625 6.46875 -12.921875 C 6.9375 -12.960938 7.40625 -12.984375 7.875 -12.984375 C 8.144531 -12.984375 8.378906 -13.039062 8.578125 -13.15625 C 8.785156 -13.28125 9.007812 -13.441406 9.25 -13.640625 C 9.78125 -14.242188 10.316406 -14.847656 10.859375 -15.453125 C 11.398438 -16.054688 11.957031 -16.644531 12.53125 -17.21875 C 13.300781 -17.757812 13.550781 -18.265625 13.28125 -18.734375 C 13.007812 -19.210938 12.335938 -19.429688 11.265625 -19.390625 C 10.390625 -19.359375 9.519531 -19.375 8.65625 -19.4375 C 7.800781 -19.507812 6.96875 -19.695312 6.15625 -20 C 5.457031 -20.269531 4.863281 -20.648438 4.375 -21.140625 C 3.882812 -21.628906 3.554688 -22.257812 3.390625 -23.03125 C 3.316406 -23.332031 3.210938 -23.617188 3.078125 -23.890625 C 2.941406 -24.160156 2.828125 -24.429688 2.734375 -24.703125 C 2.628906 -25.078125 2.757812 -25.28125 3.125 -25.3125 C 3.226562 -25.3125 3.332031 -25.316406 3.4375 -25.328125 C 3.539062 -25.347656 3.625 -25.34375 3.6875 -25.3125 C 4.257812 -25.101562 4.863281 -25.015625 5.5 -25.046875 C 6.144531 -25.085938 6.785156 -25.140625 7.421875 -25.203125 C 7.898438 -25.242188 8.390625 -25.304688 8.890625 -25.390625 C 9.398438 -25.472656 9.875 -25.546875 10.3125 -25.609375 C 11.988281 -25.878906 13.644531 -26.125 15.28125 -26.34375 C 16.914062 -26.5625 18.554688 -26.789062 20.203125 -27.03125 L 25.203125 -27.78125 C 25.640625 -27.851562 26.046875 -27.835938 26.421875 -27.734375 L 25.71875 -27.171875 C 25.414062 -26.972656 25.265625 -26.738281 25.265625 -26.46875 C 25.296875 -26.226562 25.175781 -25.992188 24.90625 -25.765625 C 24.4375 -25.390625 24 -24.984375 23.59375 -24.546875 C 23.1875 -24.109375 22.78125 -23.65625 22.375 -23.1875 C 22.039062 -22.8125 21.695312 -22.429688 21.34375 -22.046875 C 20.988281 -21.660156 20.578125 -21.316406 20.109375 -21.015625 C 19.972656 -20.910156 19.84375 -20.789062 19.71875 -20.65625 C 19.601562 -20.519531 19.476562 -20.367188 19.34375 -20.203125 C 18.769531 -19.566406 18.234375 -18.925781 17.734375 -18.28125 C 17.023438 -17.707031 16.46875 -17.09375 16.0625 -16.4375 C 15.65625 -15.78125 15.460938 -15.191406 15.484375 -14.671875 C 15.503906 -14.148438 15.804688 -13.8125 16.390625 -13.65625 C 16.984375 -13.507812 17.898438 -13.640625 19.140625 -14.046875 C 19.003906 -13.835938 18.953125 -13.640625 18.984375 -13.453125 C 19.023438 -13.273438 19.078125 -13.082031 19.140625 -12.875 C 19.242188 -12.507812 19.078125 -12.257812 18.640625 -12.125 C 18.066406 -11.882812 17.492188 -11.722656 16.921875 -11.640625 C 16.347656 -11.554688 15.773438 -11.566406 15.203125 -11.671875 C 14.972656 -11.703125 14.703125 -11.707031 14.390625 -11.6875 C 14.085938 -11.675781 13.800781 -11.601562 13.53125 -11.46875 C 13.4375 -11.4375 13.328125 -11.375 13.203125 -11.28125 C 13.085938 -11.195312 13.015625 -11.125 12.984375 -11.0625 C 12.816406 -10.65625 12.585938 -10.289062 12.296875 -9.96875 C 12.015625 -9.65625 11.753906 -9.3125 11.515625 -8.9375 C 8.347656 -5.601562 6.941406 -3.582031 7.296875 -2.875 C 7.648438 -2.164062 9.96875 -2.875 14.25 -5 C 14.988281 -5.269531 15.675781 -5.570312 16.3125 -5.90625 C 17.488281 -6.445312 18.632812 -7.019531 19.75 -7.625 C 19.78125 -7.625 19.863281 -7.660156 20 -7.734375 L 20.15625 -6.71875 L 20.0625 -6.359375 C 19.957031 -6.128906 19.867188 -5.910156 19.796875 -5.703125 C 19.734375 -5.503906 19.648438 -5.285156 19.546875 -5.046875 C 19.410156 -4.710938 19.273438 -4.359375 19.140625 -3.984375 C 19.003906 -3.617188 18.851562 -3.269531 18.6875 -2.9375 C 18.21875 -1.925781 17.460938 -1.195312 16.421875 -0.75 C 16.078125 -0.625 15.738281 -0.492188 15.40625 -0.359375 C 15.070312 -0.222656 14.753906 -0.0703125 14.453125 0.09375 C 14.078125 0.332031 13.6875 0.507812 13.28125 0.625 C 12.875 0.75 12.488281 0.894531 12.125 1.0625 C 11.445312 1.332031 10.753906 1.554688 10.046875 1.734375 C 9.335938 1.921875 8.632812 2 7.9375 1.96875 C 7.5 1.96875 7.039062 1.972656 6.5625 1.984375 C 6.09375 2.003906 5.625 2.015625 5.15625 2.015625 C 4.8125 2.015625 4.488281 2.003906 4.1875 1.984375 C 3.882812 1.972656 3.582031 1.953125 3.28125 1.921875 C 2.507812 1.785156 1.734375 1.632812 0.953125 1.46875 C 0.179688 1.300781 -0.585938 1.164062 -1.359375 1.0625 C -1.703125 0.988281 -1.988281 0.882812 -2.21875 0.75 C -2.457031 0.625 -2.578125 0.359375 -2.578125 -0.046875 C -2.578125 -0.347656 -2.78125 -0.648438 -3.1875 -0.953125 C -3.582031 -1.222656 -3.75 -1.578125 -3.6875 -2.015625 C -3.625 -2.453125 -3.335938 -2.820312 -2.828125 -3.125 C -2.722656 -3.226562 -2.570312 -3.28125 -2.375 -3.28125 C -2.207031 -3.351562 -2.046875 -3.40625 -1.890625 -3.4375 C -1.742188 -3.46875 -1.585938 -3.484375 -1.421875 -3.484375 C -0.847656 -3.554688 -0.359375 -3.75 0.046875 -4.0625 C 0.453125 -4.382812 0.859375 -4.710938 1.265625 -5.046875 C 1.492188 -5.285156 1.703125 -5.519531 1.890625 -5.75 C 2.078125 -5.988281 2.289062 -6.226562 2.53125 -6.46875 C 3.238281 -7.238281 3.960938 -8.007812 4.703125 -8.78125 C 5.441406 -9.5625 6.179688 -10.335938 6.921875 -11.109375 Z M 6.921875 -11.109375 "/></g></g><g style="fill:#ffffff;fill-opacity:1;"><g transform="translate(91.576162, 52.944415)"><path style="stroke:none" d="M -0.609375 -8.984375 C -0.703125 -10.097656 -0.628906 -11.203125 -0.390625 -12.296875 C -0.160156 -13.390625 0.15625 -14.492188 0.5625 -15.609375 L 3.125 -22.28125 C 3.226562 -22.550781 3.347656 -22.828125 3.484375 -23.109375 C 3.617188 -23.398438 3.753906 -23.644531 3.890625 -23.84375 L 5.109375 -26.265625 C 5.304688 -26.734375 5.5625 -27.175781 5.875 -27.59375 C 6.195312 -28.019531 6.53125 -28.4375 6.875 -28.84375 C 7.144531 -29.113281 7.429688 -29.28125 7.734375 -29.34375 C 8.035156 -29.414062 8.335938 -29.4375 8.640625 -29.40625 C 8.972656 -29.269531 9.222656 -29.351562 9.390625 -29.65625 C 9.660156 -29.851562 9.929688 -30.046875 10.203125 -30.234375 C 10.472656 -30.421875 10.742188 -30.628906 11.015625 -30.859375 C 11.785156 -31.429688 12.59375 -31.816406 13.4375 -32.015625 C 14.28125 -32.222656 15.125 -32.34375 15.96875 -32.375 C 16.800781 -32.3125 17.40625 -32.09375 17.78125 -31.71875 C 18.113281 -31.382812 18.429688 -31.054688 18.734375 -30.734375 C 19.046875 -30.421875 19.351562 -30.078125 19.65625 -29.703125 C 20.019531 -29.265625 20.300781 -28.75 20.5 -28.15625 C 20.707031 -27.570312 20.894531 -26.957031 21.0625 -26.3125 C 21.269531 -25.707031 21.394531 -25.066406 21.4375 -24.390625 C 21.488281 -23.722656 21.5 -23.050781 21.46875 -22.375 C 21.363281 -21.269531 21.078125 -20.242188 20.609375 -19.296875 C 20.578125 -19.234375 20.5625 -19.132812 20.5625 -19 C 20.5625 -18.863281 20.523438 -18.757812 20.453125 -18.6875 C 20.453125 -18.414062 20.441406 -18.132812 20.421875 -17.84375 C 20.410156 -17.5625 20.40625 -17.289062 20.40625 -17.03125 C 20.34375 -16.457031 20.234375 -15.882812 20.078125 -15.3125 C 19.929688 -14.738281 19.835938 -14.164062 19.796875 -13.59375 C 19.765625 -12.914062 19.640625 -12.238281 19.421875 -11.5625 C 19.203125 -10.894531 19.007812 -10.222656 18.84375 -9.546875 C 18.769531 -9.109375 18.640625 -8.6875 18.453125 -8.28125 C 18.273438 -7.875 18.101562 -7.453125 17.9375 -7.015625 C 17.800781 -6.484375 17.570312 -5.960938 17.25 -5.453125 C 16.925781 -4.953125 16.613281 -4.445312 16.3125 -3.9375 C 16.28125 -3.800781 16.203125 -3.664062 16.078125 -3.53125 C 15.960938 -3.394531 15.875 -3.257812 15.8125 -3.125 C 15.375 -2.6875 14.953125 -2.257812 14.546875 -1.84375 C 14.140625 -1.425781 13.703125 -0.976562 13.234375 -0.5 C 12.796875 -0.0625 12.304688 0.3125 11.765625 0.625 C 11.234375 0.945312 10.628906 1.191406 9.953125 1.359375 C 9.816406 1.429688 9.671875 1.484375 9.515625 1.515625 C 9.367188 1.546875 9.210938 1.597656 9.046875 1.671875 C 8.535156 1.941406 8.03125 1.988281 7.53125 1.8125 C 7.363281 1.78125 7.1875 1.75 7 1.71875 C 6.8125 1.6875 6.632812 1.671875 6.46875 1.671875 C 5.625 1.628906 4.847656 1.359375 4.140625 0.859375 C 2.421875 -0.253906 1.175781 -1.703125 0.40625 -3.484375 C 0.0703125 -4.253906 -0.171875 -5.066406 -0.328125 -5.921875 C -0.484375 -6.785156 -0.5625 -7.65625 -0.5625 -8.53125 C -0.59375 -8.601562 -0.597656 -8.679688 -0.578125 -8.765625 C -0.566406 -8.847656 -0.578125 -8.921875 -0.609375 -8.984375 Z M 4.1875 -14.90625 C 4.15625 -14.738281 4.128906 -14.578125 4.109375 -14.421875 C 4.097656 -14.265625 4.09375 -14.125 4.09375 -14 C 3.988281 -13.65625 3.921875 -13.320312 3.890625 -13 C 3.859375 -12.6875 3.820312 -12.394531 3.78125 -12.125 C 3.75 -11.820312 3.707031 -11.535156 3.65625 -11.265625 C 3.613281 -10.992188 3.59375 -10.722656 3.59375 -10.453125 C 3.65625 -10.015625 3.734375 -9.601562 3.828125 -9.21875 C 3.929688 -8.832031 4.003906 -8.4375 4.046875 -8.03125 C 4.210938 -7.320312 4.367188 -6.640625 4.515625 -5.984375 C 4.671875 -5.328125 4.800781 -4.660156 4.90625 -3.984375 C 4.96875 -3.546875 5.082031 -3.148438 5.25 -2.796875 C 5.414062 -2.441406 5.6875 -2.132812 6.0625 -1.875 C 6.46875 -1.601562 6.804688 -1.566406 7.078125 -1.765625 C 7.410156 -1.929688 7.742188 -2.085938 8.078125 -2.234375 C 8.421875 -2.390625 8.722656 -2.585938 8.984375 -2.828125 C 9.960938 -3.703125 10.875 -4.632812 11.71875 -5.625 C 12.5625 -6.625 13.300781 -7.710938 13.9375 -8.890625 C 14.644531 -10.203125 15.242188 -11.570312 15.734375 -13 C 16.222656 -14.4375 16.601562 -15.894531 16.875 -17.375 C 17.039062 -18.320312 17.179688 -19.304688 17.296875 -20.328125 C 17.421875 -21.359375 17.5 -22.34375 17.53125 -23.28125 C 17.5625 -24.09375 17.328125 -24.753906 16.828125 -25.265625 C 16.390625 -25.765625 15.832031 -25.914062 15.15625 -25.71875 C 15.019531 -25.644531 14.859375 -25.582031 14.671875 -25.53125 C 14.484375 -25.476562 14.304688 -25.390625 14.140625 -25.265625 C 13.910156 -25.191406 13.691406 -25.003906 13.484375 -24.703125 C 13.210938 -24.265625 12.953125 -23.832031 12.703125 -23.40625 C 12.453125 -22.988281 12.191406 -22.5625 11.921875 -22.125 C 11.753906 -21.820312 11.566406 -21.535156 11.359375 -21.265625 C 11.160156 -20.992188 10.992188 -20.675781 10.859375 -20.3125 C 10.753906 -19.96875 10.644531 -19.644531 10.53125 -19.34375 C 10.414062 -19.039062 10.273438 -18.722656 10.109375 -18.390625 C 9.972656 -18.285156 9.90625 -18.164062 9.90625 -18.03125 C 9.664062 -17.425781 9.410156 -16.84375 9.140625 -16.28125 C 8.867188 -15.726562 8.617188 -15.164062 8.390625 -14.59375 C 8.390625 -14.457031 8.328125 -14.347656 8.203125 -14.265625 C 8.085938 -14.179688 7.960938 -14.140625 7.828125 -14.140625 C 7.628906 -14.140625 7.4375 -14.128906 7.25 -14.109375 C 7.0625 -14.097656 6.882812 -14.144531 6.71875 -14.25 C 6.382812 -14.445312 6.003906 -14.578125 5.578125 -14.640625 C 5.160156 -14.710938 4.695312 -14.800781 4.1875 -14.90625 Z M 4.1875 -14.90625 "/></g></g></g></svg>