<?xml version="1.0" encoding="UTF-8"?>
<svg version="1.1" xmlns="http://www.w3.org/2000/svg" width="512" height="512">
<path d="M0 0 C0.77085937 0.00386719 1.54171875 0.00773437 2.3359375 0.01171875 C3.08359375 0.00785156 3.83125 0.00398438 4.6015625 0 C9.23335459 0.00806932 13.62342083 0.43180765 18.2109375 1.13671875 C19.58541099 1.17476646 20.96170715 1.18271809 22.3359375 1.13671875 C25.52408549 1.13671875 28.1408247 1.36919055 31.2109375 2.13671875 C31.2109375 1.47671875 31.2109375 0.81671875 31.2109375 0.13671875 C32.0771875 0.63171875 32.0771875 0.63171875 32.9609375 1.13671875 C36.14351599 2.55119808 39.08827605 2.13932241 42.5234375 2.06640625 C43.7403125 2.04835938 44.9571875 2.0303125 46.2109375 2.01171875 C47.4278125 1.98851563 48.6446875 1.9653125 49.8984375 1.94140625 C53.06471082 2.12809689 54.53140907 2.60207974 57.2109375 4.13671875 C58.4484375 4.07484375 58.4484375 4.07484375 59.7109375 4.01171875 C62.2109375 4.13671875 62.2109375 4.13671875 64.1484375 6.19921875 C64.8290625 6.83859375 65.5096875 7.47796875 66.2109375 8.13671875 C67.0978125 7.93046875 67.9846875 7.72421875 68.8984375 7.51171875 C73.55090266 6.98502458 75.69307908 8.9397589 79.453125 11.49609375 C80.03320312 12.0375 80.61328125 12.57890625 81.2109375 13.13671875 C81.2109375 14.12671875 81.2109375 15.11671875 81.2109375 16.13671875 C83.5209375 16.79671875 85.8309375 17.45671875 88.2109375 18.13671875 C88.58944959 24.06674142 87.31669125 28.60911516 85.2109375 34.13671875 C84.2209375 34.13671875 83.2309375 34.13671875 82.2109375 34.13671875 C82.5409375 35.12671875 82.8709375 36.11671875 83.2109375 37.13671875 C82.5715625 37.38421875 81.9321875 37.63171875 81.2734375 37.88671875 C79.02352209 38.95234308 79.02352209 38.95234308 78.4609375 41.26171875 C78.3784375 41.88046875 78.2959375 42.49921875 78.2109375 43.13671875 C76.2309375 43.13671875 74.2509375 43.13671875 72.2109375 43.13671875 C72.1078125 43.75546875 72.0046875 44.37421875 71.8984375 45.01171875 C71.2109375 47.13671875 71.2109375 47.13671875 68.2109375 49.13671875 C66.54427083 49.13671875 64.87760417 49.13671875 63.2109375 49.13671875 C60.95961233 50.05240781 60.95961233 50.05240781 59.2109375 51.13671875 C59.2728125 52.18859375 59.2728125 52.18859375 59.3359375 53.26171875 C59.12082509 58.20930412 57.6792298 62.52969476 54.2109375 66.13671875 C53.2209375 66.13671875 52.2309375 66.13671875 51.2109375 66.13671875 C51.2109375 64.15671875 51.2109375 62.17671875 51.2109375 60.13671875 C52.6959375 59.64171875 52.6959375 59.64171875 54.2109375 59.13671875 C54.0253125 58.51796875 53.8396875 57.89921875 53.6484375 57.26171875 C53.2109375 55.13671875 53.2109375 55.13671875 54.2109375 53.13671875 C54.8709375 53.13671875 55.5309375 53.13671875 56.2109375 53.13671875 C56.35789062 52.08871094 56.35789062 52.08871094 56.5078125 51.01953125 C56.65734375 50.10945313 56.806875 49.199375 56.9609375 48.26171875 C57.10015625 47.35679687 57.239375 46.451875 57.3828125 45.51953125 C58.2109375 43.13671875 58.2109375 43.13671875 60.24609375 42.0234375 C60.89449219 41.73082031 61.54289062 41.43820313 62.2109375 41.13671875 C62.97616551 37.7821372 62.97616551 37.7821372 63.2109375 34.13671875 C64.05304276 29.29461349 64.05304276 29.29461349 65.2109375 28.13671875 C65.67425187 22.26025844 65.67425187 22.26025844 63.2109375 17.13671875 C62.2209375 17.13671875 61.2309375 17.13671875 60.2109375 17.13671875 C59.8809375 16.47671875 59.5509375 15.81671875 59.2109375 15.13671875 C57.18630495 14.48458583 57.18630495 14.48458583 55.2109375 14.13671875 C55.2109375 13.47671875 55.2109375 12.81671875 55.2109375 12.13671875 C54.2828125 12.36359375 53.3546875 12.59046875 52.3984375 12.82421875 C47.81389433 13.53674489 43.98491565 12.08717788 39.6640625 10.6328125 C38.85453125 10.46910156 38.045 10.30539063 37.2109375 10.13671875 C35.7259375 11.12671875 35.7259375 11.12671875 34.2109375 12.13671875 C33.2209375 11.80671875 32.2309375 11.47671875 31.2109375 11.13671875 C31.2109375 10.47671875 31.2109375 9.81671875 31.2109375 9.13671875 C30.5509375 9.13671875 29.8909375 9.13671875 29.2109375 9.13671875 C28.8809375 10.12671875 28.5509375 11.11671875 28.2109375 12.13671875 C27.5509375 12.13671875 26.8909375 12.13671875 26.2109375 12.13671875 C25.8809375 11.47671875 25.5509375 10.81671875 25.2109375 10.13671875 C23.8909375 10.46671875 22.5709375 10.79671875 21.2109375 11.13671875 C21.2109375 10.47671875 21.2109375 9.81671875 21.2109375 9.13671875 C20.5509375 9.13671875 19.8909375 9.13671875 19.2109375 9.13671875 C19.2109375 9.79671875 19.2109375 10.45671875 19.2109375 11.13671875 C16.2409375 11.46671875 13.2709375 11.79671875 10.2109375 12.13671875 C9.5509375 10.81671875 8.8909375 9.49671875 8.2109375 8.13671875 C7.5509375 8.13671875 6.8909375 8.13671875 6.2109375 8.13671875 C6.2109375 8.79671875 6.2109375 9.45671875 6.2109375 10.13671875 C5.31890625 10.19730469 4.426875 10.25789063 3.5078125 10.3203125 C1.75210938 10.44599609 1.75210938 10.44599609 -0.0390625 10.57421875 C-1.19921875 10.65542969 -2.359375 10.73664063 -3.5546875 10.8203125 C-6.09883626 11.06919662 -8.34859498 11.41786817 -10.7890625 12.13671875 C-10.7890625 12.79671875 -10.7890625 13.45671875 -10.7890625 14.13671875 C-14.4190625 14.13671875 -18.0490625 14.13671875 -21.7890625 14.13671875 C-22.4490625 15.78671875 -23.1090625 17.43671875 -23.7890625 19.13671875 C-26.2890625 20.26171875 -26.2890625 20.26171875 -29.7890625 21.13671875 C-30.59472656 21.40613281 -31.40039062 21.67554687 -32.23046875 21.953125 C-33.09542969 22.24058594 -33.96039063 22.52804688 -34.8515625 22.82421875 C-35.66753906 23.09621094 -36.48351562 23.36820313 -37.32421875 23.6484375 C-40.12261623 24.20279516 -42.05292063 23.86343023 -44.7890625 23.13671875 C-44.7890625 25.11671875 -44.7890625 27.09671875 -44.7890625 29.13671875 C-45.7790625 29.13671875 -46.7690625 29.13671875 -47.7890625 29.13671875 C-48.1190625 30.12671875 -48.4490625 31.11671875 -48.7890625 32.13671875 C-49.50191406 32.06453125 -50.21476562 31.99234375 -50.94921875 31.91796875 C-56.25699677 31.40362149 -61.45697679 31.01822796 -66.7890625 31.13671875 C-66.8921875 31.89984375 -66.9953125 32.66296875 -67.1015625 33.44921875 C-67.7890625 36.13671875 -67.7890625 36.13671875 -68.8515625 38.01171875 C-72.11913269 39.90901757 -75.15813126 38.79147684 -78.7890625 38.13671875 C-78.7890625 39.12671875 -78.7890625 40.11671875 -78.7890625 41.13671875 C-79.7790625 41.13671875 -80.7690625 41.13671875 -81.7890625 41.13671875 C-82.1190625 42.12671875 -82.4490625 43.11671875 -82.7890625 44.13671875 C-83.4490625 44.13671875 -84.1090625 44.13671875 -84.7890625 44.13671875 C-84.7890625 44.79671875 -84.7890625 45.45671875 -84.7890625 46.13671875 C-85.7790625 46.13671875 -86.7690625 46.13671875 -87.7890625 46.13671875 C-87.7890625 46.79671875 -87.7890625 47.45671875 -87.7890625 48.13671875 C-88.7790625 48.46671875 -89.7690625 48.79671875 -90.7890625 49.13671875 C-91.1190625 50.12671875 -91.4490625 51.11671875 -91.7890625 52.13671875 C-94.70986055 54.21202262 -96.16452981 55.13671875 -99.7890625 55.13671875 C-99.7890625 56.12671875 -99.7890625 57.11671875 -99.7890625 58.13671875 C-101.1015625 60.32421875 -101.1015625 60.32421875 -102.7890625 62.13671875 C-103.7790625 62.13671875 -104.7690625 62.13671875 -105.7890625 62.13671875 C-106.1190625 64.11671875 -106.4490625 66.09671875 -106.7890625 68.13671875 C-106.1290625 68.13671875 -105.4690625 68.13671875 -104.7890625 68.13671875 C-104.7890625 69.12671875 -104.7890625 70.11671875 -104.7890625 71.13671875 C-105.7378125 70.95109375 -106.6865625 70.76546875 -107.6640625 70.57421875 C-110.68775043 69.84985243 -110.68775043 69.84985243 -112.7890625 71.13671875 C-113.4490625 72.12671875 -114.1090625 73.11671875 -114.7890625 74.13671875 C-115.7790625 73.80671875 -116.7690625 73.47671875 -117.7890625 73.13671875 C-121.85732306 74.4928056 -123.96352159 76.65074512 -126.0390625 80.38671875 C-126.4103125 81.25296875 -126.4103125 81.25296875 -126.7890625 82.13671875 C-127.4490625 82.13671875 -128.1090625 82.13671875 -128.7890625 82.13671875 C-128.7890625 82.46671875 -128.7890625 82.79671875 -128.7890625 83.13671875 C-125.8190625 84.12671875 -125.8190625 84.12671875 -122.7890625 85.13671875 C-123.5625 86.49796875 -123.5625 86.49796875 -124.3515625 87.88671875 C-125.98230792 90.86253285 -125.98230792 90.86253285 -125.6015625 93.19921875 C-125.199375 94.15828125 -125.199375 94.15828125 -124.7890625 95.13671875 C-124.4384375 96.04421875 -124.0878125 96.95171875 -123.7265625 97.88671875 C-123.4171875 98.62921875 -123.1078125 99.37171875 -122.7890625 100.13671875 C-124.1090625 100.46671875 -125.4290625 100.79671875 -126.7890625 101.13671875 C-126.4590625 103.11671875 -126.1290625 105.09671875 -125.7890625 107.13671875 C-124.7990625 107.13671875 -123.8090625 107.13671875 -122.7890625 107.13671875 C-122.7890625 107.79671875 -122.7890625 108.45671875 -122.7890625 109.13671875 C-122.0259375 109.42546875 -121.2628125 109.71421875 -120.4765625 110.01171875 C-117.7890625 111.13671875 -117.7890625 111.13671875 -114.7890625 113.13671875 C-112.7983607 113.34048855 -112.7983607 113.34048855 -110.7265625 113.19921875 C-106.7890625 113.13671875 -106.7890625 113.13671875 -104.7890625 114.13671875 C-104.7890625 114.79671875 -104.7890625 115.45671875 -104.7890625 116.13671875 C-103.6753125 115.82734375 -103.6753125 115.82734375 -102.5390625 115.51171875 C-99.35546065 115.07759123 -98.54107434 115.67471246 -95.7890625 117.13671875 C-94.9434375 117.13671875 -94.0978125 117.13671875 -93.2265625 117.13671875 C-90.7890625 117.13671875 -90.7890625 117.13671875 -87.7890625 119.13671875 C-86.7990625 119.13671875 -85.8090625 119.13671875 -84.7890625 119.13671875 C-84.1290625 119.79671875 -83.4690625 120.45671875 -82.7890625 121.13671875 C-80.9325532 121.52443275 -80.9325532 121.52443275 -78.8046875 121.6328125 C-72.72854917 122.18618378 -66.85741553 123.48989625 -60.8984375 124.76367188 C-56.75701336 125.62541638 -53.03038513 126.19089623 -48.7890625 126.13671875 C-46.7265625 126.79296875 -46.7265625 126.79296875 -44.7890625 127.63671875 C-41.57359034 128.92891784 -39.26915838 129.22595198 -35.7890625 129.13671875 C-33.44499318 129.76459446 -31.11112775 130.43180608 -28.7890625 131.13671875 C-27.8403125 131.30171875 -26.8915625 131.46671875 -25.9140625 131.63671875 C-25.2128125 131.80171875 -24.5115625 131.96671875 -23.7890625 132.13671875 C-23.4590625 132.79671875 -23.1290625 133.45671875 -22.7890625 134.13671875 C-21.7990625 134.46671875 -20.8090625 134.79671875 -19.7890625 135.13671875 C-19.4590625 135.79671875 -19.1290625 136.45671875 -18.7890625 137.13671875 C-17.4690625 136.47671875 -16.1490625 135.81671875 -14.7890625 135.13671875 C-13.7990625 135.79671875 -12.8090625 136.45671875 -11.7890625 137.13671875 C-10.66564453 137.32814453 -10.66564453 137.32814453 -9.51953125 137.5234375 C-5.95567285 138.32390355 -3.16236179 140.03925226 -0.1015625 141.94921875 C0.47916016 142.29275391 1.05988281 142.63628906 1.65820312 142.99023438 C4.94400227 145.01489443 6.75976346 146.55922554 8.2109375 150.13671875 C8.8709375 150.46671875 9.5309375 150.79671875 10.2109375 151.13671875 C10.2109375 151.79671875 10.2109375 152.45671875 10.2109375 153.13671875 C10.7678125 153.16507813 11.3246875 153.1934375 11.8984375 153.22265625 C17.51285367 153.92445827 20.12640014 155.59598432 23.7109375 160.01171875 C25.99328545 163.04579241 27.4943765 165.40899132 28.2109375 169.13671875 C28.5615625 169.81734375 28.9121875 170.49796875 29.2734375 171.19921875 C30.2109375 173.13671875 30.2109375 173.13671875 30.2109375 176.13671875 C31.5309375 176.13671875 32.8509375 176.13671875 34.2109375 176.13671875 C34.29207856 177.90679589 34.35019255 179.67793973 34.3984375 181.44921875 C34.43324219 182.43535156 34.46804688 183.42148437 34.50390625 184.4375 C34.2109375 187.13671875 34.2109375 187.13671875 32.69921875 188.9921875 C32.20808594 189.36988281 31.71695312 189.74757813 31.2109375 190.13671875 C31.8709375 191.45671875 32.5309375 192.77671875 33.2109375 194.13671875 C31.7259375 195.12671875 31.7259375 195.12671875 30.2109375 196.13671875 C29.48711283 198.19597014 29.48711283 198.19597014 29.2109375 200.13671875 C28.5509375 200.13671875 27.8909375 200.13671875 27.2109375 200.13671875 C26.47922206 202.41316678 26.09689131 203.743893 26.7734375 206.07421875 C27.38032961 208.93528156 26.37161864 210.49294503 25.2109375 213.13671875 C24.85480653 214.79866328 24.51885442 216.46516975 24.2109375 218.13671875 C23.8809375 219.12671875 23.5509375 220.11671875 23.2109375 221.13671875 C21.1484375 221.82421875 21.1484375 221.82421875 19.2109375 222.13671875 C19.5409375 222.46671875 19.8709375 222.79671875 20.2109375 223.13671875 C20.25157582 224.8028899 20.2536585 226.4705997 20.2109375 228.13671875 C20.8709375 228.13671875 21.5309375 228.13671875 22.2109375 228.13671875 C22.2109375 229.45671875 22.2109375 230.77671875 22.2109375 232.13671875 C20.3359375 231.82421875 20.3359375 231.82421875 18.2109375 231.13671875 C16.2109375 228.13671875 16.2109375 228.13671875 16.2109375 224.13671875 C15.5509375 224.13671875 14.8909375 224.13671875 14.2109375 224.13671875 C14.5409375 227.10671875 14.8709375 230.07671875 15.2109375 233.13671875 C12.9009375 233.13671875 10.5909375 233.13671875 8.2109375 233.13671875 C8.2109375 233.79671875 8.2109375 234.45671875 8.2109375 235.13671875 C6.19270833 235.29947917 4.17447917 235.46223958 2.15625 235.625 C-0.18425466 236.01064911 -0.18425466 236.01064911 -1.7890625 239.13671875 C-1.3146875 239.50796875 -0.8403125 239.87921875 -0.3515625 240.26171875 C1.77399536 242.81238818 2.00201566 244.86360992 2.2109375 248.13671875 C1.5509375 248.79671875 0.8909375 249.45671875 0.2109375 250.13671875 C-0.7790625 250.13671875 -1.7690625 250.13671875 -2.7890625 250.13671875 C-2.7890625 248.81671875 -2.7890625 247.49671875 -2.7890625 246.13671875 C-5.4290625 246.46671875 -8.0690625 246.79671875 -10.7890625 247.13671875 C-11.1190625 248.12671875 -11.4490625 249.11671875 -11.7890625 250.13671875 C-12.7790625 250.13671875 -13.7690625 250.13671875 -14.7890625 250.13671875 C-14.7890625 251.12671875 -14.7890625 252.11671875 -14.7890625 253.13671875 C-15.4284375 252.80671875 -16.0678125 252.47671875 -16.7265625 252.13671875 C-18.55700817 251.0640065 -18.55700817 251.0640065 -19.7890625 251.13671875 C-19.7478125 252.25046875 -19.7065625 253.36421875 -19.6640625 254.51171875 C-19.7890625 258.13671875 -19.7890625 258.13671875 -21.7890625 260.13671875 C-24.390625 260.55078125 -24.390625 260.55078125 -27.4140625 260.76171875 C-28.41695313 260.83648437 -29.41984375 260.91125 -30.453125 260.98828125 C-31.22398437 261.03726562 -31.99484375 261.08625 -32.7890625 261.13671875 C-33.1190625 262.45671875 -33.4490625 263.77671875 -33.7890625 265.13671875 C-34.7790625 265.13671875 -35.7690625 265.13671875 -36.7890625 265.13671875 C-37.4490625 264.14671875 -38.1090625 263.15671875 -38.7890625 262.13671875 C-39.4490625 262.13671875 -40.1090625 262.13671875 -40.7890625 262.13671875 C-40.5828125 262.92046875 -40.3765625 263.70421875 -40.1640625 264.51171875 C-40.0403125 265.37796875 -39.9165625 266.24421875 -39.7890625 267.13671875 C-41.7890625 269.13671875 -41.7890625 269.13671875 -43.84765625 269.3671875 C-44.63269531 269.35300781 -45.41773438 269.33882813 -46.2265625 269.32421875 C-47.00902344 269.31777344 -47.79148437 269.31132812 -48.59765625 269.3046875 C-50.7890625 269.13671875 -50.7890625 269.13671875 -53.7890625 268.13671875 C-53.4178125 269.06484375 -53.0465625 269.99296875 -52.6640625 270.94921875 C-52.2309375 272.52703125 -52.2309375 272.52703125 -51.7890625 274.13671875 C-53.92806966 277.34522948 -54.17778811 277.5710621 -57.6640625 278.38671875 C-58.68113281 278.64195312 -58.68113281 278.64195312 -59.71875 278.90234375 C-62.00290289 279.1609271 -63.6099838 278.82073449 -65.7890625 278.13671875 C-65.4590625 279.78671875 -65.1290625 281.43671875 -64.7890625 283.13671875 C-65.5934375 282.97171875 -66.3978125 282.80671875 -67.2265625 282.63671875 C-69.5175068 282.10480036 -69.5175068 282.10480036 -70.7890625 282.13671875 C-70.7890625 283.45671875 -70.7890625 284.77671875 -70.7890625 286.13671875 C-69.7990625 286.46671875 -68.8090625 286.79671875 -67.7890625 287.13671875 C-67.7890625 287.79671875 -67.7890625 288.45671875 -67.7890625 289.13671875 C-69.24648713 289.21768678 -70.70519057 289.27589649 -72.1640625 289.32421875 C-72.97617187 289.35902344 -73.78828125 289.39382813 -74.625 289.4296875 C-75.33914063 289.33300781 -76.05328125 289.23632812 -76.7890625 289.13671875 C-77.4490625 288.14671875 -78.1090625 287.15671875 -78.7890625 286.13671875 C-79.7790625 285.80671875 -80.7690625 285.47671875 -81.7890625 285.13671875 C-82.0571875 285.92046875 -82.3253125 286.70421875 -82.6015625 287.51171875 C-83.7890625 290.13671875 -83.7890625 290.13671875 -86.7890625 292.13671875 C-87.4490625 291.80671875 -88.1090625 291.47671875 -88.7890625 291.13671875 C-89.1190625 292.12671875 -89.4490625 293.11671875 -89.7890625 294.13671875 C-92.2265625 293.32421875 -92.2265625 293.32421875 -94.7890625 292.13671875 C-95.1190625 291.14671875 -95.4490625 290.15671875 -95.7890625 289.13671875 C-94.7890625 287.13671875 -94.7890625 287.13671875 -91.7890625 286.13671875 C-93.62607039 285.36429606 -93.62607039 285.36429606 -95.7890625 285.13671875 C-97.43247683 286.57164142 -97.43247683 286.57164142 -98.7890625 288.13671875 C-98.5003125 288.69101562 -98.2115625 289.2453125 -97.9140625 289.81640625 C-97.5428125 290.54085938 -97.1715625 291.2653125 -96.7890625 292.01171875 C-96.4178125 292.73101562 -96.0465625 293.4503125 -95.6640625 294.19140625 C-94.7890625 296.13671875 -94.7890625 296.13671875 -94.7890625 298.13671875 C-97.7890625 300.13671875 -97.7890625 300.13671875 -100.4765625 299.76171875 C-101.62125 299.45234375 -101.62125 299.45234375 -102.7890625 299.13671875 C-103.2221875 297.68265625 -103.2221875 297.68265625 -103.6640625 296.19921875 C-104.43120932 293.03007672 -104.43120932 293.03007672 -106.7890625 292.13671875 C-108.1090625 292.13671875 -109.4290625 292.13671875 -110.7890625 292.13671875 C-111.1190625 293.78671875 -111.4490625 295.43671875 -111.7890625 297.13671875 C-112.4490625 297.13671875 -113.1090625 297.13671875 -113.7890625 297.13671875 C-114.1190625 298.45671875 -114.4490625 299.77671875 -114.7890625 301.13671875 C-117.2265625 300.01171875 -117.2265625 300.01171875 -119.7890625 298.13671875 C-120.6015625 294.94921875 -120.6015625 294.94921875 -120.7890625 292.13671875 C-121.4490625 292.13671875 -122.1090625 292.13671875 -122.7890625 292.13671875 C-123.1190625 291.47671875 -123.4490625 290.81671875 -123.7890625 290.13671875 C-126.16335546 289.88601962 -126.16335546 289.88601962 -128.7890625 290.13671875 C-129.5315625 290.91015625 -129.5315625 290.91015625 -130.2890625 291.69921875 C-130.7840625 292.17359375 -131.2790625 292.64796875 -131.7890625 293.13671875 C-134.4765625 292.82421875 -134.4765625 292.82421875 -136.7890625 292.13671875 C-138.64867664 296.38726535 -139.72110815 300.636054 -140.7890625 305.13671875 C-143.0990625 305.13671875 -145.4090625 305.13671875 -147.7890625 305.13671875 C-149.39970879 301.48592049 -150.23800341 298.08597555 -150.7890625 294.13671875 C-151.66773979 297.87109723 -151.87818469 301.30446448 -151.7890625 305.13671875 C-153.4390625 305.46671875 -155.0890625 305.79671875 -156.7890625 306.13671875 C-157.1190625 305.14671875 -157.4490625 304.15671875 -157.7890625 303.13671875 C-158.4078125 302.99234375 -159.0265625 302.84796875 -159.6640625 302.69921875 C-162.56487689 301.93135612 -163.26941052 300.66947205 -164.7890625 298.13671875 C-165.4765625 295.88671875 -165.4765625 295.88671875 -165.7890625 294.13671875 C-165.9746875 295.25046875 -166.1603125 296.36421875 -166.3515625 297.51171875 C-166.8259375 298.70796875 -167.3003125 299.90421875 -167.7890625 301.13671875 C-171.2890625 302.38671875 -171.2890625 302.38671875 -174.7890625 303.13671875 C-175.4490625 304.12671875 -176.1090625 305.11671875 -176.7890625 306.13671875 C-182.18446544 306.66741412 -185.34353408 306.50454331 -189.7890625 303.13671875 C-190.1190625 302.80671875 -190.4490625 302.47671875 -190.7890625 302.13671875 C-192.45515237 302.09287428 -194.12286804 302.09704745 -195.7890625 302.13671875 C-196.7790625 302.13671875 -197.7690625 302.13671875 -198.7890625 302.13671875 C-200.31143505 302.28868464 -201.8322747 302.45650669 -203.3515625 302.63671875 C-205.5218405 302.89330334 -207.60377547 303.13671875 -209.7890625 303.13671875 C-210.2634375 302.33234375 -210.7378125 301.52796875 -211.2265625 300.69921875 C-212.58889922 297.84491115 -212.58889922 297.84491115 -215.7890625 297.13671875 C-216.4490625 298.12671875 -217.1090625 299.11671875 -217.7890625 300.13671875 C-219.953125 300.4296875 -219.953125 300.4296875 -222.4140625 300.32421875 C-223.23132813 300.29714844 -224.04859375 300.27007812 -224.890625 300.2421875 C-225.83035156 300.18998047 -225.83035156 300.18998047 -226.7890625 300.13671875 C-227.2840625 298.65171875 -227.2840625 298.65171875 -227.7890625 297.13671875 C-229.77473958 297.16927083 -231.76041667 297.20182292 -233.74609375 297.234375 C-235.7890625 297.13671875 -235.7890625 297.13671875 -238.7890625 296.13671875 C-240.0265625 296.22953125 -240.0265625 296.22953125 -241.2890625 296.32421875 C-242.1140625 296.26234375 -242.9390625 296.20046875 -243.7890625 296.13671875 C-244.2015625 295.49734375 -244.6140625 294.85796875 -245.0390625 294.19921875 C-247.17026144 291.68744856 -247.85808784 291.79650195 -251.0390625 291.51171875 C-251.82667969 291.45886719 -252.61429687 291.40601563 -253.42578125 291.3515625 C-256.72702379 291.05144954 -259.63789036 290.14241199 -262.7890625 289.13671875 C-262.7890625 288.47671875 -262.7890625 287.81671875 -262.7890625 287.13671875 C-263.5109375 286.86859375 -264.2328125 286.60046875 -264.9765625 286.32421875 C-267.77997631 285.14055514 -270.21127314 283.7478371 -272.7890625 282.13671875 C-273.6553125 281.62109375 -274.5215625 281.10546875 -275.4140625 280.57421875 C-277.2334848 279.47298946 -279.01951168 278.3164193 -280.7890625 277.13671875 C-280.7890625 276.47671875 -280.7890625 275.81671875 -280.7890625 275.13671875 C-281.64757812 274.74806641 -281.64757812 274.74806641 -282.5234375 274.3515625 C-284.98522053 273.03153746 -286.92379685 271.5206975 -289.0390625 269.69921875 C-289.74546875 269.10238281 -290.451875 268.50554687 -291.1796875 267.890625 C-292.7890625 266.13671875 -292.7890625 266.13671875 -292.7890625 263.13671875 C-294.1090625 263.13671875 -295.4290625 263.13671875 -296.7890625 263.13671875 C-296.7890625 261.48671875 -296.7890625 259.83671875 -296.7890625 258.13671875 C-297.5728125 257.93046875 -298.3565625 257.72421875 -299.1640625 257.51171875 C-301.7890625 256.13671875 -301.7890625 256.13671875 -303.1015625 253.01171875 C-303.3284375 252.06296875 -303.5553125 251.11421875 -303.7890625 250.13671875 C-304.4490625 250.13671875 -305.1090625 250.13671875 -305.7890625 250.13671875 C-306.2840625 247.66171875 -306.2840625 247.66171875 -306.7890625 245.13671875 C-307.4490625 245.13671875 -308.1090625 245.13671875 -308.7890625 245.13671875 C-308.9128125 244.41484375 -309.0365625 243.69296875 -309.1640625 242.94921875 C-309.71128747 240.12108395 -309.71128747 240.12108395 -310.8515625 237.51171875 C-311.7890625 235.13671875 -311.7890625 235.13671875 -311.7890625 232.13671875 C-312.4490625 232.13671875 -313.1090625 232.13671875 -313.7890625 232.13671875 C-313.9334375 231.33234375 -314.0778125 230.52796875 -314.2265625 229.69921875 C-314.53041499 227.21568169 -314.53041499 227.21568169 -315.7890625 226.13671875 C-315.82987033 224.13713511 -315.83160606 222.13626621 -315.7890625 220.13671875 C-316.4490625 220.13671875 -317.1090625 220.13671875 -317.7890625 220.13671875 C-317.7890625 219.47671875 -317.7890625 218.81671875 -317.7890625 218.13671875 C-319.7690625 218.46671875 -321.7490625 218.79671875 -323.7890625 219.13671875 C-323.7890625 218.14671875 -323.7890625 217.15671875 -323.7890625 216.13671875 C-325.1090625 216.13671875 -326.4290625 216.13671875 -327.7890625 216.13671875 C-329.3515625 214.76171875 -329.3515625 214.76171875 -330.7890625 213.13671875 C-331.7790625 212.47671875 -332.7690625 211.81671875 -333.7890625 211.13671875 C-333.7890625 210.14671875 -333.7890625 209.15671875 -333.7890625 208.13671875 C-334.5728125 207.95109375 -335.3565625 207.76546875 -336.1640625 207.57421875 C-338.7890625 206.13671875 -338.7890625 206.13671875 -339.9140625 202.94921875 C-340.3471875 201.06203125 -340.3471875 201.06203125 -340.7890625 199.13671875 C-341.3459375 197.94046875 -341.9028125 196.74421875 -342.4765625 195.51171875 C-343.89018426 191.87669136 -343.90255045 190.75555459 -342.7890625 187.13671875 C-341.85706789 182.83548453 -341.85706789 182.83548453 -342.5390625 178.57421875 C-342.6215625 177.76984375 -342.7040625 176.96546875 -342.7890625 176.13671875 C-340.3515625 173.44921875 -340.3515625 173.44921875 -337.7890625 171.13671875 C-337.7890625 170.47671875 -337.7890625 169.81671875 -337.7890625 169.13671875 C-337.1290625 169.13671875 -336.4690625 169.13671875 -335.7890625 169.13671875 C-335.7890625 168.47671875 -335.7890625 167.81671875 -335.7890625 167.13671875 C-336.4490625 167.13671875 -337.1090625 167.13671875 -337.7890625 167.13671875 C-337.7890625 166.47671875 -337.7890625 165.81671875 -337.7890625 165.13671875 C-336.4690625 164.80671875 -335.1490625 164.47671875 -333.7890625 164.13671875 C-334.0571875 163.57984375 -334.3253125 163.02296875 -334.6015625 162.44921875 C-334.6634375 161.68609375 -334.7253125 160.92296875 -334.7890625 160.13671875 C-333.16803282 158.42563186 -331.49402787 156.76418569 -329.7890625 155.13671875 C-327.99585426 151.97026401 -327.99585426 151.97026401 -326.7890625 149.13671875 C-325.7990625 149.13671875 -324.8090625 149.13671875 -323.7890625 149.13671875 C-323.0390625 151.88671875 -323.0390625 151.88671875 -322.7890625 155.13671875 C-324.6015625 157.19921875 -324.6015625 157.19921875 -326.7890625 159.13671875 C-327.89542645 161.52740609 -327.89542645 161.52740609 -328.7890625 164.13671875 C-329.3046875 165.12671875 -329.8203125 166.11671875 -330.3515625 167.13671875 C-331.666211 169.88033301 -332.34931277 172.14642059 -332.7890625 175.13671875 C-333.4490625 175.13671875 -334.1090625 175.13671875 -334.7890625 175.13671875 C-334.7890625 175.79671875 -334.7890625 176.45671875 -334.7890625 177.13671875 C-334.1290625 177.13671875 -333.4690625 177.13671875 -332.7890625 177.13671875 C-332.83546875 177.69359375 -332.881875 178.25046875 -332.9296875 178.82421875 C-333.19000152 184.32800079 -332.32530273 187.58191133 -329.61328125 192.33984375 C-328.7890625 194.13671875 -328.7890625 194.13671875 -329.0390625 197.13671875 C-329.2865625 197.79671875 -329.5340625 198.45671875 -329.7890625 199.13671875 C-329.17546875 199.22050781 -328.561875 199.30429687 -327.9296875 199.390625 C-325.7890625 200.13671875 -325.7890625 200.13671875 -324.5234375 201.9140625 C-324.19859375 202.62691406 -323.87375 203.33976563 -323.5390625 204.07421875 C-323.03632813 205.13962891 -323.03632813 205.13962891 -322.5234375 206.2265625 C-321.7890625 208.13671875 -321.7890625 208.13671875 -321.7890625 210.13671875 C-320.7990625 209.80671875 -319.8090625 209.47671875 -318.7890625 209.13671875 C-318.7890625 207.48671875 -318.7890625 205.83671875 -318.7890625 204.13671875 C-319.4490625 203.80671875 -320.1090625 203.47671875 -320.7890625 203.13671875 C-320.6034375 202.41484375 -320.4178125 201.69296875 -320.2265625 200.94921875 C-319.76159466 197.96013975 -320.13115786 196.06073937 -320.7890625 193.13671875 C-320.8260904 191.47046345 -320.83666212 189.80270556 -320.7890625 188.13671875 C-320.1290625 188.13671875 -319.4690625 188.13671875 -318.7890625 188.13671875 C-319.2840625 186.37328125 -319.2840625 186.37328125 -319.7890625 184.57421875 C-320.7860158 180.63555115 -320.95775453 177.18532746 -320.7890625 173.13671875 C-319.7990625 172.80671875 -318.8090625 172.47671875 -317.7890625 172.13671875 C-317.9953125 171.06421875 -318.2015625 169.99171875 -318.4140625 168.88671875 C-318.78609127 165.166431 -318.69065855 164.1569007 -316.7890625 161.13671875 C-316.7890625 160.47671875 -316.7890625 159.81671875 -316.7890625 159.13671875 C-316.1290625 159.13671875 -315.4690625 159.13671875 -314.7890625 159.13671875 C-315.129375 158.17765625 -315.129375 158.17765625 -315.4765625 157.19921875 C-315.86420604 153.40031205 -314.91036769 150.94198152 -313.609375 147.40234375 C-312.67716413 144.93875211 -312.67716413 144.93875211 -311.8515625 141.51171875 C-310.62334276 137.61031488 -308.92006324 134.61735329 -306.7890625 131.13671875 C-305.7990625 131.13671875 -304.8090625 131.13671875 -303.7890625 131.13671875 C-303.4590625 130.14671875 -303.1290625 129.15671875 -302.7890625 128.13671875 C-302.1290625 128.46671875 -301.4690625 128.79671875 -300.7890625 129.13671875 C-300.7890625 130.12671875 -300.7890625 131.11671875 -300.7890625 132.13671875 C-301.7790625 132.13671875 -302.7690625 132.13671875 -303.7890625 132.13671875 C-303.44488281 132.67683594 -303.10070312 133.21695313 -302.74609375 133.7734375 C-300.70261758 138.81957254 -302.79752889 145.39682878 -304.59765625 150.37109375 C-305.31061324 151.96757161 -306.04782784 153.55317197 -306.7890625 155.13671875 C-306.7890625 156.12671875 -306.7890625 157.11671875 -306.7890625 158.13671875 C-307.4490625 158.13671875 -308.1090625 158.13671875 -308.7890625 158.13671875 C-308.7890625 158.79671875 -308.7890625 159.45671875 -308.7890625 160.13671875 C-307.7990625 160.46671875 -306.8090625 160.79671875 -305.7890625 161.13671875 C-306.2840625 164.10671875 -306.2840625 164.10671875 -306.7890625 167.13671875 C-307.4490625 167.13671875 -308.1090625 167.13671875 -308.7890625 167.13671875 C-308.1084375 167.96171875 -307.4278125 168.78671875 -306.7265625 169.63671875 C-304.01122279 173.61478637 -304.93574384 176.55982777 -305.7890625 181.13671875 C-305.4590625 181.46671875 -305.1290625 181.79671875 -304.7890625 182.13671875 C-304.7463415 183.8028378 -304.74842418 185.4705476 -304.7890625 187.13671875 C-304.7890625 187.79671875 -304.7890625 188.45671875 -304.7890625 189.13671875 C-305.10940207 191.13884104 -305.44165327 193.1391157 -305.7890625 195.13671875 C-305.1290625 195.13671875 -304.4690625 195.13671875 -303.7890625 195.13671875 C-300.32386771 203.49031334 -299.82022386 211.30870032 -301.7890625 220.13671875 C-300.7990625 219.80671875 -299.8090625 219.47671875 -298.7890625 219.13671875 C-296.43717803 219.73465548 -294.09980655 220.3955367 -291.7890625 221.13671875 C-293.26598558 226.79825721 -293.26598558 226.79825721 -295.9140625 228.51171875 C-296.5328125 228.71796875 -297.1515625 228.92421875 -297.7890625 229.13671875 C-297.4590625 230.12671875 -297.1290625 231.11671875 -296.7890625 232.13671875 C-297.1190625 232.79671875 -297.4490625 233.45671875 -297.7890625 234.13671875 C-297.1290625 234.13671875 -296.4690625 234.13671875 -295.7890625 234.13671875 C-295.74007812 234.74 -295.69109375 235.34328125 -295.640625 235.96484375 C-295.56585938 236.7640625 -295.49109375 237.56328125 -295.4140625 238.38671875 C-295.30964844 239.57007813 -295.30964844 239.57007813 -295.203125 240.77734375 C-294.77224942 243.23252156 -293.92518176 244.93777825 -292.7890625 247.13671875 C-292.6640625 249.88671875 -292.6640625 249.88671875 -292.7890625 252.13671875 C-291.7990625 252.46671875 -290.8090625 252.79671875 -289.7890625 253.13671875 C-289.4590625 253.79671875 -289.1290625 254.45671875 -288.7890625 255.13671875 C-287.48687834 257.18605775 -286.16933902 259.2249045 -284.84765625 261.26171875 C-283.7890625 263.13671875 -283.7890625 263.13671875 -283.7890625 265.13671875 C-283.02464844 265.36230469 -282.26023437 265.58789062 -281.47265625 265.8203125 C-278.13945348 267.45537703 -277.4814475 268.91582723 -275.8515625 272.19921875 C-273.66569009 276.3847947 -273.66569009 276.3847947 -269.4140625 278.26171875 C-268.1146875 278.19984375 -268.1146875 278.19984375 -266.7890625 278.13671875 C-266.7890625 279.12671875 -266.7890625 280.11671875 -266.7890625 281.13671875 C-265.5825 281.10578125 -265.5825 281.10578125 -264.3515625 281.07421875 C-261.7890625 281.13671875 -261.7890625 281.13671875 -260.7890625 282.13671875 C-259.5309375 282.26046875 -258.2728125 282.38421875 -256.9765625 282.51171875 C-253.4541411 282.89747765 -251.411502 283.62354757 -248.7890625 286.13671875 C-248.4178125 285.66234375 -248.0465625 285.18796875 -247.6640625 284.69921875 C-245.03283773 282.50653144 -243.19509951 282.27028883 -239.7890625 282.13671875 C-238.3659375 282.87921875 -238.3659375 282.87921875 -236.9140625 283.63671875 C-232.65791931 285.67966748 -230.38159934 284.97868384 -225.7890625 284.13671875 C-225.1290625 284.13671875 -224.4690625 284.13671875 -223.7890625 284.13671875 C-223.7890625 284.79671875 -223.7890625 285.45671875 -223.7890625 286.13671875 C-222.5103125 285.97171875 -221.2315625 285.80671875 -219.9140625 285.63671875 C-215.50407866 285.1327206 -211.19140869 285.08974724 -206.7578125 285.19921875 C-204.78561522 285.36137621 -204.78561522 285.36137621 -203.7890625 284.13671875 C-201.93134088 284.22656176 -200.07658265 284.38283736 -198.2265625 284.57421875 C-197.21464844 284.67605469 -196.20273438 284.77789062 -195.16015625 284.8828125 C-193.98646484 285.00849609 -193.98646484 285.00849609 -192.7890625 285.13671875 C-193.1190625 284.14671875 -193.4490625 283.15671875 -193.7890625 282.13671875 C-192.3040625 280.65171875 -192.3040625 280.65171875 -190.7890625 279.13671875 C-189.45051194 279.9195318 -188.11832606 280.71323752 -186.7890625 281.51171875 C-186.0465625 281.95257813 -185.3040625 282.3934375 -184.5390625 282.84765625 C-183.9615625 283.27304687 -183.3840625 283.6984375 -182.7890625 284.13671875 C-182.7890625 284.79671875 -182.7890625 285.45671875 -182.7890625 286.13671875 C-182.1290625 286.13671875 -181.4690625 286.13671875 -180.7890625 286.13671875 C-180.7890625 285.47671875 -180.7890625 284.81671875 -180.7890625 284.13671875 C-180.18578125 284.20632813 -179.5825 284.2759375 -178.9609375 284.34765625 C-176.45123967 284.51766804 -174.27057137 284.57237091 -171.7890625 284.13671875 C-169.15061352 281.30814804 -169.15061352 281.30814804 -167.7890625 278.13671875 C-166.8403125 278.30171875 -165.8915625 278.46671875 -164.9140625 278.63671875 C-161.98737349 279.18938225 -161.98737349 279.18938225 -159.7890625 279.13671875 C-158.6753125 279.32234375 -157.5615625 279.50796875 -156.4140625 279.69921875 C-153.321203 280.0724949 -151.64437263 280.1646304 -148.7890625 279.13671875 C-149.4490625 277.48671875 -150.1090625 275.83671875 -150.7890625 274.13671875 C-149.7890625 273.13671875 -149.7890625 273.13671875 -146.7265625 273.07421875 C-145.7571875 273.09484375 -144.7878125 273.11546875 -143.7890625 273.13671875 C-143.4590625 274.12671875 -143.1290625 275.11671875 -142.7890625 276.13671875 C-140.4790625 276.13671875 -138.1690625 276.13671875 -135.7890625 276.13671875 C-135.4590625 273.49671875 -135.1290625 270.85671875 -134.7890625 268.13671875 C-133.7990625 268.13671875 -132.8090625 268.13671875 -131.7890625 268.13671875 C-131.3146875 268.94109375 -130.8403125 269.74546875 -130.3515625 270.57421875 C-128.91659101 273.60211362 -128.91659101 273.60211362 -124.7890625 274.13671875 C-124.1290625 271.16671875 -123.4690625 268.19671875 -122.7890625 265.13671875 C-118.7890625 264.13671875 -118.7890625 264.13671875 -115.7890625 265.13671875 C-115.7890625 264.47671875 -115.7890625 263.81671875 -115.7890625 263.13671875 C-115.1496875 263.01296875 -114.5103125 262.88921875 -113.8515625 262.76171875 C-113.1709375 262.55546875 -112.4903125 262.34921875 -111.7890625 262.13671875 C-111.4590625 261.47671875 -111.1290625 260.81671875 -110.7890625 260.13671875 C-110.1084375 260.38421875 -109.4278125 260.63171875 -108.7265625 260.88671875 C-104.60064588 261.23786059 -102.14949998 259.23795782 -98.7890625 257.13671875 C-94.46828955 255.02657382 -94.46828955 255.02657382 -91.4765625 255.51171875 C-90.9196875 255.71796875 -90.3628125 255.92421875 -89.7890625 256.13671875 C-89.4590625 255.14671875 -89.1290625 254.15671875 -88.7890625 253.13671875 C-85.83122019 251.912784 -83.79179005 252.17155632 -80.7890625 253.13671875 C-80.7890625 252.14671875 -80.7890625 251.15671875 -80.7890625 250.13671875 C-77.7890625 251.13671875 -77.7890625 251.13671875 -76.7265625 253.13671875 C-76.2625 254.12671875 -76.2625 254.12671875 -75.7890625 255.13671875 C-75.1290625 255.46671875 -74.4690625 255.79671875 -73.7890625 256.13671875 C-73.7890625 253.16671875 -73.7890625 250.19671875 -73.7890625 247.13671875 C-72.4690625 246.80671875 -71.1490625 246.47671875 -69.7890625 246.13671875 C-65.24136403 244.30014821 -60.9115063 242.21610374 -56.5859375 239.90625 C-54.7890625 239.13671875 -54.7890625 239.13671875 -51.7890625 239.13671875 C-51.4590625 238.47671875 -51.1290625 237.81671875 -50.7890625 237.13671875 C-50.1290625 237.13671875 -49.4690625 237.13671875 -48.7890625 237.13671875 C-48.7890625 236.47671875 -48.7890625 235.81671875 -48.7890625 235.13671875 C-46.4790625 234.80671875 -44.1690625 234.47671875 -41.7890625 234.13671875 C-41.4590625 233.14671875 -41.1290625 232.15671875 -40.7890625 231.13671875 C-39.09709251 230.37367346 -37.3995011 229.6198667 -35.671875 228.94140625 C-32.79326796 227.71113021 -30.36631687 225.90542273 -27.7890625 224.13671875 C-25.31225909 222.62474095 -22.81879304 221.14260311 -20.32421875 219.66015625 C-17.34040595 217.86711004 -14.4055803 216.00415925 -11.48046875 214.1171875 C-9.7890625 213.13671875 -9.7890625 213.13671875 -6.7890625 212.13671875 C-6.4590625 211.14671875 -6.1290625 210.15671875 -5.7890625 209.13671875 C-4.4690625 209.13671875 -3.1490625 209.13671875 -1.7890625 209.13671875 C-1.7890625 208.14671875 -1.7890625 207.15671875 -1.7890625 206.13671875 C-0.7990625 206.13671875 0.1909375 206.13671875 1.2109375 206.13671875 C1.4378125 205.55921875 1.6646875 204.98171875 1.8984375 204.38671875 C3.2109375 202.13671875 3.2109375 202.13671875 5.7734375 200.19921875 C8.42498691 198.33836916 8.42498691 198.33836916 9.0234375 195.38671875 C9.0853125 194.64421875 9.1471875 193.90171875 9.2109375 193.13671875 C9.8709375 193.13671875 10.5309375 193.13671875 11.2109375 193.13671875 C11.80931519 190.31579535 12.27275845 187.57002668 12.5859375 184.69921875 C13.23136419 181.0202866 14.39298028 178.37742511 16.2109375 175.13671875 C17.2009375 175.13671875 18.1909375 175.13671875 19.2109375 175.13671875 C19.2109375 174.14671875 19.2109375 173.15671875 19.2109375 172.13671875 C18.2209375 171.80671875 17.2309375 171.47671875 16.2109375 171.13671875 C16.3346875 170.08484375 16.4584375 169.03296875 16.5859375 167.94921875 C16.60148749 164.28047113 16.60148749 164.28047113 14.875 162.62890625 C13.34657769 161.43056575 11.78024013 160.28100192 10.2109375 159.13671875 C10.2109375 158.47671875 10.2109375 157.81671875 10.2109375 157.13671875 C9.2209375 157.13671875 8.2309375 157.13671875 7.2109375 157.13671875 C6.8809375 156.47671875 6.5509375 155.81671875 6.2109375 155.13671875 C5.2209375 154.80671875 4.2309375 154.47671875 3.2109375 154.13671875 C3.2109375 153.47671875 3.2109375 152.81671875 3.2109375 152.13671875 C0.9009375 152.13671875 -1.4090625 152.13671875 -3.7890625 152.13671875 C-3.7890625 150.81671875 -3.7890625 149.49671875 -3.7890625 148.13671875 C-5.7690625 148.13671875 -7.7490625 148.13671875 -9.7890625 148.13671875 C-9.7890625 147.47671875 -9.7890625 146.81671875 -9.7890625 146.13671875 C-10.6553125 146.52859375 -11.5215625 146.92046875 -12.4140625 147.32421875 C-15.7890625 148.13671875 -15.7890625 148.13671875 -18.9765625 146.94921875 C-21.7890625 145.13671875 -21.7890625 145.13671875 -23.03515625 143.4921875 C-26.46511907 140.84141445 -31.28106205 142.58792888 -35.34375 143.10546875 C-39.26567004 143.14104172 -40.60301949 142.27667764 -43.7890625 140.13671875 C-46.11206597 139.57511255 -46.11206597 139.57511255 -48.4140625 139.44921875 C-49.54714844 139.35060547 -49.54714844 139.35060547 -50.703125 139.25 C-52.39636291 139.15804513 -54.09332953 139.13671875 -55.7890625 139.13671875 C-56.4490625 138.47671875 -57.1090625 137.81671875 -57.7890625 137.13671875 C-62.03199536 135.09486585 -66.02744368 133.69031699 -70.7890625 134.13671875 C-70.7890625 133.47671875 -70.7890625 132.81671875 -70.7890625 132.13671875 C-71.5315625 132.34296875 -72.2740625 132.54921875 -73.0390625 132.76171875 C-76.26344346 133.20140706 -76.96603716 132.54823142 -79.7890625 131.13671875 C-80.9028125 131.13671875 -82.0165625 131.13671875 -83.1640625 131.13671875 C-86.86554669 131.13671875 -89.34398245 130.38947513 -92.7890625 129.13671875 C-93.7790625 129.13671875 -94.7690625 129.13671875 -95.7890625 129.13671875 C-96.7790625 128.47671875 -97.7690625 127.81671875 -98.7890625 127.13671875 C-100.83858194 126.54169698 -102.88420283 126.11769068 -104.9765625 125.69921875 C-105.5746875 125.51359375 -106.1728125 125.32796875 -106.7890625 125.13671875 C-107.1190625 124.47671875 -107.4490625 123.81671875 -107.7890625 123.13671875 C-110.09872098 122.08319032 -112.4320399 121.07952779 -114.7890625 120.13671875 C-114.7890625 119.47671875 -114.7890625 118.81671875 -114.7890625 118.13671875 C-116.0059375 117.90984375 -117.2228125 117.68296875 -118.4765625 117.44921875 C-124.38066191 115.97840953 -127.38868733 111.96883083 -130.7890625 107.13671875 C-131.1190625 108.12671875 -131.4490625 109.11671875 -131.7890625 110.13671875 C-132.4490625 109.80671875 -133.1090625 109.47671875 -133.7890625 109.13671875 C-133.7890625 107.81671875 -133.7890625 106.49671875 -133.7890625 105.13671875 C-133.1290625 104.80671875 -132.4690625 104.47671875 -131.7890625 104.13671875 C-132.4078125 103.74484375 -133.0265625 103.35296875 -133.6640625 102.94921875 C-137.35115778 99.80434336 -137.99505605 95.76842302 -138.7890625 91.13671875 C-139.4490625 91.13671875 -140.1090625 91.13671875 -140.7890625 91.13671875 C-140.7890625 84.53671875 -140.7890625 77.93671875 -140.7890625 71.13671875 C-140.1290625 71.13671875 -139.4690625 71.13671875 -138.7890625 71.13671875 C-138.62857422 70.04230469 -138.62857422 70.04230469 -138.46484375 68.92578125 C-137.73903845 65.9302611 -136.70027701 64.05147025 -134.9765625 61.51171875 C-134.47511719 60.75632813 -133.97367188 60.0009375 -133.45703125 59.22265625 C-131.7890625 57.13671875 -131.7890625 57.13671875 -129.65234375 55.55078125 C-127.4925092 54.18794627 -127.4925092 54.18794627 -126.7890625 51.13671875 C-126.1290625 51.13671875 -125.4690625 51.13671875 -124.7890625 51.13671875 C-124.7271875 50.60046875 -124.6653125 50.06421875 -124.6015625 49.51171875 C-123.40878868 46.02514913 -121.22709084 43.88731482 -118.7890625 41.13671875 C-117.7990625 41.46671875 -116.8090625 41.79671875 -115.7890625 42.13671875 C-115.7890625 41.47671875 -115.7890625 40.81671875 -115.7890625 40.13671875 C-114.7990625 39.80671875 -113.8090625 39.47671875 -112.7890625 39.13671875 C-112.3146875 38.64171875 -111.8403125 38.14671875 -111.3515625 37.63671875 C-109.53712531 35.89485904 -108.23347173 35.55816862 -105.7890625 35.13671875 C-105.7890625 34.47671875 -105.7890625 33.81671875 -105.7890625 33.13671875 C-100.0390625 30.13671875 -100.0390625 30.13671875 -97.7890625 30.13671875 C-97.7890625 29.47671875 -97.7890625 28.81671875 -97.7890625 28.13671875 C-96.7990625 28.13671875 -95.8090625 28.13671875 -94.7890625 28.13671875 C-94.4590625 27.14671875 -94.1290625 26.15671875 -93.7890625 25.13671875 C-91.64453125 24.0390625 -91.64453125 24.0390625 -88.9765625 23.07421875 C-85.80373193 21.90725448 -82.80473317 20.66035949 -79.7890625 19.13671875 C-78.7990625 18.80671875 -77.8090625 18.47671875 -76.7890625 18.13671875 C-76.7890625 17.47671875 -76.7890625 16.81671875 -76.7890625 16.13671875 C-75.6959375 16.03359375 -74.6028125 15.93046875 -73.4765625 15.82421875 C-69.86908084 15.5112831 -69.86908084 15.5112831 -68.2265625 13.57421875 C-66.7890625 12.13671875 -66.7890625 12.13671875 -63.8515625 12.07421875 C-62.335625 12.10515625 -62.335625 12.10515625 -60.7890625 12.13671875 C-58.67222409 11.24508298 -58.67222409 11.24508298 -56.7890625 10.13671875 C-53.14620536 8.95814732 -53.14620536 8.95814732 -50.7890625 10.13671875 C-50.7890625 9.14671875 -50.7890625 8.15671875 -50.7890625 7.13671875 C-49.90154297 7.18892578 -49.90154297 7.18892578 -48.99609375 7.2421875 C-48.20589844 7.26925781 -47.41570312 7.29632813 -46.6015625 7.32421875 C-45.82425781 7.35902344 -45.04695313 7.39382812 -44.24609375 7.4296875 C-41.6918732 7.30442948 -41.6918732 7.30442948 -39.515625 5.6953125 C-35.8461977 3.59774589 -32.51016264 3.38024804 -28.3515625 3.01171875 C-26.87356955 2.86456487 -25.39570157 2.71614984 -23.91796875 2.56640625 C-22.86089722 2.46344238 -22.86089722 2.46344238 -21.7824707 2.35839844 C-20.01107468 2.16140792 -18.24980051 1.87774339 -16.4921875 1.58203125 C-13.23720879 1.04580643 -10.08204485 1.13671875 -6.7890625 1.13671875 C-4.95869682 -0.69364693 -2.43291853 0.00428331 0 0 Z M-306.7890625 214.13671875 C-307.1190625 214.79671875 -307.4490625 215.45671875 -307.7890625 216.13671875 C-306.7990625 216.13671875 -305.8090625 216.13671875 -304.7890625 216.13671875 C-304.4590625 216.79671875 -304.1290625 217.45671875 -303.7890625 218.13671875 C-304.1190625 216.81671875 -304.4490625 215.49671875 -304.7890625 214.13671875 C-305.4490625 214.13671875 -306.1090625 214.13671875 -306.7890625 214.13671875 Z M-298.7890625 251.13671875 C-299.1190625 251.79671875 -299.4490625 252.45671875 -299.7890625 253.13671875 C-299.1290625 253.13671875 -298.4690625 253.13671875 -297.7890625 253.13671875 C-297.4590625 254.45671875 -297.1290625 255.77671875 -296.7890625 257.13671875 C-295.7990625 257.13671875 -294.8090625 257.13671875 -293.7890625 257.13671875 C-294.57036321 254.64119391 -294.57036321 254.64119391 -295.7890625 252.13671875 C-296.7790625 251.80671875 -297.7690625 251.47671875 -298.7890625 251.13671875 Z M-49.7890625 258.13671875 C-50.1190625 258.79671875 -50.4490625 259.45671875 -50.7890625 260.13671875 C-50.1290625 260.13671875 -49.4690625 260.13671875 -48.7890625 260.13671875 C-49.1190625 259.47671875 -49.4490625 258.81671875 -49.7890625 258.13671875 Z M-76.7890625 265.13671875 C-76.7890625 266.12671875 -76.7890625 267.11671875 -76.7890625 268.13671875 C-76.1290625 267.47671875 -75.4690625 266.81671875 -74.7890625 266.13671875 C-75.4490625 265.80671875 -76.1090625 265.47671875 -76.7890625 265.13671875 Z M-93.7890625 277.13671875 C-93.7890625 280.13671875 -93.7890625 280.13671875 -93.7890625 280.13671875 Z " fill="#131313" transform="translate(386.7890625,101.86328125)"/>
<path d="M0 0 C0.66 0.33 1.32 0.66 2 1 C2 1.99 2 2.98 2 4 C1.01 4 0.02 4 -1 4 C-0.65582031 4.54011719 -0.31164062 5.08023438 0.04296875 5.63671875 C2.08644492 10.68285379 -0.00846639 17.26011003 -1.80859375 22.234375 C-2.52155074 23.83085286 -3.25876534 25.41645322 -4 27 C-4 27.99 -4 28.98 -4 30 C-4.66 30 -5.32 30 -6 30 C-6 30.66 -6 31.32 -6 32 C-5.01 32.33 -4.02 32.66 -3 33 C-3.33 34.98 -3.66 36.96 -4 39 C-4.66 39 -5.32 39 -6 39 C-5.319375 39.825 -4.63875 40.65 -3.9375 41.5 C-1.22216029 45.47806762 -2.14668134 48.42310902 -3 53 C-2.67 53.33 -2.34 53.66 -2 54 C-1.957279 55.66611905 -1.95936168 57.33382885 -2 59 C-2 59.66 -2 60.32 -2 61 C-2.32033957 63.00212229 -2.65259077 65.00239695 -3 67 C-2.34 67 -1.68 67 -1 67 C2.46519479 75.35359459 2.96883864 83.17198157 1 92 C1.99 91.67 2.98 91.34 4 91 C6.35188447 91.59793673 8.68925595 92.25881795 11 93 C9.52307692 98.66153846 9.52307692 98.66153846 6.875 100.375 C5.946875 100.684375 5.946875 100.684375 5 101 C5.33 101.99 5.66 102.98 6 104 C5.67 104.66 5.34 105.32 5 106 C5.66 106 6.32 106 7 106 C7.04898438 106.60328125 7.09796875 107.2065625 7.1484375 107.828125 C7.22320312 108.62734375 7.29796875 109.4265625 7.375 110.25 C7.47941406 111.43335938 7.47941406 111.43335938 7.5859375 112.640625 C8.01681308 115.09580281 8.86388074 116.8010595 10 119 C10.125 121.75 10.125 121.75 10 124 C10.99 124.33 11.98 124.66 13 125 C13.33 125.66 13.66 126.32 14 127 C15.30218416 129.049339 16.61972348 131.08818575 17.94140625 133.125 C19 135 19 135 19 137 C19.76441406 137.22558594 20.52882812 137.45117188 21.31640625 137.68359375 C24.64960902 139.31865828 25.307615 140.77910848 26.9375 144.0625 C29.12337241 148.24807595 29.12337241 148.24807595 33.375 150.125 C34.24125 150.08375 35.1075 150.0425 36 150 C36 150.99 36 151.98 36 153 C37.65 153 39.3 153 41 153 C41 153.33 41 153.66 41 154 C39.35 154 37.7 154 36 154 C36.33 154.99 36.66 155.98 37 157 C32.37106161 155.67744617 28.91569917 153.78449719 25 151 C23.515 150.01 23.515 150.01 22 149 C22 148.34 22 147.68 22 147 C21.14148438 146.61134766 21.14148438 146.61134766 20.265625 146.21484375 C17.80384197 144.89481871 15.86526565 143.38397875 13.75 141.5625 C12.69039062 140.66724609 12.69039062 140.66724609 11.609375 139.75390625 C10 138 10 138 10 135 C8.68 135 7.36 135 6 135 C6 133.35 6 131.7 6 130 C5.21625 129.79375 4.4325 129.5875 3.625 129.375 C1 128 1 128 -0.3125 124.875 C-0.539375 123.92625 -0.76625 122.9775 -1 122 C-1.66 122 -2.32 122 -3 122 C-3.33 120.35 -3.66 118.7 -4 117 C-4.66 117 -5.32 117 -6 117 C-6.12375 116.278125 -6.2475 115.55625 -6.375 114.8125 C-6.92222497 111.9843652 -6.92222497 111.9843652 -8.0625 109.375 C-9 107 -9 107 -9 104 C-9.66 104 -10.32 104 -11 104 C-11.144375 103.195625 -11.28875 102.39125 -11.4375 101.5625 C-11.74135249 99.07896294 -11.74135249 99.07896294 -13 98 C-13.04080783 96.00041636 -13.04254356 93.99954746 -13 92 C-13.66 92 -14.32 92 -15 92 C-15 91.34 -15 90.68 -15 90 C-17.97 90.495 -17.97 90.495 -21 91 C-21 90.01 -21 89.02 -21 88 C-22.32 88 -23.64 88 -25 88 C-26.5625 86.625 -26.5625 86.625 -28 85 C-28.99 84.34 -29.98 83.68 -31 83 C-31 82.01 -31 81.02 -31 80 C-31.78375 79.814375 -32.5675 79.62875 -33.375 79.4375 C-36 78 -36 78 -37.125 74.8125 C-37.41375 73.554375 -37.7025 72.29625 -38 71 C-38.556875 69.80375 -39.11375 68.6075 -39.6875 67.375 C-41.10112176 63.73997261 -41.11348795 62.61883584 -40 59 C-39.06800539 54.69876578 -39.06800539 54.69876578 -39.75 50.4375 C-39.8325 49.633125 -39.915 48.82875 -40 48 C-37.5625 45.3125 -37.5625 45.3125 -35 43 C-35 42.34 -35 41.68 -35 41 C-34.34 41 -33.68 41 -33 41 C-33 40.34 -33 39.68 -33 39 C-33.66 39 -34.32 39 -35 39 C-35 38.34 -35 37.68 -35 37 C-33.02 36.505 -33.02 36.505 -31 36 C-31.268125 35.443125 -31.53625 34.88625 -31.8125 34.3125 C-31.874375 33.549375 -31.93625 32.78625 -32 32 C-30.37897032 30.28891311 -28.70496537 28.62746694 -27 27 C-25.20679176 23.83354526 -25.20679176 23.83354526 -24 21 C-23.01 21 -22.02 21 -21 21 C-20.25 23.75 -20.25 23.75 -20 27 C-21.8125 29.0625 -21.8125 29.0625 -24 31 C-25.10636395 33.39068734 -25.10636395 33.39068734 -26 36 C-26.515625 36.99 -27.03125 37.98 -27.5625 39 C-28.8771485 41.74361426 -29.56025027 44.00970184 -30 47 C-30.66 47 -31.32 47 -32 47 C-32 47.66 -32 48.32 -32 49 C-31.34 49 -30.68 49 -30 49 C-30.04640625 49.556875 -30.0928125 50.11375 -30.140625 50.6875 C-30.40093902 56.19128204 -29.53624023 59.44519258 -26.82421875 64.203125 C-26 66 -26 66 -26.25 69 C-26.4975 69.66 -26.745 70.32 -27 71 C-26.07960938 71.12568359 -26.07960938 71.12568359 -25.140625 71.25390625 C-23 72 -23 72 -21.734375 73.77734375 C-21.40953125 74.49019531 -21.0846875 75.20304687 -20.75 75.9375 C-20.41484375 76.64777344 -20.0796875 77.35804688 -19.734375 78.08984375 C-19 80 -19 80 -19 82 C-17.515 81.505 -17.515 81.505 -16 81 C-16 79.35 -16 77.7 -16 76 C-16.66 75.67 -17.32 75.34 -18 75 C-17.814375 74.278125 -17.62875 73.55625 -17.4375 72.8125 C-16.97253216 69.823421 -17.34209536 67.92402062 -18 65 C-18.0370279 63.3337447 -18.04759962 61.66598681 -18 60 C-17.34 60 -16.68 60 -16 60 C-16.495 58.2365625 -16.495 58.2365625 -17 56.4375 C-17.9969533 52.4988324 -18.16869203 49.04860871 -18 45 C-16.515 44.505 -16.515 44.505 -15 44 C-15.20625 42.9275 -15.4125 41.855 -15.625 40.75 C-15.99702877 37.02971225 -15.90159605 36.02018195 -14 33 C-14 32.34 -14 31.68 -14 31 C-13.34 31 -12.68 31 -12 31 C-12.226875 30.360625 -12.45375 29.72125 -12.6875 29.0625 C-13.07514354 25.2635933 -12.12130519 22.80526277 -10.8203125 19.265625 C-9.88810163 16.80203336 -9.88810163 16.80203336 -9.0625 13.375 C-7.83428026 9.47359613 -6.13100074 6.48063454 -4 3 C-3.01 3 -2.02 3 -1 3 C-0.67 2.01 -0.34 1.02 0 0 Z M-4 86 C-4.33 86.66 -4.66 87.32 -5 88 C-4.01 88 -3.02 88 -2 88 C-1.67 88.66 -1.34 89.32 -1 90 C-1.33 88.68 -1.66 87.36 -2 86 C-2.66 86 -3.32 86 -4 86 Z M4 123 C3.67 123.66 3.34 124.32 3 125 C3.66 125 4.32 125 5 125 C5.33 126.32 5.66 127.64 6 129 C6.99 129 7.98 129 9 129 C8.21869929 126.50447516 8.21869929 126.50447516 7 124 C6.01 123.67 5.02 123.34 4 123 Z " fill="#1A1A1A" transform="translate(84,230)"/>
<path d="M0 0 C2 2 2 2 2 6 C1.113125 5.7525 0.22625 5.505 -0.6875 5.25 C-4.99550235 4.92486775 -5.76152216 6.31443301 -9 9 C-12.8125 9.75 -12.8125 9.75 -16 10 C-16.33 9.34 -16.66 8.68 -17 8 C-17.66 8.99 -18.32 9.98 -19 11 C-21.64 10.67 -24.28 10.34 -27 10 C-27.33 10.66 -27.66 11.32 -28 12 C-29.65 11.67 -31.3 11.34 -33 11 C-32.67 12.65 -32.34 14.3 -32 16 C-33.98 16 -35.96 16 -38 16 C-38 15.34 -38 14.68 -38 14 C-39.32 14.33 -40.64 14.66 -42 15 C-42 15.99 -42 16.98 -42 18 C-44.31 18.33 -46.62 18.66 -49 19 C-49.66 20.65 -50.32 22.3 -51 24 C-52.485 23.505 -52.485 23.505 -54 23 C-55.1875 20.4375 -55.1875 20.4375 -56 18 C-57.32 18.33 -58.64 18.66 -60 19 C-60 18.34 -60 17.68 -60 17 C-60.66 17.33 -61.32 17.66 -62 18 C-62 18.763125 -62 19.52625 -62 20.3125 C-62 22.20833333 -62 24.10416667 -62 26 C-65.91402949 24.73058503 -67.79072873 23.48832306 -70 20 C-71.5778125 20.495 -71.5778125 20.495 -73.1875 21 C-76.38873357 21.83966782 -78.7411008 22.19750904 -82 22 C-82.33 23.32 -82.66 24.64 -83 26 C-84.32 26.33 -85.64 26.66 -87 27 C-87.33 25.35 -87.66 23.7 -88 22 C-89.02703748 27.55493924 -89.02703748 27.55493924 -88 33 C-90.375 32.75 -90.375 32.75 -93 32 C-94.3125 29.9375 -94.3125 29.9375 -95 28 C-96.485 28.495 -96.485 28.495 -98 29 C-100 26 -100 26 -100 23 C-100.61875 23.350625 -101.2375 23.70125 -101.875 24.0625 C-102.926875 24.5265625 -102.926875 24.5265625 -104 25 C-104.66 24.67 -105.32 24.34 -106 24 C-105.505 24.94875 -105.01 25.8975 -104.5 26.875 C-103 30 -103 30 -103 32 C-104.32 32 -105.64 32 -107 32 C-107.33 30.35 -107.66 28.7 -108 27 C-108.66 27 -109.32 27 -110 27 C-110.495 28.485 -110.495 28.485 -111 30 C-112.07121094 29.98839844 -113.14242187 29.97679687 -114.24609375 29.96484375 C-115.64322743 29.95546701 -117.04036299 29.94636669 -118.4375 29.9375 C-119.49807617 29.92493164 -119.49807617 29.92493164 -120.58007812 29.91210938 C-122.38693559 29.90346412 -124.19387603 29.94779989 -126 30 C-126.495 30.495 -126.495 30.495 -127 31 C-129.67058851 31.14115161 -132.32432238 31.04247107 -135 31 C-135 30.34 -135 29.68 -135 29 C-135.680625 29.495 -136.36125 29.99 -137.0625 30.5 C-140.65461496 32.33427147 -143.01285999 32.36917963 -147 32 C-147.99 31.34 -148.98 30.68 -150 30 C-152.05714832 30.01382865 -152.05714832 30.01382865 -154 31 C-155.75422772 32.97670607 -155.75422772 32.97670607 -157 35 C-157.680625 34.855625 -158.36125 34.71125 -159.0625 34.5625 C-162.09894966 33.92876507 -162.09894966 33.92876507 -165.625 33.6875 C-169.57673253 32.88251745 -169.78845443 32.11626876 -172 29 C-174.62625139 28.66574265 -174.62625139 28.66574265 -177 29 C-177 27.68 -177 26.36 -177 25 C-175.35 25.33 -173.7 25.66 -172 26 C-172 25.34 -172 24.68 -172 24 C-171.01 24 -170.02 24 -169 24 C-168.67 24.66 -168.34 25.32 -168 26 C-166.15535156 25.7834375 -166.15535156 25.7834375 -164.2734375 25.5625 C-162.64064536 25.37482274 -161.00783171 25.18733263 -159.375 25 C-158.16263672 24.85691406 -158.16263672 24.85691406 -156.92578125 24.7109375 C-145.21327657 23.37780689 -145.21327657 23.37780689 -141.5625 25.25 C-138.76469558 26.38916072 -138.76469558 26.38916072 -135.5 24.1875 C-134.90445313 23.8059375 -134.30890625 23.424375 -133.6953125 23.03125 C-129.61138524 20.54701775 -126.46485355 21.10702929 -122 22 C-121.13375 21.79375 -120.2675 21.5875 -119.375 21.375 C-118.59125 21.25125 -117.8075 21.1275 -117 21 C-115.1875 22.4375 -115.1875 22.4375 -114 24 C-113.67 22.68 -113.34 21.36 -113 20 C-112.37351562 19.86722656 -111.74703125 19.73445313 -111.1015625 19.59765625 C-110.28429687 19.42105469 -109.46703125 19.24445313 -108.625 19.0625 C-107.81289062 18.88847656 -107.00078125 18.71445312 -106.1640625 18.53515625 C-103.970537 18.07669307 -103.970537 18.07669307 -102 17 C-99.98072489 17.60578253 -97.97746603 18.26919734 -96 19 C-96.309375 17.576875 -96.309375 17.576875 -96.625 16.125 C-96.74875 15.09375 -96.8725 14.0625 -97 13 C-96.34 12.34 -95.68 11.68 -95 11 C-94.01 11 -93.02 11 -92 11 C-92 12.65 -92 14.3 -92 16 C-89.03 15.505 -89.03 15.505 -86 15 C-86 15.99 -86 16.98 -86 18 C-84.70590408 17.54857119 -83.41478941 17.08858979 -82.125 16.625 C-81.40570313 16.36976563 -80.68640625 16.11453125 -79.9453125 15.8515625 C-77.81842006 15.06122217 -77.81842006 15.06122217 -76 13 C-74.00047242 12.95653201 -71.99960012 12.960008 -70 13 C-69.278125 12.814375 -68.55625 12.62875 -67.8125 12.4375 C-66 12 -66 12 -63 13 C-63 12.01 -63 11.02 -63 10 C-61.68 10.33 -60.36 10.66 -59 11 C-59.33 11.66 -59.66 12.32 -60 13 C-58.68 13.33 -57.36 13.66 -56 14 C-56 13.34 -56 12.68 -56 12 C-54.68 12.33 -53.36 12.66 -52 13 C-51.690625 12.0409375 -51.690625 12.0409375 -51.375 11.0625 C-50 9 -50 9 -47.1875 8.125 C-43.83821527 7.9936555 -41.9679817 8.51600915 -39 10 C-38.01 8.02 -37.02 6.04 -36 4 C-34.9275 4.20625 -33.855 4.4125 -32.75 4.625 C-28.8084075 5.01915925 -28.25932409 4.73151592 -25 3 C-22.66796188 2.9222654 -20.33160941 2.91032272 -18 3 C-18 2.34 -18 1.68 -18 1 C-16 2 -14 3 -12 4 C-12 3.34 -12 2.68 -12 2 C-10.02 2.495 -10.02 2.495 -8 3 C-8 2.34 -8 1.68 -8 1 C-5.23749964 -0.38125018 -3.05268901 -0.19079306 0 0 Z " fill="#292929" transform="translate(273,299)"/>
<path d="M0 0 C3 1 3 1 4 3 C5.30218416 5.049339 6.61972348 7.08818575 7.94140625 9.125 C9 11 9 11 9 13 C9.76441406 13.22558594 10.52882813 13.45117188 11.31640625 13.68359375 C14.64960902 15.31865828 15.307615 16.77910848 16.9375 20.0625 C19.12337241 24.24807595 19.12337241 24.24807595 23.375 26.125 C24.24125 26.08375 25.1075 26.0425 26 26 C26 26.99 26 27.98 26 29 C27.65 29 29.3 29 31 29 C31 29.33 31 29.66 31 30 C29.35 30 27.7 30 26 30 C26.495 31.485 26.495 31.485 27 33 C22.37106161 31.67744617 18.91569917 29.78449719 15 27 C14.01 26.34 13.02 25.68 12 25 C12 24.34 12 23.68 12 23 C11.42765625 22.74089844 10.8553125 22.48179687 10.265625 22.21484375 C7.80384197 20.89481871 5.86526565 19.38397875 3.75 17.5625 C3.04359375 16.96566406 2.3371875 16.36882812 1.609375 15.75390625 C0 14 0 14 0 11 C-1.32 11 -2.64 11 -4 11 C-4 9.35 -4 7.7 -4 6 C-5.32 5.34 -6.64 4.68 -8 4 C-7.34 4 -6.68 4 -6 4 C-6.33 3.01 -6.66 2.02 -7 1 C-6.34 1 -5.68 1 -5 1 C-4.67 1.99 -4.34 2.98 -4 4 C-3.01 4.33 -2.02 4.66 -1 5 C-1.33 4.01 -1.66 3.02 -2 2 C-1.34 2 -0.68 2 0 2 C0 1.34 0 0.68 0 0 Z " fill="#2B2B2B" transform="translate(94,354)"/>
<path d="M0 0 C0.99 0 1.98 0 3 0 C3.33 0.66 3.66 1.32 4 2 C5.84464844 1.7834375 5.84464844 1.7834375 7.7265625 1.5625 C9.35935464 1.37482274 10.99216829 1.18733263 12.625 1 C13.83736328 0.85691406 13.83736328 0.85691406 15.07421875 0.7109375 C19.40973739 0.21746383 23.62737311 -0.11320717 28 0 C28 0.33 28 0.66 28 1 C26.35 1.33 24.7 1.66 23 2 C22.67 3.32 22.34 4.64 22 6 C21.401875 6.0825 20.80375 6.165 20.1875 6.25 C17.4033704 7.20455872 16.56688858 8.57132271 15 11 C13.9790625 10.7834375 13.9790625 10.7834375 12.9375 10.5625 C9.90105034 9.92876507 9.90105034 9.92876507 6.375 9.6875 C2.42326747 8.88251745 2.21154557 8.11626876 0 5 C-2.62625139 4.66574265 -2.62625139 4.66574265 -5 5 C-5 3.68 -5 2.36 -5 1 C-3.35 1.33 -1.7 1.66 0 2 C0 1.34 0 0.68 0 0 Z " fill="#292929" transform="translate(101,323)"/>
<path d="M0 0 C2 2 2 2 2 6 C1.113125 5.7525 0.22625 5.505 -0.6875 5.25 C-4.99550235 4.92486775 -5.76152216 6.31443301 -9 9 C-12.8125 9.75 -12.8125 9.75 -16 10 C-16.33 9.34 -16.66 8.68 -17 8 C-17.99 9.485 -17.99 9.485 -19 11 C-23 11 -23 11 -25.1875 9.1875 C-27 7 -27 7 -28 4 C-24.52674819 2.8422494 -21.63932552 2.93133348 -18 3 C-18 2.34 -18 1.68 -18 1 C-16 2 -14 3 -12 4 C-12 3.34 -12 2.68 -12 2 C-10.68 2.33 -9.36 2.66 -8 3 C-8 2.34 -8 1.68 -8 1 C-5.23749964 -0.38125018 -3.05268901 -0.19079306 0 0 Z " fill="#353535" transform="translate(273,299)"/>
<path d="M0 0 C0.66 0 1.32 0 2 0 C1.34 2.31 0.68 4.62 0 7 C0.99 7.33 1.98 7.66 3 8 C2.01 8.33 1.02 8.66 0 9 C0.061875 10.051875 0.061875 10.051875 0.125 11.125 C-0.09011241 16.07258537 -1.5317077 20.39297601 -5 24 C-5.99 24 -6.98 24 -8 24 C-8 22.02 -8 20.04 -8 18 C-7.01 17.67 -6.02 17.34 -5 17 C-5.185625 16.38125 -5.37125 15.7625 -5.5625 15.125 C-6 13 -6 13 -5 11 C-4.34 11 -3.68 11 -3 11 C-2.86722656 10.28972656 -2.73445313 9.57945312 -2.59765625 8.84765625 C-2.42105469 7.92855469 -2.24445313 7.00945312 -2.0625 6.0625 C-1.88847656 5.14597656 -1.71445312 4.22945312 -1.53515625 3.28515625 C-1 1 -1 1 0 0 Z " fill="#545454" transform="translate(446,144)"/>
<path d="M0 0 C0.99 0 1.98 0 3 0 C3.75 2.75 3.75 2.75 4 6 C2.1875 8.0625 2.1875 8.0625 0 10 C-0.350625 10.886875 -0.70125 11.77375 -1.0625 12.6875 C-1.371875 13.450625 -1.68125 14.21375 -2 15 C-2.99 15.33 -3.98 15.66 -5 16 C-5.99 15.01 -6.98 14.02 -8 13 C-7.05029764 10.88143321 -6.25157967 9.24064143 -4.5625 7.625 C-2.40212603 5.37821107 -1.30930299 2.80564927 0 0 Z " fill="#4D4D4D" transform="translate(60,251)"/>
<path d="M0 0 C8.57142857 -0.28571429 8.57142857 -0.28571429 12 2 C11.625 3.9375 11.625 3.9375 11 6 C7.9167365 7.54163175 5.39121901 7.29747535 2 7 C0 5.1875 0 5.1875 -1 3 C-0.67 2.01 -0.34 1.02 0 0 Z " fill="#222222" transform="translate(124,324)"/>
<path d="M0 0 C0.66 1.65 1.32 3.3 2 5 C1.34 5 0.68 5 0 5 C-0.66 6.65 -1.32 8.3 -2 10 C-2.99 10 -3.98 10 -5 10 C-5 8.35 -5 6.7 -5 5 C-5.61875 5.185625 -6.2375 5.37125 -6.875 5.5625 C-9 6 -9 6 -11 5 C-10 2 -10 2 -7.75 0.8125 C-5.00208853 0.00061706 -2.84552111 -0.16260121 0 0 Z " fill="#353535" transform="translate(263,396)"/>
<path d="M0 0 C2 2 2 2 2 6 C1.113125 5.7525 0.22625 5.505 -0.6875 5.25 C-4.95566026 4.9278747 -5.83136061 6.3316721 -9 9 C-11.3125 8.75 -11.3125 8.75 -13 8 C-12.34 7.67 -11.68 7.34 -11 7 C-11 6.34 -11 5.68 -11 5 C-11.66 4.67 -12.32 4.34 -13 4 C-12.67 3.34 -12.34 2.68 -12 2 C-10.02 2.495 -10.02 2.495 -8 3 C-8 2.34 -8 1.68 -8 1 C-5.23749964 -0.38125018 -3.05268901 -0.19079306 0 0 Z " fill="#404040" transform="translate(273,299)"/>
<path d="M0 0 C2.625 -0.1875 2.625 -0.1875 5 0 C5.66 1.32 6.32 2.64 7 4 C5.68 5.32 4.36 6.64 3 8 C1.0625 7.1875 1.0625 7.1875 -1 6 C-1.33 5.01 -1.66 4.02 -2 3 C-1.34 2.01 -0.68 1.02 0 0 Z " fill="#404040" transform="translate(298,289)"/>
<path d="M0 0 C0.66 0 1.32 0 2 0 C3.39130435 9.2173913 3.39130435 9.2173913 2 12 C1.01 12 0.02 12 -1 12 C-1.22162329 10.37675914 -1.42689803 8.751279 -1.625 7.125 C-1.74101562 6.22007812 -1.85703125 5.31515625 -1.9765625 4.3828125 C-1.98429688 3.59648437 -1.99203125 2.81015625 -2 2 C-1.34 1.34 -0.68 0.68 0 0 Z " fill="#565656" transform="translate(194,409)"/>
<path d="M0 0 C0 3 0 3 -1.5625 5.1875 C-4.80948625 7.60192567 -7.05115643 7.3037572 -11 7 C-10.8125 5.125 -10.8125 5.125 -10 3 C-7.5625 1.8125 -7.5625 1.8125 -5 1 C-3 0 -3 0 0 0 Z M-5 3 C-4 5 -4 5 -4 5 Z " fill="#585858" transform="translate(294,293)"/>
<path d="M0 0 C-0.33 0.99 -0.66 1.98 -1 3 C-3.8125 3.625 -3.8125 3.625 -7 4 C-7.99 3.34 -8.98 2.68 -10 2 C-9.67 1.01 -9.34 0.02 -9 -1 C-5.22102349 -2.0497157 -3.35080929 -2.10976881 0 0 Z " fill="#373737" transform="translate(457,154)"/>
<path d="M0 0 C0.98726527 2.66561622 1.0275526 3.90126985 0.25 6.6875 C-1 9 -1 9 -4 10 C-5.5 8.625 -5.5 8.625 -7 7 C-7 6.34 -7 5.68 -7 5 C-5.35666496 3.96210419 -3.68756133 2.96432076 -2 2 C-1.34 1.34 -0.68 0.68 0 0 Z " fill="#363636" transform="translate(59,257)"/>
<path d="M0 0 C0.598125 0.226875 1.19625 0.45375 1.8125 0.6875 C1.4825 2.3375 1.1525 3.9875 0.8125 5.6875 C-0.8375 6.0175 -2.4875 6.3475 -4.1875 6.6875 C-4.875 4.875 -4.875 4.875 -5.1875 2.6875 C-3.58493056 0.24147296 -2.95482043 -0.4221172 0 0 Z " fill="#4D4D4D" transform="translate(126.1875,411.3125)"/>
<path d="M0 0 C1.65 0 3.3 0 5 0 C5 0.99 5 1.98 5 3 C6.65 3 8.3 3 10 3 C10 3.33 10 3.66 10 4 C8.35 4 6.7 4 5 4 C5.33 4.99 5.66 5.98 6 7 C4.02 6.34 2.04 5.68 0 5 C0 3.35 0 1.7 0 0 Z " fill="#3D3D3D" transform="translate(115,380)"/>
<path d="M0 0 C-0.3125 1.9375 -0.3125 1.9375 -1 4 C-4 5 -4 5 -6.1875 4.0625 C-6.785625 3.711875 -7.38375 3.36125 -8 3 C-7.67 2.01 -7.34 1.02 -7 0 C-3.86650268 -1.04449911 -3.01031744 -0.93423645 0 0 Z " fill="#4E4E4E" transform="translate(113,390)"/>
<path d="M0 0 C2.31 0.33 4.62 0.66 7 1 C6.6875 2.9375 6.6875 2.9375 6 5 C5.01 5.33 4.02 5.66 3 6 C2.01 5.34 1.02 4.68 0 4 C0 2.68 0 1.36 0 0 Z " fill="#414141" transform="translate(91,265)"/>
<path d="M0 0 C2 3 2 3 1.625 5.1875 C1.41875 5.785625 1.2125 6.38375 1 7 C-0.32 7.33 -1.64 7.66 -3 8 C-3 6.68 -3 5.36 -3 4 C-3.66 3.34 -4.32 2.68 -5 2 C-3.35 1.34 -1.7 0.68 0 0 Z " fill="#616161" transform="translate(387,344)"/>
<path d="M0 0 C2.475 0.495 2.475 0.495 5 1 C5 2.32 5 3.64 5 5 C4.01 5.66 3.02 6.32 2 7 C0 5 0 5 -0.125 2.375 C-0.08375 1.59125 -0.0425 0.8075 0 0 Z " fill="#525252" transform="translate(224,406)"/>
<path d="M0 0 C2.625 0.375 2.625 0.375 5 1 C4.67 2.32 4.34 3.64 4 5 C2.68 5.33 1.36 5.66 0 6 C-0.66 4.68 -1.32 3.36 -2 2 C-1.34 1.34 -0.68 0.68 0 0 Z " fill="#4E4E4E" transform="translate(37,336)"/>
<path d="M0 0 C0 1.65 0 3.3 0 5 C-3.75 6.125 -3.75 6.125 -6 5 C-6 3.68 -6 2.36 -6 1 C-3.92446352 0.4465236 -2.15634036 0 0 0 Z " fill="#515151" transform="translate(220,411)"/>
<path d="M0 0 C-0.33 0.66 -0.66 1.32 -1 2 C-1.99 1.67 -2.98 1.34 -4 1 C-4.268125 1.639375 -4.53625 2.27875 -4.8125 2.9375 C-6 5 -6 5 -9 6 C-9.66 5.67 -10.32 5.34 -11 5 C-10 2 -10 2 -7.75 0.8125 C-5.00208853 0.00061706 -2.84552111 -0.16260121 0 0 Z " fill="#606060" transform="translate(263,396)"/>
<path d="M0 0 C0.99 0 1.98 0 3 0 C2 3 2 3 0.1875 4.25 C-2.33943414 5.11637742 -3.52221994 4.88492145 -6 4 C-5.67 3.01 -5.34 2.02 -5 1 C-3.35 1.33 -1.7 1.66 0 2 C0 1.34 0 0.68 0 0 Z " fill="#737373" transform="translate(101,323)"/>
<path d="M0 0 C2.64 0 5.28 0 8 0 C8 0.99 8 1.98 8 3 C5.29120665 4.35439668 2.99066732 4.06501451 0 4 C0 2.68 0 1.36 0 0 Z " fill="#3D3D3D" transform="translate(380,214)"/>
<path d="M0 0 C1.98 0 3.96 0 6 0 C5.625 2.4375 5.625 2.4375 5 5 C4.01 5.495 4.01 5.495 3 6 C2.01 5.34 1.02 4.68 0 4 C0 2.68 0 1.36 0 0 Z " fill="#4A4A4A" transform="translate(127,201)"/>
<path d="M0 0 C0.66 0 1.32 0 2 0 C1.34 2.31 0.68 4.62 0 7 C0.99 7.33 1.98 7.66 3 8 C2.01 8.33 1.02 8.66 0 9 C0 10.65 0 12.3 0 14 C-0.12375 13.360625 -0.2475 12.72125 -0.375 12.0625 C-0.58125 11.381875 -0.7875 10.70125 -1 10 C-1.66 9.67 -2.32 9.34 -3 9 C-2.01 6.03 -1.02 3.06 0 0 Z " fill="#757575" transform="translate(446,144)"/>
<path d="M0 0 C4 0 4 0 7 1 C6.34 2.32 5.68 3.64 5 5 C3.35 4.67 1.7 4.34 0 4 C0 2.68 0 1.36 0 0 Z " fill="#595959" transform="translate(435,170)"/>
<path d="M0 0 C1.65 0 3.3 0 5 0 C5.66 1.98 6.32 3.96 7 6 C5.68 6 4.36 6 3 6 C2.87625 5.195625 2.7525 4.39125 2.625 3.5625 C2.315625 2.2940625 2.315625 2.2940625 2 1 C1.34 0.67 0.68 0.34 0 0 Z " fill="#5A5A5A" transform="translate(163,325)"/>
<path d="M0 0 C1.65 0.33 3.3 0.66 5 1 C4.67 2.32 4.34 3.64 4 5 C2.35 4.67 0.7 4.34 -1 4 C-0.67 2.68 -0.34 1.36 0 0 Z " fill="#4D4D4D" transform="translate(91,259)"/>
<path d="M0 0 C1.65 0.33 3.3 0.66 5 1 C4.34 2.65 3.68 4.3 3 6 C2.01 5.67 1.02 5.34 0 5 C-0.33 4.01 -0.66 3.02 -1 2 C-0.67 1.34 -0.34 0.68 0 0 Z " fill="#525252" transform="translate(157,250)"/>
<path d="M0 0 C2.475 0.495 2.475 0.495 5 1 C4.67 2.65 4.34 4.3 4 6 C2.68 5.34 1.36 4.68 0 4 C0 2.68 0 1.36 0 0 Z " fill="#4F4F4F" transform="translate(189,274)"/>
<path d="M0 0 C2.31 0 4.62 0 7 0 C7.33 0.99 7.66 1.98 8 3 C5.08517222 3.80967438 3.53886783 4.21845993 0.6875 3.0625 C0.130625 2.711875 -0.42625 2.36125 -1 2 C-0.67 1.34 -0.34 0.68 0 0 Z " fill="#4A4A4A" transform="translate(236,176)"/>
<path d="M0 0 C1.65 0.33 3.3 0.66 5 1 C4.01 2.32 3.02 3.64 2 5 C0.68 4.67 -0.64 4.34 -2 4 C-1.34 2.68 -0.68 1.36 0 0 Z " fill="#4A4A4A" transform="translate(266,427)"/>
<path d="M0 0 C2.375 0.25 2.375 0.25 5 1 C6.3125 3.0625 6.3125 3.0625 7 5 C4.69 4.34 2.38 3.68 0 3 C0 2.01 0 1.02 0 0 Z " fill="#5C5C5C" transform="translate(361,295)"/>
<path d="M0 0 C-0.66 1.32 -1.32 2.64 -2 4 C-3.32 3.67 -4.64 3.34 -6 3 C-6 2.01 -6 1.02 -6 0 C-3.50907189 -1.24546405 -2.58919267 -0.7767578 0 0 Z " fill="#474747" transform="translate(247,364)"/>
<path d="M0 0 C0.66 0.33 1.32 0.66 2 1 C2 1.66 2 2.32 2 3 C2.66 3 3.32 3 4 3 C4.33 2.34 4.66 1.68 5 1 C5.33 1.99 5.66 2.98 6 4 C3.69 4.33 1.38 4.66 -1 5 C-0.67 3.35 -0.34 1.7 0 0 Z " fill="#6A6A6A" transform="translate(276,296)"/>
<path d="M0 0 C0.66 0.33 1.32 0.66 2 1 C2 1.99 2 2.98 2 4 C1.01 4 0.02 4 -1 4 C-0.67 4.99 -0.34 5.98 0 7 C-1.65 6.67 -3.3 6.34 -5 6 C-4.67 5.01 -4.34 4.02 -4 3 C-3.01 3 -2.02 3 -1 3 C-0.67 2.01 -0.34 1.02 0 0 Z " fill="#636363" transform="translate(84,230)"/>
<path d="M0 0 C0.99 0.66 1.98 1.32 3 2 C2.67 3.32 2.34 4.64 2 6 C0.68 5.67 -0.64 5.34 -2 5 C-2 3.68 -2 2.36 -2 1 C-1.34 0.67 -0.68 0.34 0 0 Z " fill="#494949" transform="translate(214,166)"/>
<path d="M0 0 C2.475 0.495 2.475 0.495 5 1 C4.67 2.32 4.34 3.64 4 5 C2.68 4.34 1.36 3.68 0 3 C0 2.01 0 1.02 0 0 Z " fill="#4E4E4E" transform="translate(281,431)"/>
<path d="M0 0 C2.475 0.99 2.475 0.99 5 2 C4.67 2.99 4.34 3.98 4 5 C2.0625 4.6875 2.0625 4.6875 0 4 C-0.33 3.01 -0.66 2.02 -1 1 C-0.67 0.67 -0.34 0.34 0 0 Z " fill="#696969" transform="translate(250,401)"/>
<path d="M0 0 C0.66 0 1.32 0 2 0 C2.33 0.66 2.66 1.32 3 2 C3.99 2.33 4.98 2.66 6 3 C5.34 4.32 4.68 5.64 4 7 C1 5 1 5 0.3125 2.375 C0.209375 1.59125 0.10625 0.8075 0 0 Z " fill="#747474" transform="translate(356,373)"/>
<path d="M0 0 C2.125 0.9375 2.125 0.9375 4 2 C3.67 2.66 3.34 3.32 3 4 C0.4375 4.625 0.4375 4.625 -2 5 C-2 3.68 -2 2.36 -2 1 C-1.34 0.67 -0.68 0.34 0 0 Z " fill="#545454" transform="translate(309,338)"/>
<path d="M0 0 C0.33 0 0.66 0 1 0 C1 1.65 1 3.3 1 5 C1.66 5 2.32 5 3 5 C3 6.32 3 7.64 3 9 C1.0625 8.6875 1.0625 8.6875 -1 8 C-1.33 7.01 -1.66 6.02 -2 5 C-1.34 5 -0.68 5 0 5 C0 3.35 0 1.7 0 0 Z " fill="#6E6E6E" transform="translate(406,325)"/>
<path d="M0 0 C2.125 0.9375 2.125 0.9375 4 2 C4 3.32 4 4.64 4 6 C2.68 5.34 1.36 4.68 0 4 C0 3.34 0 2.68 0 2 C-0.66 1.67 -1.32 1.34 -2 1 C-1.34 0.67 -0.68 0.34 0 0 Z " fill="#575757" transform="translate(271,299)"/>
<path d="M0 0 C1.98 0 3.96 0 6 0 C5.67 1.32 5.34 2.64 5 4 C3.68 4 2.36 4 1 4 C0.67 2.68 0.34 1.36 0 0 Z " fill="#5E5E5E" transform="translate(266,255)"/>
<path d="M0 0 C0 1.65 0 3.3 0 5 C-1.65 5 -3.3 5 -5 5 C-4.625 3.0625 -4.625 3.0625 -4 1 C-2 0 -2 0 0 0 Z " fill="#393939" transform="translate(445,154)"/>
<path d="M0 0 C2.125 0.9375 2.125 0.9375 4 2 C3.01 2.99 2.02 3.98 1 5 C0.01 4.67 -0.98 4.34 -2 4 C-2 3.01 -2 2.02 -2 1 C-1.34 0.67 -0.68 0.34 0 0 Z " fill="#5F5F5F" transform="translate(200,368)"/>
<path d="M0 0 C0.99 0 1.98 0 3 0 C3 1.65 3 3.3 3 5 C1.68 5 0.36 5 -1 5 C-0.67 3.35 -0.34 1.7 0 0 Z " fill="#484848" transform="translate(173,292)"/>
<path d="M0 0 C1.32 0.66 2.64 1.32 4 2 C3.67 2.99 3.34 3.98 3 5 C1.68 4.67 0.36 4.34 -1 4 C-0.67 2.68 -0.34 1.36 0 0 Z " fill="#5F5F5F" transform="translate(418,260)"/>
<path d="M0 0 C1.32 0.33 2.64 0.66 4 1 C3.67 1.99 3.34 2.98 3 4 C0.9375 4.6875 0.9375 4.6875 -1 5 C-1.33 4.01 -1.66 3.02 -2 2 C-1.34 2 -0.68 2 0 2 C0 1.34 0 0.68 0 0 Z " fill="#5C5C5C" transform="translate(428,180)"/>
<path d="M0 0 C2.0625 0.4375 2.0625 0.4375 4 1 C3.67 2.32 3.34 3.64 3 5 C2.01 4.67 1.02 4.34 0 4 C-0.33 3.01 -0.66 2.02 -1 1 C-0.67 0.67 -0.34 0.34 0 0 Z " fill="#565656" transform="translate(174,361)"/>
<path d="M0 0 C1.32 1.65 2.64 3.3 4 5 C3.01 6.485 3.01 6.485 2 8 C1.34 8 0.68 8 0 8 C0 5.36 0 2.72 0 0 Z " fill="#171717" transform="translate(194,412)"/>
<path d="M0 0 C1.65 0 3.3 0 5 0 C5 0.99 5 1.98 5 3 C3.02 3 1.04 3 -1 3 C-0.67 2.01 -0.34 1.02 0 0 Z " fill="#565656" transform="translate(329,334)"/>
<path d="M0 0 C1.32 0 2.64 0 4 0 C3.67 1.65 3.34 3.3 3 5 C2.01 4.67 1.02 4.34 0 4 C0 2.68 0 1.36 0 0 Z " fill="#4F4F4F" transform="translate(49,245)"/>
<path d="M0 0 C2.67927341 4.01891012 2.15601248 6.24161923 2 11 C1.01 11 0.02 11 -1 11 C-1.02688151 9.35425434 -1.04634123 7.70838587 -1.0625 6.0625 C-1.07410156 5.14597656 -1.08570312 4.22945312 -1.09765625 3.28515625 C-1 1 -1 1 0 0 Z " fill="#F5EEE2" transform="translate(1,42)"/>
<path d="M0 0 C2.0625 0.4375 2.0625 0.4375 4 1 C3.67 1.99 3.34 2.98 3 4 C2.01 4.33 1.02 4.66 0 5 C-0.5625 3.0625 -0.5625 3.0625 -1 1 C-0.67 0.67 -0.34 0.34 0 0 Z " fill="#5A5A5A" transform="translate(223,369)"/>
<path d="M0 0 C1.98 0.495 1.98 0.495 4 1 C4 1.99 4 2.98 4 4 C2.35 3.67 0.7 3.34 -1 3 C-0.67 2.01 -0.34 1.02 0 0 Z " fill="#636363" transform="translate(302,322)"/>
<path d="M0 0 C-0.33 1.32 -0.66 2.64 -1 4 C-2.32 3.67 -3.64 3.34 -5 3 C-5 2.34 -5 1.68 -5 1 C-3 0 -3 0 0 0 Z " fill="#5F5F5F" transform="translate(169,282)"/>
<path d="M0 0 C0.99 0 1.98 0 3 0 C2.67 1.32 2.34 2.64 2 4 C0.68 4 -0.64 4 -2 4 C-1.34 2.68 -0.68 1.36 0 0 Z " fill="#636363" transform="translate(203,226)"/>
<path d="M0 0 C-0.66 1.65 -1.32 3.3 -2 5 C-2.99 5 -3.98 5 -5 5 C-5 4.01 -5 3.02 -5 2 C-2 0 -2 0 0 0 Z " fill="#727272" transform="translate(435,174)"/>
<path d="M0 0 C0.99 0.33 1.98 0.66 3 1 C3 1.99 3 2.98 3 4 C1.35 4 -0.3 4 -2 4 C-2 3.01 -2 2.02 -2 1 C-1.34 0.67 -0.68 0.34 0 0 Z " fill="#535353" transform="translate(286,115)"/>
<path d="M0 0 C1.485 0.99 1.485 0.99 3 2 C2.67 3.32 2.34 4.64 2 6 C1.34 6 0.68 6 0 6 C-1 3 -1 3 0 0 Z " fill="#787878" transform="translate(142,306)"/>
<path d="M0 0 C1.32 0 2.64 0 4 0 C3.67 1.32 3.34 2.64 3 4 C2.01 3.67 1.02 3.34 0 3 C0 2.01 0 1.02 0 0 Z " fill="#464646" transform="translate(380,305)"/>
<path d="M0 0 C1.32 0.33 2.64 0.66 4 1 C3.67 1.99 3.34 2.98 3 4 C2.01 3.67 1.02 3.34 0 3 C0 2.01 0 1.02 0 0 Z " fill="#6B6B6B" transform="translate(219,429)"/>
<path d="M0 0 C0.66 0 1.32 0 2 0 C2 1.65 2 3.3 2 5 C1.01 5 0.02 5 -1 5 C-0.67 3.35 -0.34 1.7 0 0 Z " fill="#6E6E6E" transform="translate(336,253)"/>
<path d="M0 0 C1.32 0.33 2.64 0.66 4 1 C3.67 1.99 3.34 2.98 3 4 C2.01 3.67 1.02 3.34 0 3 C0 2.01 0 1.02 0 0 Z " fill="#5C5C5C" transform="translate(169,193)"/>
<path d="M0 0 C0.99 0 1.98 0 3 0 C2.67 1.65 2.34 3.3 2 5 C1.34 4.67 0.68 4.34 0 4 C0 2.68 0 1.36 0 0 Z " fill="#4D4D4D" transform="translate(319,98)"/>
<path d="M0 0 C0.99 0.33 1.98 0.66 3 1 C2.67 1.99 2.34 2.98 2 4 C1.01 4 0.02 4 -1 4 C-0.67 2.68 -0.34 1.36 0 0 Z " fill="#767676" transform="translate(288,203)"/>
<path d="M0 0 C1.98 0.99 1.98 0.99 4 2 C3.67 2.66 3.34 3.32 3 4 C2.01 4 1.02 4 0 4 C0 2.68 0 1.36 0 0 Z " fill="#6B6B6B" transform="translate(380,121)"/>
<path d="M0 0 C0.99 0.33 1.98 0.66 3 1 C3 1.99 3 2.98 3 4 C2.01 4 1.02 4 0 4 C0 2.68 0 1.36 0 0 Z " fill="#5E5E5E" transform="translate(173,225)"/>
<path d="M0 0 C1.32 0 2.64 0 4 0 C3.67 0.99 3.34 1.98 3 3 C2.01 3 1.02 3 0 3 C0 2.01 0 1.02 0 0 Z " fill="#787878" transform="translate(289,160)"/>
<path d="M0 0 C0.99 0 1.98 0 3 0 C2.67 1.32 2.34 2.64 2 4 C1.34 3.67 0.68 3.34 0 3 C0 2.01 0 1.02 0 0 Z " fill="#7B7B7B" transform="translate(204,296)"/>
<path d="M0 0 C1.32 0 2.64 0 4 0 C3.67 0.99 3.34 1.98 3 3 C2.01 2.67 1.02 2.34 0 2 C0 1.34 0 0.68 0 0 Z " fill="#555555" transform="translate(333,275)"/>
<path d="M0 0 C0.99 0 1.98 0 3 0 C3 0.99 3 1.98 3 3 C1.68 2.67 0.36 2.34 -1 2 C-0.67 1.34 -0.34 0.68 0 0 Z " fill="#7B7B7B" transform="translate(239,163)"/>
<path d="M0 0 C0.99 0 1.98 0 3 0 C2.67 1.32 2.34 2.64 2 4 C1.34 2.68 0.68 1.36 0 0 Z " fill="#878787" transform="translate(227,416)"/>
<path d="M0 0 C0.99 0 1.98 0 3 0 C3 0.99 3 1.98 3 3 C2.01 3 1.02 3 0 3 C0 2.01 0 1.02 0 0 Z " fill="#595959" transform="translate(124,261)"/>
<path d="M0 0 C0.99 0.33 1.98 0.66 3 1 C2.67 1.66 2.34 2.32 2 3 C1.01 2.67 0.02 2.34 -1 2 C-0.67 1.34 -0.34 0.68 0 0 Z " fill="#797979" transform="translate(375,304)"/>
<path d="M0 0 C0.99 0.33 1.98 0.66 3 1 C3 1.66 3 2.32 3 3 C2.01 3 1.02 3 0 3 C0 2.01 0 1.02 0 0 Z " fill="#6F6F6F" transform="translate(219,263)"/>
<path d="M0 0 C0.99 0 1.98 0 3 0 C2.67 0.99 2.34 1.98 2 3 C1.34 2.67 0.68 2.34 0 2 C0 1.34 0 0.68 0 0 Z " fill="#7B7B7B" transform="translate(258,341)"/>
<path d="M0 0 C0.66 0.33 1.32 0.66 2 1 C2 1.66 2 2.32 2 3 C1.01 3 0.02 3 -1 3 C-0.67 2.01 -0.34 1.02 0 0 Z " fill="#565656" transform="translate(267,305)"/>
<path d="M0 0 C0.66 0 1.32 0 2 0 C2.33 0.99 2.66 1.98 3 3 C2.01 3 1.02 3 0 3 C0 2.01 0 1.02 0 0 Z " fill="#8A8A8A" transform="translate(141,217)"/>
<path d="M0 0 C0.99 0.33 1.98 0.66 3 1 C2.67 1.66 2.34 2.32 2 3 C1.34 3 0.68 3 0 3 C0 2.01 0 1.02 0 0 Z " fill="#8A8A8A" transform="translate(220,202)"/>
<path d="M0 0 C0.66 0.66 1.32 1.32 2 2 C1.01 2.33 0.02 2.66 -1 3 C-0.67 2.01 -0.34 1.02 0 0 Z " fill="#858585" transform="translate(188,354)"/>
<path d="M0 0 C0.99 0 1.98 0 3 0 C3 0.66 3 1.32 3 2 C2.01 2 1.02 2 0 2 C0 1.34 0 0.68 0 0 Z " fill="#909090" transform="translate(206,301)"/>
<path d="M0 0 C0.66 0 1.32 0 2 0 C2 0.99 2 1.98 2 3 C1.34 3 0.68 3 0 3 C0 2.01 0 1.02 0 0 Z " fill="#717171" transform="translate(441,81)"/>
<path d="M0 0 C0.66 0 1.32 0 2 0 C1.67 0.99 1.34 1.98 1 3 C0.67 2.01 0.34 1.02 0 0 Z " fill="#787878" transform="translate(419,306)"/>
<path d="M0 0 C0.33 0.99 0.66 1.98 1 3 C0.34 3 -0.32 3 -1 3 C-0.67 2.01 -0.34 1.02 0 0 Z " fill="#707070" transform="translate(263,204)"/>
<path d="M0 0 C3 1 3 1 3 1 Z " fill="#F4EEE3" transform="translate(0,60)"/>
<path d="" fill="#F5EEE3" transform="translate(0,0)"/>
<path d="" fill="#F3ECE2" transform="translate(0,0)"/>
<path d="" fill="#F3EDE3" transform="translate(0,0)"/>
<path d="" fill="#F4EEE3" transform="translate(0,0)"/>
<path d="" fill="#F2EBE1" transform="translate(0,0)"/>
<path d="" fill="#F2ECE1" transform="translate(0,0)"/>
<path d="" fill="#F3ECE2" transform="translate(0,0)"/>
<path d="" fill="#F6EFE4" transform="translate(0,0)"/>
<path d="M0 0 C2 1 2 1 2 1 Z " fill="#F3ECE1" transform="translate(0,35)"/>
<path d="" fill="#F3EEE3" transform="translate(0,0)"/>
<path d="" fill="#F2EDE4" transform="translate(0,0)"/>
<path d="" fill="#F1EBE3" transform="translate(0,0)"/>
<path d="" fill="#F2EDE3" transform="translate(0,0)"/>
<path d="" fill="#F2EDE3" transform="translate(0,0)"/>
<path d="" fill="#F4EEE4" transform="translate(0,0)"/>
<path d="" fill="#F4F0E4" transform="translate(0,0)"/>
<path d="" fill="#F3EDE3" transform="translate(0,0)"/>
<path d="" fill="#F3EDE3" transform="translate(0,0)"/>
<path d="" fill="#F5EEE3" transform="translate(0,0)"/>
<path d="" fill="#F3EDE4" transform="translate(0,0)"/>
<path d="" fill="#F3EDE3" transform="translate(0,0)"/>
<path d="" fill="#F3EDE4" transform="translate(0,0)"/>
<path d="" fill="#F3EDE4" transform="translate(0,0)"/>
<path d="" fill="#F2EBE3" transform="translate(0,0)"/>
<path d="" fill="#F3ECE4" transform="translate(0,0)"/>
<path d="" fill="#F7F0E4" transform="translate(0,0)"/>
<path d="" fill="#F3EDE2" transform="translate(0,0)"/>
<path d="" fill="#F3EEE4" transform="translate(0,0)"/>
<path d="" fill="#F4EEE4" transform="translate(0,0)"/>
<path d="" fill="#F6EFE3" transform="translate(0,0)"/>
<path d="" fill="#F4EEE4" transform="translate(0,0)"/>
<path d="" fill="#F2EDE4" transform="translate(0,0)"/>
<path d="" fill="#F4EDE2" transform="translate(0,0)"/>
<path d="" fill="#F3EDE3" transform="translate(0,0)"/>
<path d="" fill="#F4EFE4" transform="translate(0,0)"/>
<path d="" fill="#F2EBE4" transform="translate(0,0)"/>
<path d="" fill="#F5EFE4" transform="translate(0,0)"/>
<path d="" fill="#F2EDE4" transform="translate(0,0)"/>
<path d="" fill="#F4EEE3" transform="translate(0,0)"/>
<path d="" fill="#F3EDE3" transform="translate(0,0)"/>
<path d="" fill="#F3EDE3" transform="translate(0,0)"/>
<path d="" fill="#F1EBE3" transform="translate(0,0)"/>
<path d="" fill="#F3EFE3" transform="translate(0,0)"/>
<path d="" fill="#F4EEE3" transform="translate(0,0)"/>
<path d="" fill="#F4EFE4" transform="translate(0,0)"/>
<path d="" fill="#F1ECE4" transform="translate(0,0)"/>
<path d="" fill="#F1EDE3" transform="translate(0,0)"/>
<path d="" fill="#F1ECE4" transform="translate(0,0)"/>
</svg>
